<svg width="1600" height="132" viewBox="0 0 1600 132" fill="none" xmlns="http://www.w3.org/2000/svg">
<mask id="mask0_3899_3087" style="mask-type:alpha" maskUnits="userSpaceOnUse" x="0" y="0" width="1600" height="132">
<path d="M0 0H1600V132H0V0Z" fill="#FFF9EE"/>
<path d="M0.5 0.5H1599.5V131.5H0.5V0.5Z" stroke="#EAC2B2" stroke-opacity="0.05"/>
</mask>
<g mask="url(#mask0_3899_3087)">
<path d="M489.115 59.8418C537.209 78.2718 571.543 126.715 571.543 183.577C571.543 187.689 571.364 191.759 571.013 195.776" stroke="white" stroke-opacity="0.2" stroke-width="2" stroke-miterlimit="10"/>
<path d="M570.801 194.311C568.25 144.03 528.599 104.084 480.061 104.084C476.671 104.084 473.324 104.279 470.033 104.66" stroke="white" stroke-opacity="0.2" stroke-width="2" stroke-miterlimit="10"/>
<path d="M470.039 104.656C479.191 54.8245 520.819 17.1562 570.968 17.1562C621.106 17.1562 663.314 54.8338 672.473 104.656" stroke="white" stroke-opacity="0.2" stroke-width="2" stroke-miterlimit="10"/>
<path d="M672.473 104.662C669.18 104.281 665.835 104.086 662.446 104.086C613.907 104.086 574.256 144.032 571.706 194.313" stroke="white" stroke-opacity="0.2" stroke-width="2" stroke-miterlimit="10"/>
<path d="M653.402 59.8418C605.309 78.2718 570.975 126.715 570.975 183.577C570.975 187.689 571.155 191.759 571.505 195.776" stroke="white" stroke-opacity="0.2" stroke-width="2" stroke-miterlimit="10"/>
<path d="M-16.0001 -47.8399L190.598 169.053" stroke="white" stroke-opacity="0.2" stroke-width="2" stroke-miterlimit="10"/>
<path d="M190.645 94.4355C144.965 94.4355 107.934 133.304 107.934 181.251" stroke="white" stroke-opacity="0.2" stroke-width="2" stroke-miterlimit="10"/>
<path d="M1553.68 -69.0586L1326.69 169.245" stroke="white" stroke-opacity="0.2" stroke-width="2" stroke-miterlimit="10"/>
<path d="M1608.27 104.757C1573.83 104.757 1545.91 75.4511 1545.91 39.2998C1545.91 38.3454 1545.93 37.3973 1545.96 36.4512" stroke="white" stroke-opacity="0.2" stroke-width="2" stroke-miterlimit="10"/>
<path d="M1590.32 -9.11523L1326.69 267.591" stroke="white" stroke-opacity="0.2" stroke-width="2" stroke-miterlimit="10"/>
<path d="M1626.98 60.3438C1604.26 57.6536 1586.61 37.4192 1586.61 12.8535C1586.61 4.93231 1588.45 -2.53717 1591.7 -9.11524" stroke="white" stroke-opacity="0.2" stroke-width="2" stroke-miterlimit="10"/>
<path d="M1545.64 38.1301C1499.12 38.1301 1461.41 -1.44994 1461.41 -50.273C1461.41 -56.8042 1462.09 -63.1699 1463.37 -69.2988" stroke="white" stroke-opacity="0.2" stroke-width="2" stroke-miterlimit="10"/>
<path d="M1608.93 104.701C1606.63 126.079 1589.35 142.696 1568.37 142.696C1564.75 142.696 1561.24 142.2 1557.89 141.27" stroke="white" stroke-opacity="0.2" stroke-width="2" stroke-miterlimit="10"/>
<path d="M1326.64 94.6172C1372.33 94.6172 1409.36 133.486 1409.36 181.434" stroke="white" stroke-opacity="0.2" stroke-width="2" stroke-miterlimit="10"/>
<path d="M1102.29 -69.0586L1329.28 169.245" stroke="white" stroke-opacity="0.2" stroke-width="2" stroke-miterlimit="10"/>
<path d="M1065.66 -9.11526L1329.28 267.591" stroke="white" stroke-opacity="0.2" stroke-width="2" stroke-miterlimit="10"/>
<path d="M1329.32 94.6172C1283.65 94.6172 1246.61 133.486 1246.61 181.434" stroke="white" stroke-opacity="0.2" stroke-width="2" stroke-miterlimit="10"/>
<path d="M1179.15 -69.0586L952.16 169.245" stroke="white" stroke-opacity="0.2" stroke-width="2" stroke-miterlimit="10"/>
<path d="M1215.79 -9.11328L952.166 267.593" stroke="white" stroke-opacity="0.2" stroke-width="2" stroke-miterlimit="10"/>
<path d="M77.1055 -9.11328L-15.9964 88.6083" stroke="white" stroke-opacity="0.2" stroke-width="2" stroke-miterlimit="10"/>
<path d="M952.114 94.6152C997.793 94.6152 1034.82 133.484 1034.82 181.432" stroke="white" stroke-opacity="0.2" stroke-width="2" stroke-miterlimit="10"/>
<path d="M728.154 -69.0586L955.145 169.245" stroke="white" stroke-opacity="0.2" stroke-width="2" stroke-miterlimit="10"/>
<path d="M673.561 104.755C708.006 104.755 735.926 75.4492 735.926 39.2978C735.926 38.3435 735.905 37.3953 735.87 36.4492" stroke="white" stroke-opacity="0.2" stroke-width="2" stroke-miterlimit="10"/>
<path d="M691.523 -9.11721L955.145 267.589" stroke="white" stroke-opacity="0.2" stroke-width="2" stroke-miterlimit="10"/>
<path d="M654.85 60.3457C677.567 57.6556 695.223 37.4212 695.223 12.8554C695.223 4.93426 693.388 -2.53521 690.137 -9.11328" stroke="white" stroke-opacity="0.2" stroke-width="2" stroke-miterlimit="10"/>
<path d="M736.203 38.1301C782.719 38.1301 820.426 -1.44993 820.426 -50.2729C820.426 -56.8042 819.752 -63.1699 818.472 -69.2988" stroke="white" stroke-opacity="0.2" stroke-width="2" stroke-miterlimit="10"/>
<path d="M531.936 -27.0762C531.936 -3.3705 550.245 15.8467 572.829 15.8467C595.413 15.8467 613.723 -3.37049 613.723 -27.0762" stroke="white" stroke-opacity="0.2" stroke-width="2" stroke-miterlimit="10"/>
<path d="M672.908 104.701C675.202 126.079 692.486 142.696 713.468 142.696C717.088 142.696 720.6 142.2 723.941 141.27" stroke="white" stroke-opacity="0.2" stroke-width="2" stroke-miterlimit="10"/>
<path d="M955.184 94.6172C909.507 94.6172 872.474 133.486 872.474 181.434" stroke="white" stroke-opacity="0.2" stroke-width="2" stroke-miterlimit="10"/>
<path d="M414.809 -69.0605L187.815 169.243" stroke="white" stroke-opacity="0.2" stroke-width="2" stroke-miterlimit="10"/>
<path d="M469.387 104.759C434.943 104.759 407.023 75.4531 407.023 39.3017C407.023 38.3474 407.04 37.3992 407.081 36.4531" stroke="white" stroke-opacity="0.2" stroke-width="2" stroke-miterlimit="10"/>
<path d="M451.426 -9.11523L187.805 267.591" stroke="white" stroke-opacity="0.2" stroke-width="2" stroke-miterlimit="10"/>
<path d="M488.098 60.3438C465.381 57.6536 447.726 37.4192 447.726 12.8535C447.726 4.93231 449.562 -2.53717 452.811 -9.11524" stroke="white" stroke-opacity="0.2" stroke-width="2" stroke-miterlimit="10"/>
<path d="M406.746 38.1301C360.231 38.1301 322.522 -1.44994 322.522 -50.273C322.522 -56.8042 323.199 -63.1699 324.477 -69.2988" stroke="white" stroke-opacity="0.2" stroke-width="2" stroke-miterlimit="10"/>
<path d="M470.051 104.701C467.754 126.079 450.472 142.696 429.491 142.696C425.87 142.696 422.358 142.2 419.016 141.27" stroke="white" stroke-opacity="0.2" stroke-width="2" stroke-miterlimit="10"/>
<path d="M187.769 94.6172C233.447 94.6172 270.48 133.486 270.48 181.434" stroke="white" stroke-opacity="0.2" stroke-width="2" stroke-miterlimit="10"/>
<path d="M-16.0001 50.5527L190.598 267.404" stroke="white" stroke-opacity="0.2" stroke-width="2" stroke-miterlimit="10"/>
</g>
</svg>
