<svg width="335" height="313" viewBox="0 0 335 313" fill="none" xmlns="http://www.w3.org/2000/svg">
<mask id="mask0_5732_100303" style="mask-type:alpha" maskUnits="userSpaceOnUse" x="0" y="0" width="335" height="313">
<path d="M0 0H335V277C335 296.882 318.882 313 299 313H36C16.1178 313 0 296.882 0 277V0Z" fill="#D9D9D9"/>
<path d="M0.75 0.75H334.25V277C334.25 296.468 318.468 312.25 299 312.25H36C16.532 312.25 0.75 296.468 0.75 277V0.75Z" stroke="#EAC2B2" stroke-opacity="0.05" stroke-width="1.5"/>
</mask>
<g mask="url(#mask0_5732_100303)">
<path d="M347.66 361.476C397.663 337.199 432.145 285.813 432.145 226.346C432.145 143.487 365.188 76.313 282.59 76.313" stroke="white" stroke-opacity="0.2" stroke-miterlimit="10"/>
<path d="M347.66 -208.951C397.663 -184.673 432.145 -133.288 432.145 -73.8228C432.145 9.03936 365.188 76.212 282.59 76.212" stroke="white" stroke-opacity="0.2" stroke-miterlimit="10"/>
<path d="M282.59 76.2129L262.801 76.2129" stroke="white" stroke-opacity="0.2" stroke-miterlimit="10"/>
<path d="M40.7636 76.2105L63.0508 76.561" stroke="white" stroke-opacity="0.2" stroke-miterlimit="10"/>
<path d="M-23.2302 -209.257L161.879 -22.9357L63.5238 76.3125L161.879 175.458L-23.2302 361.779" stroke="white" stroke-opacity="0.2" stroke-miterlimit="10"/>
<path d="M-24.3055 361.476C-74.3029 337.199 -108.785 285.813 -108.785 226.346C-108.785 143.487 -41.829 76.313 40.7656 76.313" stroke="white" stroke-opacity="0.2" stroke-miterlimit="10"/>
<path d="M-24.3055 -208.952C-74.3029 -184.674 -108.785 -133.289 -108.785 -73.8238C-108.785 9.0384 -41.829 76.2111 40.7656 76.211" stroke="white" stroke-opacity="0.2" stroke-miterlimit="10"/>
<path d="M347.926 -209.257L162.816 -22.9357L261.169 76.3125L162.816 175.458L347.926 361.779" stroke="white" stroke-opacity="0.2" stroke-miterlimit="10"/>
</g>
</svg>
