<svg  viewBox="0 0 45 45" fill="none" xmlns="http://www.w3.org/2000/svg">
<rect x="1" y="1" width="43" height="43" stroke="#29354D" stroke-width="2"/>
<path fill-rule="evenodd" clip-rule="evenodd" d="M20.8216 19.9758C22.2755 18.3045 22.3129 12.878 22.177 12.502C15.2146 12.8602 12.3192 19.2742 12.6096 22.3061L14.6521 22.2484C18.7164 21.996 19.7634 21.1924 20.8216 19.9758ZM22.8196 12.5066C22.6837 12.8827 22.7212 18.3091 24.175 19.9805C25.2332 21.1971 26.2802 22.0006 30.3446 22.2531L32.387 22.3107C32.6774 19.2788 29.7821 12.8649 22.8196 12.5066ZM22.8167 32.4973C22.6808 32.1212 22.7182 26.6947 24.172 25.0234C25.2303 23.8068 26.2773 23.0033 30.3416 22.7508L32.3841 22.6931C32.6744 25.725 29.7791 32.139 22.8167 32.4973ZM22.1799 32.4926C22.3159 32.1165 22.2784 26.69 20.8246 25.0187C19.7664 23.8021 18.7193 22.9986 14.655 22.7461L12.6125 22.6884C12.3222 25.7203 15.2175 32.1343 22.1799 32.4926Z" fill="#29354D"/>
</svg>
