<svg viewBox="0 0 24 24" xmlns="http://www.w3.org/2000/svg">
  <defs>
    <style><![CDATA[
      .sprite { display: none; }
      .sprite:target { display: inline; }
    ]]></style>
  </defs>
  <g class="sprite" id="filter" fill="none">
    <path
      d="M21 15H14M4 15H1M21 4H18M8 4H1M6 12H12C13.1 12 14 12.5 14 14V16C14 17.5 13.1 18 12 18H6C4.9 18 4 17.5 4 16V14C4 12.5 4.9 12 6 12ZM10 1H16C17.1 1 18 1.5 18 3V5C18 6.5 17.1 7 16 7H10C8.9 7 8 6.5 8 5V3C8 1.5 8.9 1 10 1Z"
      stroke="#29354D" stroke-width="1.5" stroke-miterlimit="10" stroke-linecap="round"
      stroke-linejoin="round" />
  </g>

  <g id="search" class="sprite">
    <path
      d="M22.7 24.7998C22.7406 24.9316 22.8145 25.0507 22.9147 25.1455C23.0149 25.2403 23.1379 25.3076 23.2718 25.3408C23.4057 25.3741 23.5459 25.3721 23.6788 25.3352C23.8117 25.2982 23.9327 25.2276 24.0303 25.1301C24.1278 25.0325 24.1984 24.9115 24.2354 24.7786C24.2723 24.6457 24.2743 24.5055 24.241 24.3716C24.2078 24.2378 24.1405 24.1148 24.0457 24.0146C23.9509 23.9144 23.8318 23.8404 23.7 23.7998L22.7 24.7998ZM2 14.9998C1.5 12.7998 1.5 10.5998 2 8.49982L0.5 8.09982C0 10.4998 0 12.8998 0.5 15.2998L2 14.9998ZM19.9 8.49982C20.4 10.5998 20.4 12.7998 19.9 14.9998L21.3 15.2998C21.9 12.8998 21.9 10.4998 21.3 8.09982L19.9 8.49982ZM14.2 20.6998C12 21.1998 9.80001 21.1998 7.70001 20.6998L7.29999 22.0998C9.69999 22.6998 12.1 22.6998 14.5 22.0998L14.2 20.6998ZM7.70001 2.69983C9.80001 2.29983 12 2.29983 14.2 2.69983L14.5 1.2998C12.1 0.799805 9.69999 0.799805 7.29999 1.2998L7.70001 2.7998V2.69983ZM7.70001 20.6998C6.31099 20.3799 5.03995 19.6757 4.03204 18.6678C3.02413 17.6599 2.31997 16.3888 2 14.9998L0.5 15.2998C0.895926 16.9502 1.74068 18.4589 2.9408 19.659C4.14091 20.8591 5.6496 21.7039 7.29999 22.0998L7.70001 20.6998ZM14.5 22.0998C16.1554 21.7145 17.6698 20.8732 18.8716 19.6714C20.0735 18.4696 20.9147 16.9552 21.3 15.2998L19.9 14.9998C19.5801 16.3888 18.8759 17.6599 17.868 18.6678C16.8601 19.6757 15.589 20.3799 14.2 20.6998L14.5 22.0998ZM14.2 2.7998C15.584 3.13045 16.8493 3.83815 17.8555 4.84433C18.8616 5.85051 19.5694 7.11582 19.9 8.49982L21.3 8.09982C20.9041 6.44943 20.0593 4.94072 18.8592 3.7406C17.6591 2.54049 16.1504 1.69573 14.5 1.2998L14.2 2.7998ZM7.29999 1.2998C5.6496 1.69573 4.14091 2.54049 2.9408 3.7406C1.74068 4.94072 0.895926 6.44943 0.5 8.09982L2 8.49982C2.33065 7.11582 3.03832 5.85051 4.04449 4.84433C5.05067 3.83815 6.31601 3.13045 7.70001 2.7998L7.29999 1.2998ZM18.3 20.0998L22.8 24.6998L23.8 23.6998L19.3 18.9998L18.3 20.0998Z"
      fill="#29354D" />
  </g>

  <g id="arrow-right" class="sprite" fill="none">
    <path
      d="M0.800025 4.7999C0.700076 4.78546 0.598214 4.79285 0.50138 4.8215C0.404546 4.85016 0.315049 4.89941 0.239051 4.96591C0.163052 5.03241 0.102328 5.11458 0.0610721 5.20676C0.0198159 5.29893 -0.000999644 5.39893 3.68944e-05 5.49991C3.68944e-05 5.71208 0.0843218 5.91555 0.234351 6.06558C0.38438 6.21561 0.587852 6.2999 0.800025 6.2999V4.7999ZM27.3 5.99991C27.4136 5.85802 27.4756 5.68167 27.4756 5.49991C27.4756 5.31814 27.4136 5.1418 27.3 4.99991L22.5 0.199921C22.3581 0.0863179 22.1818 0.0244141 22 0.0244141C21.8183 0.0244141 21.6419 0.0863179 21.5 0.199921C21.4335 0.265096 21.3807 0.342886 21.3446 0.428741C21.3085 0.514597 21.29 0.606793 21.29 0.699921C21.29 0.793048 21.3085 0.885214 21.3446 0.971069C21.3807 1.05693 21.4335 1.13474 21.5 1.19992L25.7 5.49991L21.4001 9.69992C21.3063 9.85313 21.2667 10.0334 21.2879 10.2118C21.309 10.3902 21.3896 10.5563 21.5166 10.6833C21.6437 10.8103 21.8097 10.8909 21.9881 10.912C22.1665 10.9332 22.3468 10.8937 22.5 10.7999L27.3 5.99991ZM0.800025 6.2999H26.8V4.7999H0.800025V6.2999Z"
      fill="none" />
  </g>


  <symbol id="popup" fill="none">
    <path d="M1 1L7 7L13 1" stroke="#29354D" stroke-width="1.5" />
  </symbol>

  <symbol id="home" fill="none" viewBox="0 0 22 22">
    <path
      d="M9.00008 17.0004H13.0001M15.2001 21.0004H6.80007C6.2582 21.0276 5.71647 20.9441 5.20785 20.7553C4.69922 20.5665 4.23433 20.2761 3.84145 19.902C3.44857 19.5278 3.13591 19.0776 2.92251 18.5788C2.7091 18.08 2.59941 17.543 2.60009 17.0004V12.1004C2.60009 11.4004 2.30007 10.7004 1.80007 10.2004C1.52345 9.93507 1.30893 9.61183 1.17187 9.25385C1.0348 8.89586 0.978615 8.51195 1.00728 8.1297C1.03595 7.74745 1.14877 7.37626 1.3377 7.04272C1.52662 6.70919 1.78698 6.42158 2.10009 6.20044L8.50008 1.80042C9.22949 1.27919 10.1036 0.999023 11.0001 0.999023C11.8966 0.999023 12.7707 1.27919 13.5001 1.80042L19.8001 6.20044C20.1201 6.41354 20.3889 6.69493 20.5871 7.02441C20.7852 7.35389 20.9079 7.72326 20.9461 8.10583C20.9844 8.48841 20.9373 8.87468 20.8083 9.23688C20.6793 9.59907 20.4716 9.92819 20.2001 10.2004C19.7001 10.7004 19.4001 11.4004 19.4001 12.2004V17.0004C19.4008 17.543 19.2911 18.08 19.0777 18.5788C18.8642 19.0776 18.5516 19.5278 18.1587 19.902C17.7658 20.2761 17.3009 20.5665 16.7923 20.7553C16.2837 20.9441 15.742 21.0276 15.2001 21.0004Z"
      stroke="#29354D" stroke-width="1.5" stroke-linecap="round" />
  </symbol>


</svg>