<svg width="24" height="25" viewBox="0 0 24 25" fill="none" xmlns="http://www.w3.org/2000/svg">
<path d="M11.9978 14.5H12.9978C14.0978 14.5 14.9978 13.6 14.9978 12.5V2.5H5.9978C4.4978 2.5 3.18781 3.32999 2.50781 4.54999" stroke="#29354D" stroke-width="1.5" stroke-linecap="round" stroke-linejoin="round"/>
<path d="M2 17.5C2 19.16 3.34 20.5 5 20.5H6C6 19.4 6.9 18.5 8 18.5C9.1 18.5 10 19.4 10 20.5H14C14 19.4 14.9 18.5 16 18.5C17.1 18.5 18 19.4 18 20.5H19C20.66 20.5 22 19.16 22 17.5V14.5H19C18.45 14.5 18 14.05 18 13.5V10.5C18 9.95 18.45 9.5 19 9.5H20.29L18.58 6.51001C18.22 5.89001 17.56 5.5 16.84 5.5H15V12.5C15 13.6 14.1 14.5 13 14.5H12" stroke="#29354D" stroke-width="1.5" stroke-linecap="round" stroke-linejoin="round"/>
<path d="M8 22.5C9.10457 22.5 10 21.6046 10 20.5C10 19.3954 9.10457 18.5 8 18.5C6.89543 18.5 6 19.3954 6 20.5C6 21.6046 6.89543 22.5 8 22.5Z" stroke="#29354D" stroke-width="1.5" stroke-linecap="round" stroke-linejoin="round"/>
<path d="M16 22.5C17.1046 22.5 18 21.6046 18 20.5C18 19.3954 17.1046 18.5 16 18.5C14.8954 18.5 14 19.3954 14 20.5C14 21.6046 14.8954 22.5 16 22.5Z" stroke="#29354D" stroke-width="1.5" stroke-linecap="round" stroke-linejoin="round"/>
<path d="M22 12.5V14.5H19C18.45 14.5 18 14.05 18 13.5V10.5C18 9.95 18.45 9.5 19 9.5H20.29L22 12.5Z" stroke="#29354D" stroke-width="1.5" stroke-linecap="round" stroke-linejoin="round"/>
<path d="M2 8.5H8" stroke="#29354D" stroke-width="1.5" stroke-linecap="round" stroke-linejoin="round"/>
<path d="M2 11.5H6" stroke="#29354D" stroke-width="1.5" stroke-linecap="round" stroke-linejoin="round"/>
<path d="M2 14.5H4" stroke="#29354D" stroke-width="1.5" stroke-linecap="round" stroke-linejoin="round"/>
</svg>
