<svg width="335" height="721" viewBox="0 0 335 721" fill="none" xmlns="http://www.w3.org/2000/svg">
<mask id="mask0_5732_27378" style="mask-type:alpha" maskUnits="userSpaceOnUse" x="0" y="0" width="335" height="721">
<path d="M36 721C16.1178 721 -7.05414e-07 704.882 -1.57559e-06 685L-3.15555e-05 0L335 -1.46249e-05L335 685C335 704.882 318.882 721 299 721L36 721Z" fill="#D9D9D9"/>
</mask>
<g mask="url(#mask0_5732_27378)">
<path d="M163.879 92.4155L163.931 105.415" stroke="#EAC2B2" stroke-opacity="0.05" stroke-miterlimit="10"/>
<path d="M19.3555 61.5308L113.635 157.75L163.856 104.731L214.024 155.854L308.304 56.073" stroke="#EAC2B2" stroke-opacity="0.05" stroke-miterlimit="10"/>
<path d="M353.939 91.0136C348.822 70.3947 331.057 55.4458 309.927 55.8449C309.263 55.8575 308.604 55.8858 307.947 55.9277" stroke="#EAC2B2" stroke-opacity="0.05" stroke-miterlimit="10"/>
<path d="M487.379 -50.1231L293.414 155.541" stroke="#EAC2B2" stroke-opacity="0.05" stroke-miterlimit="10"/>
<path d="M344.73 15.5938C342.102 14.8434 339.323 14.4675 336.45 14.5218C320.04 14.8317 306.736 29.0618 306.736 46.3074C306.736 50.0936 307.377 53.7117 308.552 57.0487" stroke="#EAC2B2" stroke-opacity="0.05" stroke-miterlimit="10"/>
<path d="M307.591 56.0926C295.334 29.9137 269.39 12.1872 239.366 12.7543C197.532 13.5445 163.617 49.5555 163.617 93.1851" stroke="#EAC2B2" stroke-opacity="0.05" stroke-miterlimit="10"/>
<path d="M-26.4297 98.3765C-21.3137 77.5642 -3.54732 61.9443 17.5836 61.5451C18.2469 61.5326 18.9068 61.536 19.5621 61.5532" stroke="#EAC2B2" stroke-opacity="0.05" stroke-miterlimit="10"/>
<path d="M-159.992 -38.4927L33.9732 159.844" stroke="#EAC2B2" stroke-opacity="0.05" stroke-miterlimit="10"/>
<path d="M-18.207 22.6967C-15.5776 21.8469 -12.8007 21.3661 -9.92712 21.3119C6.48359 21.0019 19.7862 34.7294 19.7862 51.975C19.7862 55.7613 19.1453 59.4035 17.9704 62.7849" stroke="#EAC2B2" stroke-opacity="0.05" stroke-miterlimit="10"/>
<path d="M19.0508 61.2144C31.3086 34.5724 57.2518 15.8659 87.2749 15.2988C129.111 14.5086 163.025 49.2384 163.025 92.868" stroke="#EAC2B2" stroke-opacity="0.05" stroke-miterlimit="10"/>
<path d="M354.097 216.46C348.98 237.272 331.215 252.893 310.086 253.292C309.422 253.304 308.762 253.301 308.105 253.284" stroke="#EAC2B2" stroke-opacity="0.05" stroke-miterlimit="10"/>
<path d="M487.129 351.598L293.164 153.261" stroke="#EAC2B2" stroke-opacity="0.05" stroke-miterlimit="10"/>
<path d="M308.054 252.23C295.797 278.871 269.853 297.578 239.829 298.145C197.995 298.935 164.08 264.206 164.08 220.576" stroke="#EAC2B2" stroke-opacity="0.05" stroke-miterlimit="10"/>
<path d="M-26.8105 222.98C-21.6946 243.598 -3.92818 258.548 17.2028 258.149C17.8661 258.136 18.5259 258.108 19.1812 258.066" stroke="#EAC2B2" stroke-opacity="0.05" stroke-miterlimit="10"/>
<path d="M-159.701 364.07L34.2642 158.406" stroke="#EAC2B2" stroke-opacity="0.05" stroke-miterlimit="10"/>
<path d="M20.0547 258.193C32.3125 284.372 58.2557 302.098 88.2788 301.531C130.115 300.741 164.029 264.731 164.029 221.1" stroke="#EAC2B2" stroke-opacity="0.05" stroke-miterlimit="10"/>
<path d="M163.432 221.3L163.432 210.3" stroke="#EAC2B2" stroke-opacity="0.05" stroke-miterlimit="10"/>
<path d="M354.06 378.396C348.943 357.776 331.178 342.829 310.049 343.228C309.385 343.24 308.725 343.269 308.068 343.311" stroke="#EAC2B2" stroke-opacity="0.05" stroke-miterlimit="10"/>
<path d="M487.503 237.262L293.537 442.925" stroke="#EAC2B2" stroke-opacity="0.05" stroke-miterlimit="10"/>
<path d="M307.713 343.476C295.456 317.294 269.511 299.57 239.488 300.137C197.653 300.927 163.738 336.937 163.738 380.568" stroke="#EAC2B2" stroke-opacity="0.05" stroke-miterlimit="10"/>
<path d="M-26.8477 384.917C-21.7317 364.103 -3.96529 348.485 17.1657 348.086C17.829 348.074 18.4888 348.077 19.1441 348.094" stroke="#EAC2B2" stroke-opacity="0.05" stroke-miterlimit="10"/>
<path d="M-159.869 248.89L34.0963 447.226" stroke="#EAC2B2" stroke-opacity="0.05" stroke-miterlimit="10"/>
<path d="M20.0156 348.059C32.2734 321.414 58.2167 302.71 88.2398 302.143C130.076 301.352 163.99 336.081 163.99 379.712" stroke="#EAC2B2" stroke-opacity="0.05" stroke-miterlimit="10"/>
<path d="M164.002 379.798L164.002 389.798" stroke="#EAC2B2" stroke-opacity="0.05" stroke-miterlimit="10"/>
<path d="M163.922 507.697L163.922 492.697" stroke="#EAC2B2" stroke-opacity="0.05" stroke-miterlimit="10"/>
<path d="M19.1152 544.55L113.395 444.77L163.616 495.892L213.784 442.873L308.064 539.093" stroke="#EAC2B2" stroke-opacity="0.05" stroke-miterlimit="10"/>
<path d="M354.523 502.463C349.406 523.277 331.641 538.895 310.511 539.294C309.847 539.307 309.188 539.303 308.531 539.287" stroke="#EAC2B2" stroke-opacity="0.05" stroke-miterlimit="10"/>
<path d="M488.094 638.441L294.129 440.105" stroke="#EAC2B2" stroke-opacity="0.05" stroke-miterlimit="10"/>
<path d="M344.798 577.75C342.171 578.6 339.392 579.081 336.518 579.136C320.108 579.445 306.805 565.719 306.805 548.472C306.805 544.685 307.446 541.044 308.621 537.662" stroke="#EAC2B2" stroke-opacity="0.05" stroke-miterlimit="10"/>
<path d="M307.636 538.771C295.379 565.413 269.435 584.119 239.411 584.686C197.577 585.476 163.662 550.747 163.662 507.117" stroke="#EAC2B2" stroke-opacity="0.05" stroke-miterlimit="10"/>
<path d="M-27.2266 509.521C-22.1106 530.142 -4.34419 545.089 16.7868 544.69C17.4501 544.677 18.1099 544.649 18.7652 544.608" stroke="#EAC2B2" stroke-opacity="0.05" stroke-miterlimit="10"/>
<path d="M-160.117 650.611L33.8482 444.947" stroke="#EAC2B2" stroke-opacity="0.05" stroke-miterlimit="10"/>
<path d="M-18.1387 584.853C-15.5092 585.603 -12.7324 585.979 -9.85876 585.925C6.55195 585.615 19.8545 571.386 19.8545 554.139C19.8545 550.352 19.2137 546.735 18.0387 543.398" stroke="#EAC2B2" stroke-opacity="0.05" stroke-miterlimit="10"/>
<path d="M19.6367 544.735C31.8945 570.914 57.8378 588.639 87.8609 588.072C129.697 587.282 163.611 551.272 163.611 507.641" stroke="#EAC2B2" stroke-opacity="0.05" stroke-miterlimit="10"/>
<path d="M19.5332 258.009L113.813 158.228L164.034 209.349L214.202 156.332L308.482 252.552" stroke="#EAC2B2" stroke-opacity="0.05" stroke-miterlimit="10"/>
<path d="M18.9375 348.072L113.217 444.291L163.438 391.273L213.606 442.395L307.886 342.614" stroke="#EAC2B2" stroke-opacity="0.05" stroke-miterlimit="10"/>
</g>
</svg>
