<svg width="45" height="45" viewBox="0 0 45 45" fill="none" xmlns="http://www.w3.org/2000/svg">
<rect x="1" y="1" width="43" height="43" stroke="#FFF9EE" stroke-width="2"/>
<path fill-rule="evenodd" clip-rule="evenodd" d="M20.8236 19.9763C22.2774 18.3049 22.3149 12.8785 22.1789 12.5024C15.2165 12.8607 12.3212 19.2747 12.6116 22.3066L14.654 22.2489C18.7183 21.9964 19.7654 21.1929 20.8236 19.9763ZM22.8216 12.5071C22.6856 12.8831 22.7231 18.3096 24.1769 19.981C25.2351 21.1975 26.2822 22.0011 30.3465 22.2536L32.389 22.3112C32.6793 19.2793 29.784 12.8654 22.8216 12.5071ZM22.8187 32.4977C22.6827 32.1217 22.7202 26.6952 24.174 25.0239C25.2322 23.8073 26.2793 23.0037 30.3436 22.7513L32.386 22.6936C32.6764 25.7255 29.7811 32.1395 22.8187 32.4977ZM22.1819 32.493C22.3178 32.117 22.2803 26.6905 20.8265 25.0192C19.7683 23.8026 18.7213 22.999 14.6569 22.7466L12.6145 22.6889C12.3241 25.7208 15.2194 32.1348 22.1819 32.493Z" fill="#FFF9EE"/>
</svg>
