<svg viewBox="0 0 45 45" fill="none" xmlns="http://www.w3.org/2000/svg">
  <path
    d="M30.3156 28.0614H28.9836V27.2622C28.9836 26.836 29.1967 26.6228 29.623 26.6228H29.6762C30.1025 26.6228 30.3156 26.836 30.3156 27.2622V28.0614ZM25.2541 26.3564C24.8279 26.3564 24.6148 26.534 24.6148 26.8892V30.672C24.6148 31.0272 24.8279 31.2048 25.2541 31.2048C25.6803 31.2048 25.8934 31.0272 25.8934 30.672V26.8892C25.8934 26.534 25.6803 26.3564 25.2541 26.3564ZM33.459 24.2253V31.4712C33.459 32.3592 33.1305 33.1051 32.4734 33.7089C31.8163 34.3127 31.026 34.6146 30.1025 34.6146H16.3566C15.4331 34.6146 14.6428 34.3127 13.9857 33.7089C13.3286 33.1051 13 32.3592 13 31.4712V24.2253C13 23.3728 13.3286 22.6358 13.9857 22.0142C14.6428 21.3926 15.4331 21.0819 16.3566 21.0819H30.1025C31.026 21.0819 31.8163 21.3926 32.4734 22.0142C33.1305 22.6358 33.459 23.3728 33.459 24.2253ZM17.2623 32.2704V24.6515H18.9672V23.5327L14.4385 23.4794V24.5982H15.8238V32.2704H17.2623ZM22.377 25.7704H20.9385V30.8319C20.8675 31.0095 20.7432 31.1249 20.5656 31.1782C20.388 31.2314 20.2459 31.1338 20.1393 30.8851V29.8728L20.0861 25.7704H18.7008V31.0982C18.7719 31.7021 18.8962 32.0573 19.0738 32.1638C19.3934 32.3769 19.793 32.3858 20.2725 32.1905C20.752 31.9951 21.0806 31.7376 21.2582 31.4179V32.2704H22.377V25.7704ZM26.9057 30.4589V27.0491C26.9057 26.3742 26.6926 25.9125 26.2664 25.6638C25.8402 25.4152 25.3074 25.5395 24.668 26.0368V23.5327H23.2295V32.2171H24.4016L24.5082 31.631C25.2541 32.2704 25.849 32.448 26.293 32.1638C26.737 31.8797 26.9413 31.3114 26.9057 30.4589ZM31.3811 29.9794H30.3156V30.7253C30.3156 31.116 30.1202 31.3114 29.7295 31.3114H29.5164C29.1257 31.3114 28.9303 31.116 28.9303 30.7253V29.1802H31.3811V28.2745C31.3811 27.351 31.3634 26.7649 31.3279 26.5163C31.2213 25.948 30.8395 25.5928 30.1824 25.4507C29.5253 25.3086 28.9836 25.3974 28.5574 25.7171C28.2732 25.9657 28.0779 26.2321 27.9713 26.5163C27.8648 26.8715 27.8115 27.351 27.8115 27.9548V29.9794C27.8115 31.2936 28.3087 32.0573 29.3033 32.2704C30.1557 32.448 30.7773 32.1638 31.168 31.4179C31.4167 31.0272 31.4877 30.5477 31.3811 29.9794ZM25.8934 19.004C25.9645 19.1816 26.0888 19.3237 26.2664 19.4302C26.4085 19.5368 26.6038 19.5901 26.8525 19.5901C27.0656 19.5901 27.2432 19.5368 27.3852 19.4302C27.5273 19.3237 27.6516 19.1638 27.7582 18.9507V19.4835H29.3566V12.7171H28.0779V17.9917C28.0779 18.3469 27.9003 18.5245 27.5451 18.5245C27.2254 18.5245 27.0656 18.3469 27.0656 17.9917V12.7171H25.7336V17.2991C25.7336 17.9384 25.7514 18.3291 25.7869 18.4712C25.7869 18.6133 25.8224 18.7909 25.8934 19.004ZM21.0984 15.2212C21.0984 14.5819 21.1516 14.0668 21.2582 13.6761C21.3648 13.3564 21.5601 13.0723 21.8443 12.8237C22.1284 12.6105 22.4836 12.504 22.9098 12.504C23.3005 12.504 23.6202 12.575 23.8689 12.7171C24.1175 12.8237 24.3128 13.0013 24.4549 13.2499C24.597 13.4275 24.7036 13.6584 24.7746 13.9425C24.8101 14.1201 24.8279 14.4931 24.8279 15.0614V16.7663C24.8279 17.4767 24.8101 17.9384 24.7746 18.1515C24.7391 18.4002 24.6325 18.6666 24.4549 18.9507C24.3484 19.1283 24.153 19.3237 23.8689 19.5368C23.5847 19.6433 23.3005 19.6966 23.0164 19.6966C22.6612 19.6966 22.3415 19.6433 22.0574 19.5368C21.8087 19.4302 21.6134 19.2704 21.4713 19.0573C21.3292 18.7731 21.2404 18.5245 21.2049 18.3114C21.1339 17.9562 21.0984 17.5122 21.0984 16.9794V15.2212ZM22.3238 17.8851C22.3238 18.0627 22.3859 18.2226 22.5102 18.3646C22.6346 18.5067 22.7855 18.5778 22.9631 18.5778C23.3893 18.5778 23.6025 18.3469 23.6025 17.8851V14.3155C23.6025 13.8537 23.3893 13.6228 22.9631 13.6228C22.5369 13.6228 22.3238 13.8537 22.3238 14.3155V17.8851ZM17.9549 19.6966H19.4467V14.5286L21.2049 10.1064H19.6066L18.6475 13.4097L17.6885 10.1064H16.0902L17.9549 14.5286V19.6966Z"
    fill="#29354D" />
  <rect x="1" y="1" width="43" height="43" stroke="#29354D" stroke-width="2" />
</svg>