<svg width="29" height="13" viewBox="0 0 29 13" fill="none" xmlns="http://www.w3.org/2000/svg">
<path d="M1.5 5.75C1.08579 5.75 0.75 6.08579 0.75 6.5C0.75 6.91421 1.08579 7.25 1.5 7.25L1.5 5.75ZM28.0303 7.03033C28.3232 6.73744 28.3232 6.26257 28.0303 5.96967L23.2574 1.1967C22.9645 0.903808 22.4896 0.903808 22.1967 1.1967C21.9038 1.48959 21.9038 1.96447 22.1967 2.25736L26.4393 6.5L22.1967 10.7426C21.9038 11.0355 21.9038 11.5104 22.1967 11.8033C22.4896 12.0962 22.9645 12.0962 23.2574 11.8033L28.0303 7.03033ZM1.5 7.25L27.5 7.25L27.5 5.75L1.5 5.75L1.5 7.25Z" fill="#FFFCF8"/>
</svg>
