<svg width="91" height="96" viewBox="0 0 91 96" fill="none" xmlns="http://www.w3.org/2000/svg">
<g id="Objects" clip-path="url(#clip0_3179_137445)">
<path id="Vector" d="M60.2244 21.3675C58.9961 16.6018 55.4791 9.17041 45.4791 9.17041C35.4791 9.17041 31.98 16.5958 30.7637 21.3615L37.642 22.9199L45.4911 24.7552L53.358 22.9199L60.2244 21.3615V21.3675Z" stroke="#FFF9EE" stroke-width="2" stroke-linecap="round" stroke-linejoin="round"/>
<path id="Vector_2" d="M38.0684 40.4001H52.9335L48.4099 26.3798L45.492 24.5144L42.592 26.3798L38.0684 40.4001Z" stroke="#FFF9EE" stroke-width="2" stroke-linecap="round" stroke-linejoin="round"/>
<path id="Vector_3" d="M29.2241 67.2134C29.2001 67.2615 29.1762 67.3097 29.1582 67.3518C30.027 70.0596 31.1834 72.5989 32.6333 74.8614L45.7909 95.3984L55.8808 79.6511L58.9485 74.8614C60.2726 72.7914 61.3571 70.4808 62.2019 68.0257C62.0581 67.761 61.9143 67.4902 61.7825 67.2134H29.2241Z" stroke="#FFF9EE" stroke-width="2" stroke-linecap="round" stroke-linejoin="round"/>
<path id="Vector_4" d="M57.3952 54.228H33.6025L29.9297 65.6067C29.708 66.1663 29.4743 66.6959 29.2227 67.2134H61.7691C61.5174 66.7019 61.2838 66.1663 61.0621 65.6067L57.3892 54.228H57.3952Z" stroke="#FFF9EE" stroke-width="2" stroke-linecap="round" stroke-linejoin="round"/>
<path id="Vector_5" d="M57.3962 54.2279L52.9325 40.4001H38.0673L33.6035 54.2279H57.3962Z" stroke="#FFF9EE" stroke-width="2" stroke-linecap="round" stroke-linejoin="round"/>
<path id="Vector_6" d="M86.341 47.4346C85.4482 46.177 84.4057 45.0638 83.1894 44.0528L77.8269 40.2559C76.0474 41.2187 74.0222 41.5797 72.009 41.1946C71.1163 41.0261 70.2355 40.7072 69.3547 40.2439L58.432 33.0111L48.4141 26.374L52.9377 40.4003L57.4015 54.2281L61.0743 65.6068C61.296 66.1664 61.5297 66.6959 61.7813 67.2134C61.9192 67.4902 62.057 67.761 62.2008 68.0258C62.5483 68.6696 62.9257 69.2774 63.3392 69.849C68.4201 76.9976 77.6531 78.6283 84.3158 72.9419C84.4955 72.8396 84.6034 72.7313 84.7232 72.5448C84.903 72.4425 85.0108 72.3342 85.1307 72.1476C91.1163 65.5105 91.4278 54.5771 86.347 47.4286L86.341 47.4346Z" stroke="#FFF9EE" stroke-width="2" stroke-linecap="round" stroke-linejoin="round"/>
<path id="Vector_7" d="M29.1154 67.2134C29.1273 67.2615 29.1453 67.3036 29.1573 67.3518C29.1813 67.3036 29.2052 67.2615 29.2232 67.2134H29.1094H29.1154Z" fill="#FFCDA0" stroke="#C93413" stroke-width="2" stroke-linecap="round" stroke-linejoin="round"/>
<path id="Vector_8" d="M33.6646 32.2888L21.6514 40.2437C20.7647 40.713 19.8899 41.0259 18.9912 41.1944C16.972 41.5795 14.9528 41.2124 13.1733 40.2557L7.81082 44.0526C6.58853 45.0635 5.55198 46.1767 4.65923 47.4343C-0.421652 54.5829 -0.110088 65.5103 5.87553 72.1534C5.99536 72.3399 6.10321 72.4482 6.28296 72.5505C6.40279 72.7371 6.51064 72.8454 6.69039 72.9477C13.3531 78.634 22.5921 77.0033 27.667 69.8548C28.2182 69.0786 29.2248 67.2132 29.2248 67.2132C29.4765 66.7017 29.7102 66.1662 29.9318 65.6066L33.6047 54.2279L38.0685 40.4001L42.5921 26.3738L33.6646 32.2888Z" stroke="#FFF9EE" stroke-width="2" stroke-linecap="round" stroke-linejoin="round"/>
<path id="Vector_9" d="M75.1441 18.7077C74.2513 18.5392 73.3346 18.5091 72.3639 18.6234L60.2249 21.3733L53.3586 22.9318L47.7085 24.2135L45.7852 24.6468L46.7498 25.2846L46.8217 25.3327L48.4095 26.3858L58.4275 33.0228L69.3502 40.2556C70.2369 40.725 71.1117 41.0379 72.0044 41.2064C74.0236 41.5915 76.0428 41.2244 77.8223 40.2677C80.5425 38.8055 82.6995 35.9533 83.4305 32.2526C83.4844 32.1142 83.4964 32.0059 83.4844 31.8555C83.5383 31.7171 83.5503 31.6088 83.5383 31.4583C84.0596 25.2064 80.2309 19.6885 75.1381 18.7137L75.1441 18.7077Z" stroke="#FFF9EE" stroke-width="2" stroke-linecap="round" stroke-linejoin="round"/>
<path id="Vector_10" d="M43.2916 24.2076L37.6415 22.926L30.7631 21.3675L18.6361 18.6176C17.6714 18.5032 16.7547 18.5333 15.856 18.7018C10.7631 19.6766 6.93447 25.1945 7.45574 31.4465C7.44376 31.5969 7.45574 31.7052 7.50966 31.8436C7.49768 31.994 7.50966 32.1023 7.56359 32.2407C8.28857 35.9354 10.4515 38.7876 13.1717 40.2558C14.9512 41.2186 16.9764 41.5796 18.9896 41.1945C19.8823 41.026 20.7631 40.7071 21.6499 40.2438L33.663 32.2889L42.5905 26.3739L44.0585 25.4051L44.2502 25.2787L45.2149 24.6409L43.2916 24.2076Z" stroke="#FFF9EE" stroke-width="2" stroke-linecap="round" stroke-linejoin="round"/>
<path id="Vector_11" d="M32.1777 0.601807L38.3072 10.8192" stroke="#FFF9EE" stroke-width="2" stroke-linecap="round" stroke-linejoin="round"/>
<path id="Vector_12" d="M57.5766 0.601562L51.4531 10.0668" stroke="#FFF9EE" stroke-width="2" stroke-linecap="round" stroke-linejoin="round"/>
</g>
<defs>
<clipPath id="clip0_3179_137445">
<rect width="90" height="96" fill="white" transform="translate(0.5)"/>
</clipPath>
</defs>
</svg>
