<svg width="185" height="160" viewBox="0 0 185 160" fill="none" xmlns="http://www.w3.org/2000/svg">
<g clip-path="url(#clip0_2272_140992)">
<path d="M113.68 35.51C111.63 27.59 105.76 15.24 89.0698 15.24C72.3798 15.24 66.5398 27.58 64.5098 35.5L75.9898 38.09L89.0898 41.14L102.22 38.09L113.68 35.5V35.51Z" stroke="#FFF9EE" stroke-width="2" stroke-linecap="round" stroke-linejoin="round"/>
<path d="M76.7002 67.14H101.51L93.9602 43.84L89.0902 40.74L84.2502 43.84L76.7002 67.14Z" stroke="#FFF9EE" stroke-width="2" stroke-linecap="round" stroke-linejoin="round"/>
<path d="M61.9401 111.7C61.9001 111.78 61.8601 111.86 61.8301 111.93C63.2801 116.43 65.2101 120.65 67.6301 124.41L89.5901 158.54L106.43 132.37L111.55 124.41C113.76 120.97 115.57 117.13 116.98 113.05C116.74 112.61 116.5 112.16 116.28 111.7H61.9401Z" stroke="#FFF9EE" stroke-width="2" stroke-linecap="round" stroke-linejoin="round"/>
<path d="M108.96 90.1201H69.2499L63.1199 109.03C62.7499 109.96 62.3599 110.84 61.9399 111.7H116.26C115.84 110.85 115.45 109.96 115.08 109.03L108.95 90.1201H108.96Z" stroke="#FFF9EE" stroke-width="2" stroke-linecap="round" stroke-linejoin="round"/>
<path d="M108.96 90.1199L101.51 67.1399H76.7L69.25 90.1199H108.96Z" stroke="#FFF9EE" stroke-width="2" stroke-linecap="round" stroke-linejoin="round"/>
<path d="M157.27 78.8301C155.78 76.7401 154.04 74.8901 152.01 73.2101L143.06 66.9001C140.09 68.5001 136.71 69.1001 133.35 68.4601C131.86 68.1801 130.39 67.6501 128.92 66.8801L110.69 54.8601L93.9702 43.8301L101.52 67.1401L108.97 90.1201L115.1 109.03C115.47 109.96 115.86 110.84 116.28 111.7C116.51 112.16 116.74 112.61 116.98 113.05C117.56 114.12 118.19 115.13 118.88 116.08C127.36 127.96 142.77 130.67 153.89 121.22C154.19 121.05 154.37 120.87 154.57 120.56C154.87 120.39 155.05 120.21 155.25 119.9C165.24 108.87 165.76 90.7001 157.28 78.8201L157.27 78.8301Z" stroke="#FFF9EE" stroke-width="2" stroke-linecap="round" stroke-linejoin="round"/>
<path d="M61.76 111.7C61.78 111.78 61.81 111.85 61.83 111.93C61.87 111.85 61.91 111.78 61.94 111.7H61.75H61.76Z" fill="#FFF9EE" stroke="#C93413" stroke-width="2" stroke-linecap="round" stroke-linejoin="round"/>
<path d="M69.3499 53.6601L49.2999 66.8801C47.8199 67.6601 46.3599 68.1801 44.8599 68.4601C41.4899 69.1001 38.1199 68.4901 35.1499 66.9001L26.1999 73.2101C24.1599 74.8901 22.4299 76.7401 20.9399 78.8301C12.4599 90.7101 12.9799 108.87 22.9699 119.91C23.1699 120.22 23.3499 120.4 23.6499 120.57C23.8499 120.88 24.0299 121.06 24.3299 121.23C35.4499 130.68 50.8699 127.97 59.3399 116.09C60.2599 114.8 61.9399 111.7 61.9399 111.7C62.3599 110.85 62.7499 109.96 63.1199 109.03L69.2499 90.1201L76.6999 67.1401L84.2499 43.8301L69.3499 53.6601Z" stroke="#FFF9EE" stroke-width="2" stroke-linecap="round" stroke-linejoin="round"/>
<path d="M138.58 31.0901C137.09 30.8101 135.56 30.7601 133.94 30.9501L113.68 35.5201L102.22 38.1101L92.7901 40.2401L89.5801 40.9601L91.1901 42.0201L91.3101 42.1001L93.9601 43.8501L110.68 54.8801L128.91 66.9001C130.39 67.6801 131.85 68.2001 133.34 68.4801C136.71 69.1201 140.08 68.5101 143.05 66.9201C147.59 64.4901 151.19 59.7501 152.41 53.6001C152.5 53.3701 152.52 53.1901 152.5 52.9401C152.59 52.7101 152.61 52.5301 152.59 52.2801C153.46 41.8901 147.07 32.7201 138.57 31.1001L138.58 31.0901Z" stroke="#FFF9EE" stroke-width="2" stroke-linecap="round" stroke-linejoin="round"/>
<path d="M85.4201 40.2301L75.9901 38.1001L64.5101 35.5101L44.2701 30.9401C42.6601 30.7501 41.1301 30.8001 39.6301 31.0801C31.1301 32.7001 24.7401 41.8701 25.6101 52.2601C25.5901 52.5101 25.6101 52.6901 25.7001 52.9201C25.6801 53.1701 25.7001 53.3501 25.7901 53.5801C27.0001 59.7201 30.6101 64.4601 35.1501 66.9001C38.1201 68.5001 41.5001 69.1001 44.8601 68.4601C46.3501 68.1801 47.8201 67.6501 49.3001 66.8801L69.3501 53.6601L84.2501 43.8301L86.7001 42.2201L87.0201 42.0101L88.6301 40.9501L85.4201 40.2301Z" stroke="#FFF9EE" stroke-width="2" stroke-linecap="round" stroke-linejoin="round"/>
<path d="M66.8701 1L77.1001 17.98" stroke="#FFF9EE" stroke-width="2" stroke-linecap="round" stroke-linejoin="round"/>
<path d="M109.26 1L99.04 16.73" stroke="#FFF9EE" stroke-width="2" stroke-linecap="round" stroke-linejoin="round"/>
</g>
<path d="M176.428 149.998C175.799 149.962 175.343 149.387 175.336 148.755C175.293 145.966 173.033 143.706 170.245 143.663C169.613 143.652 169.042 143.199 169.002 142.57C168.963 141.894 169.498 141.337 170.162 141.337C172.986 141.337 175.289 139.063 175.336 136.249C175.347 135.617 175.796 135.038 176.432 135.002C177.107 134.963 177.664 135.498 177.664 136.163C177.664 138.987 179.938 141.291 182.751 141.337C183.384 141.348 183.962 141.797 183.998 142.43C184.037 143.106 183.502 143.663 182.838 143.663C179.985 143.663 177.664 145.984 177.664 148.837C177.664 149.502 177.107 150.037 176.432 149.998H176.428Z" stroke="#FFF9EE" stroke-width="2" stroke-miterlimit="10"/>
<circle cx="7.5" cy="16.5" r="6.5" stroke="#FFF9EE" stroke-width="2"/>
<defs>
<clipPath id="clip0_2272_140992">
<rect width="150.21" height="159.54" fill="white" transform="translate(14)"/>
</clipPath>
</defs>
</svg>
