<svg width="1920" height="783" viewBox="0 0 1920 783" fill="none" xmlns="http://www.w3.org/2000/svg">
<path d="M252.673 -109.652L252.979 76.7316" stroke="#F8C6B8" stroke-width="2" stroke-linecap="round" stroke-linejoin="round"/>
<path d="M252.979 891.942L253.284 704.855" stroke="#F8C6B8" stroke-width="2" stroke-linecap="round" stroke-linejoin="round"/>
<path d="M149.837 -109.652C169.217 -33.464 214.961 41.4418 305.583 40.0371H957.178" stroke="#F8C6B8" stroke-width="2" stroke-linecap="round" stroke-linejoin="round"/>
<path d="M150.234 891.941C169.594 815.824 221.455 742.506 305.878 742.303H957.189" stroke="#F8C6B8" stroke-width="2" stroke-linecap="round" stroke-linejoin="round"/>
<path d="M143.709 183.344L8.25 391.195" stroke="#F8C6B8" stroke-width="2" stroke-linecap="round" stroke-linejoin="round"/>
<path d="M85.9853 364.903L85.8428 76.7109" stroke="#F8C6B8" stroke-width="2" stroke-linecap="round" stroke-linejoin="round"/>
<path d="M252.979 76.7313L85.8428 76.7109" stroke="#F8C6B8" stroke-width="2" stroke-linecap="round" stroke-linejoin="round"/>
<path d="M199.499 130.221L32.6382 130.292V250.453" stroke="#F8C6B8" stroke-width="2" stroke-linecap="round" stroke-linejoin="round"/>
<path d="M200.161 -109.652L199.499 130.221M-164.668 -109.652L8.24993 92.4884L179.284 -109.652M-185.188 130.292V-109.652" stroke="#F8C6B8" stroke-width="2" stroke-linecap="round" stroke-linejoin="round"/>
<path d="M-106.312 -109.652L8.24989 26.3771L121.011 -109.652" stroke="#F8C6B8" stroke-width="2" stroke-linecap="round" stroke-linejoin="round"/>
<path d="M-131.23 183.73L8.24987 391.195" stroke="#F8C6B8" stroke-width="2" stroke-linecap="round" stroke-linejoin="round"/>
<path d="M144.748 598.69L8.25 391.195" stroke="#F8C6B8" stroke-width="2" stroke-linecap="round" stroke-linejoin="round"/>
<path d="M86.2906 416.633L86.1379 705.935" stroke="#F8C6B8" stroke-width="2" stroke-linecap="round" stroke-linejoin="round"/>
<path d="M32.6382 532.295L32.9436 652.12" stroke="#F8C6B8" stroke-width="2" stroke-linecap="round" stroke-linejoin="round"/>
<path d="M253.284 705.477H86.1379" stroke="#F8C6B8" stroke-width="2" stroke-linecap="round" stroke-linejoin="round"/>
<path d="M200.242 652.333L32.9436 652.119" stroke="#F8C6B8" stroke-width="2" stroke-linecap="round" stroke-linejoin="round"/>
<path d="M200.466 891.942L200.242 652.333M-164.24 891.942L8.24974 690.89L179.406 891.942M-184.883 652.119V891.942" stroke="#F8C6B8" stroke-width="2" stroke-linecap="round" stroke-linejoin="round"/>
<path d="M-106.038 891.942L8.24996 755.332L121.265 891.942" stroke="#F8C6B8" stroke-width="2" stroke-linecap="round" stroke-linejoin="round"/>
<path d="M-129.174 598.69L8.24991 391.195" stroke="#F8C6B8" stroke-width="2" stroke-linecap="round" stroke-linejoin="round"/>
<path d="M-83.9702 392.742L8.24971 198.49L97.9758 391.205" stroke="#F8C6B8" stroke-width="2" stroke-linecap="round" stroke-linejoin="round"/>
<path d="M-83.6648 389.668L8.24977 583.93L97.9759 391.205" stroke="#F8C6B8" stroke-width="2" stroke-linecap="round" stroke-linejoin="round"/>
<path d="M143.709 183.344C179.986 200.902 205.118 238.258 205.118 281.233C205.118 341.115 157.878 391.205 97.9758 391.205" stroke="#F8C6B8" stroke-width="2" stroke-linecap="round" stroke-linejoin="round"/>
<path d="M957.179 76.7324H252.979V88.55C252.979 112.267 232.937 130.212 209.23 130.212H199.499C199.499 130.212 199.856 137.897 199.856 142.029C199.856 165.746 180.648 184.984 156.942 184.984C151.679 184.984 148.351 185.035 143.699 183.335" stroke="#F8C6B8" stroke-width="2" stroke-linecap="round" stroke-linejoin="round"/>
<path d="M-131.23 183.732C-133.439 176.138 -134.589 168.107 -134.589 159.822C-134.589 111.696 -95.5638 72.7012 -47.469 72.7012C-27.5796 72.7012 -6.4688 81.2921 8.24974 92.4786C22.8869 81.2921 40.7914 72.7012 60.6909 72.7012C108.786 72.7012 147.811 111.696 147.811 159.822C147.811 168.107 145.928 175.762 143.719 183.355" stroke="#F8C6B8" stroke-width="2" stroke-linecap="round" stroke-linejoin="round"/>
<path d="M144.849 598.946C181.126 581.398 205.423 544.153 205.423 501.189C205.423 441.307 157.807 391.217 97.9758 391.217" stroke="#F8C6B8" stroke-width="2" stroke-linecap="round" stroke-linejoin="round"/>
<path d="M957.179 703.4L253.284 704.815C253.284 704.815 253.243 697.73 253.264 693.944C253.416 671.021 232.753 652.475 209.383 652.17C205.576 652.119 200.242 652.333 200.242 652.333V640.353C200.242 616.636 180.953 597.408 157.257 597.408C152.076 597.408 145.297 598.782 145.297 598.782" stroke="#F8C6B8" stroke-width="2" stroke-linecap="round" stroke-linejoin="round"/>
<path d="M-130.925 598.689C-133.134 606.293 -134.274 614.304 -134.274 622.61C-134.274 670.715 -95.2482 709.73 -47.1533 709.73C-27.264 709.73 -6.37707 700.467 8.26005 689.271C22.9684 700.467 41.107 709.73 61.0066 709.73C109.101 709.73 148.117 670.725 148.117 622.61C148.117 614.314 146.977 606.293 144.758 598.689" stroke="#F8C6B8" stroke-width="2" stroke-linecap="round" stroke-linejoin="round"/>
<path d="M1661.38 76.7316L1661.68 -109.652" stroke="#F8C6B8" stroke-width="2" stroke-linecap="round" stroke-linejoin="round"/>
<path d="M1661.07 704.855L1661.38 891.942" stroke="#F8C6B8" stroke-width="2" stroke-linecap="round" stroke-linejoin="round"/>
<path d="M1764.52 -109.652C1745.14 -33.464 1699.4 41.4418 1608.77 40.0371H957.178" stroke="#F8C6B8" stroke-width="2" stroke-linecap="round" stroke-linejoin="round"/>
<path d="M1764.13 891.941C1744.77 815.824 1692.91 742.506 1608.49 742.303H957.178" stroke="#F8C6B8" stroke-width="2" stroke-linecap="round" stroke-linejoin="round"/>
<path d="M1770.66 183.344L1906.12 391.195" stroke="#F8C6B8" stroke-width="2" stroke-linecap="round" stroke-linejoin="round"/>
<path d="M1828.37 364.903L1828.52 76.7109" stroke="#F8C6B8" stroke-width="2" stroke-linecap="round" stroke-linejoin="round"/>
<path d="M1661.38 76.7313L1828.52 76.7109" stroke="#F8C6B8" stroke-width="2" stroke-linecap="round" stroke-linejoin="round"/>
<path d="M1714.86 130.221L1881.73 130.292V250.453" stroke="#F8C6B8" stroke-width="2" stroke-linecap="round" stroke-linejoin="round"/>
<path d="M1714.86 130.221L1714.2 -109.652M1735.07 -109.652L1906.11 92.4884L2079.04 -109.652M2099.56 -109.652V130.292" stroke="#F8C6B8" stroke-width="2" stroke-linecap="round" stroke-linejoin="round"/>
<path d="M2020.67 -109.652L1906.12 26.3771L1793.36 -109.652" stroke="#F8C6B8" stroke-width="2" stroke-linecap="round" stroke-linejoin="round"/>
<path d="M2045.59 183.73L1906.12 391.195" stroke="#F8C6B8" stroke-width="2" stroke-linecap="round" stroke-linejoin="round"/>
<path d="M1769.61 598.69L1906.12 391.195" stroke="#F8C6B8" stroke-width="2" stroke-linecap="round" stroke-linejoin="round"/>
<path d="M1828.07 416.633L1828.22 705.935" stroke="#F8C6B8" stroke-width="2" stroke-linecap="round" stroke-linejoin="round"/>
<path d="M1881.73 532.295L1881.42 652.12" stroke="#F8C6B8" stroke-width="2" stroke-linecap="round" stroke-linejoin="round"/>
<path d="M1661.07 705.477H1828.22" stroke="#F8C6B8" stroke-width="2" stroke-linecap="round" stroke-linejoin="round"/>
<path d="M1714.12 652.333L1881.42 652.119" stroke="#F8C6B8" stroke-width="2" stroke-linecap="round" stroke-linejoin="round"/>
<path d="M1714.12 652.333L1713.9 891.942M1734.96 891.942L1906.12 690.89L2078.61 891.942M2099.25 891.942V652.119" stroke="#F8C6B8" stroke-width="2" stroke-linecap="round" stroke-linejoin="round"/>
<path d="M2020.41 891.942L1906.12 755.332L1793.1 891.942" stroke="#F8C6B8" stroke-width="2" stroke-linecap="round" stroke-linejoin="round"/>
<path d="M2043.53 598.69L1906.12 391.195" stroke="#F8C6B8" stroke-width="2" stroke-linecap="round" stroke-linejoin="round"/>
<path d="M1998.34 392.742L1906.12 198.49L1816.38 391.205" stroke="#F8C6B8" stroke-width="2" stroke-linecap="round" stroke-linejoin="round"/>
<path d="M1998.03 389.668L1906.12 583.93L1816.38 391.205" stroke="#F8C6B8" stroke-width="2" stroke-linecap="round" stroke-linejoin="round"/>
<path d="M1770.66 183.344C1734.38 200.902 1709.25 238.258 1709.25 281.233C1709.25 341.115 1756.49 391.205 1816.39 391.205" stroke="#F8C6B8" stroke-width="2" stroke-linecap="round" stroke-linejoin="round"/>
<path d="M957.178 76.7324H1661.38C1661.38 76.7324 1661.38 84.7635 1661.38 88.55C1661.38 112.267 1681.42 130.212 1705.13 130.212H1714.86C1714.86 130.212 1714.5 137.897 1714.5 142.029C1714.5 165.746 1733.71 184.984 1757.42 184.984C1762.68 184.984 1766.01 185.035 1770.66 183.335" stroke="#F8C6B8" stroke-width="2" stroke-linecap="round" stroke-linejoin="round"/>
<path d="M2045.59 183.732C2047.8 176.138 2048.95 168.107 2048.95 159.822C2048.95 111.696 2009.92 72.7012 1961.83 72.7012C1941.94 72.7012 1920.83 81.2921 1906.11 92.4786C1891.47 81.2921 1873.57 72.7012 1853.67 72.7012C1805.57 72.7012 1766.55 111.696 1766.55 159.822C1766.55 168.107 1768.43 175.762 1770.64 183.355" stroke="#F8C6B8" stroke-width="2" stroke-linecap="round" stroke-linejoin="round"/>
<path d="M1769.52 598.946C1733.24 581.398 1708.94 544.153 1708.94 501.189C1708.94 441.307 1756.56 391.217 1816.39 391.217" stroke="#F8C6B8" stroke-width="2" stroke-linecap="round" stroke-linejoin="round"/>
<path d="M957.178 703.4L1661.07 704.815C1661.07 704.815 1661.11 697.73 1661.09 693.944C1660.94 671.021 1681.6 652.475 1704.97 652.17C1708.78 652.119 1714.11 652.333 1714.11 652.333C1714.11 652.333 1714.11 644.516 1714.11 640.353C1714.11 616.636 1733.4 597.408 1757.1 597.408C1762.28 597.408 1769.06 598.782 1769.06 598.782" stroke="#F8C6B8" stroke-width="2" stroke-linecap="round" stroke-linejoin="round"/>
<path d="M2045.28 598.689C2047.49 606.293 2048.63 614.304 2048.63 622.61C2048.63 670.715 2009.61 709.73 1961.51 709.73C1941.62 709.73 1920.73 700.467 1906.1 689.271C1891.39 700.467 1873.25 709.73 1853.35 709.73C1805.26 709.73 1766.24 670.725 1766.24 622.61C1766.24 614.314 1767.38 606.293 1769.6 598.689" stroke="#F8C6B8" stroke-width="2" stroke-linecap="round" stroke-linejoin="round"/>
</svg>
