<svg width="374" height="261" viewBox="0 0 374 261" fill="none" xmlns="http://www.w3.org/2000/svg">
<path d="M388.414 1.07648L175.989 229.327" stroke="#EAC2B2" stroke-opacity="0.05" stroke-width="2.5" stroke-miterlimit="10"/>
<path d="M255.111 240.597C280.57 247.764 299.354 272.649 299.354 302.247C299.354 303.177 299.336 304.101 299.299 305.02" stroke="#EAC2B2" stroke-opacity="0.05" stroke-width="2.5" stroke-miterlimit="10"/>
<path d="M426.751 55.6853L175.989 325.072" stroke="#EAC2B2" stroke-opacity="0.05" stroke-width="2.5" stroke-miterlimit="10"/>
<path d="M384.253 101.681C340.008 101.681 304.14 63.1496 304.14 15.6173C304.14 10.6616 304.529 5.80318 305.278 1.0779" stroke="#EAC2B2" stroke-opacity="0.05" stroke-width="2.5" stroke-miterlimit="10"/>
<path d="M395.913 202.092C396.748 205.494 397.196 209.063 397.196 212.746C397.196 235.781 379.813 254.456 358.37 254.456C354.926 254.456 351.59 253.972 348.409 253.067" stroke="#EAC2B2" stroke-opacity="0.05" stroke-width="2.5" stroke-miterlimit="10"/>
<path d="M348.413 253.071C349.407 256.758 349.939 260.659 349.939 264.693C349.939 287.727 332.558 306.401 311.116 306.401C306.407 306.401 301.894 305.501 297.717 303.852" stroke="#EAC2B2" stroke-opacity="0.05" stroke-width="2.5" stroke-miterlimit="10"/>
<path d="M175.944 156.677C219.397 156.677 254.62 194.517 254.62 241.194" stroke="#EAC2B2" stroke-opacity="0.05" stroke-width="2.5" stroke-miterlimit="10"/>
<path d="M-16.1274 19.6426L179.019 229.327" stroke="#EAC2B2" stroke-opacity="0.05" stroke-width="2.5" stroke-miterlimit="10"/>
<path d="M99.8962 240.596C74.4371 247.764 55.6538 272.648 55.6538 302.246C55.6538 303.176 55.673 304.1 55.708 305.02" stroke="#EAC2B2" stroke-opacity="0.05" stroke-width="2.5" stroke-miterlimit="10"/>
<path d="M-16.1274 115.433L179.019 325.075" stroke="#EAC2B2" stroke-opacity="0.05" stroke-width="2.5" stroke-miterlimit="10"/>
<path d="M179.061 156.675C135.61 156.675 100.385 194.515 100.385 241.192" stroke="#EAC2B2" stroke-opacity="0.05" stroke-width="2.5" stroke-miterlimit="10"/>
<path d="M32.2928 1.07704L-16.1274 53.1042" stroke="#EAC2B2" stroke-opacity="0.05" stroke-width="2.5" stroke-miterlimit="10"/>
<path d="M137.359 -16.5103L-16.1274 148.786" stroke="#EAC2B2" stroke-opacity="0.05" stroke-width="2.5" stroke-miterlimit="10"/>
</svg>
