<svg width="207" height="194" viewBox="0 0 207 194" fill="none" xmlns="http://www.w3.org/2000/svg">
<g clip-path="url(#clip0_2272_140793)">
<path d="M103.94 174.37H30V142.37H44.4L44.35 143.85C44.35 144.04 44.34 144.23 44.34 144.42C44.34 156.48 54.49 166.29 66.97 166.29C79.45 166.29 89.6 156.48 89.6 144.42C89.6 144.2 89.6 143.99 89.58 143.77L89.52 142.36H103.93V174.36L103.94 174.37Z" stroke="#FFF9EE" stroke-width="2" stroke-linecap="round" stroke-linejoin="round"/>
<path d="M66.3902 60.3399C60.2402 60.3399 55.2402 55.4799 55.2402 49.5099C55.2402 43.5399 60.2402 38.6799 66.3902 38.6799C72.5402 38.6799 77.5402 43.5399 77.5402 49.5099C77.5402 55.4799 72.5402 60.3399 66.3902 60.3399Z" stroke="#FFF9EE" stroke-width="2" stroke-linecap="round" stroke-linejoin="round"/>
<path d="M66.4805 94.6299L102.73 142.23H30.2305L66.4805 94.6299Z" stroke="#FFF9EE" stroke-width="2" stroke-linecap="round" stroke-linejoin="round"/>
<path d="M32.3801 80.01H100.58L100.52 81.6C99.9001 99.53 84.9401 113.57 66.4701 113.57C48.0001 113.57 33.0501 99.52 32.4301 81.59L32.3701 80L32.3801 80.01Z" stroke="#FFF9EE" stroke-width="2" stroke-linecap="round" stroke-linejoin="round"/>
<path d="M175.2 174.37H104.28V142.37H118.1L118.05 143.85C118.05 144.04 118.04 144.23 118.04 144.42C118.04 156.48 127.78 166.29 139.74 166.29C151.7 166.29 161.44 156.48 161.44 144.42C161.44 144.2 161.44 143.99 161.42 143.77L161.37 142.36H175.19V174.36L175.2 174.37Z" stroke="#FFF9EE" stroke-width="2" stroke-linecap="round" stroke-linejoin="round"/>
<path d="M139.49 142.79V165.93" stroke="#FFF9EE" stroke-width="2" stroke-linecap="round" stroke-linejoin="round"/>
<path d="M66.5195 60.6599V95.2699" stroke="#FFF9EE" stroke-width="2" stroke-linecap="round" stroke-linejoin="round"/>
<path d="M66.5195 19V38.36" stroke="#FFF9EE" stroke-width="2" stroke-linecap="round" stroke-linejoin="round"/>
<path d="M140.68 60.3399C134.53 60.3399 129.53 55.4799 129.53 49.5099C129.53 43.5399 134.53 38.6799 140.68 38.6799C146.83 38.6799 151.83 43.5399 151.83 49.5099C151.83 55.4799 146.83 60.3399 140.68 60.3399Z" stroke="#FFF9EE" stroke-width="2" stroke-linecap="round" stroke-linejoin="round"/>
<path d="M140.76 62.77L174.59 107.2H106.93L140.77 62.77H140.76Z" stroke="#FFF9EE" stroke-width="2" stroke-linecap="round" stroke-linejoin="round"/>
<path d="M174.86 141.72H106.66L106.72 140.13C107.34 122.2 122.3 108.16 140.77 108.16C159.24 108.16 174.2 122.2 174.82 140.13L174.88 141.72H174.86Z" stroke="#FFF9EE" stroke-width="2" stroke-linecap="round" stroke-linejoin="round"/>
<path d="M140.8 19V38.36" stroke="#FFF9EE" stroke-width="2" stroke-linecap="round" stroke-linejoin="round"/>
</g>
<path d="M198.428 15.9979C197.799 15.962 197.343 15.387 197.336 14.7546C197.293 11.966 195.033 9.70564 192.245 9.66251C191.613 9.65173 191.042 9.19895 191.002 8.57007C190.963 7.89449 191.498 7.33749 192.162 7.33749C194.986 7.33749 197.289 5.06277 197.336 2.24902C197.347 1.61655 197.796 1.03799 198.432 1.00206C199.107 0.962528 199.664 1.49797 199.664 2.16277C199.664 4.9873 201.938 7.29077 204.751 7.33749C205.384 7.34827 205.962 7.79746 205.998 8.42993C206.037 9.10551 205.502 9.66251 204.838 9.66251C201.985 9.66251 199.664 11.9839 199.664 14.8372C199.664 15.502 199.107 16.0375 198.432 15.9979H198.428Z" stroke="#FFF9EE" stroke-width="2" stroke-miterlimit="10"/>
<circle cx="5" cy="114" r="5" fill="#FFF9EE"/>
<defs>
<clipPath id="clip0_2272_140793">
<rect width="147.2" height="157.37" fill="white" transform="translate(29 18)"/>
</clipPath>
</defs>
</svg>
