<svg width="1600" height="623" viewBox="0 0 1600 623" fill="none" xmlns="http://www.w3.org/2000/svg">
<mask id="mask0_1553_382731" style="mask-type:alpha" maskUnits="userSpaceOnUse" x="0" y="0" width="1600" height="623">
<path d="M0 0H1600V573C1600 600.614 1577.61 623 1550 623H50C22.3858 623 0 600.614 0 573V0Z" fill="#484848"/>
<path d="M0.75 0.75H1599.25V573C1599.25 600.2 1577.2 622.25 1550 622.25H50C22.8 622.25 0.75 600.2 0.75 573V0.75Z" stroke="#EAC2B2" stroke-opacity="0.05" stroke-width="1.5"/>
</mask>
<g mask="url(#mask0_1553_382731)">
<path d="M1619.29 67.467C1649.76 35.7124 1661.18 -10.4592 1644.71 -52.1203C1621.75 -110.177 1553.33 -137.493 1491.88 -113.137" stroke="#EAC2B2" stroke-opacity="0.05" stroke-width="2" stroke-miterlimit="10"/>
<path d="M1229.73 432.028C1170.73 434.706 1115.05 402.328 1093.21 347.072C1091.63 343.075 1090.26 339.044 1089.09 334.99" stroke="#EAC2B2" stroke-opacity="0.05" stroke-width="2" stroke-miterlimit="10"/>
<path d="M1089.88 336.328C1111.94 384.078 1170.07 405.915 1222.45 385.146C1226.11 383.695 1229.64 382.073 1233.05 380.295" stroke="#EAC2B2" stroke-opacity="0.05" stroke-width="2" stroke-miterlimit="10"/>
<path d="M1233.16 380.397C1242.41 432.688 1211.96 487.058 1157.86 508.503C1103.78 529.944 1043.79 511.416 1014.79 466.965" stroke="#EAC2B2" stroke-opacity="0.05" stroke-width="2" stroke-miterlimit="10"/>
<path d="M1014.69 466.819C1018.39 465.78 1022.07 464.538 1025.73 463.089C1078.11 442.319 1105.56 386.55 1089.01 336.617" stroke="#EAC2B2" stroke-opacity="0.05" stroke-width="2" stroke-miterlimit="10"/>
<path d="M1052.49 502.258C1097.34 463.761 1115.8 401.989 1093.96 346.733C1092.38 342.736 1090.62 338.859 1088.7 335.105" stroke="#EAC2B2" stroke-opacity="0.05" stroke-width="2" stroke-miterlimit="10"/>
<path d="M84.0488 444.004L101.798 436.893" stroke="#EAC2B2" stroke-opacity="0.05" stroke-width="2" stroke-miterlimit="10"/>
<path d="M114.496 663.34L200.63 478.177L99.9232 437.636L145.648 339.15L-43.7559 263.18" stroke="#EAC2B2" stroke-opacity="0.05" stroke-width="2" stroke-miterlimit="10"/>
<path d="M-264.699 -0.223943L66.3567 132.015" stroke="#EAC2B2" stroke-opacity="0.05" stroke-width="2" stroke-miterlimit="10"/>
<path d="M-18.8132 178.99C-44.8766 197.598 -56.3739 230.888 -44.6942 260.43C-44.3271 261.359 -43.9403 262.273 -43.5363 263.174" stroke="#EAC2B2" stroke-opacity="0.05" stroke-width="2" stroke-miterlimit="10"/>
<path d="M-286.552 71.5673L104.227 227.616" stroke="#EAC2B2" stroke-opacity="0.05" stroke-width="2" stroke-miterlimit="10"/>
<path d="M37.7542 59.6335C-11.5454 79.1785 -36.5775 132.785 -18.1621 179.367" stroke="#EAC2B2" stroke-opacity="0.05" stroke-width="2" stroke-miterlimit="10"/>
<path d="M-43.3912 263.219C-73.8612 294.972 -85.2815 341.144 -68.808 382.808C-45.8545 440.862 22.5678 468.18 84.0135 443.823" stroke="#EAC2B2" stroke-opacity="0.05" stroke-width="2" stroke-miterlimit="10"/>
<path d="M1618.66 67.8981L1429.25 -8.07037L1474.95 -106.629L1374.27 -147.097L1460.41 -332.262" stroke="#EAC2B2" stroke-opacity="0.05" stroke-width="2" stroke-miterlimit="10"/>
<path d="M1815.81 320.99L1509.55 198.657" stroke="#EAC2B2" stroke-opacity="0.05" stroke-width="2" stroke-miterlimit="10"/>
<path d="M1538.15 271.051C1587.45 251.506 1612.48 197.899 1594.07 151.316" stroke="#EAC2B2" stroke-opacity="0.05" stroke-width="2" stroke-miterlimit="10"/>
<path d="M68.752 969.301L246.97 587.672" stroke="#EAC2B2" stroke-opacity="0.05" stroke-width="2" stroke-miterlimit="10"/>
<path d="M114.792 662.989C70.871 660.722 30.9813 634.89 14.5083 593.227C-8.44605 535.172 22.7598 468.363 84.2054 444.006" stroke="#EAC2B2" stroke-opacity="0.05" stroke-width="2" stroke-miterlimit="10"/>
<path d="M214.294 -190.01L63.3398 133.324" stroke="#EAC2B2" stroke-opacity="0.05" stroke-width="2" stroke-miterlimit="10"/>
<path d="M157.712 109.113C189.431 104.814 220.569 121.202 232.248 150.745C232.615 151.673 232.958 152.605 233.28 153.538" stroke="#EAC2B2" stroke-opacity="0.05" stroke-width="2" stroke-miterlimit="10"/>
<path d="M279.388 -152.664L101.17 228.965" stroke="#EAC2B2" stroke-opacity="0.05" stroke-width="2" stroke-miterlimit="10"/>
<path d="M34.7864 60.8533C84.0823 41.3097 138.976 63.2291 157.392 109.811" stroke="#EAC2B2" stroke-opacity="0.05" stroke-width="2" stroke-miterlimit="10"/>
<path d="M233.348 153.642C277.269 155.907 317.159 181.74 333.632 223.405C356.586 281.458 325.381 348.267 263.934 372.625" stroke="#EAC2B2" stroke-opacity="0.05" stroke-width="2" stroke-miterlimit="10"/>
<path d="M618.279 819.035L281.782 684.624" stroke="#EAC2B2" stroke-opacity="0.05" stroke-width="2" stroke-miterlimit="10"/>
<path d="M366.951 637.641C393.014 619.034 404.511 585.744 392.832 556.201C392.465 555.274 392.078 554.36 391.675 553.46" stroke="#EAC2B2" stroke-opacity="0.05" stroke-width="2" stroke-miterlimit="10"/>
<path d="M634.691 745.069L243.913 589.02" stroke="#EAC2B2" stroke-opacity="0.05" stroke-width="2" stroke-miterlimit="10"/>
<path d="M391.526 553.416C421.995 521.662 433.416 475.491 416.943 433.828C393.989 375.772 325.568 348.454 264.12 372.812" stroke="#EAC2B2" stroke-opacity="0.05" stroke-width="2" stroke-miterlimit="10"/>
<path d="M264.117 372.703L249.23 378.598" stroke="#EAC2B2" stroke-opacity="0.05" stroke-width="2" stroke-miterlimit="10"/>
<path d="M139.105 -160.118L470.162 -27.8798" stroke="#EAC2B2" stroke-opacity="0.05" stroke-width="2" stroke-miterlimit="10"/>
<path d="M385 19.088C358.935 37.6971 347.441 70.9852 359.12 100.528C359.487 101.457 359.874 102.37 360.279 103.271" stroke="#EAC2B2" stroke-opacity="0.05" stroke-width="2" stroke-miterlimit="10"/>
<path d="M117.253 -88.3272L508.029 67.7224" stroke="#EAC2B2" stroke-opacity="0.05" stroke-width="2" stroke-miterlimit="10"/>
<path d="M441.562 -100.261C392.266 -80.717 367.231 -27.1098 385.646 19.4725" stroke="#EAC2B2" stroke-opacity="0.05" stroke-width="2" stroke-miterlimit="10"/>
<path d="M360.422 103.32C329.948 135.074 318.531 181.245 335.004 222.91C357.958 280.963 426.379 308.282 487.826 283.925" stroke="#EAC2B2" stroke-opacity="0.05" stroke-width="2" stroke-miterlimit="10"/>
<path d="M535.172 852.062L688.609 523.416" stroke="#EAC2B2" stroke-opacity="0.05" stroke-width="2" stroke-miterlimit="10"/>
<path d="M594.245 547.619C562.523 551.921 531.389 535.531 519.709 505.988C519.343 505.061 519 504.129 518.68 503.197" stroke="#EAC2B2" stroke-opacity="0.05" stroke-width="2" stroke-miterlimit="10"/>
<path d="M472.561 809.402L650.776 427.774" stroke="#EAC2B2" stroke-opacity="0.05" stroke-width="2" stroke-miterlimit="10"/>
<path d="M717.164 595.886C667.868 615.43 612.975 593.51 594.559 546.925" stroke="#EAC2B2" stroke-opacity="0.05" stroke-width="2" stroke-miterlimit="10"/>
<path d="M518.605 503.09C474.681 500.825 434.794 474.992 418.321 433.329C395.366 375.273 426.571 308.465 488.018 284.108" stroke="#EAC2B2" stroke-opacity="0.05" stroke-width="2" stroke-miterlimit="10"/>
<path d="M487.855 284.109L502.556 278.288" stroke="#EAC2B2" stroke-opacity="0.05" stroke-width="2" stroke-miterlimit="10"/>
<path d="M667.501 212.972L646.281 221.375" stroke="#EAC2B2" stroke-opacity="0.05" stroke-width="2" stroke-miterlimit="10"/>
<path d="M794.277 394.122L604.872 318.152L650.569 219.594L549.891 179.125L636.025 -6.0374" stroke="#EAC2B2" stroke-opacity="0.05" stroke-width="2" stroke-miterlimit="10"/>
<path d="M1342.41 177.121L1428.55 -8.04304L1327.84 -48.5836L1373.56 -147.07L1184.16 -223.038" stroke="#EAC2B2" stroke-opacity="0.05" stroke-width="2" stroke-miterlimit="10"/>
<path d="M561.095 -50.6132C592.818 -54.9134 623.952 -38.5246 635.631 -8.98168C635.998 -8.05329 636.341 -7.12193 636.664 -6.18868" stroke="#EAC2B2" stroke-opacity="0.05" stroke-width="2" stroke-miterlimit="10"/>
<path d="M682.77 -312.394L504.553 69.2343" stroke="#EAC2B2" stroke-opacity="0.05" stroke-width="2" stroke-miterlimit="10"/>
<path d="M636.726 -6.08427C680.647 -3.81899 720.534 22.0151 737.008 63.6793C759.961 121.733 728.758 188.542 667.312 212.898" stroke="#EAC2B2" stroke-opacity="0.05" stroke-width="2" stroke-miterlimit="10"/>
<path d="M1184.53 -223.003C1154.06 -191.249 1142.64 -145.079 1159.11 -103.415C1182.07 -45.3609 1250.49 -18.0415 1311.93 -42.3989" stroke="#EAC2B2" stroke-opacity="0.05" stroke-width="2" stroke-miterlimit="10"/>
<path d="M1021.66 659.304L685.163 524.893" stroke="#EAC2B2" stroke-opacity="0.05" stroke-width="2" stroke-miterlimit="10"/>
<path d="M1013.65 467.181C976.479 481.919 957.604 522.338 971.49 557.463C971.856 558.39 972.243 559.302 972.644 560.206" stroke="#EAC2B2" stroke-opacity="0.05" stroke-width="2" stroke-miterlimit="10"/>
<path d="M770.336 477.914C796.402 459.307 807.896 426.018 796.216 396.474C795.85 395.547 795.463 394.633 795.061 393.733" stroke="#EAC2B2" stroke-opacity="0.05" stroke-width="2" stroke-miterlimit="10"/>
<path d="M1594.64 151.515C1620.7 132.909 1632.2 99.6192 1620.52 70.0759C1620.15 69.1486 1619.77 68.2348 1619.36 67.3346" stroke="#EAC2B2" stroke-opacity="0.05" stroke-width="2" stroke-miterlimit="10"/>
<path d="M1038.07 585.339L647.296 429.29" stroke="#EAC2B2" stroke-opacity="0.05" stroke-width="2" stroke-miterlimit="10"/>
<path d="M1050.92 502.383C1027.43 514.719 1016.15 541.94 1025.58 565.814C1028.63 573.512 1033.48 579.986 1039.52 584.988" stroke="#EAC2B2" stroke-opacity="0.05" stroke-width="2" stroke-miterlimit="10"/>
<path d="M1039.62 584.992C1016.13 597.329 1004.94 624.512 1014.38 648.382C1016.06 652.638 1018.29 656.518 1020.97 659.983" stroke="#EAC2B2" stroke-opacity="0.05" stroke-width="2" stroke-miterlimit="10"/>
<path d="M971.808 558.719C921.602 578.623 896.108 633.217 914.863 680.657C917.372 687.003 920.545 692.9 924.281 698.308" stroke="#EAC2B2" stroke-opacity="0.05" stroke-width="2" stroke-miterlimit="10"/>
<path d="M1276.82 558.83C1267.71 535.799 1241.42 525.297 1217.05 534.961" stroke="#EAC2B2" stroke-opacity="0.05" stroke-width="2" stroke-miterlimit="10"/>
<path d="M1217.04 534.865C1207.94 511.844 1180.81 501.012 1156.45 510.67C1132.08 520.328 1119.71 546.819 1128.81 569.84" stroke="#EAC2B2" stroke-opacity="0.05" stroke-width="2" stroke-miterlimit="10"/>
<path d="M1128.91 569.838C1104.53 579.502 1092.47 605.881 1101.58 628.914" stroke="#EAC2B2" stroke-opacity="0.05" stroke-width="2" stroke-miterlimit="10"/>
<path d="M1014.32 466.913C1003.63 447.129 978.603 438.381 955.965 447.356C952.059 448.905 948.46 450.889 945.211 453.222" stroke="#EAC2B2" stroke-opacity="0.05" stroke-width="2" stroke-miterlimit="10"/>
<path d="M945.213 453.136C944.817 449.366 943.915 445.602 942.462 441.926C933.374 418.939 906.287 408.121 881.96 417.765C878.051 419.315 874.457 421.299 871.205 423.631" stroke="#EAC2B2" stroke-opacity="0.05" stroke-width="2" stroke-miterlimit="10"/>
<path d="M871.204 423.535C870.876 419.404 869.943 415.275 868.352 411.249C859.264 388.262 832.18 377.445 807.852 387.09C802.509 389.208 797.746 392.135 793.658 395.66" stroke="#EAC2B2" stroke-opacity="0.05" stroke-width="2" stroke-miterlimit="10"/>
<path d="M713.768 597.269C763.062 577.727 788.098 524.119 769.682 477.533" stroke="#EAC2B2" stroke-opacity="0.05" stroke-width="2" stroke-miterlimit="10"/>
<path d="M794.903 393.686C825.373 361.932 836.791 315.762 820.318 274.098C797.364 216.043 728.944 188.725 667.499 213.081" stroke="#EAC2B2" stroke-opacity="0.05" stroke-width="2" stroke-miterlimit="10"/>
<path d="M1359.28 525.738L1512.72 197.091" stroke="#EAC2B2" stroke-opacity="0.05" stroke-width="2" stroke-miterlimit="10"/>
<path d="M1233.72 380.071C1270.89 365.334 1312.28 381.862 1326.17 416.986C1326.53 417.914 1326.88 418.842 1327.2 419.779" stroke="#EAC2B2" stroke-opacity="0.05" stroke-width="2" stroke-miterlimit="10"/>
<path d="M1418.34 221.3C1386.62 225.601 1355.49 209.211 1343.81 179.668C1343.44 178.74 1343.09 177.811 1342.77 176.878" stroke="#EAC2B2" stroke-opacity="0.05" stroke-width="2" stroke-miterlimit="10"/>
<path d="M1296.66 483.082L1474.88 101.453" stroke="#EAC2B2" stroke-opacity="0.05" stroke-width="2" stroke-miterlimit="10"/>
<path d="M1230.65 431.235C1256.21 424.127 1283.04 436.236 1292.48 460.11C1295.53 467.808 1296.41 475.853 1295.43 483.636" stroke="#EAC2B2" stroke-opacity="0.05" stroke-width="2" stroke-miterlimit="10"/>
<path d="M1295.45 483.714C1321 476.608 1347.75 488.751 1357.18 512.621C1358.87 516.877 1359.89 521.235 1360.3 525.6" stroke="#EAC2B2" stroke-opacity="0.05" stroke-width="2" stroke-miterlimit="10"/>
<path d="M1326.91 418.148C1377.12 398.244 1433.02 420.568 1451.78 468.008C1454.29 474.355 1456 480.83 1456.98 487.332" stroke="#EAC2B2" stroke-opacity="0.05" stroke-width="2" stroke-miterlimit="10"/>
<path d="M1232.99 380.351C1227.26 358.604 1239.53 335.071 1262.16 326.097C1266.07 324.548 1270.05 323.527 1274.01 323.001" stroke="#EAC2B2" stroke-opacity="0.05" stroke-width="2" stroke-miterlimit="10"/>
<path d="M1273.93 322.997C1271.64 319.977 1269.72 316.615 1268.27 312.94C1259.18 289.953 1271.54 263.497 1295.86 253.853C1299.77 252.304 1303.75 251.287 1307.71 250.758" stroke="#EAC2B2" stroke-opacity="0.05" stroke-width="2" stroke-miterlimit="10"/>
<path d="M1307.61 250.761C1305.02 247.526 1302.88 243.876 1301.29 239.851C1292.2 216.863 1304.55 190.411 1328.88 180.767C1334.22 178.648 1339.7 177.516 1345.08 177.284" stroke="#EAC2B2" stroke-opacity="0.05" stroke-width="2" stroke-miterlimit="10"/>
<path d="M1541.26 269.565C1491.97 289.108 1437.07 267.189 1418.66 220.604" stroke="#EAC2B2" stroke-opacity="0.05" stroke-width="2" stroke-miterlimit="10"/>
<path d="M1342.71 176.767C1298.78 174.502 1258.9 148.668 1242.43 107.005C1219.47 48.9489 1250.67 -17.8588 1312.12 -42.2161" stroke="#EAC2B2" stroke-opacity="0.05" stroke-width="2" stroke-miterlimit="10"/>
<path d="M391.891 553.454L202.486 477.484L248.18 378.926L147.504 338.457L233.639 153.294" stroke="#EAC2B2" stroke-opacity="0.05" stroke-width="2" stroke-miterlimit="10"/>
<path d="M518.305 503.445L604.439 318.282L503.734 277.741L549.458 179.255L360.053 103.286" stroke="#EAC2B2" stroke-opacity="0.05" stroke-width="2" stroke-miterlimit="10"/>
<path d="M1777.92 225.31L1471.67 103.017" stroke="#EAC2B2" stroke-opacity="0.05" stroke-width="2" stroke-miterlimit="10"/>
</g>
</svg>
