<svg width="93" height="98" viewBox="0 0 93 98" fill="none" xmlns="http://www.w3.org/2000/svg">
<mask id="mask0_3179_137411" style="mask-type:luminance" maskUnits="userSpaceOnUse" x="45" y="17" width="47" height="80">
<path d="M76.4913 96.9694H60.2305C51.0932 96.9694 44.0785 84.2726 45.3907 70.1016L50.2768 17.1909H86.4571L91.3432 70.1016C92.6494 84.2726 85.6407 96.9694 76.5034 96.9694H76.4913Z" fill="white"/>
</mask>
<g mask="url(#mask0_3179_137411)">
<path d="M45.3184 79.1648L52.829 91.2975L60.3396 79.1648L67.8501 91.2975L75.3668 79.1648L82.8774 91.2975L90.394 79.1648" stroke="#FFF9EE" stroke-width="2" stroke-linecap="round" stroke-linejoin="round"/>
<path d="M45.3184 88.9436L52.829 101.076L60.3396 88.9436L67.8501 101.076L75.3668 88.9436L82.8774 101.076L90.394 88.9436" stroke="#FFF9EE" stroke-width="2" stroke-linecap="round" stroke-linejoin="round"/>
<path d="M45.3184 69.3857L52.829 81.5184L60.3396 69.3857L67.8501 81.5184L75.3668 69.3857L82.8774 81.5184L90.394 69.3857" stroke="#FFF9EE" stroke-width="2" stroke-linecap="round" stroke-linejoin="round"/>
<path d="M45.3184 59.6069L52.829 71.7396L60.3396 59.6069L67.8501 71.7396L75.3668 59.6069L82.8774 71.7396L90.394 59.6069" stroke="#FFF9EE" stroke-width="2" stroke-linecap="round" stroke-linejoin="round"/>
<path d="M45.3184 49.8279L52.829 61.9606L60.3396 49.8279L67.8501 61.9606L75.3668 49.8279L82.8774 61.9606L90.394 49.8279" stroke="#FFF9EE" stroke-width="2" stroke-linecap="round" stroke-linejoin="round"/>
</g>
<path d="M76.4913 96.9694H60.2305C51.0932 96.9694 44.0785 84.2726 45.3907 70.1016L50.2768 17.1909H86.4571L91.3432 70.1016C92.6494 84.2726 85.6407 96.9694 76.5034 96.9694H76.4913Z" stroke="#FFF9EE" stroke-width="2" stroke-linecap="round" stroke-linejoin="round"/>
<path d="M76.4913 96.9694H60.2305C51.0932 96.9694 44.0785 84.2726 45.3907 70.1016L50.2768 17.1909H86.4571L91.3432 70.1016C92.6494 84.2726 85.6407 96.9694 76.5034 96.9694H76.4913Z" stroke="#FFF9EE" stroke-width="2" stroke-linecap="round" stroke-linejoin="round"/>
<path d="M39.7665 51.472L1.66327 97H44.1084V45.0781H38.4785L1.5 88.5313V91.516" stroke="#FFF9EE" stroke-width="2" stroke-linecap="round" stroke-linejoin="round"/>
<path d="M78.9342 1.60669L63.5684 46.9041" stroke="#FFF9EE" stroke-width="2" stroke-linecap="round" stroke-linejoin="round"/>
<path d="M34.857 68.4519C35.3714 68.4519 35.7883 68.0337 35.7883 67.5177C35.7883 67.0018 35.3714 66.5835 34.857 66.5835C34.3427 66.5835 33.9258 67.0018 33.9258 67.5177C33.9258 68.0337 34.3427 68.4519 34.857 68.4519Z" fill="#FFF9EE" stroke="#FFF9EE" stroke-width="2" stroke-linecap="round" stroke-linejoin="round"/>
<path d="M29.566 73.135C30.0804 73.135 30.4973 72.7168 30.4973 72.2008C30.4973 71.6849 30.0804 71.2666 29.566 71.2666C29.0517 71.2666 28.6348 71.6849 28.6348 72.2008C28.6348 72.7168 29.0517 73.135 29.566 73.135Z" fill="#FFF9EE" stroke="#FFF9EE" stroke-width="2" stroke-linecap="round" stroke-linejoin="round"/>
<path d="M37.0133 77.1692C37.5276 77.1692 37.9446 76.7509 37.9446 76.235C37.9446 75.719 37.5276 75.3008 37.0133 75.3008C36.499 75.3008 36.082 75.719 36.082 76.235C36.082 76.7509 36.499 77.1692 37.0133 77.1692Z" fill="#FFF9EE" stroke="#FFF9EE" stroke-width="2" stroke-linecap="round" stroke-linejoin="round"/>
<path d="M30.3629 79.3772C30.8772 79.3772 31.2942 78.959 31.2942 78.443C31.2942 77.9271 30.8772 77.5088 30.3629 77.5088C29.8486 77.5088 29.4316 77.9271 29.4316 78.443C29.4316 78.959 29.8486 79.3772 30.3629 79.3772Z" fill="#FFF9EE" stroke="#FFF9EE" stroke-width="2" stroke-linecap="round" stroke-linejoin="round"/>
<path d="M19.4293 82.8655C19.9436 82.8655 20.3606 82.4472 20.3606 81.9313C20.3606 81.4153 19.9436 80.9971 19.4293 80.9971C18.915 80.9971 18.498 81.4153 18.498 81.9313C18.498 82.4472 18.915 82.8655 19.4293 82.8655Z" fill="#FFF9EE" stroke="#FFF9EE" stroke-width="2" stroke-linecap="round" stroke-linejoin="round"/>
<path d="M27.5387 85.5164C28.053 85.5164 28.47 85.0981 28.47 84.5822C28.47 84.0662 28.053 83.6479 27.5387 83.6479C27.0244 83.6479 26.6074 84.0662 26.6074 84.5822C26.6074 85.0981 27.0244 85.5164 27.5387 85.5164Z" fill="#FFF9EE" stroke="#FFF9EE" stroke-width="2" stroke-linecap="round" stroke-linejoin="round"/>
<path d="M36.7906 86.6326C37.305 86.6326 37.7219 86.2143 37.7219 85.6984C37.7219 85.1824 37.305 84.7642 36.7906 84.7642C36.2763 84.7642 35.8594 85.1824 35.8594 85.6984C35.8594 86.2143 36.2763 86.6326 36.7906 86.6326Z" fill="#FFF9EE" stroke="#FFF9EE" stroke-width="2" stroke-linecap="round" stroke-linejoin="round"/>
<path d="M19.6891 90.3753C20.2034 90.3753 20.6203 89.957 20.6203 89.441C20.6203 88.9251 20.2034 88.5068 19.6891 88.5068C19.1748 88.5068 18.7578 88.9251 18.7578 89.441C18.7578 89.957 19.1748 90.3753 19.6891 90.3753Z" fill="#FFF9EE" stroke="#FFF9EE" stroke-width="2" stroke-linecap="round" stroke-linejoin="round"/>
<path d="M31.9977 91.7586C32.512 91.7586 32.9289 91.3403 32.9289 90.8244C32.9289 90.3084 32.512 89.8901 31.9977 89.8901C31.4833 89.8901 31.0664 90.3084 31.0664 90.8244C31.0664 91.3403 31.4833 91.7586 31.9977 91.7586Z" fill="#FFF9EE" stroke="#FFF9EE" stroke-width="2" stroke-linecap="round" stroke-linejoin="round"/>
<path d="M24.7086 92.5471C25.2229 92.5471 25.6399 92.1289 25.6399 91.6129C25.6399 91.097 25.2229 90.6787 24.7086 90.6787C24.1943 90.6787 23.7773 91.097 23.7773 91.6129C23.7773 92.1289 24.1943 92.5471 24.7086 92.5471Z" fill="#FFF9EE" stroke="#FFF9EE" stroke-width="2" stroke-linecap="round" stroke-linejoin="round"/>
<path d="M39.4899 66.201C40.0042 66.201 40.4211 65.7827 40.4211 65.2667C40.4211 64.7508 40.0042 64.3325 39.4899 64.3325C38.9755 64.3325 38.5586 64.7508 38.5586 65.2667C38.5586 65.7827 38.9755 66.201 39.4899 66.201Z" fill="#FFF9EE" stroke="#FFF9EE" stroke-width="2" stroke-linecap="round" stroke-linejoin="round"/>
<path d="M15.0622 13.1315C14.682 13.1097 14.4061 12.7609 14.4018 12.3772C14.3757 10.6855 13.0092 9.31434 11.3233 9.28818C10.9409 9.28164 10.5955 9.00697 10.5716 8.62547C10.5477 8.21564 10.8714 7.87774 11.2733 7.87774C12.9809 7.87774 14.3735 6.49782 14.4018 4.7909C14.4083 4.40723 14.6799 4.05625 15.0644 4.03445C15.4729 4.01047 15.8096 4.33529 15.8096 4.73858C15.8096 6.45204 17.1848 7.8494 18.886 7.87774C19.2683 7.88428 19.6181 8.15678 19.6398 8.54045C19.6637 8.95029 19.34 9.28818 18.9381 9.28818C17.2131 9.28818 15.8096 10.6964 15.8096 12.4273C15.8096 12.8306 15.4729 13.1555 15.0644 13.1315H15.0622Z" stroke="#FFF9EE" stroke-width="2" stroke-miterlimit="10"/>
</svg>
