<svg width="158" height="168" viewBox="0 0 158 168" fill="none" xmlns="http://www.w3.org/2000/svg">
<mask id="mask0_2272_140961" style="mask-type:luminance" maskUnits="userSpaceOnUse" x="80" y="34" width="77" height="133">
<path d="M132.01 166.2H105.12C90.0101 166.2 78.4101 145.27 80.5801 121.91L88.6601 34.6899H148.49L156.57 121.91C158.73 145.27 147.14 166.2 132.03 166.2H132.01Z" fill="white"/>
</mask>
<g mask="url(#mask0_2272_140961)">
<path d="M80.46 136.85L92.88 156.85L105.3 136.85L117.72 156.85L130.15 136.85L142.57 156.85L155 136.85" stroke="#FFF9EE" stroke-width="2" stroke-linecap="round" stroke-linejoin="round"/>
<path d="M80.46 152.97L92.88 172.97L105.3 152.97L117.72 172.97L130.15 152.97L142.57 172.97L155 152.97" stroke="#FFF9EE" stroke-width="2" stroke-linecap="round" stroke-linejoin="round"/>
<path d="M80.46 120.73L92.88 140.73L105.3 120.73L117.72 140.73L130.15 120.73L142.57 140.73L155 120.73" stroke="#FFF9EE" stroke-width="2" stroke-linecap="round" stroke-linejoin="round"/>
<path d="M80.46 104.61L92.88 124.61L105.3 104.61L117.72 124.61L130.15 104.61L142.57 124.61L155 104.61" stroke="#FFF9EE" stroke-width="2" stroke-linecap="round" stroke-linejoin="round"/>
<path d="M80.46 88.49L92.88 108.49L105.3 88.49L117.72 108.49L130.15 88.49L142.57 108.49L155 88.49" stroke="#FFF9EE" stroke-width="2" stroke-linecap="round" stroke-linejoin="round"/>
</g>
<path d="M132.01 166.2H105.12C90.0101 166.2 78.4101 145.27 80.5801 121.91L88.6601 34.6899H148.49L156.57 121.91C158.73 145.27 147.14 166.2 132.03 166.2H132.01Z" stroke="#FFF9EE" stroke-width="2" stroke-linecap="round" stroke-linejoin="round"/>
<path d="M132.01 166.2H105.12C90.0101 166.2 78.4101 145.27 80.5801 121.91L88.6601 34.6899H148.49L156.57 121.91C158.73 145.27 147.14 166.2 132.03 166.2H132.01Z" stroke="#FFF9EE" stroke-width="2" stroke-linecap="round" stroke-linejoin="round"/>
<path d="M71.28 91.1999L8.27 166.25H78.46V80.6599H69.15L8 152.29V157.21" stroke="#FFF9EE" stroke-width="2" stroke-linecap="round" stroke-linejoin="round"/>
<path d="M136.05 9L110.64 83.67" stroke="#FFF9EE" stroke-width="2" stroke-linecap="round" stroke-linejoin="round"/>
<path d="M63.1601 119.19C64.0106 119.19 64.7001 118.501 64.7001 117.65C64.7001 116.8 64.0106 116.11 63.1601 116.11C62.3096 116.11 61.6201 116.8 61.6201 117.65C61.6201 118.501 62.3096 119.19 63.1601 119.19Z" fill="#FFF9EE" stroke="#FFF9EE" stroke-width="2" stroke-linecap="round" stroke-linejoin="round"/>
<path d="M54.4101 126.91C55.2606 126.91 55.9501 126.221 55.9501 125.37C55.9501 124.52 55.2606 123.83 54.4101 123.83C53.5596 123.83 52.8701 124.52 52.8701 125.37C52.8701 126.221 53.5596 126.91 54.4101 126.91Z" fill="#FFF9EE" stroke="#FFF9EE" stroke-width="2" stroke-linecap="round" stroke-linejoin="round"/>
<path d="M66.7295 133.56C67.58 133.56 68.2695 132.87 68.2695 132.02C68.2695 131.169 67.58 130.48 66.7295 130.48C65.8789 130.48 65.1895 131.169 65.1895 132.02C65.1895 132.87 65.8789 133.56 66.7295 133.56Z" fill="#FFF9EE" stroke="#FFF9EE" stroke-width="2" stroke-linecap="round" stroke-linejoin="round"/>
<path d="M55.7295 137.2C56.58 137.2 57.2695 136.511 57.2695 135.66C57.2695 134.81 56.58 134.12 55.7295 134.12C54.8789 134.12 54.1895 134.81 54.1895 135.66C54.1895 136.511 54.8789 137.2 55.7295 137.2Z" fill="#FFF9EE" stroke="#FFF9EE" stroke-width="2" stroke-linecap="round" stroke-linejoin="round"/>
<path d="M37.6504 142.95C38.5009 142.95 39.1903 142.261 39.1903 141.41C39.1903 140.56 38.5009 139.87 37.6504 139.87C36.7998 139.87 36.1104 140.56 36.1104 141.41C36.1104 142.261 36.7998 142.95 37.6504 142.95Z" fill="#FFF9EE" stroke="#FFF9EE" stroke-width="2" stroke-linecap="round" stroke-linejoin="round"/>
<path d="M51.0595 147.32C51.9101 147.32 52.5995 146.631 52.5995 145.78C52.5995 144.929 51.9101 144.24 51.0595 144.24C50.209 144.24 49.5195 144.929 49.5195 145.78C49.5195 146.631 50.209 147.32 51.0595 147.32Z" fill="#FFF9EE" stroke="#FFF9EE" stroke-width="2" stroke-linecap="round" stroke-linejoin="round"/>
<path d="M66.3603 149.16C67.2108 149.16 67.9003 148.471 67.9003 147.62C67.9003 146.77 67.2108 146.08 66.3603 146.08C65.5098 146.08 64.8203 146.77 64.8203 147.62C64.8203 148.471 65.5098 149.16 66.3603 149.16Z" fill="#FFF9EE" stroke="#FFF9EE" stroke-width="2" stroke-linecap="round" stroke-linejoin="round"/>
<path d="M38.08 155.33C38.9306 155.33 39.62 154.641 39.62 153.79C39.62 152.939 38.9306 152.25 38.08 152.25C37.2295 152.25 36.54 152.939 36.54 153.79C36.54 154.641 37.2295 155.33 38.08 155.33Z" fill="#FFF9EE" stroke="#FFF9EE" stroke-width="2" stroke-linecap="round" stroke-linejoin="round"/>
<path d="M58.4296 157.61C59.2802 157.61 59.9697 156.921 59.9697 156.07C59.9697 155.22 59.2802 154.53 58.4296 154.53C57.5791 154.53 56.8896 155.22 56.8896 156.07C56.8896 156.921 57.5791 157.61 58.4296 157.61Z" fill="#FFF9EE" stroke="#FFF9EE" stroke-width="2" stroke-linecap="round" stroke-linejoin="round"/>
<path d="M46.3798 158.91C47.2304 158.91 47.9198 158.221 47.9198 157.37C47.9198 156.52 47.2304 155.83 46.3798 155.83C45.5293 155.83 44.8398 156.52 44.8398 157.37C44.8398 158.221 45.5293 158.91 46.3798 158.91Z" fill="#FFF9EE" stroke="#FFF9EE" stroke-width="2" stroke-linecap="round" stroke-linejoin="round"/>
<path d="M70.8203 115.48C71.6708 115.48 72.3603 114.79 72.3603 113.94C72.3603 113.089 71.6708 112.4 70.8203 112.4C69.9698 112.4 69.2803 113.089 69.2803 113.94C69.2803 114.79 69.9698 115.48 70.8203 115.48Z" fill="#FFF9EE" stroke="#FFF9EE" stroke-width="2" stroke-linecap="round" stroke-linejoin="round"/>
<path d="M30.4281 27.9979C29.7994 27.962 29.3432 27.387 29.336 26.7546C29.2929 23.966 27.0331 21.7056 24.2451 21.6625C23.6128 21.6517 23.0416 21.1989 23.0021 20.5701C22.9625 19.8945 23.4978 19.3375 24.1625 19.3375C26.9863 19.3375 29.2893 17.0628 29.336 14.249C29.3467 13.6166 29.7958 13.038 30.4317 13.0021C31.1072 12.9625 31.664 13.498 31.664 14.1628C31.664 16.9873 33.9382 19.2908 36.7513 19.3375C37.3836 19.3483 37.962 19.7975 37.9979 20.4299C38.0375 21.1055 37.5022 21.6625 36.8375 21.6625C33.9849 21.6625 31.664 23.9839 31.664 26.8372C31.664 27.502 31.1072 28.0375 30.4317 27.9979H30.4281Z" stroke="#FFF9EE" stroke-width="2" stroke-miterlimit="10"/>
<circle cx="13.5" cy="45.5" r="4.5" fill="#FFF9EE"/>
</svg>
