<svg width="228" height="130" viewBox="0 0 228 130" fill="none" xmlns="http://www.w3.org/2000/svg">
<path d="M204.188 16.0729C210.734 18.3662 215.407 24.3945 215.407 31.47C215.407 31.9819 215.383 32.4884 215.335 32.9883" stroke="rgba(255, 249, 238, 0.50)" stroke-opacity="0.3" stroke-width="0.681404" stroke-miterlimit="10"/>
<path d="M215.31 32.8066C214.963 26.5496 209.566 21.579 202.958 21.579C202.497 21.579 202.042 21.603 201.594 21.6505" stroke="rgba(255, 249, 238, 0.50)" stroke-opacity="0.3" stroke-width="0.681404" stroke-miterlimit="10"/>
<path d="M201.594 21.6484C202.839 15.4472 208.506 10.76 215.332 10.76C222.157 10.76 227.902 15.4486 229.148 21.6484" stroke="rgba(255, 249, 238, 0.50)" stroke-opacity="0.3" stroke-width="0.681404" stroke-miterlimit="10"/>
<path d="M229.154 21.6505C228.706 21.603 228.25 21.579 227.789 21.579C221.182 21.579 215.785 26.5496 215.438 32.8066" stroke="rgba(255, 249, 238, 0.50)" stroke-opacity="0.3" stroke-width="0.681404" stroke-miterlimit="10"/>
<path d="M226.548 16.0729C220.002 18.3662 215.328 24.3945 215.328 31.47C215.328 31.9819 215.352 32.4884 215.4 32.9883" stroke="rgba(255, 249, 238, 0.50)" stroke-opacity="0.3" stroke-width="0.681404" stroke-miterlimit="10"/>
<path d="M226.548 113.967C220.002 111.673 215.328 105.645 215.328 98.5693C215.328 98.0575 215.352 97.5511 215.4 97.0512" stroke="rgba(255, 249, 238, 0.50)" stroke-opacity="0.3" stroke-width="0.681404" stroke-miterlimit="10"/>
<path d="M215.438 97.2331C215.785 103.49 221.182 108.461 227.789 108.461C228.25 108.461 228.706 108.437 229.154 108.389" stroke="rgba(255, 249, 238, 0.50)" stroke-opacity="0.3" stroke-width="0.681404" stroke-miterlimit="10"/>
<path d="M229.148 108.391C227.902 114.592 222.236 119.279 215.41 119.279C208.586 119.279 202.84 114.591 201.594 108.391" stroke="rgba(255, 249, 238, 0.50)" stroke-opacity="0.3" stroke-width="0.681404" stroke-miterlimit="10"/>
<path d="M201.594 108.389C202.042 108.437 202.497 108.461 202.958 108.461C209.566 108.461 214.963 103.49 215.31 97.2331" stroke="rgba(255, 249, 238, 0.50)" stroke-opacity="0.3" stroke-width="0.681404" stroke-miterlimit="10"/>
<path d="M204.188 113.967C210.734 111.673 215.407 105.645 215.407 98.5693C215.407 98.0575 215.383 97.5511 215.335 97.0512" stroke="rgba(255, 249, 238, 0.50)" stroke-opacity="0.3" stroke-width="0.681404" stroke-miterlimit="10"/>
<path d="M71.5326 113.967C64.9858 111.673 60.3125 105.645 60.3125 98.5693C60.3125 98.0575 60.3367 97.5511 60.3847 97.0512" stroke="rgba(255, 249, 238, 0.50)" stroke-opacity="0.3" stroke-width="0.681404" stroke-miterlimit="10"/>
<path d="M60.4219 97.2331C60.769 103.49 66.1662 108.461 72.773 108.461C73.2343 108.461 73.6898 108.437 74.1383 108.389" stroke="rgba(255, 249, 238, 0.50)" stroke-opacity="0.3" stroke-width="0.681404" stroke-miterlimit="10"/>
<path d="M74.1334 108.391C72.8874 114.592 67.2209 119.279 60.3951 119.279C53.5701 119.279 47.8252 114.591 46.5781 108.391" stroke="rgba(255, 249, 238, 0.50)" stroke-opacity="0.3" stroke-width="0.681404" stroke-miterlimit="10"/>
<path d="M46.5781 108.389C47.0264 108.437 47.4819 108.461 47.9433 108.461C54.5504 108.461 59.9473 103.49 60.2945 97.2331" stroke="rgba(255, 249, 238, 0.50)" stroke-opacity="0.3" stroke-width="0.681404" stroke-miterlimit="10"/>
<path d="M49.1719 113.967C55.7185 111.673 60.3918 105.645 60.3918 98.5693C60.3918 98.0575 60.3673 97.5511 60.3196 97.0512" stroke="rgba(255, 249, 238, 0.50)" stroke-opacity="0.3" stroke-width="0.681404" stroke-miterlimit="10"/>
<path d="M101.008 65.1016L103.252 65.0924" stroke="rgba(255, 249, 238, 0.50)" stroke-opacity="0.3" stroke-width="0.681404" stroke-miterlimit="10"/>
<path d="M19.6474 65.1016H16.9688" stroke="rgba(255, 249, 238, 0.50)" stroke-opacity="0.3" stroke-width="0.681404" stroke-miterlimit="10"/>
<path d="M25.6494 90.7109L12.9085 78.4443C10.3851 76.0149 10.3843 71.9746 12.9046 69.542V69.542C15.4217 67.1125 15.4224 63.0778 12.9041 60.6496V60.6496C10.3835 58.2193 10.385 54.1819 12.9074 51.7535L25.6494 39.4859" stroke="rgba(255, 249, 238, 0.50)" stroke-opacity="0.3" stroke-width="0.681404" stroke-miterlimit="10"/>
<path d="M94.8828 90.7109L107.624 78.4443C110.147 76.0149 110.148 71.9746 107.628 69.542V69.542C105.111 67.1125 105.11 63.0778 107.628 60.6496V60.6496C110.149 58.2193 110.147 54.1819 107.625 51.7535L94.8828 39.4859" stroke="rgba(255, 249, 238, 0.50)" stroke-opacity="0.3" stroke-width="0.681404" stroke-miterlimit="10"/>
<path d="M38.499 0.66086L8.10156 29.8359" stroke="rgba(255, 249, 238, 0.50)" stroke-opacity="0.3" stroke-width="0.681404" stroke-miterlimit="10"/>
<path d="M46.426 21.8125C41.7378 21.8125 37.9375 18.1656 37.9375 13.6668C37.9375 13.5481 37.9398 13.4299 37.9454 13.3125" stroke="rgba(255, 249, 238, 0.50)" stroke-opacity="0.3" stroke-width="0.681404" stroke-miterlimit="10"/>
<path d="M19.4219 31.277C23.065 32.1932 25.7528 35.374 25.7528 39.1572C25.7528 39.2761 25.7503 39.3942 25.7449 39.5117" stroke="rgba(255, 249, 238, 0.50)" stroke-opacity="0.3" stroke-width="0.681404" stroke-miterlimit="10"/>
<path d="M43.9849 7.64305L8.10156 42.0762" stroke="rgba(255, 249, 238, 0.50)" stroke-opacity="0.3" stroke-width="0.681404" stroke-miterlimit="10"/>
<path d="M48.98 16.2852C45.8876 15.9504 43.4844 13.4322 43.4844 10.3754C43.4844 9.38982 43.7344 8.46014 44.1768 7.6417" stroke="rgba(255, 249, 238, 0.50)" stroke-opacity="0.3" stroke-width="0.681404" stroke-miterlimit="10"/>
<path d="M44.1798 7.64453C41.0874 7.30991 38.6953 4.7916 38.6953 1.73488C38.6953 1.36942 38.7297 1.01164 38.7955 0.664306" stroke="rgba(255, 249, 238, 0.50)" stroke-opacity="0.3" stroke-width="0.681404" stroke-miterlimit="10"/>
<path d="M37.9014 13.5215C31.57 13.5215 26.4375 8.59636 26.4375 2.52077C26.4375 1.88732 26.4932 1.26632 26.6003 0.662331" stroke="rgba(255, 249, 238, 0.50)" stroke-opacity="0.3" stroke-width="0.681404" stroke-miterlimit="10"/>
<path d="M71.1653 0.663058C70.8999 3.35983 68.5936 5.4082 65.7031 5.4082" stroke="rgba(255, 249, 238, 0.50)" stroke-opacity="0.3" stroke-width="0.681404" stroke-miterlimit="10"/>
<path d="M65.7106 5.40678C65.7106 8.35666 63.2185 10.748 60.1442 10.748C57.0699 10.748 54.5781 8.35666 54.5781 5.40678" stroke="rgba(255, 249, 238, 0.50)" stroke-opacity="0.3" stroke-width="0.681404" stroke-miterlimit="10"/>
<path d="M54.5702 5.4082C51.7059 5.4082 49.3823 3.33224 49.0781 0.663058" stroke="rgba(255, 249, 238, 0.50)" stroke-opacity="0.3" stroke-width="0.681404" stroke-miterlimit="10"/>
<path d="M46.5245 21.8051C46.2125 24.4655 43.8599 26.5332 41.0041 26.5332C40.5111 26.5332 40.0331 26.4716 39.5781 26.3559" stroke="rgba(255, 249, 238, 0.50)" stroke-opacity="0.3" stroke-width="0.681404" stroke-miterlimit="10"/>
<path d="M39.5789 26.3576C39.6983 26.7925 39.7625 27.2487 39.7625 27.7194C39.7625 30.6638 37.275 33.0508 34.2067 33.0508C33.7138 33.0508 33.2364 32.9889 32.7812 32.8733" stroke="rgba(255, 249, 238, 0.50)" stroke-opacity="0.3" stroke-width="0.681404" stroke-miterlimit="10"/>
<path d="M32.77 32.8728C32.9123 33.3442 32.9885 33.8428 32.9885 34.3584C32.9885 37.3026 30.5013 39.6895 27.4329 39.6895C26.7591 39.6895 26.1134 39.5745 25.5156 39.3637" stroke="rgba(255, 249, 238, 0.50)" stroke-opacity="0.3" stroke-width="0.681404" stroke-miterlimit="10"/>
<path d="M8.09375 20.5504C14.3117 20.5504 19.352 25.3872 19.352 31.3535" stroke="rgba(255, 249, 238, 0.50)" stroke-opacity="0.3" stroke-width="0.681404" stroke-miterlimit="10"/>
<path d="M25.7513 39.513C30.4404 41.6908 33.6746 46.3004 33.6746 51.635C33.6746 59.0679 27.395 65.0938 19.6484 65.0938" stroke="rgba(255, 249, 238, 0.50)" stroke-opacity="0.3" stroke-width="0.681404" stroke-miterlimit="10"/>
<path d="M82.1562 0.66086L112.554 29.8359" stroke="rgba(255, 249, 238, 0.50)" stroke-opacity="0.3" stroke-width="0.681404" stroke-miterlimit="10"/>
<path d="M74.2266 21.8125C78.9146 21.8125 82.715 18.1656 82.715 13.6668C82.715 13.5481 82.7126 13.4299 82.7072 13.3125" stroke="rgba(255, 249, 238, 0.50)" stroke-opacity="0.3" stroke-width="0.681404" stroke-miterlimit="10"/>
<path d="M101.23 31.277C97.5865 32.1932 94.8984 35.374 94.8984 39.1572C94.8984 39.2761 94.9012 39.3942 94.9064 39.5117" stroke="rgba(255, 249, 238, 0.50)" stroke-opacity="0.3" stroke-width="0.681404" stroke-miterlimit="10"/>
<path d="M76.6719 7.64305L112.555 42.0762" stroke="rgba(255, 249, 238, 0.50)" stroke-opacity="0.3" stroke-width="0.681404" stroke-miterlimit="10"/>
<path d="M71.6797 16.2852C74.7717 15.9504 77.1748 13.4322 77.1748 10.3754C77.1748 9.38982 76.9249 8.46014 76.4825 7.6417" stroke="rgba(255, 249, 238, 0.50)" stroke-opacity="0.3" stroke-width="0.681404" stroke-miterlimit="10"/>
<path d="M76.4844 7.64453C79.5768 7.30991 81.969 4.7916 81.969 1.73488C81.969 1.36942 81.9345 1.01164 81.8686 0.664306" stroke="rgba(255, 249, 238, 0.50)" stroke-opacity="0.3" stroke-width="0.681404" stroke-miterlimit="10"/>
<path d="M82.75 13.5215C89.0813 13.5215 94.2142 8.59636 94.2142 2.52077C94.2142 1.88732 94.1585 1.26632 94.0513 0.662331" stroke="rgba(255, 249, 238, 0.50)" stroke-opacity="0.3" stroke-width="0.681404" stroke-miterlimit="10"/>
<path d="M74.1328 21.8051C74.445 24.4655 76.7973 26.5332 79.6532 26.5332C80.146 26.5332 80.6239 26.4716 81.0791 26.3559" stroke="rgba(255, 249, 238, 0.50)" stroke-opacity="0.3" stroke-width="0.681404" stroke-miterlimit="10"/>
<path d="M81.0822 26.3557C80.9627 26.7905 80.8984 27.2467 80.8984 27.7175C80.8984 30.6619 83.3859 33.0488 86.4544 33.0488C86.9473 33.0488 87.4251 32.987 87.8799 32.8714" stroke="rgba(255, 249, 238, 0.50)" stroke-opacity="0.3" stroke-width="0.681404" stroke-miterlimit="10"/>
<path d="M87.8748 32.8728C87.7325 33.3442 87.6562 33.8428 87.6562 34.3584C87.6562 37.3026 90.1434 39.6895 93.2119 39.6895C93.8856 39.6895 94.5315 39.5745 95.1292 39.3637" stroke="rgba(255, 249, 238, 0.50)" stroke-opacity="0.3" stroke-width="0.681404" stroke-miterlimit="10"/>
<path d="M112.555 20.5504C106.337 20.5504 101.297 25.3872 101.297 31.3535" stroke="rgba(255, 249, 238, 0.50)" stroke-opacity="0.3" stroke-width="0.681404" stroke-miterlimit="10"/>
<path d="M94.9076 39.513C90.2186 41.6908 86.9844 46.3004 86.9844 51.635C86.9844 59.0679 93.2641 65.0938 101.01 65.0938" stroke="rgba(255, 249, 238, 0.50)" stroke-opacity="0.3" stroke-width="0.681404" stroke-miterlimit="10"/>
<path d="M38.9986 130.012L8.10156 100.357" stroke="rgba(255, 249, 238, 0.50)" stroke-opacity="0.3" stroke-width="0.681404" stroke-miterlimit="10"/>
<path d="M46.426 108.383C41.7378 108.383 37.9375 112.03 37.9375 116.528C37.9375 116.647 37.9398 116.765 37.9454 116.883" stroke="rgba(255, 249, 238, 0.50)" stroke-opacity="0.3" stroke-width="0.681404" stroke-miterlimit="10"/>
<path d="M19.4219 98.918C23.065 98.002 25.7528 94.8212 25.7528 91.0379C25.7528 90.9192 25.7503 90.801 25.7449 90.6837" stroke="rgba(255, 249, 238, 0.50)" stroke-opacity="0.3" stroke-width="0.681404" stroke-miterlimit="10"/>
<path d="M43.9849 122.553L8.10156 88.1196" stroke="rgba(255, 249, 238, 0.50)" stroke-opacity="0.3" stroke-width="0.681404" stroke-miterlimit="10"/>
<path d="M48.98 113.909C45.8876 114.244 43.4844 116.762 43.4844 119.819C43.4844 120.805 43.7344 121.734 44.1768 122.553" stroke="rgba(255, 249, 238, 0.50)" stroke-opacity="0.3" stroke-width="0.681404" stroke-miterlimit="10"/>
<path d="M44.1798 122.552C41.0874 122.887 38.6953 125.405 38.6953 128.461C38.6953 129.006 38.7717 129.534 38.9146 130.035" stroke="rgba(255, 249, 238, 0.50)" stroke-opacity="0.3" stroke-width="0.681404" stroke-miterlimit="10"/>
<path d="M37.9014 116.673C31.57 116.673 26.4375 121.598 26.4375 127.673C26.4375 128.486 26.5293 129.278 26.7036 130.041" stroke="rgba(255, 249, 238, 0.50)" stroke-opacity="0.3" stroke-width="0.681404" stroke-miterlimit="10"/>
<path d="M71.1912 130.055C71.1912 127.105 68.7774 124.788 65.7031 124.788" stroke="rgba(255, 249, 238, 0.50)" stroke-opacity="0.3" stroke-width="0.681404" stroke-miterlimit="10"/>
<path d="M65.7106 124.789C65.7106 121.839 63.2185 119.448 60.1442 119.448C57.0699 119.448 54.5781 121.839 54.5781 124.789" stroke="rgba(255, 249, 238, 0.50)" stroke-opacity="0.3" stroke-width="0.681404" stroke-miterlimit="10"/>
<path d="M54.5732 124.787C51.4988 124.787 49.0469 127.179 49.0469 130.129" stroke="rgba(255, 249, 238, 0.50)" stroke-opacity="0.3" stroke-width="0.681404" stroke-miterlimit="10"/>
<path d="M46.5245 108.391C46.2125 105.73 43.8599 103.663 41.0041 103.663C40.5111 103.663 40.0331 103.724 39.5781 103.84" stroke="rgba(255, 249, 238, 0.50)" stroke-opacity="0.3" stroke-width="0.681404" stroke-miterlimit="10"/>
<path d="M39.5789 103.838C39.6983 103.403 39.7625 102.947 39.7625 102.476C39.7625 99.5317 37.275 97.1447 34.2067 97.1447C33.7138 97.1447 33.2364 97.2066 32.7812 97.3221" stroke="rgba(255, 249, 238, 0.50)" stroke-opacity="0.3" stroke-width="0.681404" stroke-miterlimit="10"/>
<path d="M32.77 97.3223C32.9123 96.8505 32.9885 96.3523 32.9885 95.8367C32.9885 92.8923 30.5013 90.5056 27.4329 90.5056C26.7591 90.5056 26.1134 90.6206 25.5156 90.8314" stroke="rgba(255, 249, 238, 0.50)" stroke-opacity="0.3" stroke-width="0.681404" stroke-miterlimit="10"/>
<path d="M8.09375 109.643C14.3117 109.643 19.352 104.806 19.352 98.8391" stroke="rgba(255, 249, 238, 0.50)" stroke-opacity="0.3" stroke-width="0.681404" stroke-miterlimit="10"/>
<path d="M25.7513 90.6836C30.4404 88.5057 33.6746 83.8962 33.6746 78.5618C33.6746 71.1286 27.395 65.1029 19.6484 65.1029" stroke="rgba(255, 249, 238, 0.50)" stroke-opacity="0.3" stroke-width="0.681404" stroke-miterlimit="10"/>
<path d="M-19.3867 3.03399L8.53812 29.8359" stroke="rgba(255, 249, 238, 0.50)" stroke-opacity="0.3" stroke-width="0.681404" stroke-miterlimit="10"/>
<path d="M-19.3867 15.2796L8.53812 42.0762" stroke="rgba(255, 249, 238, 0.50)" stroke-opacity="0.3" stroke-width="0.681404" stroke-miterlimit="10"/>
<path d="M8.53951 20.5504C2.32174 20.5504 -2.71875 25.3872 -2.71875 31.3535" stroke="rgba(255, 249, 238, 0.50)" stroke-opacity="0.3" stroke-width="0.681404" stroke-miterlimit="10"/>
<path d="M-19.3867 127.16L8.53812 100.358" stroke="rgba(255, 249, 238, 0.50)" stroke-opacity="0.3" stroke-width="0.681404" stroke-miterlimit="10"/>
<path d="M8.53951 109.643C2.32174 109.643 -2.71875 104.806 -2.71875 98.8391" stroke="rgba(255, 249, 238, 0.50)" stroke-opacity="0.3" stroke-width="0.681404" stroke-miterlimit="10"/>
<path d="M81.6562 130.012L112.553 100.357" stroke="rgba(255, 249, 238, 0.50)" stroke-opacity="0.3" stroke-width="0.681404" stroke-miterlimit="10"/>
<path d="M74.2266 108.383C78.9146 108.383 82.715 112.03 82.715 116.528C82.715 116.647 82.7126 116.765 82.7072 116.883" stroke="rgba(255, 249, 238, 0.50)" stroke-opacity="0.3" stroke-width="0.681404" stroke-miterlimit="10"/>
<path d="M101.23 98.918C97.5865 98.002 94.8984 94.8212 94.8984 91.0379C94.8984 90.9192 94.9012 90.801 94.9064 90.6837" stroke="rgba(255, 249, 238, 0.50)" stroke-opacity="0.3" stroke-width="0.681404" stroke-miterlimit="10"/>
<path d="M76.6719 122.553L112.555 88.1196" stroke="rgba(255, 249, 238, 0.50)" stroke-opacity="0.3" stroke-width="0.681404" stroke-miterlimit="10"/>
<path d="M71.6797 113.909C74.7717 114.244 77.1748 116.762 77.1748 119.819C77.1748 120.805 76.9249 121.734 76.4825 122.553" stroke="rgba(255, 249, 238, 0.50)" stroke-opacity="0.3" stroke-width="0.681404" stroke-miterlimit="10"/>
<path d="M76.4844 122.552C79.5768 122.887 81.969 125.405 81.969 128.461C81.969 129.006 81.8923 129.534 81.7496 130.035" stroke="rgba(255, 249, 238, 0.50)" stroke-opacity="0.3" stroke-width="0.681404" stroke-miterlimit="10"/>
<path d="M82.75 116.673C89.0813 116.673 94.2142 121.598 94.2142 127.673C94.2142 128.486 94.1226 129.278 93.948 130.041" stroke="rgba(255, 249, 238, 0.50)" stroke-opacity="0.3" stroke-width="0.681404" stroke-miterlimit="10"/>
<path d="M74.1328 108.391C74.445 105.73 76.7973 103.663 79.6532 103.663C80.146 103.663 80.6239 103.724 81.0791 103.84" stroke="rgba(255, 249, 238, 0.50)" stroke-opacity="0.3" stroke-width="0.681404" stroke-miterlimit="10"/>
<path d="M81.0822 103.838C80.9627 103.403 80.8984 102.947 80.8984 102.476C80.8984 99.5317 83.3859 97.1447 86.4544 97.1447C86.9473 97.1447 87.4251 97.2066 87.8799 97.3221" stroke="rgba(255, 249, 238, 0.50)" stroke-opacity="0.3" stroke-width="0.681404" stroke-miterlimit="10"/>
<path d="M87.8748 97.3223C87.7325 96.8505 87.6562 96.3523 87.6562 95.8367C87.6562 92.8923 90.1434 90.5056 93.2119 90.5056C93.8856 90.5056 94.5315 90.6206 95.1292 90.8314" stroke="rgba(255, 249, 238, 0.50)" stroke-opacity="0.3" stroke-width="0.681404" stroke-miterlimit="10"/>
<path d="M112.555 109.643C106.337 109.643 101.297 104.806 101.297 98.8391" stroke="rgba(255, 249, 238, 0.50)" stroke-opacity="0.3" stroke-width="0.681404" stroke-miterlimit="10"/>
<path d="M94.9076 90.6836C90.2186 88.5057 86.9844 83.8962 86.9844 78.5618C86.9844 71.1286 93.2641 65.1029 101.01 65.1029" stroke="rgba(255, 249, 238, 0.50)" stroke-opacity="0.3" stroke-width="0.681404" stroke-miterlimit="10"/>
<path d="M142.593 0.66086L112.195 29.8359" stroke="rgba(255, 249, 238, 0.50)" stroke-opacity="0.3" stroke-width="0.681404" stroke-miterlimit="10"/>
<path d="M123.523 31.277C127.167 32.1932 129.855 35.374 129.855 39.1572C129.855 39.2761 129.852 39.3942 129.847 39.5117" stroke="rgba(255, 249, 238, 0.50)" stroke-opacity="0.3" stroke-width="0.681404" stroke-miterlimit="10"/>
<path d="M148.078 7.64305L112.195 42.0762" stroke="rgba(255, 249, 238, 0.50)" stroke-opacity="0.3" stroke-width="0.681404" stroke-miterlimit="10"/>
<path d="M112.188 20.5504C118.405 20.5504 123.446 25.3872 123.446 31.3535" stroke="rgba(255, 249, 238, 0.50)" stroke-opacity="0.3" stroke-width="0.681404" stroke-miterlimit="10"/>
<path d="M129.837 39.513C134.526 41.6908 137.76 46.3004 137.76 51.635C137.76 59.0679 131.481 65.0938 123.734 65.0938" stroke="rgba(255, 249, 238, 0.50)" stroke-opacity="0.3" stroke-width="0.681404" stroke-miterlimit="10"/>
<path d="M143.092 130.012L112.195 100.357" stroke="rgba(255, 249, 238, 0.50)" stroke-opacity="0.3" stroke-width="0.681404" stroke-miterlimit="10"/>
<path d="M123.523 98.918C127.167 98.002 129.855 94.8212 129.855 91.0379C129.855 90.9192 129.852 90.801 129.847 90.6837" stroke="rgba(255, 249, 238, 0.50)" stroke-opacity="0.3" stroke-width="0.681404" stroke-miterlimit="10"/>
<path d="M148.078 122.553L112.195 88.1196" stroke="rgba(255, 249, 238, 0.50)" stroke-opacity="0.3" stroke-width="0.681404" stroke-miterlimit="10"/>
<path d="M112.188 109.643C118.405 109.643 123.446 104.806 123.446 98.8391" stroke="rgba(255, 249, 238, 0.50)" stroke-opacity="0.3" stroke-width="0.681404" stroke-miterlimit="10"/>
<path d="M129.837 90.6836C134.526 88.5057 137.76 83.8962 137.76 78.5618C137.76 71.1286 131.481 65.1029 123.734 65.1029" stroke="rgba(255, 249, 238, 0.50)" stroke-opacity="0.3" stroke-width="0.681404" stroke-miterlimit="10"/>
<path d="M123.739 65.1016H121.859" stroke="rgba(255, 249, 238, 0.50)" stroke-opacity="0.3" stroke-width="0.681404" stroke-miterlimit="10"/>
<path d="M133.133 0.66086L163.53 29.8359" stroke="rgba(255, 249, 238, 0.50)" stroke-opacity="0.3" stroke-width="0.681404" stroke-miterlimit="10"/>
<path d="M152.214 31.277C148.571 32.1932 145.883 35.374 145.883 39.1572C145.883 39.2761 145.886 39.3942 145.891 39.5117" stroke="rgba(255, 249, 238, 0.50)" stroke-opacity="0.3" stroke-width="0.681404" stroke-miterlimit="10"/>
<path d="M127.648 7.64305L163.531 42.0762" stroke="rgba(255, 249, 238, 0.50)" stroke-opacity="0.3" stroke-width="0.681404" stroke-miterlimit="10"/>
<path d="M163.539 20.5504C157.322 20.5504 152.281 25.3872 152.281 31.3535" stroke="rgba(255, 249, 238, 0.50)" stroke-opacity="0.3" stroke-width="0.681404" stroke-miterlimit="10"/>
<path d="M145.892 39.513C141.203 41.6908 137.969 46.3004 137.969 51.635C137.969 59.0679 144.248 65.0938 151.995 65.0938" stroke="rgba(255, 249, 238, 0.50)" stroke-opacity="0.3" stroke-width="0.681404" stroke-miterlimit="10"/>
<path d="M132.633 130.012L163.53 100.357" stroke="rgba(255, 249, 238, 0.50)" stroke-opacity="0.3" stroke-width="0.681404" stroke-miterlimit="10"/>
<path d="M152.214 98.918C148.571 98.002 145.883 94.8212 145.883 91.0379C145.883 90.9192 145.886 90.801 145.891 90.6837" stroke="rgba(255, 249, 238, 0.50)" stroke-opacity="0.3" stroke-width="0.681404" stroke-miterlimit="10"/>
<path d="M127.648 122.553L163.531 88.1196" stroke="rgba(255, 249, 238, 0.50)" stroke-opacity="0.3" stroke-width="0.681404" stroke-miterlimit="10"/>
<path d="M163.539 109.645C157.322 109.645 152.281 104.808 152.281 98.8411" stroke="rgba(255, 249, 238, 0.50)" stroke-opacity="0.3" stroke-width="0.681404" stroke-miterlimit="10"/>
<path d="M145.892 90.6836C141.203 88.5057 137.969 83.8962 137.969 78.5618C137.969 71.1286 144.248 65.1029 151.995 65.1029" stroke="rgba(255, 249, 238, 0.50)" stroke-opacity="0.3" stroke-width="0.681404" stroke-miterlimit="10"/>
<path d="M151.984 65.1016H153.84" stroke="rgba(255, 249, 238, 0.50)" stroke-opacity="0.3" stroke-width="0.681404" stroke-miterlimit="10"/>
<path d="M174.663 65.1016H171.984" stroke="rgba(255, 249, 238, 0.50)" stroke-opacity="0.3" stroke-width="0.681404" stroke-miterlimit="10"/>
<path d="M180.665 90.7109L167.924 78.4443C165.401 76.0149 165.4 71.9746 167.92 69.542V69.542C170.437 67.1125 170.438 63.0778 167.92 60.6496V60.6496C165.399 58.2193 165.401 54.1819 167.923 51.7535L180.665 39.4859" stroke="rgba(255, 249, 238, 0.50)" stroke-opacity="0.3" stroke-width="0.681404" stroke-miterlimit="10"/>
<path d="M193.522 0.66086L163.125 29.8359" stroke="rgba(255, 249, 238, 0.50)" stroke-opacity="0.3" stroke-width="0.681404" stroke-miterlimit="10"/>
<path d="M201.45 21.8125C196.761 21.8125 192.961 18.1656 192.961 13.6668C192.961 13.5481 192.964 13.4299 192.969 13.3125" stroke="rgba(255, 249, 238, 0.50)" stroke-opacity="0.3" stroke-width="0.681404" stroke-miterlimit="10"/>
<path d="M174.445 31.277C178.089 32.1932 180.777 35.374 180.777 39.1572C180.777 39.2761 180.774 39.3942 180.769 39.5117" stroke="rgba(255, 249, 238, 0.50)" stroke-opacity="0.3" stroke-width="0.681404" stroke-miterlimit="10"/>
<path d="M199.008 7.64305L163.125 42.0762" stroke="rgba(255, 249, 238, 0.50)" stroke-opacity="0.3" stroke-width="0.681404" stroke-miterlimit="10"/>
<path d="M204.003 16.2852C200.911 15.9504 198.508 13.4322 198.508 10.3754C198.508 9.38982 198.758 8.46014 199.2 7.6417" stroke="rgba(255, 249, 238, 0.50)" stroke-opacity="0.3" stroke-width="0.681404" stroke-miterlimit="10"/>
<path d="M199.195 7.64453C196.103 7.30991 193.711 4.7916 193.711 1.73488C193.711 1.36942 193.745 1.01164 193.811 0.664306" stroke="rgba(255, 249, 238, 0.50)" stroke-opacity="0.3" stroke-width="0.681404" stroke-miterlimit="10"/>
<path d="M192.925 13.5195C186.593 13.5195 181.461 8.59441 181.461 2.51881C181.461 1.88537 181.517 1.26437 181.624 0.660378" stroke="rgba(255, 249, 238, 0.50)" stroke-opacity="0.3" stroke-width="0.681404" stroke-miterlimit="10"/>
<path d="M226.197 0.663058C225.932 3.35983 223.625 5.4082 220.734 5.4082" stroke="rgba(255, 249, 238, 0.50)" stroke-opacity="0.3" stroke-width="0.681404" stroke-miterlimit="10"/>
<path d="M220.726 5.40678C220.726 8.35666 218.234 10.748 215.16 10.748C212.086 10.748 209.594 8.35666 209.594 5.40678" stroke="rgba(255, 249, 238, 0.50)" stroke-opacity="0.3" stroke-width="0.681404" stroke-miterlimit="10"/>
<path d="M209.594 5.4082C206.729 5.4082 204.406 3.33224 204.102 0.663058" stroke="rgba(255, 249, 238, 0.50)" stroke-opacity="0.3" stroke-width="0.681404" stroke-miterlimit="10"/>
<path d="M201.54 21.8051C201.228 24.4655 198.875 26.5332 196.019 26.5332C195.527 26.5332 195.049 26.4716 194.594 26.3559" stroke="rgba(255, 249, 238, 0.50)" stroke-opacity="0.3" stroke-width="0.681404" stroke-miterlimit="10"/>
<path d="M194.595 26.3557C194.714 26.7905 194.778 27.2467 194.778 27.7175C194.778 30.6619 192.291 33.0488 189.222 33.0488C188.729 33.0488 188.252 32.987 187.797 32.8714" stroke="rgba(255, 249, 238, 0.50)" stroke-opacity="0.3" stroke-width="0.681404" stroke-miterlimit="10"/>
<path d="M187.801 32.8728C187.943 33.3442 188.02 33.8428 188.02 34.3584C188.02 37.3026 185.533 39.6895 182.464 39.6895C181.79 39.6895 181.145 39.5745 180.547 39.3637" stroke="rgba(255, 249, 238, 0.50)" stroke-opacity="0.3" stroke-width="0.681404" stroke-miterlimit="10"/>
<path d="M163.117 20.5504C169.335 20.5504 174.375 25.3872 174.375 31.3535" stroke="rgba(255, 249, 238, 0.50)" stroke-opacity="0.3" stroke-width="0.681404" stroke-miterlimit="10"/>
<path d="M180.775 39.513C185.464 41.6908 188.697 46.3004 188.697 51.635C188.697 59.0679 182.418 65.0938 174.672 65.0938" stroke="rgba(255, 249, 238, 0.50)" stroke-opacity="0.3" stroke-width="0.681404" stroke-miterlimit="10"/>
<path d="M226.688 16.2852C229.78 15.9504 232.183 13.4322 232.183 10.3754C232.183 9.38982 231.933 8.46014 231.491 7.6417" stroke="rgba(255, 249, 238, 0.50)" stroke-opacity="0.3" stroke-width="0.681404" stroke-miterlimit="10"/>
<path d="M194.022 130.012L163.125 100.357" stroke="rgba(255, 249, 238, 0.50)" stroke-opacity="0.3" stroke-width="0.681404" stroke-miterlimit="10"/>
<path d="M201.45 108.381C196.761 108.381 192.961 112.028 192.961 116.526C192.961 116.645 192.964 116.763 192.969 116.881" stroke="rgba(255, 249, 238, 0.50)" stroke-opacity="0.3" stroke-width="0.681404" stroke-miterlimit="10"/>
<path d="M174.445 98.918C178.089 98.002 180.777 94.8212 180.777 91.0379C180.777 90.9192 180.774 90.801 180.769 90.6837" stroke="rgba(255, 249, 238, 0.50)" stroke-opacity="0.3" stroke-width="0.681404" stroke-miterlimit="10"/>
<path d="M199.008 122.553L163.125 88.1196" stroke="rgba(255, 249, 238, 0.50)" stroke-opacity="0.3" stroke-width="0.681404" stroke-miterlimit="10"/>
<path d="M204.003 113.909C200.911 114.244 198.508 116.762 198.508 119.819C198.508 120.805 198.758 121.734 199.2 122.553" stroke="rgba(255, 249, 238, 0.50)" stroke-opacity="0.3" stroke-width="0.681404" stroke-miterlimit="10"/>
<path d="M199.195 122.552C196.103 122.887 193.711 125.405 193.711 128.461C193.711 129.006 193.787 129.534 193.93 130.035" stroke="rgba(255, 249, 238, 0.50)" stroke-opacity="0.3" stroke-width="0.681404" stroke-miterlimit="10"/>
<path d="M192.925 116.673C186.593 116.673 181.461 121.598 181.461 127.673C181.461 128.486 181.553 129.278 181.727 130.041" stroke="rgba(255, 249, 238, 0.50)" stroke-opacity="0.3" stroke-width="0.681404" stroke-miterlimit="10"/>
<path d="M226.223 130.055C226.223 127.105 223.809 124.788 220.734 124.788" stroke="rgba(255, 249, 238, 0.50)" stroke-opacity="0.3" stroke-width="0.681404" stroke-miterlimit="10"/>
<path d="M220.726 124.789C220.726 121.839 218.234 119.448 215.16 119.448C212.086 119.448 209.594 121.839 209.594 124.789" stroke="rgba(255, 249, 238, 0.50)" stroke-opacity="0.3" stroke-width="0.681404" stroke-miterlimit="10"/>
<path d="M209.605 124.787C206.53 124.787 204.078 127.179 204.078 130.129" stroke="rgba(255, 249, 238, 0.50)" stroke-opacity="0.3" stroke-width="0.681404" stroke-miterlimit="10"/>
<path d="M201.54 108.391C201.228 105.73 198.875 103.663 196.019 103.663C195.527 103.663 195.049 103.724 194.594 103.84" stroke="rgba(255, 249, 238, 0.50)" stroke-opacity="0.3" stroke-width="0.681404" stroke-miterlimit="10"/>
<path d="M194.595 103.838C194.714 103.403 194.778 102.947 194.778 102.476C194.778 99.5317 192.291 97.1447 189.222 97.1447C188.729 97.1447 188.252 97.2066 187.797 97.3221" stroke="rgba(255, 249, 238, 0.50)" stroke-opacity="0.3" stroke-width="0.681404" stroke-miterlimit="10"/>
<path d="M187.801 97.3223C187.943 96.8505 188.02 96.3523 188.02 95.8367C188.02 92.8923 185.533 90.5056 182.464 90.5056C181.79 90.5056 181.145 90.6206 180.547 90.8314" stroke="rgba(255, 249, 238, 0.50)" stroke-opacity="0.3" stroke-width="0.681404" stroke-miterlimit="10"/>
<path d="M163.117 109.645C169.335 109.645 174.375 104.808 174.375 98.8411" stroke="rgba(255, 249, 238, 0.50)" stroke-opacity="0.3" stroke-width="0.681404" stroke-miterlimit="10"/>
<path d="M180.775 90.6816C185.464 88.5037 188.697 83.8942 188.697 78.5599C188.697 71.1267 182.418 65.1009 174.672 65.1009" stroke="rgba(255, 249, 238, 0.50)" stroke-opacity="0.3" stroke-width="0.681404" stroke-miterlimit="10"/>
<path d="M226.688 113.909C229.78 114.244 232.183 116.762 232.183 119.819C232.183 120.805 231.933 121.734 231.491 122.553" stroke="rgba(255, 249, 238, 0.50)" stroke-opacity="0.3" stroke-width="0.681404" stroke-miterlimit="10"/>
<path d="M49.1406 16.1721C55.6878 18.4659 60.3618 24.4948 60.3618 31.5713C60.3618 32.083 60.3374 32.5896 60.2895 33.0898" stroke="rgba(255, 249, 238, 0.50)" stroke-opacity="0.3" stroke-width="0.681404" stroke-miterlimit="10"/>
<path d="M60.2646 32.9062C59.9175 26.6487 54.5197 21.6772 47.912 21.6772C47.4509 21.6772 46.9952 21.7014 46.5469 21.7487" stroke="rgba(255, 249, 238, 0.50)" stroke-opacity="0.3" stroke-width="0.681404" stroke-miterlimit="10"/>
<path d="M46.5469 21.748C47.7928 15.5466 53.46 10.8585 60.2865 10.8585C67.1123 10.8585 72.858 15.5477 74.1052 21.748" stroke="rgba(255, 249, 238, 0.50)" stroke-opacity="0.3" stroke-width="0.681404" stroke-miterlimit="10"/>
<path d="M74.1087 21.7487C73.6601 21.7014 73.2049 21.6772 72.7433 21.6772C66.1356 21.6772 60.7379 26.6487 60.3906 32.9062" stroke="rgba(255, 249, 238, 0.50)" stroke-opacity="0.3" stroke-width="0.681404" stroke-miterlimit="10"/>
<path d="M71.5025 16.1721C64.9552 18.4659 60.2812 24.4948 60.2812 31.5713C60.2812 32.083 60.3056 32.5896 60.3537 33.0898" stroke="rgba(255, 249, 238, 0.50)" stroke-opacity="0.3" stroke-width="0.681404" stroke-miterlimit="10"/>
<path d="M129.868 90.7109L117.127 78.4443C114.604 76.0149 114.603 71.9746 117.123 69.542V69.542C119.64 67.1125 119.641 63.0778 117.123 60.6497V60.6497C114.602 58.2193 114.604 54.182 117.126 51.7536L129.868 39.4859" stroke="rgba(255, 249, 238, 0.50)" stroke-opacity="0.3" stroke-width="0.681404" stroke-miterlimit="10"/>
<path d="M145.859 90.7109L158.6 78.4443C161.124 76.0149 161.125 71.9746 158.604 69.542V69.542C156.087 67.1125 156.087 63.0778 158.605 60.6496V60.6496C161.125 58.2193 161.124 54.182 158.602 51.7535L145.859 39.4859" stroke="rgba(255, 249, 238, 0.50)" stroke-opacity="0.3" stroke-width="0.681404" stroke-miterlimit="10"/>
<path d="M-9.00781 90.7109L3.73321 78.4443C6.25656 76.0149 6.25735 71.9746 3.73705 69.542V69.542C1.21995 67.1125 1.21924 63.0778 3.7376 60.6496V60.6496C6.25815 58.2193 6.25666 54.1819 3.7343 51.7535L-9.00781 39.4859" stroke="rgba(255, 249, 238, 0.50)" stroke-opacity="0.3" stroke-width="0.681404" stroke-miterlimit="10"/>
<path d="M-19.3867 114.916L8.53812 88.1195" stroke="rgba(255, 249, 238, 0.50)" stroke-opacity="0.3" stroke-width="0.681404" stroke-miterlimit="10"/>
</svg>
