<svg xmlns="http://www.w3.org/2000/svg">
  <symbol viewBox="0 0 39.917336 29.652" id="src-1">
    <path stroke="#FFFCF8" stroke-linecap="round" stroke-linejoin="round" stroke-width="2.688"
      d="M18.74 16.698c-1.47-2.024-3.817-3.35-6.522-3.35-4.498 0-8.153 3.655-8.153 8.152s3.655 8.152 8.152 8.152a8.638 8.638 0 0 0 7.4-4.192L22 21.5l2.365-3.96a8.638 8.638 0 0 1 7.4-4.192c4.497 0 8.152 3.655 8.152 8.152s-3.655 8.152-8.152 8.152c-2.688 0-5.035-1.326-6.522-3.35" />
  </symbol>
  <symbol viewBox="0 0 20 14.5" id="src-2">
    <path stroke="#383A39" stroke-linecap="round" stroke-linejoin="round" stroke-width="1.5"
      d="M8 14.5h12" />
  </symbol>
  <symbol viewBox="0 0 20 20.5" id="src-3">
    <path stroke="#383A39" stroke-linecap="round" stroke-linejoin="round" stroke-width="1.5"
      d="M8 14.5h12M14 20.5v-12" />
  </symbol>
  <symbol viewBox="0 0 24 23" id="src-4">
    <path stroke="#383A39" stroke-linecap="round" stroke-linejoin="round" stroke-miterlimit="10"
      stroke-width="1.5"
      d="M19 23H9c-3 0-5-1.5-5-5v-7c0-3.5 2-5 5-5h10c3 0 5 1.5 5 5v7c0 3.5-2 5-5 5Z" />
    <path stroke="#383A39" stroke-linecap="round" stroke-linejoin="round" stroke-miterlimit="10"
      stroke-width="1.5" d="M19 11.5 15.87 14a3.17 3.17 0 0 1-3.75 0L9 11.5" />
  </symbol>
  <symbol viewBox="0 0 22.42 22.419998" id="src-5">
    <path stroke="#292D32" stroke-linecap="round" stroke-linejoin="round" stroke-width="1.5"
      d="M22.42 14.5a7.92 7.92 0 1 1-15.84 0 7.92 7.92 0 0 1 15.84 0Z" />
    <path stroke="#292D32" stroke-linecap="round" stroke-linejoin="round" stroke-width="1.5"
      d="m17.44 17.02-2.46-1.47a1.75 1.75 0 0 1-.77-1.36v-3.24" />
  </symbol>
  <symbol viewBox="0 0 22 22" id="src-6">
    <path fill="#383A39" stroke="#383A39" stroke-linecap="round" stroke-linejoin="round"
      stroke-width="1.5" d="M12 22c5.5 0 10-4.5 10-10S17.5 2 12 2 2 6.5 2 12s4.5 10 10 10Z" />
    <path fill="#383A39" d="m7.75 12 2.83 2.83 5.67-5.66" />
    <path stroke="#fff" stroke-linecap="round" stroke-linejoin="round" stroke-width="1.5"
      d="m7.75 12 2.83 2.83 5.67-5.66" />
  </symbol>
  <symbol viewBox="0 0 20.62226 22.49279" id="src-7">
    <path stroke="#292D32" stroke-width="1.5"
      d="M12 13.93a3.12 3.12 0 1 0 0-6.24 3.12 3.12 0 0 0 0 6.24Z" />
    <path stroke="#292D32" stroke-width="1.5"
      d="M3.62 8.99C5.59.33 18.42.34 20.38 9c1.15 5.08-2.01 9.38-4.78 12.04a5.2 5.2 0 0 1-7.21 0c-2.76-2.66-5.92-6.97-4.77-12.05Z" />
  </symbol>
  <symbol viewBox="0 0 23.992762 25.000326" id="src-8">
    <path stroke="#29354D" stroke-linecap="round" stroke-width="1.5"
      d="M12 21h4m2.18 4H9.82a4.09 4.09 0 0 1-4.18-3.99v-4.88c0-.7-.3-1.38-.82-1.89a2.6 2.6 0 0 1 .33-4.04l6.4-4.44a4.34 4.34 0 0 1 4.9 0l6.4 4.44a2.6 2.6 0 0 1 .33 4.04c-.52.5-.82 1.18-.82 1.9V21c0 2.2-1.87 3.99-4.18 3.99Z" />
  </symbol>
  <symbol viewBox="0 0 22 22" id="src-9">
    <path stroke="#292D32" stroke-linecap="round" stroke-linejoin="round" stroke-width="1.5"
      d="M6 10V8c0-3.31 1-6 6-6s6 2.69 6 6v2M12 18.5a2.5 2.5 0 1 0 0-5 2.5 2.5 0 0 0 0 5Z" />
    <path stroke="#292D32" stroke-linecap="round" stroke-linejoin="round" stroke-width="1.5"
      d="M17 22H7c-4 0-5-1-5-5v-2c0-4 1-5 5-5h10c4 0 5 1 5 5v2c0 4-1 5-5 5Z" />
  </symbol>
  <symbol viewBox="0 0 21 22.5" id="src-10">
    <path stroke="#292D32" stroke-linecap="round" stroke-linejoin="round" stroke-miterlimit="10"
      stroke-width="1.5"
      d="m13.26 4.1-8.21 8.69c-.31.33-.61.98-.67 1.43l-.37 3.24c-.13 1.17.71 1.97 1.87 1.77l3.22-.55a2.87 2.87 0 0 0 1.39-.75l8.21-8.69c1.42-1.5 2.06-3.21-.15-5.3-2.2-2.07-3.87-1.34-5.29.16Z" />
    <path stroke="#292D32" stroke-linecap="round" stroke-linejoin="round" stroke-miterlimit="10"
      stroke-width="1.5" d="M11.89 5.55a6.13 6.13 0 0 0 5.45 5.15M3 22.5h18" />
  </symbol>
  <symbol viewBox="0 0 24 23" id="src-11">
    <path stroke="#292D32" stroke-linecap="round" stroke-linejoin="round" stroke-miterlimit="10"
      stroke-width="1.5" d="M4 11h20M8 19h2M12.5 19h4" />
    <path stroke="#292D32" stroke-linecap="round" stroke-linejoin="round" stroke-width="1.5"
      d="M8.44 6h11.11c3.56 0 4.45.88 4.45 4.4v8.2c0 3.51-.89 4.4-4.44 4.4H8.44C4.89 23 4 22.11 4 18.6V10.4C4 6.9 4.89 6 8.44 6Z" />
  </symbol>
  <symbol viewBox="0 0 22 22.501335" id="src-12">
    <path stroke="#29354D" stroke-linecap="round" stroke-linejoin="round" stroke-width="1.5"
      d="M17.79 10.97v7.32a4.21 4.21 0 0 1-4.21 4.21H6.21A4.22 4.22 0 0 1 2 18.29v-7.32a4.21 4.21 0 0 1 4.21-4.21h7.37a4.22 4.22 0 0 1 4.21 4.21ZM5.5 4.5V2.75M9.5 4.5V2.75M13.5 4.5V2.75M22 13.66a4.22 4.22 0 0 1-4.2 4.21V9.45a4.21 4.21 0 0 1 4.2 4.21ZM2 12.5h15.51" />
  </symbol>
  <symbol viewBox="0 0 21 22" id="src-13">
    <path stroke="#29354D" stroke-linecap="round" stroke-width="2" d="m3 4 18 18m0-18L3 22" />
  </symbol>
  <symbol viewBox="0 0 18.985666 22.309332" id="src-14">
    <path stroke="#292D32" stroke-linecap="round" stroke-linejoin="round" stroke-width="1.5"
      d="M12.16 11.37h-.33a4.44 4.44 0 1 1 .33 0ZM7.16 15.06c-2.42 1.62-2.42 4.26 0 5.87 2.75 1.84 7.26 1.84 10.01 0 2.42-1.62 2.42-4.26 0-5.87-2.74-1.83-7.25-1.83-10.01 0Z" />
  </symbol>
  <symbol viewBox="0 0 23.630669 25.38" id="src-15">
    <path stroke="#29354D" stroke-width="1.5"
      d="M19.04 7.88a5 5 0 0 1-4.85 5.14 5 5 0 0 1-4.85-5.14 5 5 0 0 1 4.85-5.13 5 5 0 0 1 4.85 5.13ZM23.63 25.38H4.75c.1-4.3 4.2-7.92 9.44-7.92 5.24 0 9.34 3.63 9.44 7.92Z" />
  </symbol>
  <symbol viewBox="0 0 31.003336 30.801924" id="src-16">
    <path fill="#FFFCF8"
      d="M29.5 17.4a3 3 0 0 1 0 5.2L16 30.4a3 3 0 0 1-4.5-2.6V12.2A3 3 0 0 1 16 9.6l13.5 7.8Z" />
  </symbol>
  <symbol viewBox="0 0 23 16.5" id="src-17">
    <path fill="#383A39"
      d="M7 12.5a2 2 0 0 0-2 2c0 1.1.9 2 2 2a2 2 0 0 0 2-2 2 2 0 0 0-2-2ZM21 12.5a2 2 0 0 0-2 2c0 1.1.9 2 2 2a2 2 0 0 0 2-2 2 2 0 0 0-2-2ZM14 12.5a2 2 0 0 0-2 2c0 1.1.9 2 2 2a2 2 0 0 0 2-2 2 2 0 0 0-2-2Z" />
  </symbol>
  <symbol viewBox="0 0 24.5 25" id="src-18">
    <path stroke="#29354D" stroke-linecap="round" stroke-linejoin="round" stroke-width="1.5"
      d="M12.83 22.67a9.33 9.33 0 1 0 0-18.67 9.33 9.33 0 0 0 0 18.67ZM24.5 25l-5.07-5.07" />
  </symbol>
  <symbol viewBox="0 0 39.96222 39.438618" id="src-19">
    <path stroke="#FFFCF8" stroke-width="2.7"
      d="M4.2 8.2C5.6 2 15 2 16.4 8.2c.8 3.7-1.5 6.8-3.5 8.7a3.8 3.8 0 0 1-5.2 0c-2-2-4.3-5-3.5-8.7ZM27.5 29.7c1.4-6.2 10.8-6.2 12.3 0 .8 3.7-1.5 6.8-3.5 8.7a3.9 3.9 0 0 1-5.3 0c-2-2-4.3-5-3.5-8.7Z" />
    <path
      stroke="#FFFCF8" stroke-linecap="round" stroke-linejoin="round" stroke-width="2.7"
      d="M22 9h4.8c3.3 0 4.9 4 2.4 6.2L14.9 27.8a3.6 3.6 0 0 0 2.3 6.2H22" />
    <path stroke="#FFFCF8"
      stroke-linecap="round" stroke-linejoin="round" stroke-width="3.6"
      d="M10.3 9.9h0M33.6 31.4h0" />
  </symbol>
  <symbol viewBox="0 0 37.5 39.410706" id="src-20">
    <path stroke="#FFFCF8" stroke-linecap="round" stroke-linejoin="round" stroke-width="2.69"
      d="M37.46 19.92c0 8.76-6.36 16.97-15.05 19.37a3.51 3.51 0 0 1-1.82 0c-8.7-2.4-15.05-10.6-15.05-19.37v-7.86a4.3 4.3 0 0 1 2.49-3.7L18 4.29a9.3 9.3 0 0 1 7 0L35 8.37a4.34 4.34 0 0 1 2.5 3.69l-.03 7.86Z" />
    <path stroke="#FFFCF8" stroke-linecap="round" stroke-linejoin="round" stroke-miterlimit="10"
      stroke-width="2.69" d="M21.5 22.4a3.58 3.58 0 1 0 0-7.17 3.58 3.58 0 0 0 0 7.17Zm0 0v5.37" />
  </symbol>
  <symbol viewBox="0 0 24.68379 26.199997" id="src-21">
    <path stroke="#29354D" stroke-linecap="round" stroke-linejoin="round" stroke-miterlimit="10"
      stroke-width="1.5"
      d="M9.2 9.4v-1c0-2.7 2.2-5.3 4.8-5.5A5.3 5.3 0 0 1 19.7 8v1.6M11 26.2h7c4.7 0 5.5-2 5.8-4.2l.8-7c.4-2.8-.5-5.2-5.4-5.2H9.8c-5 0-5.8 2.4-5.5 5.2l1 7c.2 2.3 1 4.2 5.7 4.2Z" />
    <path stroke="#29354D" stroke-linecap="round" stroke-linejoin="round" stroke-width="2"
      d="M18.6 14.5h0M10.4 14.5h0" />
  </symbol>
  <symbol viewBox="0 0 19.484486 18.938751" id="src-22">
    <path stroke="#29354D" stroke-width="1.5"
      d="M2.9 4.5c.7-2.9 5-2.9 5.7 0 .4 1.7-.7 3.1-1.6 4-.7.6-1.8.6-2.4 0-1-.9-2.1-2.3-1.7-4ZM13.7 14.5c.7-2.9 5-2.9 5.7 0 .4 1.7-.7 3.1-1.6 4a2 2 0 0 1-2.5 0c-.9-.9-1.9-2.3-1.6-4Z" />
    <path stroke="#29354D" stroke-linecap="round" stroke-linejoin="round" stroke-width="1.5"
      d="M11.2 4.8h2.2c1.5 0 2.3 1.9 1.1 2.9l-6.7 5.8c-1.2 1-.4 2.9 1.1 2.9h2.2" />
  </symbol>
  <symbol viewBox="0 0 22.5 22.574997" id="src-23">
    <path stroke="#292D32" stroke-linecap="round" stroke-linejoin="round" stroke-miterlimit="10"
      stroke-width="1.5"
      d="M9 19.5h-.5c-4 0-6-1-6-6v-5c0-4 2-6 6-6h8c4 0 6 2 6 6v5c0 4-2 6-6 6H16a1 1 0 0 0-.8.4l-1.5 2c-.7.9-1.7.9-2.4 0l-1.5-2c-.2-.2-.5-.4-.8-.4Z" />
    <path stroke="#292D32" stroke-linecap="round" stroke-linejoin="round" stroke-width="2"
      d="M16.5 11.5h0M12.5 11.5h0M8.5 11.5h0" />
  </symbol>
  <symbol viewBox="0 0 24.499998 24.5" id="src-24">
    <path stroke="#292D32" stroke-linecap="round" stroke-linejoin="round" stroke-width="1.5"
      d="M14.5 24.5a10 10 0 1 0 0-20 10 10 0 0 0 0 20ZM11.5 17.5l6-6" />
    <path stroke="#292D32" stroke-linecap="round" stroke-linejoin="round" stroke-width="2"
      d="M17 17h0M12 12h0" />
  </symbol>
  <symbol viewBox="0 0 22.272001 21.8733" id="src-25">
    <path stroke="#292D32" stroke-linecap="round" stroke-linejoin="round" stroke-width="1.5"
      d="m14 3.4 1.8 3.5c.2.5.9 1 1.4 1.1l3.2.5c2 .3 2.5 1.8 1 3.3l-2.5 2.5c-.4.4-.6 1.2-.5 1.8l.7 3.1c.6 2.4-.7 3.4-2.9 2.1l-3-1.8c-.5-.3-1.4-.3-2 0l-3 1.8c-2.1 1.3-3.4.3-2.9-2.1l.7-3.1c.1-.6-.1-1.4-.5-1.8L3 11.8c-1.5-1.5-1-2.9 1.1-3.3L7.3 8c.5-.1 1.2-.6 1.4-1.1l1.8-3.5c.9-1.9 2.5-1.9 3.5 0Z" />
  </symbol>
  <symbol viewBox="0 0 22.06801 21.000002" id="src-26">
    <path stroke="#292D32" stroke-linecap="round" stroke-linejoin="round" stroke-width="1.5"
      d="M21.5 11c.3-1 .5-2.1.5-3.3 0-3.1-2.5-5.6-5.6-5.6-1.8 0-3.4.9-4.4 2.2a5.3 5.3 0 0 0-4.4-2.2A5.6 5.6 0 0 0 2 7.7c0 7 6.5 11.1 9.4 12.1l.6.1" />
    <path stroke="#292D32" stroke-linecap="round" stroke-linejoin="round" stroke-miterlimit="10"
      stroke-width="1.5"
      d="m19.2 14.8-3.5 3.5-.3.6-.2 1.3c-.1.5.3.8.8.8l1.4-.2.6-.3 3.5-3.5c.6-.6.9-1.3 0-2.2-1-.9-1.7-.6-2.3 0Z" />
    <path stroke="#292D32" stroke-linecap="round" stroke-linejoin="round" stroke-miterlimit="10"
      stroke-width="1.5" d="M18.7 15.3a3 3 0 0 0 2.2 2.2l-2.2-2.2Z" />
  </symbol>
  <symbol viewBox="0 0 20.757868 21.135605" id="src-27">
    <path stroke="#292D32" stroke-linecap="round" stroke-linejoin="round" stroke-width="1.5"
      d="m12.8 12.6-2.4 2.5a3.5 3.5 0 1 0 5 5l3.8-4a7 7 0 0 0-9.9-9.8l-4.2 4.2A6 6 0 0 0 5 19" />
  </symbol>
  <symbol viewBox="0 0 22 21.9" id="src-28">
    <path stroke="#383A39" stroke-linecap="round" stroke-linejoin="round" stroke-width="1.5"
      d="m14.6 9.4-5.1 5c-.6-.6-1-1.5-1-2.5 0-2 1.6-3.6 3.6-3.6.9 0 1.8.4 2.5 1.1Z" />
    <path stroke="#383A39" stroke-linecap="round" stroke-linejoin="round" stroke-width="1.5"
      d="M17.8 5.7a10 10 0 0 0-5.8-2c-3.5 0-6.8 2.1-9.1 5.7a5.3 5.3 0 0 0 0 5.2 17 17 0 0 0 2.7 3.2M8.4 19.4c1.1.5 2.4.7 3.6.7 3.5 0 6.8-2.1 9.1-5.7.9-1.4.9-3.8 0-5.2L20 7.7" />
    <path stroke="#383A39" stroke-linecap="round" stroke-linejoin="round" stroke-width="1.5"
      d="M15.5 12.6c-.3 1.4-1.4 2.6-2.8 2.8M9.5 14.4 2 21.9M22 1.9l-7.5 7.5" />
  </symbol>
  <symbol viewBox="0 0 21.5 21.5" id="src-29">
    <path stroke="#292D32" stroke-linecap="round" stroke-linejoin="round" stroke-width="1.5"
      d="M11 7.2 7.1 3.5 3.5 7.2M7.2 21.5v-18M14 17.8l3.8 3.7 3.7-3.7M17.8 3.5v18" />
  </symbol>
  <symbol viewBox="0 0 18.5 15.5" id="src-30">
    <path stroke="#29354D" stroke-width="1.5" d="m6.5 9.5 6 6 6-6" />
  </symbol>
  <symbol viewBox="0 0 22.700003 22.299995" id="src-31">
    <path stroke="#292D32" stroke-miterlimit="10" stroke-width="1.5"
      d="M22.7 18.6c0 .4-.1.7-.3 1.1l-.7 1c-.5.5-1 .9-1.6 1.2-.6.2-1.3.4-2 .4-1 0-2.1-.2-3.3-.7-1.2-.5-2.3-1.1-3.4-2-1.2-.8-2.2-1.8-3.3-2.8a22.2 22.2 0 0 1-4.8-6.7C3 9 2.7 7.9 2.7 6.8c0-.7.1-1.3.4-1.9.2-.6.6-1.2 1.2-1.7.6-.6 1.3-.9 2.1-.9l.8.2c.3.1.5.3.7.6l2.3 3.3.4.7.1.6-.2.7-.6.7-.8.8-.1.3v.2l.1.2.9 1.3 1.5 1.6 1.6 1.5 1.3.9.2.1h.3l.4-.2.8-.8.7-.6.7-.2.6.1.7.4 3.3 2.4.6.6v.9Z" />
  </symbol>
  <symbol viewBox="0 0 15.7 15.8" id="src-32">
    <g clip-path="url(#a)">
      <path stroke="#292D32" stroke-miterlimit="10" stroke-width="1.5"
        d="M15.7 13c0 .3 0 .6-.2.8a3.4 3.4 0 0 1-1.7 1.7l-1.5.3c-.7 0-1.5-.2-2.4-.6-.9-.4-1.7-.9-2.6-1.5a22 22 0 0 1-4.5-4.5 13 13 0 0 1-1.5-2.6C.9 5.8.8 5 .8 4.2c0-.5 0-1 .2-1.5.2-.4.5-.9.9-1.2.5-.5 1-.7 1.5-.7l.7.1.5.4 1.7 2.5.3.5.1.5c0 .1 0 .3-.2.5 0 .2-.2.3-.4.5l-.5.6-.2.3V7l.1.1.7 1a28.8 28.8 0 0 0 2.3 2.3l1 .7H10l.6-.6c.2-.2.3-.4.5-.4a1 1 0 0 1 1-.1c.2 0 .3.2.5.3l2.5 1.7.4.5.1.6Z" />
    </g>
    <defs>
      <clipPath id="a">
        <path fill="#fff" d="M0 0h16.5v16.5H0z" />
      </clipPath>
    </defs>
  </symbol>
  <svg viewBox="0 0 22.5 21" id="filter">
    <path stroke="#29354D" fill="#292D3200" stroke-linecap="round" stroke-linejoin="round"
      stroke-width="1.5"
      d="M22.5 18h-7M5.5 18h-3M22.5 7h-3M9.5 7h-7M7.5 15h6c1.1 0 2 .5 2 2v2c0 1.5-.9 2-2 2h-6c-1.1 0-2-.5-2-2v-2c0-1.5.9-2 2-2ZM11.5 4h6c1.1 0 2 .5 2 2v2c0 1.5-.9 2-2 2h-6c-1.1 0-2-.5-2-2V6c0-1.5.9-2 2-2Z" />
  </svg>
</svg>