<svg width="153" height="56" viewBox="0 0 153 56" fill="none" xmlns="http://www.w3.org/2000/svg">
<g clip-path="url(#clip0_1285_61870)">
<path fill-rule="evenodd" clip-rule="evenodd" d="M40.7074 18.4661C36.1543 18.446 31.7597 20.1544 28.3934 23.2531C25.0271 26.3519 22.9344 30.6151 22.5294 35.1992H30.2372H30.4189C30.4566 35.1992 30.4944 35.1992 30.532 35.1992H30.5998C32.2435 35.2248 33.8111 35.904 34.963 37.0895C36.1148 38.275 36.7583 39.8715 36.7541 41.5331C36.7498 43.1947 36.0983 44.7879 34.9403 45.9672C33.7824 47.1469 32.2114 47.8178 30.5676 47.8349C30.3761 50.1171 29.3232 52.2375 27.6272 53.7564C25.9312 55.2754 23.7222 56.0767 21.4578 55.9942C19.1932 55.9117 17.0468 54.9518 15.4635 53.3133C13.8802 51.6748 12.981 49.4834 12.9524 47.1931V35.1992H21.0229C20.6186 30.6153 18.5266 26.352 15.1608 23.2528C11.7951 20.1537 7.40116 18.4447 2.84839 18.464C2.17549 18.4637 1.50302 18.4999 0.833984 18.5727L0 18.6641L0.158173 17.8396C1.17614 12.8033 3.88375 8.27695 7.82312 5.02624C11.7626 1.77553 16.6919 0 21.7772 0C26.8627 0 31.792 1.77553 35.7314 5.02624C39.6707 8.27695 42.3785 12.8033 43.3962 17.8396L43.5556 18.6652L42.7216 18.5738C42.053 18.5008 41.3809 18.4641 40.7083 18.464L40.7074 18.4661ZM30.5998 46.596C31.9099 46.5625 33.155 46.0129 34.0699 45.0643C34.9846 44.1159 35.4965 42.8437 35.4965 41.5191C35.4965 40.1946 34.9846 38.9224 34.0699 37.974C33.155 37.0256 31.9099 36.476 30.5998 36.4424V46.596ZM14.191 36.4359V47.1898C14.2382 49.1919 15.0583 51.096 16.4758 52.4951C17.8934 53.8943 19.7959 54.6775 21.7772 54.6775C23.7585 54.6775 25.6613 53.8943 27.0788 52.4951C28.4962 51.096 29.3163 49.1919 29.3635 47.1898V36.4359H14.191ZM1.54636 17.2675C1.97674 17.2393 2.41788 17.224 2.84839 17.224C6.68313 17.2304 10.4319 18.3739 13.6301 20.5129C16.8283 22.6517 19.3355 25.6921 20.8411 29.2571C20.0727 24.9101 18.2062 20.8374 15.4226 17.4341C12.639 14.0307 9.03251 11.412 4.95306 9.83207C3.33853 12.0562 2.18019 14.5842 1.54636 17.2675ZM34.7738 5.82501C31.0546 2.85816 26.456 1.24257 21.718 1.23822C17.0061 1.24465 12.4347 2.86107 8.74631 5.82501C7.647 6.71336 6.64077 7.71309 5.74289 8.80855C9.7166 10.413 13.2488 12.9626 16.0399 16.2411C18.8312 19.5194 20.7987 23.4299 21.7761 27.6408C22.7531 23.4307 24.7199 19.5207 27.5099 16.2423C30.2998 12.9641 33.8305 10.414 37.803 8.80855C36.8966 7.71216 35.8817 6.71243 34.7738 5.82501ZM38.5917 9.83428C34.5148 11.4157 30.911 14.0348 28.1295 17.4375C25.3481 20.8405 23.4832 24.9118 22.7156 29.2571C24.3108 25.4885 27.0222 22.3121 30.4767 20.1649C33.9312 18.0179 37.959 17.0056 42.0061 17.2675C41.3715 14.5838 40.2104 12.0561 38.5917 9.83428Z" fill="#FFFCF8"/>
<path fill-rule="evenodd" clip-rule="evenodd" d="M53.6055 52.6055V2.54492H152.443V52.6055H53.6055ZM102.017 4.65322H55.6858V50.4987H102.015V4.65169L102.017 4.65322ZM150.368 4.65322H104.095V50.4987H150.364V4.65169L150.368 4.65322ZM116.354 40.5489C116.354 41.1076 116.571 41.6434 116.957 42.0384C117.344 42.4336 117.868 42.6556 118.415 42.6556C118.961 42.6556 119.486 42.4336 119.873 42.0384C120.26 41.6434 120.477 41.1076 120.477 40.5489C120.477 39.1894 118.853 38.6099 118.151 38.4256C115.931 37.8314 114.708 36.5136 114.708 34.7112C114.713 33.7121 115.106 32.7556 115.8 32.0521C116.496 31.3485 117.434 30.9552 118.412 30.9583C119.151 30.9342 119.882 31.1199 120.524 31.4951C121.165 31.8703 121.693 32.4198 122.047 33.083L122.16 33.2523L120.627 34.6712L120.481 34.4022C120.306 33.9916 120.016 33.6431 119.647 33.4009C119.278 33.1587 118.848 33.0335 118.409 33.0413C117.974 33.0398 117.556 33.2146 117.247 33.5279C116.938 33.841 116.763 34.2665 116.761 34.7112C116.855 35.1687 117.092 35.5825 117.437 35.8897C117.781 36.1968 118.214 36.381 118.671 36.4141C121.122 37.0677 122.528 38.5758 122.528 40.5517C122.508 41.6541 122.065 42.7046 121.295 43.4768C120.525 44.2491 119.489 44.6818 118.41 44.6818C117.331 44.6818 116.295 44.2491 115.526 43.4768C114.755 42.7046 114.312 41.6541 114.292 40.5517V40.0928H116.354V40.5517V40.5489ZM117.42 16.0044H122.317V18.114H117.415V23.7598H115.339V10.4253H123.593V12.5352H117.415V16.0104L117.42 16.0044ZM140.946 33.3029H136.812V44.4816H134.73V33.3029H130.595V31.1946H140.946V33.3029ZM131.725 10.4224H140.057V12.5441H133.82V16.0682H138.77V18.1899H133.82V21.6338H140.057V23.757H131.725V10.4224ZM70.8696 10.2041C72.4357 10.2056 73.9539 10.7555 75.1713 11.7626L75.5581 12.0864L74.0854 13.5722L73.7683 13.3212C73.1818 12.8434 72.4918 12.5166 71.7562 12.3677C71.0205 12.2192 70.2606 12.2528 69.5404 12.4662C68.82 12.6793 68.1603 13.0661 67.6165 13.594C67.0726 14.1216 66.6605 14.7751 66.4147 15.499C66.169 16.2232 66.0968 16.997 66.2041 17.7555C66.3114 18.5141 66.5951 19.2351 67.0315 19.8584C67.4678 20.4818 68.0441 20.9891 68.7119 21.3378C69.3797 21.6866 70.1196 21.8664 70.8696 21.8626C71.947 21.8615 72.9918 21.4857 73.8323 20.7974L74.1494 20.5343L75.6205 22.02L75.244 22.3425C74.4167 23.0722 73.4285 23.5861 72.3643 23.8401C71.3002 24.0941 70.1915 24.0808 69.1334 23.8012C68.0754 23.5215 67.0995 22.984 66.2892 22.2346C65.4789 21.4852 64.8584 20.5461 64.4809 19.498C64.1034 18.4499 63.9801 17.324 64.1215 16.2165C64.2631 15.1089 64.6651 14.0532 65.2933 13.1391C65.9215 12.2253 66.757 11.4805 67.7284 10.9688C68.6998 10.4572 69.7782 10.1936 70.8709 10.2011L70.8696 10.2041ZM74.3021 33.282H68.1305V36.7602H73.0298V38.8685H68.1305V44.5143H66.0516V31.1797H74.3048V33.2895L74.3021 33.282ZM87.4096 10.2293C88.7355 10.2409 90.0288 10.6536 91.1261 11.415C92.2225 12.1764 93.0752 13.2526 93.5744 14.5081C94.0744 15.7636 94.1993 17.142 93.9329 18.4697C93.6674 19.7975 93.0232 21.0155 92.0818 21.9696C91.1403 22.924 89.9434 23.5721 88.6417 23.8325C87.3401 24.0926 85.9924 23.9536 84.7686 23.4325C83.5441 22.9114 82.4981 22.0315 81.7623 20.9041C81.0265 19.7765 80.6336 18.4516 80.6333 17.0963C80.6422 15.2673 81.3609 13.5166 82.6316 12.2285C83.9025 10.9405 85.6213 10.2203 87.4113 10.2263L87.4096 10.2293ZM87.4096 21.8552C88.3276 21.8455 89.2222 21.5585 89.9811 21.0302C90.7399 20.502 91.3288 19.7561 91.673 18.8866C92.0181 18.017 92.1036 17.0627 91.9184 16.1435C91.7333 15.2245 91.2869 14.382 90.6344 13.7219C89.9819 13.062 89.1527 12.614 88.2514 12.4344C87.351 12.2551 86.4179 12.352 85.5702 12.7132C84.7234 13.0745 83.9997 13.6839 83.4902 14.4646C82.9811 15.2453 82.7094 16.1626 82.7094 17.1009C82.7189 18.367 83.2191 19.5778 84.1002 20.468C84.9814 21.3584 86.1716 21.8554 87.4113 21.8508L87.4096 21.8552ZM91.111 33.2955H84.8742V36.8195H89.8169V38.9369H84.8742V42.3792H91.111V44.5009H82.7807V31.1663H91.1127V33.291L91.111 33.2955Z" fill="#FFFCF8"/>
</g>
<defs>
<clipPath id="clip0_1285_61870">
<rect width="152.444" height="56" fill="white"/>
</clipPath>
</defs>
</svg>
