<svg width="181" height="84" viewBox="0 0 181 84" fill="none" xmlns="http://www.w3.org/2000/svg">
<g clip-path="url(#clip0_2271_140443)">
<path d="M113.996 44.9597C113.996 47.8496 111.649 50.1916 108.778 50.1916C105.907 50.1916 103.56 47.8389 103.56 44.9597C103.56 42.0806 105.907 39.7278 108.778 39.7278C111.649 39.7278 113.996 42.0698 113.996 44.9597ZM108.778 37.4181C104.632 37.4181 101.246 40.8021 101.246 44.9597C101.246 49.1173 104.621 52.5013 108.778 52.5013C112.935 52.5013 116.31 49.1173 116.31 44.9597C116.31 40.8021 112.935 37.4181 108.778 37.4181Z" fill="#E6AF9A"/>
<path d="M93.6931 49.0313C92.761 49.7833 91.5932 50.2023 90.4039 50.2023C87.5112 50.2023 85.1648 47.8496 85.1648 44.949C85.1648 42.0483 87.5112 39.6956 90.4039 39.6956C91.5824 39.6956 92.6967 40.0824 93.6288 40.8129L93.9823 41.0922L95.6216 39.4593L95.193 39.1047C93.8431 37.9982 92.1503 37.3859 90.4146 37.3859C86.2577 37.3859 82.8721 40.7807 82.8721 44.9597C82.8721 49.1388 86.2577 52.5228 90.4146 52.5228C92.1931 52.5228 93.9181 51.889 95.2787 50.7395L95.6966 50.385L94.0681 48.7413L93.7145 49.0313H93.6931Z" fill="#E6AF9A"/>
<path d="M139.795 52.2865H142.098V46.0877H147.541V43.7672H142.098V39.9427H148.955V37.6222H139.795V52.2865Z" fill="#E6AF9A"/>
<path d="M167.243 49.9445H160.311V46.1629H165.807V43.8317H160.311V39.9534H167.243V37.6222H157.986V52.2865H167.243V49.9445Z" fill="#E6AF9A"/>
<path d="M85.0469 75.094H87.3611V68.8952H92.8037V66.5748H87.3611V62.7502H94.2179V60.4297H85.0469V75.094Z" fill="#E6AF9A"/>
<path d="M103.635 75.094H112.881V72.7628H105.96V68.9704H111.456V66.6392H105.96V62.7717H112.881V60.4297H103.635V75.094Z" fill="#E6AF9A"/>
<path d="M156.733 60.462V62.7825H161.33V75.0725H163.633V62.7825H168.229V60.462H156.733Z" fill="#E6AF9A"/>
<path d="M143.502 66.1987C142.538 65.9409 141.38 65.4145 141.38 64.3295C141.38 63.3196 142.205 62.4924 143.212 62.4924C144.573 62.4924 145.173 63.3411 145.516 63.9857L145.666 64.2757L147.369 62.718L147.241 62.5354C146.437 61.3536 145.462 60.2041 143.202 60.2041C140.941 60.2041 139.088 62.0519 139.088 64.3295C139.088 66.3169 140.448 67.7672 142.912 68.4118C143.695 68.6159 145.495 69.2498 145.495 70.7431C145.495 72.0107 144.466 73.0421 143.202 73.0421C141.938 73.0421 140.909 72.0107 140.909 70.7431V70.2381H138.627V70.7431C138.627 73.2677 140.673 75.3303 143.202 75.3303C145.73 75.3303 147.777 73.2677 147.777 70.7431C147.777 68.573 146.212 66.9185 143.491 66.1987" fill="#E6AF9A"/>
<path d="M178.686 81.6795H127.302V31.2838H178.686V81.6795ZM124.988 81.6795H73.5398V31.2838H124.988V81.6795ZM71.2256 84H180.989V28.9633H71.2256V83.9893V84Z" fill="#E6AF9A"/>
<path d="M46.1339 69.3572V54.8111C49.9373 55.0904 52.8729 58.2274 52.8729 62.0842C52.8729 65.9409 49.9373 69.0779 46.1339 69.3572ZM62.4832 25.6867C51.0194 25.0743 40.0591 31.5201 34.8629 41.6186C37.7021 29.7046 46.2517 19.7457 57.6513 15.2444C59.9333 18.4351 61.5619 21.9373 62.4832 25.6867ZM4.56411 25.6437C4.03913 25.6437 3.50343 25.6544 2.97845 25.6867C3.89985 21.9373 5.51764 18.4244 7.79969 15.2337C19.21 19.7243 27.7703 29.6938 30.6095 41.6079C25.6383 31.9713 15.4601 25.6437 4.57482 25.6437M13.5209 9.15309C18.9314 4.79141 25.724 2.38496 32.6451 2.38496C39.5663 2.38496 46.4553 4.79141 51.8979 9.15309C53.43 10.3778 54.855 11.7637 56.1299 13.2784C44.5482 18.0806 35.8914 28.1038 32.7308 40.2865C29.581 28.0931 20.9027 18.0698 9.31035 13.2784C10.5746 11.7744 11.9888 10.3885 13.5102 9.16383M43.7447 54.8004V70.5389C43.7447 76.6303 38.8056 81.5935 32.7308 81.5935C26.6561 81.5935 21.717 76.641 21.717 70.5389V54.8004H43.7554H43.7447ZM65.151 26.7825C62.1725 11.2587 48.5017 0 32.6451 0C16.7886 0 3.28916 11.2587 0.310702 26.7825L0 28.3724L1.60708 28.2005C2.59275 28.0931 3.58914 28.0394 4.57482 28.0394C18.3421 28.0394 30.031 38.718 31.3166 52.4154H19.3385V70.5497C19.3385 77.9624 25.349 83.9893 32.7416 83.9893C39.6413 83.9893 45.4482 78.6392 46.0696 71.7744C51.1587 71.5273 55.2621 67.2408 55.2621 62.1056C55.2621 56.9705 51.1908 52.7269 46.1339 52.4369L45.7053 52.4154C45.7053 52.4154 45.6303 52.4154 45.5982 52.4154H34.1558C35.4522 38.7287 47.141 28.0501 60.8976 28.0501C61.8833 28.0501 62.8797 28.1038 63.8653 28.2113L65.4724 28.3832L65.1724 26.7932L65.151 26.7825Z" fill="#E6AF9A"/>
</g>
<defs>
<clipPath id="clip0_2271_140443">
<rect width="181" height="84" fill="white"/>
</clipPath>
</defs>
</svg>
