<svg width="51" height="37" viewBox="0 0 51 37" fill="none" xmlns="http://www.w3.org/2000/svg">
<g id="International">
<path id="path3554" d="M31.8401 26.3265H18.2852V3.15808H31.8401V26.3265Z" fill="#6C6BBD"/>
<path id="path3558" d="M19.1475 14.737C19.1475 10.0371 21.4612 5.85067 25.0642 3.15275C22.4294 1.17989 19.1042 0.00235748 15.4904 0.00235748C6.93507 0.00235748 0 6.59916 0 14.737C0 22.8748 6.93507 29.4716 15.4904 29.4716C19.1042 29.4716 22.4294 28.294 25.0642 26.3212C21.4612 23.6232 19.1475 19.4368 19.1475 14.737Z" fill="#EB001B"/>
<path id="path3562" d="M50.1355 14.737C50.1355 22.8748 43.2004 29.4716 34.6451 29.4716C31.0313 29.4716 27.7061 28.294 25.0703 26.3212C28.6743 23.6232 30.9879 19.4368 30.9879 14.737C30.9879 10.0371 28.6743 5.85067 25.0703 3.15275C27.7061 1.17989 31.0313 0.00235748 34.6451 0.00235748C43.2004 0.00235748 50.1355 6.59916 50.1355 14.737Z" fill="#0099DF"/>
<path id="path3566-path" d="M36.424 32.8645C36.6043 32.8645 36.8633 32.8973 37.0613 32.9713L36.7855 33.7732C36.5964 33.6992 36.4073 33.6748 36.226 33.6748C35.641 33.6748 35.3484 34.0346 35.3484 34.6809V36.8749H34.4531V32.9629H35.3396V33.4378C35.572 33.094 35.9079 32.8645 36.424 32.8645Z" fill="black"/>
<path id="path3566-path_2" d="M33.1191 33.7426H31.6564V35.5103C31.6564 35.9029 31.8022 36.1652 32.2503 36.1652C32.4828 36.1652 32.7753 36.0911 33.0413 35.9441L33.2993 36.6719C33.0157 36.8602 32.5685 36.9755 32.1814 36.9755C31.1226 36.9755 30.7532 36.4349 30.7532 35.5263V33.7426H29.918V32.9651H30.7532V31.7782H31.6564V32.9651H33.1191V33.7426Z" fill="black"/>
<path id="Combined Shape" fill-rule="evenodd" clip-rule="evenodd" d="M22.7821 32.8735C23.9355 32.8735 24.7274 33.7082 24.7363 34.9279C24.7363 35.0413 24.7275 35.1463 24.7187 35.2522L24.7185 35.2548H21.6642C21.7932 35.9584 22.3182 36.2122 22.8944 36.2122C23.3071 36.2122 23.7464 36.0651 24.0901 35.8028L24.5294 36.4333C24.03 36.8342 23.4627 36.9813 22.8432 36.9813C21.612 36.9813 20.7344 36.171 20.7344 34.9279C20.7344 33.7082 21.5775 32.8735 22.7821 32.8735ZM22.7652 33.6304C22.1279 33.6304 21.7674 34.0154 21.6719 34.5803H23.8063C23.7117 33.9742 23.3414 33.6304 22.7652 33.6304Z" fill="black"/>
<path id="path3566-path_3" d="M28.6666 33.9637C28.4174 33.8157 27.9102 33.6274 27.3852 33.6274C26.8947 33.6274 26.6022 33.7998 26.6022 34.0864C26.6022 34.3478 26.9114 34.4218 27.2985 34.4705L27.7201 34.5277C28.6154 34.6513 29.1571 35.011 29.1571 35.6986C29.1571 36.4434 28.4687 36.9755 27.2818 36.9755C26.61 36.9755 25.9905 36.8115 25.5 36.4677L25.9216 35.8045C26.223 36.0256 26.6711 36.2139 27.2906 36.2139C27.9013 36.2139 28.2283 36.0424 28.2283 35.7389C28.2283 35.5188 27.9959 35.3951 27.5054 35.3305L27.0838 35.2733C26.1629 35.1497 25.6635 34.7572 25.6635 34.1192C25.6635 33.3417 26.3352 32.8668 27.3763 32.8668C28.0304 32.8668 28.6243 33.0063 29.0537 33.2761L28.6666 33.9637Z" fill="black"/>
<path id="Combined Shape_2" fill-rule="evenodd" clip-rule="evenodd" d="M40.5919 33.0234C40.3201 32.9176 40.0246 32.8651 39.7054 32.8651C39.3863 32.8651 39.0908 32.9176 38.819 33.0234C38.5471 33.1283 38.3137 33.2735 38.1167 33.4581C37.9197 33.6426 37.7651 33.8609 37.6528 34.112C37.5405 34.364 37.4844 34.6375 37.4844 34.9326C37.4844 35.2277 37.5405 35.5012 37.6528 35.7532C37.7651 36.0043 37.9197 36.2235 38.1167 36.408C38.3137 36.5926 38.5471 36.7368 38.819 36.8427C39.0908 36.9476 39.3863 37.0001 39.7054 37.0001C40.0246 37.0001 40.3201 36.9476 40.5919 36.8427C40.8638 36.7368 41.0992 36.5926 41.2971 36.408C41.4961 36.2235 41.6507 36.0043 41.763 35.7532C41.8753 35.5012 41.9314 35.2277 41.9314 34.9326C41.9314 34.6375 41.8753 34.364 41.763 34.112C41.6507 33.8609 41.4961 33.6426 41.2971 33.4581C41.0992 33.2735 40.8638 33.1283 40.5919 33.0234ZM39.1902 33.7689C39.3488 33.708 39.5192 33.6771 39.7034 33.6771C39.8876 33.6771 40.059 33.708 40.2166 33.7689C40.3751 33.8308 40.513 33.9169 40.6283 34.0275C40.7455 34.138 40.8361 34.271 40.9031 34.4256C40.9691 34.5802 41.0016 34.7507 41.0016 34.9362C41.0016 35.1226 40.9691 35.2921 40.9031 35.4467C40.8361 35.6013 40.7455 35.7343 40.6283 35.8448C40.513 35.9554 40.3751 36.0416 40.2166 36.1034C40.059 36.1652 39.8876 36.1952 39.7034 36.1952C39.5192 36.1952 39.3488 36.1652 39.1902 36.1034C39.0326 36.0416 38.8957 35.9554 38.7805 35.8448C38.6653 35.7343 38.5746 35.6013 38.5087 35.4467C38.4427 35.2921 38.4102 35.1226 38.4102 34.9362C38.4102 34.7507 38.4427 34.5802 38.5087 34.4256C38.5746 34.271 38.6653 34.138 38.7805 34.0275C38.8957 33.9169 39.0326 33.8308 39.1902 33.7689Z" fill="black"/>
<path id="Combined Shape_3" fill-rule="evenodd" clip-rule="evenodd" d="M19.7658 32.9698V34.9258V36.8817H18.8714V36.4068C18.5868 36.759 18.1573 36.9801 17.5723 36.9801C16.4189 36.9801 15.5157 36.1201 15.5157 34.9258C15.5157 33.7304 16.4189 32.8714 17.5723 32.8714C18.1573 32.8714 18.5868 33.0925 18.8714 33.4447V32.9698H19.7658ZM17.6892 33.6664C16.915 33.6664 16.4412 34.2312 16.4412 34.9188C16.4412 35.6064 16.915 36.1704 17.6892 36.1704C18.4289 36.1704 18.9282 35.6308 18.9282 34.9188C18.9282 34.2069 18.4289 33.6664 17.6892 33.6664Z" fill="black"/>
<path id="path3566-path_4" d="M14.7294 36.8749V34.4196C14.7294 33.495 14.1099 32.873 13.1121 32.8645C12.5871 32.8561 12.0444 33.0116 11.6662 33.5606C11.3825 33.1268 10.9344 32.8645 10.306 32.8645C9.86767 32.8645 9.43724 32.9872 9.10137 33.4453V32.9629H8.20703V36.8749H9.11024V34.7062C9.11024 34.0271 9.50619 33.6664 10.1169 33.6664C10.7108 33.6664 11.0122 34.0346 11.0122 34.6978V36.8749H11.9154V34.7062C11.9154 34.0271 12.3291 33.6664 12.922 33.6664C13.5337 33.6664 13.8262 34.0346 13.8262 34.6978V36.8749H14.7294V36.8749Z" fill="black"/>
</g>
</svg>
