<svg width="176" height="161" viewBox="0 0 176 161" fill="none" xmlns="http://www.w3.org/2000/svg">
<g clip-path="url(#clip0_2272_140821)">
<path d="M61.43 149.7C38.74 149.7 20 132.59 20 111.74V73.1699H103.04V110.93C103.04 132.23 84.6 149.7 61.43 149.7Z" stroke="#FFF9EE" stroke-width="2" stroke-linecap="round" stroke-linejoin="round"/>
<path d="M91.8297 159.59H31.2197L50.4997 148.13C55.7197 149.79 61.4397 149.7 61.4397 149.7C61.4397 149.7 67.3297 149.79 72.5697 148.13L91.8497 159.59H91.8297Z" stroke="#FFF9EE" stroke-width="2" stroke-linecap="round" stroke-linejoin="round"/>
<path d="M61.43 149.7C61.43 149.7 57.48 102.68 103.04 102.68" stroke="#FFF9EE" stroke-width="2" stroke-linecap="round" stroke-linejoin="round"/>
<path d="M61.43 149.7C61.43 149.7 65.56 102.68 20 102.68" stroke="#FFF9EE" stroke-width="2" stroke-linecap="round" stroke-linejoin="round"/>
<path d="M61.43 149.7C61.43 149.7 55.81 116.28 101.37 116.28" stroke="#FFF9EE" stroke-width="2" stroke-linecap="round" stroke-linejoin="round"/>
<path d="M61.4304 149.7C61.4304 149.7 66.9604 116.68 21.4004 116.68" stroke="#FFF9EE" stroke-width="2" stroke-linecap="round" stroke-linejoin="round"/>
<path d="M61.43 149.7C61.43 149.7 57.58 131.48 97 129.94" stroke="#FFF9EE" stroke-width="2" stroke-linecap="round" stroke-linejoin="round"/>
<path d="M26.21 131.14C65.64 132.69 61.44 149.7 61.44 149.7L61.53 73.1799" stroke="#FFF9EE" stroke-width="2" stroke-linecap="round" stroke-linejoin="round"/>
<path d="M64.9404 30.3201H165.67L115.31 86.4301L64.9404 30.3201Z" stroke="#FFF9EE" stroke-width="2" stroke-linecap="round" stroke-linejoin="round"/>
<path d="M89.46 40.3601H141.15L115.31 69.1601L89.46 40.3601Z" stroke="#FFF9EE" stroke-width="2" stroke-linecap="round" stroke-linejoin="round"/>
<path d="M143.77 159.58H86.8398L115.36 143.99L143.77 159.58Z" stroke="#FFF9EE" stroke-width="2" stroke-linecap="round" stroke-linejoin="round"/>
<path d="M115.31 86.4299V143.99" stroke="#FFF9EE" stroke-width="2" stroke-linecap="round" stroke-linejoin="round"/>
<path d="M115.31 69.1601V40.3601" stroke="#FFF9EE" stroke-width="2" stroke-linecap="round" stroke-linejoin="round"/>
<path d="M102.69 40.3601L115.31 69.1601" stroke="#FFF9EE" stroke-width="2" stroke-linecap="round" stroke-linejoin="round"/>
<path d="M127.93 40.3601L115.31 69.1601" stroke="#FFF9EE" stroke-width="2" stroke-linecap="round" stroke-linejoin="round"/>
<path d="M166.62 3.92C167.498 3.92 168.21 3.26634 168.21 2.46C168.21 1.65366 167.498 1 166.62 1C165.742 1 165.03 1.65366 165.03 2.46C165.03 3.26634 165.742 3.92 166.62 3.92Z" stroke="#FFF9EE" stroke-width="2" stroke-linecap="round" stroke-linejoin="round"/>
<path d="M161.61 20.24C161.61 25.73 157.21 30.19 151.77 30.19C146.33 30.19 141.93 25.74 141.93 20.24C141.93 14.74 146.33 10.29 151.77 10.29C157.21 10.29 161.61 14.74 161.61 20.24Z" stroke="#FFF9EE" stroke-width="2" stroke-linecap="round" stroke-linejoin="round"/>
<path d="M154.69 18.67C154.69 18.67 165.2 13.6 166.62 2.45996" stroke="#FFF9EE" stroke-width="2" stroke-linecap="round" stroke-linejoin="round"/>
</g>
<path d="M8.42815 52.9979C7.79943 52.962 7.34315 52.387 7.33597 51.7546C7.29286 48.966 5.03305 46.7056 2.24513 46.6625C1.61281 46.6517 1.04158 46.1989 1.00206 45.5701C0.962537 44.8945 1.49785 44.3375 2.1625 44.3375C4.98635 44.3375 7.28926 42.0628 7.33597 39.249C7.34675 38.6166 7.79583 38.038 8.43174 38.0021C9.10717 37.9625 9.66403 38.498 9.66403 39.1628C9.66403 41.9873 11.9382 44.2908 14.7513 44.3375C15.3836 44.3483 15.962 44.7975 15.9979 45.4299C16.0375 46.1055 15.5022 46.6625 14.8375 46.6625C11.9849 46.6625 9.66403 48.9839 9.66403 51.8372C9.66403 52.502 9.10717 53.0375 8.43174 52.9979H8.42815Z" stroke="#FFF9EE" stroke-width="2" stroke-miterlimit="10"/>
<circle cx="165.5" cy="104.5" r="9.5" stroke="#FFF9EE" stroke-width="2"/>
<defs>
<clipPath id="clip0_2272_140821">
<rect width="150.21" height="160.59" fill="white" transform="translate(19)"/>
</clipPath>
</defs>
</svg>
