<svg width="21" height="23" viewBox="0 0 21 23" fill="none" xmlns="http://www.w3.org/2000/svg">
<path d="M21 1.91667V21.0833C21 21.5917 20.7989 22.0792 20.4408 22.4386C20.0828 22.7981 19.5972 23 19.0909 23H14.3182C13.8119 23 13.3263 22.7981 12.9683 22.4386C12.6102 22.0792 12.4091 21.5917 12.4091 21.0833V1.91667C12.4091 1.40833 12.6102 0.920823 12.9683 0.561379C13.3263 0.201934 13.8119 0 14.3182 0H19.0909C19.5972 0 20.0828 0.201934 20.4408 0.561379C20.7989 0.920823 21 1.40833 21 1.91667ZM6.68182 0H1.90909C1.40277 0 0.917184 0.201934 0.55916 0.561379C0.201136 0.920823 0 1.40833 0 1.91667V21.0833C0 21.5917 0.201136 22.0792 0.55916 22.4386C0.917184 22.7981 1.40277 23 1.90909 23H6.68182C7.18814 23 7.67372 22.7981 8.03175 22.4386C8.38977 22.0792 8.59091 21.5917 8.59091 21.0833V1.91667C8.59091 1.40833 8.38977 0.920823 8.03175 0.561379C7.67372 0.201934 7.18814 0 6.68182 0Z" fill="#29354D"/>
</svg>
