<svg width="335" height="170" viewBox="0 0 335 170" fill="none" xmlns="http://www.w3.org/2000/svg">
<mask id="mask0_5732_100099" style="mask-type:alpha" maskUnits="userSpaceOnUse" x="0" y="0" width="335" height="170">
<path d="M36 170C16.1178 170 -7.04529e-07 153.882 -1.57361e-06 134L-7.43094e-06 1.52588e-05L335 6.15474e-07L335 134C335 153.882 318.882 170 299 170L36 170Z" fill="#D9D9D9"/>
</mask>
<g mask="url(#mask0_5732_100099)">
<path d="M284.936 -165.159L472.573 12.01" stroke="#EAC2B2" stroke-opacity="0.05" stroke-miterlimit="10"/>
<path d="M256.04 -120.589L473.956 85.1302" stroke="#EAC2B2" stroke-opacity="0.05" stroke-miterlimit="10"/>
<path d="M368.411 69.8166C340.689 82.8285 321.918 110.368 322.52 142.238C323.359 186.647 361.495 222.648 407.699 222.648" stroke="#EAC2B2" stroke-opacity="0.05" stroke-miterlimit="10"/>
<path d="M347.344 -165.154L166.399 12.0148" stroke="#EAC2B2" stroke-opacity="0.05" stroke-miterlimit="10"/>
<path d="M234.092 20.6191C255.928 26.0915 272.318 45.0954 272.745 67.6982C272.758 68.4077 272.755 69.1134 272.737 69.8144" stroke="#EAC2B2" stroke-opacity="0.05" stroke-miterlimit="10"/>
<path d="M377.922 -120.59L167.779 85.1292" stroke="#EAC2B2" stroke-opacity="0.05" stroke-miterlimit="10"/>
<path d="M165.314 -43.4675C202.4 -43.4675 233.011 -14.5703 233.684 21.0772" stroke="#EAC2B2" stroke-opacity="0.05" stroke-miterlimit="10"/>
<path d="M272.74 69.8147C300.957 82.8265 320.766 110.366 321.368 142.236C322.207 186.645 285.431 222.646 239.227 222.646" stroke="#EAC2B2" stroke-opacity="0.05" stroke-miterlimit="10"/>
<path d="M65.2595 69.6521L170.695 169.509L116.68 222.701L172.703 275.837L71.0401 375.694" stroke="#EAC2B2" stroke-opacity="0.05" stroke-miterlimit="10"/>
<path d="M-18.8179 -165.154L168.819 12.0151" stroke="#EAC2B2" stroke-opacity="0.05" stroke-miterlimit="10"/>
<path d="M101.445 20.6184C79.8162 26.0907 64.1439 45.0946 64.5709 67.6974C64.5843 68.4069 64.6142 69.1127 64.6571 69.8137" stroke="#EAC2B2" stroke-opacity="0.05" stroke-miterlimit="10"/>
<path d="M-47.7139 -120.587L170.202 85.1319" stroke="#EAC2B2" stroke-opacity="0.05" stroke-miterlimit="10"/>
<path d="M-19.285 -8.78247C-19.9482 -6.18446 -20.2775 -3.4577 -20.2244 -0.645224C-19.8922 16.945 -4.7875 31.2059 13.5142 31.2059C16.4549 31.2059 19.2955 30.8356 21.997 30.1458" stroke="#EAC2B2" stroke-opacity="0.05" stroke-miterlimit="10"/>
<path d="M21.9972 30.1436C21.2016 32.9621 20.8024 35.9387 20.8606 39.019C21.1929 56.61 36.2966 70.8693 54.5997 70.8693C58.6188 70.8693 62.4568 70.1824 65.9981 68.9229" stroke="#EAC2B2" stroke-opacity="0.05" stroke-miterlimit="10"/>
<path d="M167.805 -43.4685C130.72 -43.4685 101.2 -14.5713 101.873 21.0762" stroke="#EAC2B2" stroke-opacity="0.05" stroke-miterlimit="10"/>
<path d="M64.6581 69.8147C36.9356 82.8265 18.1665 110.366 18.7684 142.236C19.6072 186.645 57.7423 222.646 103.945 222.646" stroke="#EAC2B2" stroke-opacity="0.05" stroke-miterlimit="10"/>
<path d="M272.879 69.6523L171.215 169.51L227.239 222.701L173.224 275.837L278.659 375.695" stroke="#EAC2B2" stroke-opacity="0.05" stroke-miterlimit="10"/>
</g>
</svg>
