<svg width="324" height="324" viewBox="0 0 324 324" fill="none" xmlns="http://www.w3.org/2000/svg">
<path d="M90.0863 12.591C59.2404 -36.8898 77.1702 -138.233 136.657 -230.448C196.136 -322.651 277.665 -375.468 330.23 -359.673" stroke="#EAC2B2" stroke-opacity="0.3" stroke-miterlimit="10"/>
<path d="M330 26L323.688 37.3647" stroke="#EAC2B2" stroke-opacity="0.3" stroke-miterlimit="10"/>
<path d="M234 -85L258.843 54.5044L324.539 36.5279L337.95 110.639L459.904 75.3015" stroke="#EAC2B2" stroke-opacity="0.3" stroke-miterlimit="10"/>
<path d="M144 -276L195.667 11.7264" stroke="#EAC2B2" stroke-opacity="0.3" stroke-miterlimit="10"/>
<path d="M233.665 -84.7864C256.395 -101.66 285.541 -104.038 309.01 -87.3841C341.713 -64.1782 350.935 -13.4346 329.215 25.6723" stroke="#EAC2B2" stroke-opacity="0.3" stroke-miterlimit="10"/>
<path d="M451.667 441.726L400 154" stroke="#EAC2B2" stroke-opacity="0.3" stroke-miterlimit="10"/>
<path d="M361.55 250.459C338.82 267.332 309.674 269.71 286.205 253.056C253.503 229.851 244.279 179.108 266 140" stroke="#EAC2B2" stroke-opacity="0.3" stroke-miterlimit="10"/>
<path d="M-73.9422 33.735L142.486 -28.4071" stroke="#EAC2B2" stroke-opacity="0.3" stroke-miterlimit="10"/>
<path d="M118 33C112.024 54.0062 118.727 77.391 135.588 89.3559C136.118 89.7314 136.682 90.1676 137.219 90.5133" stroke="#EAC2B2" stroke-opacity="0.3" stroke-miterlimit="10"/>
<path d="M-55.0232 82.0871L196.69 9.63924" stroke="#EAC2B2" stroke-opacity="0.3" stroke-miterlimit="10"/>
<path d="M102 -57C84.57 -25.6181 91.6164 14.8509 117.74 33.3885" stroke="#EAC2B2" stroke-opacity="0.3" stroke-miterlimit="10"/>
<path d="M136.006 90.5973C132.44 121.069 143.211 151.773 166.68 168.427C199.383 191.633 243.823 178.969 265.544 139.861" stroke="#EAC2B2" stroke-opacity="0.3" stroke-miterlimit="10"/>
<path d="M265.659 140.616L271 131" stroke="#EAC2B2" stroke-opacity="0.3" stroke-miterlimit="10"/>
<path d="M524.855 389.435L311.029 450.987" stroke="#EAC2B2" stroke-opacity="0.3" stroke-miterlimit="10"/>
<path d="M508.69 339.639L256.977 412.087" stroke="#EAC2B2" stroke-opacity="0.3" stroke-miterlimit="10"/>
<path d="M317.209 331.075C320.777 300.601 310.004 269.899 286.534 253.246C253.832 230.04 209.392 242.703 187.67 281.811" stroke="#EAC2B2" stroke-opacity="0.3" stroke-miterlimit="10"/>
<path d="M-45 -18L-0.456402 229.328" stroke="#EAC2B2" stroke-opacity="0.3" stroke-miterlimit="10"/>
<path d="M37.5196 176.471C51.6613 161.257 73.206 157.919 90.0675 169.884C90.5968 170.26 91.1901 170.644 91.6986 171.042" stroke="#EAC2B2" stroke-opacity="0.3" stroke-miterlimit="10"/>
<path d="M2 -20L53.6666 267.726" stroke="#EAC2B2" stroke-opacity="0.3" stroke-miterlimit="10"/>
<path d="M-41.5607 200.824C-24.1305 169.441 11.1771 159.027 37.3011 177.565" stroke="#EAC2B2" stroke-opacity="0.3" stroke-miterlimit="10"/>
<path d="M91.6647 171.214C114.396 154.338 143.541 151.962 167.01 168.616C199.713 191.822 208.936 242.564 187.215 281.672" stroke="#EAC2B2" stroke-opacity="0.3" stroke-miterlimit="10"/>
<path d="M187 282L181.659 291.616" stroke="#EAC2B2" stroke-opacity="0.3" stroke-miterlimit="10"/>
<path d="M-5.55494 346.421L116.398 311.084L130.625 385.773L195.505 367.218L220.349 506.722" stroke="#EAC2B2" stroke-opacity="0.3" stroke-miterlimit="10"/>
<path d="M-215.942 289.735L0.48584 227.593" stroke="#EAC2B2" stroke-opacity="0.3" stroke-miterlimit="10"/>
<path d="M-24 289C-29.977 310.008 -23.2732 333.391 -6.41171 345.356C-5.88244 345.731 -5.31729 346.167 -4.78064 346.513" stroke="#EAC2B2" stroke-opacity="0.3" stroke-miterlimit="10"/>
<path d="M-197.023 338.087L54.6898 265.639" stroke="#EAC2B2" stroke-opacity="0.3" stroke-miterlimit="10"/>
<path d="M-40 198C-57.4296 229.381 -50.3836 269.851 -24.2596 288.389" stroke="#EAC2B2" stroke-opacity="0.3" stroke-miterlimit="10"/>
<path d="M-5.99423 346.597C-9.56089 377.07 1.21147 407.773 24.6804 424.427C57.3832 447.633 101.823 434.969 123.544 395.861" stroke="#EAC2B2" stroke-opacity="0.3" stroke-miterlimit="10"/>
<path d="M136.445 91.4209L258.398 56.0835L272.625 130.773L337.505 112.218L362.349 251.722" stroke="#EAC2B2" stroke-opacity="0.3" stroke-miterlimit="10"/>
<path d="M92 171L116.843 310.504L182.539 292.528L195.95 366.639L317.904 331.301" stroke="#EAC2B2" stroke-opacity="0.3" stroke-miterlimit="10"/>
</svg>
