<svg width="27" height="28" viewBox="0 0 27 28" fill="none" xmlns="http://www.w3.org/2000/svg">
<path d="M15.9394 11.4699L11.0601 16.5299C10.4333 15.8799 10.0476 14.9899 10.0476 13.9999C10.0476 12.0199 11.5905 10.4199 13.4998 10.4199C14.4544 10.4199 15.3126 10.8199 15.9394 11.4699Z" stroke="#9C3F66" stroke-width="1.5" stroke-linecap="round" stroke-linejoin="round"/>
<path d="M19.1119 7.77047C17.4244 6.45047 15.4958 5.73047 13.4997 5.73047C10.0958 5.73047 6.92332 7.81047 4.7151 11.4105C3.84724 12.8205 3.84724 15.1905 4.7151 16.6005C5.47689 17.8405 6.36403 18.9105 7.32832 19.7705" stroke="#9C3F66" stroke-width="1.5" stroke-linecap="round" stroke-linejoin="round"/>
<path d="M10.0476 21.5297C11.1469 22.0097 12.3137 22.2697 13.4998 22.2697C16.9037 22.2697 20.0762 20.1897 22.2844 16.5897C23.1523 15.1797 23.1523 12.8097 22.2844 11.3997C21.9662 10.8797 21.619 10.3897 21.2622 9.92969" stroke="#9C3F66" stroke-width="1.5" stroke-linecap="round" stroke-linejoin="round"/>
<path d="M16.8848 14.7002C16.6341 16.1102 15.5252 17.2602 14.1655 17.5202" stroke="#9C3F66" stroke-width="1.5" stroke-linecap="round" stroke-linejoin="round"/>
<path d="M11.0601 16.5293L3.85693 23.9993" stroke="#9C3F66" stroke-width="1.5" stroke-linecap="round" stroke-linejoin="round"/>
<path d="M23.1429 4L15.9397 11.47" stroke="#9C3F66" stroke-width="1.5" stroke-linecap="round" stroke-linejoin="round"/>
</svg>
