<svg width="75" height="45" viewBox="0 0 75 45" fill="none" xmlns="http://www.w3.org/2000/svg">
<g id="&#209;&#129;&#208;&#177;&#208;&#191;">
<g id="&#209;&#129;&#208;&#177;&#208;&#191;_2">
<mask id="mask0_979_281996" style="mask-type:luminance" maskUnits="userSpaceOnUse" x="0" y="1" width="75" height="43">
<g id="clip0_1000_217147">
<path id="Vector" d="M75 1.14539H0V43.0809H75V1.14539Z" fill="white"/>
</g>
</mask>
<g mask="url(#mask0_979_281996)">
<g id="Group">
<path id="Vector_2" d="M74.9973 16.7085V27.1636H71.2937V19.8316H67.727V27.1636H64.0234V16.7085H74.9973Z" fill="#29354D"/>
<path id="Vector_3" d="M62.272 22.5316C62.272 25.5761 59.7247 27.5847 56.2952 27.5847C52.7468 27.5847 50.1602 25.4582 50.1602 20.6384C50.1602 16.503 52.8128 13.094 56.7403 13.0285C58.4604 13.0285 62.1561 12.9473 62.1561 12.9473L60.4913 15.989C60.4913 15.989 57.5463 15.9943 57.1564 15.9943C55.4627 15.9943 53.9217 17.2635 53.7057 18.9994C54.6065 18.1603 55.8025 17.6726 57.2539 17.6726C60.3913 17.6726 62.272 19.5843 62.272 22.5316ZM58.4708 22.5316C58.4708 21.1654 57.5885 20.3657 56.3135 20.3657C54.999 20.3657 54.1193 21.1838 54.1193 22.5499C54.1193 23.8375 55.0017 24.7736 56.3135 24.7736C57.686 24.7763 58.4708 23.7614 58.4708 22.5316Z" fill="#29354D"/>
<path id="Vector_4" d="M47.222 24.0036C47.222 24.0036 46.3265 24.5044 44.9909 24.6015C43.4526 24.6434 42.0855 23.7019 42.0855 22.0237C42.0855 20.3874 43.2945 19.4487 44.9515 19.4487C45.9681 19.4487 47.3142 20.1356 47.3142 20.1356C47.3142 20.1356 48.2994 18.3761 48.8078 17.5002C47.8753 16.8107 46.6294 16.433 45.1833 16.433C41.5323 16.433 38.7031 18.7512 38.7031 22.0054C38.7031 25.3015 41.361 27.5646 45.1833 27.4964C46.2527 27.4571 47.7252 27.0926 48.6234 26.5315L47.222 24.0036Z" fill="#29354D"/>
<path id="Vector_5" d="M0 10.2743L5.12083 19.3526V24.8883L0.0105566 33.9481L0 10.2743Z" fill="#5B57A2"/>
<path id="Vector_6" d="M19.6484 16.0483L24.4426 13.1324L34.255 13.1244L19.6484 22.006V16.0483Z" fill="#D90751"/>
<path id="Vector_7" d="M19.6258 10.2214L19.652 22.2393L14.5234 19.1109V1.14575L19.6258 10.2214Z" fill="#FAB718"/>
<path id="Vector_8" d="M34.2584 13.1243L24.4462 13.1322L19.6258 10.2214L14.5234 1.14575L34.2584 13.1243Z" fill="#ED6F26"/>
<path id="Vector_9" d="M19.652 33.9965V28.1645L14.5234 25.099V43.08L19.652 33.9965Z" fill="#63B22F"/>
<path id="Vector_10" d="M24.4318 31.1083L5.12083 19.3526L0 10.2743L34.2363 31.0978L24.4318 31.1083Z" fill="#1487C9"/>
<path id="Vector_11" d="M14.5234 43.0804L19.652 33.9968L24.433 31.1072L34.2375 31.0967L14.5234 43.0804Z" fill="#017F36"/>
<path id="Vector_12" d="M0.0078125 33.9466L14.5589 25.0991L9.66462 22.1202L5.11809 24.8867L0.0078125 33.9466Z" fill="#984995"/>
</g>
</g>
</g>
</g>
</svg>
