<svg width="1920" height="969" viewBox="0 0 1920 969" fill="none" xmlns="http://www.w3.org/2000/svg">
<rect width="1920" height="969" fill="#FFF9EE"/>
<mask id="mask0_2271_138332" style="mask-type:alpha" maskUnits="userSpaceOnUse" x="0" y="0" width="1922" height="969">
<rect width="1922" height="969" fill="white"/>
</mask>
<g mask="url(#mask0_2271_138332)">
<path d="M1446.53 54.8691C1494.61 73.2954 1528.94 121.732 1528.94 178.583C1528.94 182.696 1528.76 186.766 1528.41 190.782" stroke="#EAC2B2" stroke-opacity="0.2" stroke-width="2" stroke-miterlimit="10"/>
<path d="M1528.21 189.317C1525.66 139.043 1486.02 99.1041 1437.48 99.1041C1434.1 99.1041 1430.75 99.2973 1427.46 99.6789" stroke="#EAC2B2" stroke-opacity="0.2" stroke-width="2" stroke-miterlimit="10"/>
<path d="M1427.46 99.6766C1436.61 49.8509 1478.23 12.1891 1528.37 12.1891C1578.5 12.1891 1620.7 49.862 1629.86 99.6766" stroke="#EAC2B2" stroke-opacity="0.2" stroke-width="2" stroke-miterlimit="10"/>
<path d="M1629.87 99.6777C1626.58 99.2961 1623.23 99.1029 1619.84 99.1029C1571.31 99.1029 1531.66 139.042 1529.11 189.316" stroke="#EAC2B2" stroke-opacity="0.2" stroke-width="2" stroke-miterlimit="10"/>
<path d="M1610.79 54.8681C1562.7 73.2944 1528.37 121.731 1528.37 178.582C1528.37 182.695 1528.55 186.765 1528.9 190.781" stroke="#EAC2B2" stroke-opacity="0.2" stroke-width="2" stroke-miterlimit="10"/>
<path d="M1610.79 841.483C1562.7 823.056 1528.37 774.62 1528.37 717.766C1528.37 713.654 1528.55 709.585 1528.9 705.569" stroke="#EAC2B2" stroke-opacity="0.2" stroke-width="2" stroke-miterlimit="10"/>
<path d="M1529.11 707.033C1531.66 757.307 1571.31 797.248 1619.84 797.248C1623.23 797.248 1626.58 797.052 1629.87 796.672" stroke="#EAC2B2" stroke-opacity="0.2" stroke-width="2" stroke-miterlimit="10"/>
<path d="M1629.86 796.676C1620.71 846.5 1579.09 884.163 1528.95 884.163C1478.81 884.163 1436.61 846.491 1427.46 796.676" stroke="#EAC2B2" stroke-opacity="0.2" stroke-width="2" stroke-miterlimit="10"/>
<path d="M1427.46 796.671C1430.75 797.051 1434.09 797.247 1437.48 797.247C1486.01 797.247 1525.66 757.306 1528.21 707.032" stroke="#EAC2B2" stroke-opacity="0.2" stroke-width="2" stroke-miterlimit="10"/>
<path d="M1446.53 841.484C1494.61 823.057 1528.94 774.621 1528.94 717.768C1528.94 713.655 1528.76 709.587 1528.41 705.57" stroke="#EAC2B2" stroke-opacity="0.2" stroke-width="2" stroke-miterlimit="10"/>
<path d="M472.016 841.484C423.926 823.057 389.598 774.62 389.598 717.767C389.598 713.655 389.776 709.586 390.128 705.569" stroke="#EAC2B2" stroke-opacity="0.2" stroke-width="2" stroke-miterlimit="10"/>
<path d="M390.343 707.035C392.893 757.309 432.538 797.25 481.069 797.25C484.458 797.25 487.804 797.054 491.099 796.674" stroke="#EAC2B2" stroke-opacity="0.2" stroke-width="2" stroke-miterlimit="10"/>
<path d="M491.096 796.676C481.944 846.5 440.319 884.163 390.179 884.163C340.046 884.163 297.846 846.491 288.686 796.676" stroke="#EAC2B2" stroke-opacity="0.2" stroke-width="2" stroke-miterlimit="10"/>
<path d="M288.686 796.673C291.978 797.054 295.325 797.249 298.713 797.249C347.247 797.249 386.891 757.308 389.441 707.034" stroke="#EAC2B2" stroke-opacity="0.2" stroke-width="2" stroke-miterlimit="10"/>
<path d="M307.758 841.486C355.847 823.059 390.175 774.623 390.175 717.769C390.175 713.657 389.995 709.588 389.644 705.571" stroke="#EAC2B2" stroke-opacity="0.2" stroke-width="2" stroke-miterlimit="10"/>
<path d="M688.546 448.825L705.032 448.751" stroke="#EAC2B2" stroke-opacity="0.2" stroke-width="2" stroke-miterlimit="10"/>
<path d="M90.8989 448.825H71.2227" stroke="#EAC2B2" stroke-opacity="0.2" stroke-width="2" stroke-miterlimit="10"/>
<path d="M134.985 654.583L7.46289 520.288L75.22 448.752L7.46289 377.291L134.985 242.996" stroke="#EAC2B2" stroke-opacity="0.2" stroke-width="2" stroke-miterlimit="10"/>
<path d="M643.532 654.583L771.055 520.288L703.298 448.753L771.055 377.291L643.532 242.997" stroke="#EAC2B2" stroke-opacity="0.2" stroke-width="2" stroke-miterlimit="10"/>
<path d="M229.396 -68.938L6.1084 165.48" stroke="#EAC2B2" stroke-opacity="0.2" stroke-width="2" stroke-miterlimit="10"/>
<path d="M287.651 101.004C253.214 101.004 225.298 71.7014 225.298 35.5543C225.298 34.6008 225.315 33.6508 225.356 32.7077" stroke="#EAC2B2" stroke-opacity="0.2" stroke-width="2" stroke-miterlimit="10"/>
<path d="M89.2783 177.054C116.039 184.415 135.783 209.972 135.783 240.37C135.783 241.325 135.765 242.274 135.725 243.219" stroke="#EAC2B2" stroke-opacity="0.2" stroke-width="2" stroke-miterlimit="10"/>
<path d="M269.693 -12.8534L6.1084 263.812" stroke="#EAC2B2" stroke-opacity="0.2" stroke-width="2" stroke-miterlimit="10"/>
<path d="M306.357 56.5946C283.641 53.9049 265.988 33.6716 265.988 9.11047C265.988 1.19152 267.825 -6.27836 271.074 -12.8544" stroke="#EAC2B2" stroke-opacity="0.2" stroke-width="2" stroke-miterlimit="10"/>
<path d="M225.023 34.3848C178.515 34.3848 140.813 -5.18794 140.813 -54.0045C140.813 -59.0942 141.223 -64.0839 142.01 -68.9368" stroke="#EAC2B2" stroke-opacity="0.2" stroke-width="2" stroke-miterlimit="10"/>
<path d="M429.252 -30.8107C429.252 -7.10881 410.947 12.1057 388.364 12.1057C365.781 12.1057 347.478 -7.10881 347.478 -30.8107" stroke="#EAC2B2" stroke-opacity="0.2" stroke-width="2" stroke-miterlimit="10"/>
<path d="M288.304 100.948C286.013 122.324 268.732 138.937 247.754 138.938C244.132 138.938 240.622 138.443 237.279 137.513" stroke="#EAC2B2" stroke-opacity="0.2" stroke-width="2" stroke-miterlimit="10"/>
<path d="M237.279 137.509C238.156 141.003 238.627 144.669 238.627 148.451C238.627 172.109 220.355 191.288 197.816 191.288C194.196 191.288 190.689 190.791 187.346 189.862" stroke="#EAC2B2" stroke-opacity="0.2" stroke-width="2" stroke-miterlimit="10"/>
<path d="M187.351 189.865C188.396 193.652 188.955 197.659 188.955 201.801C188.955 225.458 170.685 244.636 148.146 244.636C143.197 244.636 138.453 243.712 134.062 242.018" stroke="#EAC2B2" stroke-opacity="0.2" stroke-width="2" stroke-miterlimit="10"/>
<path d="M6.0625 90.8665C51.7368 90.8665 88.7612 129.73 88.7612 177.668" stroke="#EAC2B2" stroke-opacity="0.2" stroke-width="2" stroke-miterlimit="10"/>
<path d="M135.726 243.213C170.171 260.711 193.928 297.749 193.928 340.611C193.928 400.333 147.8 448.75 90.8975 448.75" stroke="#EAC2B2" stroke-opacity="0.2" stroke-width="2" stroke-miterlimit="10"/>
<path d="M550.048 -68.938L773.335 165.48" stroke="#EAC2B2" stroke-opacity="0.2" stroke-width="2" stroke-miterlimit="10"/>
<path d="M491.795 101.006C526.232 101.006 554.147 71.7031 554.147 35.556C554.147 34.6025 554.13 33.6525 554.09 32.7094" stroke="#EAC2B2" stroke-opacity="0.2" stroke-width="2" stroke-miterlimit="10"/>
<path d="M690.169 177.053C663.407 184.414 643.661 209.971 643.661 240.369C643.661 241.324 643.682 242.273 643.72 243.217" stroke="#EAC2B2" stroke-opacity="0.2" stroke-width="2" stroke-miterlimit="10"/>
<path d="M509.747 -12.8534L773.33 263.812" stroke="#EAC2B2" stroke-opacity="0.2" stroke-width="2" stroke-miterlimit="10"/>
<path d="M473.087 56.5946C495.8 53.9049 513.452 33.6716 513.452 9.11047C513.452 1.19152 511.616 -6.27836 508.367 -12.8544" stroke="#EAC2B2" stroke-opacity="0.2" stroke-width="2" stroke-miterlimit="10"/>
<path d="M554.42 34.3833C600.927 34.3833 638.631 -5.18941 638.631 -54.006C638.631 -59.0956 638.222 -64.0853 637.435 -68.9383" stroke="#EAC2B2" stroke-opacity="0.2" stroke-width="2" stroke-miterlimit="10"/>
<path d="M491.14 100.945C493.433 122.321 510.712 138.935 531.69 138.935C535.31 138.935 538.82 138.44 542.164 137.51" stroke="#EAC2B2" stroke-opacity="0.2" stroke-width="2" stroke-miterlimit="10"/>
<path d="M542.156 137.509C541.278 141.003 540.806 144.669 540.806 148.451C540.806 172.109 559.078 191.288 581.617 191.288C585.238 191.288 588.748 190.791 592.089 189.862" stroke="#EAC2B2" stroke-opacity="0.2" stroke-width="2" stroke-miterlimit="10"/>
<path d="M592.093 189.865C591.047 193.652 590.487 197.659 590.487 201.801C590.487 225.458 608.757 244.636 631.297 244.636C636.246 244.636 640.99 243.712 645.381 242.018" stroke="#EAC2B2" stroke-opacity="0.2" stroke-width="2" stroke-miterlimit="10"/>
<path d="M773.379 90.8659C727.704 90.8659 690.681 129.729 690.681 177.667" stroke="#EAC2B2" stroke-opacity="0.2" stroke-width="2" stroke-miterlimit="10"/>
<path d="M643.72 243.214C609.277 260.712 585.52 297.749 585.52 340.612C585.52 400.334 631.648 448.751 688.548 448.751" stroke="#EAC2B2" stroke-opacity="0.2" stroke-width="2" stroke-miterlimit="10"/>
<path d="M233.066 970.368L6.1084 732.099" stroke="#EAC2B2" stroke-opacity="0.2" stroke-width="2" stroke-miterlimit="10"/>
<path d="M287.651 796.575C253.214 796.575 225.298 825.877 225.298 862.023C225.298 862.978 225.315 863.926 225.356 864.872" stroke="#EAC2B2" stroke-opacity="0.2" stroke-width="2" stroke-miterlimit="10"/>
<path d="M89.2783 720.523C116.039 713.163 135.783 687.606 135.783 657.208C135.783 656.254 135.765 655.304 135.725 654.362" stroke="#EAC2B2" stroke-opacity="0.2" stroke-width="2" stroke-miterlimit="10"/>
<path d="M269.693 910.432L6.1084 633.767" stroke="#EAC2B2" stroke-opacity="0.2" stroke-width="2" stroke-miterlimit="10"/>
<path d="M306.357 840.985C283.641 843.675 265.988 863.906 265.988 888.468C265.988 896.388 267.825 903.857 271.074 910.434" stroke="#EAC2B2" stroke-opacity="0.2" stroke-width="2" stroke-miterlimit="10"/>
<path d="M271.076 910.431C248.361 913.122 230.789 933.354 230.789 957.914C230.789 962.292 231.35 966.531 232.4 970.558" stroke="#EAC2B2" stroke-opacity="0.2" stroke-width="2" stroke-miterlimit="10"/>
<path d="M225.023 863.192C178.515 863.192 140.813 902.766 140.813 951.582C140.813 958.112 141.488 964.477 142.768 970.605" stroke="#EAC2B2" stroke-opacity="0.2" stroke-width="2" stroke-miterlimit="10"/>
<path d="M469.564 970.707C469.564 947.005 451.833 928.389 429.251 928.389" stroke="#EAC2B2" stroke-opacity="0.2" stroke-width="2" stroke-miterlimit="10"/>
<path d="M429.252 928.386C429.252 904.684 410.947 885.47 388.364 885.47C365.781 885.47 347.478 904.684 347.478 928.386" stroke="#EAC2B2" stroke-opacity="0.2" stroke-width="2" stroke-miterlimit="10"/>
<path d="M347.48 928.389C324.896 928.389 306.886 947.605 306.886 971.308" stroke="#EAC2B2" stroke-opacity="0.2" stroke-width="2" stroke-miterlimit="10"/>
<path d="M288.304 796.635C286.013 775.26 268.732 758.646 247.754 758.646C244.132 758.646 240.622 759.142 237.279 760.071" stroke="#EAC2B2" stroke-opacity="0.2" stroke-width="2" stroke-miterlimit="10"/>
<path d="M237.279 760.068C238.156 756.574 238.627 752.907 238.627 749.124C238.627 725.468 220.355 706.289 197.816 706.289C194.196 706.289 190.689 706.787 187.346 707.714" stroke="#EAC2B2" stroke-opacity="0.2" stroke-width="2" stroke-miterlimit="10"/>
<path d="M187.351 707.712C188.396 703.922 188.955 699.919 188.955 695.776C188.955 672.119 170.685 652.942 148.146 652.942C143.197 652.942 138.453 653.865 134.062 655.559" stroke="#EAC2B2" stroke-opacity="0.2" stroke-width="2" stroke-miterlimit="10"/>
<path d="M6.0625 806.714C51.7368 806.714 88.7612 767.851 88.7612 719.91" stroke="#EAC2B2" stroke-opacity="0.2" stroke-width="2" stroke-miterlimit="10"/>
<path d="M135.726 654.366C170.171 636.867 193.928 599.831 193.928 556.97C193.928 497.245 147.8 448.829 90.8975 448.829" stroke="#EAC2B2" stroke-opacity="0.2" stroke-width="2" stroke-miterlimit="10"/>
<path d="M2038.14 654.769L1910.61 520.474L1978.37 448.938L1910.61 377.477L2038.14 243.181" stroke="#EAC2B2" stroke-opacity="0.2" stroke-width="2" stroke-miterlimit="10"/>
<path d="M2115.83 -51.1944L1909.26 165.668" stroke="#EAC2B2" stroke-opacity="0.2" stroke-width="2" stroke-miterlimit="10"/>
<path d="M2115.83 47.1791L1909.26 263.997" stroke="#EAC2B2" stroke-opacity="0.2" stroke-width="2" stroke-miterlimit="10"/>
<path d="M1909.21 91.0531C1954.89 91.0531 1991.91 129.915 1991.91 177.855" stroke="#EAC2B2" stroke-opacity="0.2" stroke-width="2" stroke-miterlimit="10"/>
<path d="M2115.83 949.148L1909.26 732.288" stroke="#EAC2B2" stroke-opacity="0.2" stroke-width="2" stroke-miterlimit="10"/>
<path d="M1909.21 806.896C1954.89 806.896 1991.91 768.034 1991.91 720.094" stroke="#EAC2B2" stroke-opacity="0.2" stroke-width="2" stroke-miterlimit="10"/>
<path d="M-195.831 -49.8702L9.29395 165.48" stroke="#EAC2B2" stroke-opacity="0.2" stroke-width="2" stroke-miterlimit="10"/>
<path d="M-195.831 48.5078L9.29395 263.814" stroke="#EAC2B2" stroke-opacity="0.2" stroke-width="2" stroke-miterlimit="10"/>
<path d="M9.33841 90.8642C-36.3349 90.8642 -73.3604 129.727 -73.3604 177.666" stroke="#EAC2B2" stroke-opacity="0.2" stroke-width="2" stroke-miterlimit="10"/>
<path d="M-195.831 947.447L9.29395 732.099" stroke="#EAC2B2" stroke-opacity="0.2" stroke-width="2" stroke-miterlimit="10"/>
<path d="M9.33841 806.714C-36.3349 806.714 -73.3604 767.851 -73.3604 719.91" stroke="#EAC2B2" stroke-opacity="0.2" stroke-width="2" stroke-miterlimit="10"/>
<path d="M546.374 970.368L773.332 732.099" stroke="#EAC2B2" stroke-opacity="0.2" stroke-width="2" stroke-miterlimit="10"/>
<path d="M491.795 796.575C526.232 796.575 554.147 825.877 554.147 862.023C554.147 862.977 554.13 863.925 554.09 864.871" stroke="#EAC2B2" stroke-opacity="0.2" stroke-width="2" stroke-miterlimit="10"/>
<path d="M690.169 720.522C663.407 713.162 643.661 687.605 643.661 657.207C643.661 656.253 643.682 655.303 643.72 654.361" stroke="#EAC2B2" stroke-opacity="0.2" stroke-width="2" stroke-miterlimit="10"/>
<path d="M509.747 910.431L773.33 633.766" stroke="#EAC2B2" stroke-opacity="0.2" stroke-width="2" stroke-miterlimit="10"/>
<path d="M473.087 840.982C495.8 843.671 513.452 863.903 513.452 888.465C513.452 896.385 511.616 903.853 508.367 910.43" stroke="#EAC2B2" stroke-opacity="0.2" stroke-width="2" stroke-miterlimit="10"/>
<path d="M508.36 910.431C531.076 913.122 548.648 933.354 548.648 957.914C548.648 962.292 548.085 966.531 547.037 970.558" stroke="#EAC2B2" stroke-opacity="0.2" stroke-width="2" stroke-miterlimit="10"/>
<path d="M554.42 863.192C600.927 863.192 638.631 902.767 638.631 951.583C638.631 958.113 637.958 964.478 636.676 970.606" stroke="#EAC2B2" stroke-opacity="0.2" stroke-width="2" stroke-miterlimit="10"/>
<path d="M491.14 796.632C493.433 775.257 510.712 758.643 531.69 758.643C535.31 758.643 538.82 759.139 542.164 760.069" stroke="#EAC2B2" stroke-opacity="0.2" stroke-width="2" stroke-miterlimit="10"/>
<path d="M542.154 760.068C541.276 756.574 540.804 752.907 540.804 749.124C540.804 725.468 559.076 706.289 581.615 706.289C585.236 706.289 588.746 706.787 592.087 707.714" stroke="#EAC2B2" stroke-opacity="0.2" stroke-width="2" stroke-miterlimit="10"/>
<path d="M592.093 707.713C591.047 703.923 590.487 699.92 590.487 695.777C590.487 672.119 608.757 652.943 631.297 652.943C636.246 652.943 640.99 653.866 645.381 655.56" stroke="#EAC2B2" stroke-opacity="0.2" stroke-width="2" stroke-miterlimit="10"/>
<path d="M773.379 806.714C727.704 806.714 690.681 767.851 690.681 719.91" stroke="#EAC2B2" stroke-opacity="0.2" stroke-width="2" stroke-miterlimit="10"/>
<path d="M643.72 654.366C609.277 636.867 585.52 599.83 585.52 556.969C585.52 497.244 631.648 448.828 688.548 448.828" stroke="#EAC2B2" stroke-opacity="0.2" stroke-width="2" stroke-miterlimit="10"/>
<path d="M994.035 -68.9371L770.747 165.481" stroke="#EAC2B2" stroke-opacity="0.2" stroke-width="2" stroke-miterlimit="10"/>
<path d="M853.915 177.054C880.675 184.415 900.421 209.972 900.421 240.37C900.421 241.325 900.401 242.274 900.363 243.219" stroke="#EAC2B2" stroke-opacity="0.2" stroke-width="2" stroke-miterlimit="10"/>
<path d="M1091.23 -72.552L770.973 263.361" stroke="#EAC2B2" stroke-opacity="0.2" stroke-width="2" stroke-miterlimit="10"/>
<path d="M770.699 90.8636C816.371 90.8636 853.398 129.727 853.398 177.665" stroke="#EAC2B2" stroke-opacity="0.2" stroke-width="2" stroke-miterlimit="10"/>
<path d="M900.368 243.213C934.811 260.711 958.568 297.749 958.568 340.611C958.568 400.333 912.441 448.75 855.539 448.75" stroke="#EAC2B2" stroke-opacity="0.2" stroke-width="2" stroke-miterlimit="10"/>
<path d="M997.701 970.368L770.743 732.099" stroke="#EAC2B2" stroke-opacity="0.2" stroke-width="2" stroke-miterlimit="10"/>
<path d="M853.915 720.522C880.675 713.163 900.421 687.605 900.421 657.207C900.421 656.253 900.401 655.304 900.363 654.361" stroke="#EAC2B2" stroke-opacity="0.2" stroke-width="2" stroke-miterlimit="10"/>
<path d="M1098.46 977.328L770.973 634.19" stroke="#EAC2B2" stroke-opacity="0.2" stroke-width="2" stroke-miterlimit="10"/>
<path d="M770.699 806.714C816.371 806.714 853.398 767.851 853.398 719.91" stroke="#EAC2B2" stroke-opacity="0.2" stroke-width="2" stroke-miterlimit="10"/>
<path d="M900.368 654.363C934.811 636.864 958.568 599.827 958.568 556.966C958.568 497.241 912.441 448.825 855.539 448.825" stroke="#EAC2B2" stroke-opacity="0.2" stroke-width="2" stroke-miterlimit="10"/>
<path d="M855.536 448.825H841.731" stroke="#EAC2B2" stroke-opacity="0.2" stroke-width="2" stroke-miterlimit="10"/>
<path d="M924.524 -68.938L1147.81 165.48" stroke="#EAC2B2" stroke-opacity="0.2" stroke-width="2" stroke-miterlimit="10"/>
<path d="M1064.64 177.052C1037.87 184.414 1018.13 209.971 1018.13 240.368C1018.13 241.323 1018.15 242.273 1018.19 243.217" stroke="#EAC2B2" stroke-opacity="0.2" stroke-width="2" stroke-miterlimit="10"/>
<path d="M829.969 -70.1441L1147.82 263.361" stroke="#EAC2B2" stroke-opacity="0.2" stroke-width="2" stroke-miterlimit="10"/>
<path d="M1147.85 90.8654C1102.18 90.8654 1065.16 129.728 1065.16 177.667" stroke="#EAC2B2" stroke-opacity="0.2" stroke-width="2" stroke-miterlimit="10"/>
<path d="M1018.2 243.213C983.75 260.711 959.995 297.749 959.995 340.611C959.995 400.333 1006.12 448.75 1063.02 448.75" stroke="#EAC2B2" stroke-opacity="0.2" stroke-width="2" stroke-miterlimit="10"/>
<path d="M920.85 970.368L1147.81 732.099" stroke="#EAC2B2" stroke-opacity="0.2" stroke-width="2" stroke-miterlimit="10"/>
<path d="M1064.64 720.524C1037.88 713.164 1018.14 687.606 1018.14 657.209C1018.14 656.254 1018.16 655.305 1018.2 654.362" stroke="#EAC2B2" stroke-opacity="0.2" stroke-width="2" stroke-miterlimit="10"/>
<path d="M799.868 999L1147.82 634.19" stroke="#EAC2B2" stroke-opacity="0.2" stroke-width="2" stroke-miterlimit="10"/>
<path d="M1147.85 806.715C1102.18 806.715 1065.16 767.852 1065.16 719.911" stroke="#EAC2B2" stroke-opacity="0.2" stroke-width="2" stroke-miterlimit="10"/>
<path d="M1018.2 654.363C983.75 636.864 959.995 599.827 959.995 556.966C959.995 497.241 1006.12 448.825 1063.02 448.825" stroke="#EAC2B2" stroke-opacity="0.2" stroke-width="2" stroke-miterlimit="10"/>
<path d="M1063.02 448.825H1076.65" stroke="#EAC2B2" stroke-opacity="0.2" stroke-width="2" stroke-miterlimit="10"/>
<path d="M1827.26 448.825L1843.75 448.75" stroke="#EAC2B2" stroke-opacity="0.2" stroke-width="2" stroke-miterlimit="10"/>
<path d="M1229.62 448.825H1209.94" stroke="#EAC2B2" stroke-opacity="0.2" stroke-width="2" stroke-miterlimit="10"/>
<path d="M1273.7 654.583L1146.18 520.288L1213.93 448.752L1146.18 377.291L1273.7 242.996" stroke="#EAC2B2" stroke-opacity="0.2" stroke-width="2" stroke-miterlimit="10"/>
<path d="M1782.25 654.584L1909.78 520.289L1842.02 448.753L1909.78 377.292L1782.25 242.997" stroke="#EAC2B2" stroke-opacity="0.2" stroke-width="2" stroke-miterlimit="10"/>
<path d="M1368.12 -68.9398L1144.83 165.478" stroke="#EAC2B2" stroke-opacity="0.2" stroke-width="2" stroke-miterlimit="10"/>
<path d="M1426.36 101.004C1391.92 101.004 1364.01 71.7014 1364.01 35.5543C1364.01 34.6008 1364.03 33.6508 1364.06 32.7077" stroke="#EAC2B2" stroke-opacity="0.2" stroke-width="2" stroke-miterlimit="10"/>
<path d="M1228 177.052C1254.76 184.414 1274.5 209.971 1274.5 240.368C1274.5 241.323 1274.48 242.273 1274.45 243.217" stroke="#EAC2B2" stroke-opacity="0.2" stroke-width="2" stroke-miterlimit="10"/>
<path d="M1408.41 -12.8529L1144.83 263.813" stroke="#EAC2B2" stroke-opacity="0.2" stroke-width="2" stroke-miterlimit="10"/>
<path d="M1445.08 56.5946C1422.37 53.9049 1404.72 33.6716 1404.72 9.11047C1404.72 1.19152 1406.55 -6.27836 1409.8 -12.8544" stroke="#EAC2B2" stroke-opacity="0.2" stroke-width="2" stroke-miterlimit="10"/>
<path d="M1363.74 34.3833C1317.23 34.3833 1279.53 -5.18941 1279.53 -54.006C1279.53 -59.0956 1279.94 -64.0853 1280.72 -68.9383" stroke="#EAC2B2" stroke-opacity="0.2" stroke-width="2" stroke-miterlimit="10"/>
<path d="M1567.97 -30.8113C1567.97 -7.10942 1549.66 12.1051 1527.08 12.1051C1504.5 12.1051 1486.2 -7.10942 1486.2 -30.8113" stroke="#EAC2B2" stroke-opacity="0.2" stroke-width="2" stroke-miterlimit="10"/>
<path d="M1427.02 100.945C1424.73 122.321 1407.45 138.935 1386.47 138.935C1382.85 138.935 1379.34 138.44 1376 137.51" stroke="#EAC2B2" stroke-opacity="0.2" stroke-width="2" stroke-miterlimit="10"/>
<path d="M1376 137.508C1376.87 141.002 1377.34 144.668 1377.34 148.45C1377.34 172.108 1359.07 191.287 1336.53 191.287C1332.91 191.287 1329.4 190.79 1326.06 189.861" stroke="#EAC2B2" stroke-opacity="0.2" stroke-width="2" stroke-miterlimit="10"/>
<path d="M1326.06 189.86C1327.11 193.647 1327.67 197.653 1327.67 201.796C1327.67 225.452 1309.4 244.631 1286.86 244.631C1281.91 244.631 1277.17 243.707 1272.78 242.013" stroke="#EAC2B2" stroke-opacity="0.2" stroke-width="2" stroke-miterlimit="10"/>
<path d="M1144.79 90.8648C1190.46 90.8648 1227.48 129.728 1227.48 177.666" stroke="#EAC2B2" stroke-opacity="0.2" stroke-width="2" stroke-miterlimit="10"/>
<path d="M1274.44 243.214C1308.89 260.712 1332.64 297.749 1332.64 340.612C1332.64 400.334 1286.52 448.751 1229.62 448.751" stroke="#EAC2B2" stroke-opacity="0.2" stroke-width="2" stroke-miterlimit="10"/>
<path d="M1688.76 -68.9386L1912.05 165.479" stroke="#EAC2B2" stroke-opacity="0.2" stroke-width="2" stroke-miterlimit="10"/>
<path d="M1630.52 101.005C1664.95 101.005 1692.87 71.7019 1692.87 35.5547C1692.87 34.6013 1692.85 33.6513 1692.81 32.7082" stroke="#EAC2B2" stroke-opacity="0.2" stroke-width="2" stroke-miterlimit="10"/>
<path d="M1828.88 177.052C1802.11 184.413 1782.37 209.97 1782.37 240.367C1782.37 241.323 1782.39 242.272 1782.43 243.216" stroke="#EAC2B2" stroke-opacity="0.2" stroke-width="2" stroke-miterlimit="10"/>
<path d="M1648.47 -12.8529L1912.05 263.813" stroke="#EAC2B2" stroke-opacity="0.2" stroke-width="2" stroke-miterlimit="10"/>
<path d="M1611.8 56.5946C1634.51 53.9049 1652.16 33.6716 1652.16 9.11047C1652.16 1.19152 1650.33 -6.27836 1647.08 -12.8544" stroke="#EAC2B2" stroke-opacity="0.2" stroke-width="2" stroke-miterlimit="10"/>
<path d="M1693.15 34.3837C1739.66 34.3837 1777.36 -5.18904 1777.36 -54.0056C1777.36 -59.0953 1776.95 -64.085 1776.16 -68.9379" stroke="#EAC2B2" stroke-opacity="0.2" stroke-width="2" stroke-miterlimit="10"/>
<path d="M1629.85 100.946C1632.15 122.322 1649.43 138.936 1670.4 138.936C1674.03 138.936 1677.54 138.441 1680.88 137.511" stroke="#EAC2B2" stroke-opacity="0.2" stroke-width="2" stroke-miterlimit="10"/>
<path d="M1680.88 137.509C1680 141.003 1679.53 144.669 1679.53 148.451C1679.53 172.109 1697.8 191.288 1720.34 191.288C1723.96 191.288 1727.47 190.791 1730.81 189.862" stroke="#EAC2B2" stroke-opacity="0.2" stroke-width="2" stroke-miterlimit="10"/>
<path d="M1730.82 189.866C1729.77 193.653 1729.21 197.66 1729.21 201.802C1729.21 225.459 1747.48 244.637 1770.02 244.637C1774.97 244.637 1779.72 243.713 1784.1 242.019" stroke="#EAC2B2" stroke-opacity="0.2" stroke-width="2" stroke-miterlimit="10"/>
<path d="M1912.09 90.8654C1866.42 90.8654 1829.39 129.728 1829.39 177.667" stroke="#EAC2B2" stroke-opacity="0.2" stroke-width="2" stroke-miterlimit="10"/>
<path d="M1782.43 243.212C1747.99 260.71 1724.23 297.748 1724.23 340.61C1724.23 400.333 1770.36 448.75 1827.26 448.75" stroke="#EAC2B2" stroke-opacity="0.2" stroke-width="2" stroke-miterlimit="10"/>
<path d="M1371.79 970.368L1144.83 732.099" stroke="#EAC2B2" stroke-opacity="0.2" stroke-width="2" stroke-miterlimit="10"/>
<path d="M1426.37 796.578C1391.93 796.578 1364.01 825.88 1364.01 862.026C1364.01 862.98 1364.03 863.928 1364.07 864.874" stroke="#EAC2B2" stroke-opacity="0.2" stroke-width="2" stroke-miterlimit="10"/>
<path d="M1228 720.523C1254.76 713.163 1274.51 687.606 1274.51 657.208C1274.51 656.254 1274.49 655.304 1274.45 654.362" stroke="#EAC2B2" stroke-opacity="0.2" stroke-width="2" stroke-miterlimit="10"/>
<path d="M1408.41 910.433L1144.83 633.767" stroke="#EAC2B2" stroke-opacity="0.2" stroke-width="2" stroke-miterlimit="10"/>
<path d="M1445.08 840.982C1422.36 843.671 1404.71 863.903 1404.71 888.465C1404.71 896.385 1406.55 903.853 1409.8 910.43" stroke="#EAC2B2" stroke-opacity="0.2" stroke-width="2" stroke-miterlimit="10"/>
<path d="M1409.79 910.431C1387.08 913.122 1369.51 933.354 1369.51 957.914C1369.51 962.292 1370.07 966.531 1371.12 970.558" stroke="#EAC2B2" stroke-opacity="0.2" stroke-width="2" stroke-miterlimit="10"/>
<path d="M1363.74 863.193C1317.23 863.193 1279.53 902.767 1279.53 951.583C1279.53 958.114 1280.2 964.478 1281.48 970.606" stroke="#EAC2B2" stroke-opacity="0.2" stroke-width="2" stroke-miterlimit="10"/>
<path d="M1608.29 970.709C1608.29 947.007 1590.55 928.39 1567.97 928.39" stroke="#EAC2B2" stroke-opacity="0.2" stroke-width="2" stroke-miterlimit="10"/>
<path d="M1567.97 928.388C1567.97 904.686 1549.66 885.472 1527.08 885.472C1504.5 885.472 1486.2 904.686 1486.2 928.388" stroke="#EAC2B2" stroke-opacity="0.2" stroke-width="2" stroke-miterlimit="10"/>
<path d="M1486.19 928.389C1463.61 928.389 1445.6 947.605 1445.6 971.308" stroke="#EAC2B2" stroke-opacity="0.2" stroke-width="2" stroke-miterlimit="10"/>
<path d="M1427.02 796.632C1424.73 775.257 1407.45 758.643 1386.47 758.643C1382.85 758.643 1379.34 759.139 1376 760.069" stroke="#EAC2B2" stroke-opacity="0.2" stroke-width="2" stroke-miterlimit="10"/>
<path d="M1376 760.068C1376.87 756.574 1377.34 752.907 1377.34 749.124C1377.34 725.468 1359.07 706.289 1336.53 706.289C1332.91 706.289 1329.4 706.787 1326.06 707.714" stroke="#EAC2B2" stroke-opacity="0.2" stroke-width="2" stroke-miterlimit="10"/>
<path d="M1326.06 707.713C1327.11 703.923 1327.67 699.92 1327.67 695.777C1327.67 672.119 1309.4 652.943 1286.86 652.943C1281.91 652.943 1277.17 653.866 1272.78 655.56" stroke="#EAC2B2" stroke-opacity="0.2" stroke-width="2" stroke-miterlimit="10"/>
<path d="M1144.79 806.714C1190.46 806.714 1227.48 767.851 1227.48 719.91" stroke="#EAC2B2" stroke-opacity="0.2" stroke-width="2" stroke-miterlimit="10"/>
<path d="M1274.44 654.362C1308.89 636.863 1332.64 599.826 1332.64 556.965C1332.64 497.24 1286.52 448.824 1229.62 448.824" stroke="#EAC2B2" stroke-opacity="0.2" stroke-width="2" stroke-miterlimit="10"/>
<path d="M1685.08 970.367L1912.04 732.098" stroke="#EAC2B2" stroke-opacity="0.2" stroke-width="2" stroke-miterlimit="10"/>
<path d="M1630.51 796.573C1664.95 796.573 1692.87 825.875 1692.87 862.021C1692.87 862.975 1692.85 863.923 1692.81 864.869" stroke="#EAC2B2" stroke-opacity="0.2" stroke-width="2" stroke-miterlimit="10"/>
<path d="M1828.88 720.522C1802.11 713.163 1782.37 687.605 1782.37 657.207C1782.37 656.253 1782.39 655.304 1782.43 654.361" stroke="#EAC2B2" stroke-opacity="0.2" stroke-width="2" stroke-miterlimit="10"/>
<path d="M1648.47 910.43L1912.05 633.765" stroke="#EAC2B2" stroke-opacity="0.2" stroke-width="2" stroke-miterlimit="10"/>
<path d="M1611.8 840.982C1634.51 843.671 1652.16 863.903 1652.16 888.465C1652.16 896.385 1650.33 903.853 1647.08 910.43" stroke="#EAC2B2" stroke-opacity="0.2" stroke-width="2" stroke-miterlimit="10"/>
<path d="M1647.08 910.431C1669.8 913.122 1687.37 933.354 1687.37 957.914C1687.37 962.292 1686.81 966.531 1685.76 970.558" stroke="#EAC2B2" stroke-opacity="0.2" stroke-width="2" stroke-miterlimit="10"/>
<path d="M1693.15 863.194C1739.66 863.194 1777.36 902.768 1777.36 951.584C1777.36 958.114 1776.68 964.479 1775.4 970.607" stroke="#EAC2B2" stroke-opacity="0.2" stroke-width="2" stroke-miterlimit="10"/>
<path d="M1629.85 796.633C1632.15 775.258 1649.43 758.644 1670.4 758.644C1674.03 758.644 1677.54 759.14 1680.88 760.07" stroke="#EAC2B2" stroke-opacity="0.2" stroke-width="2" stroke-miterlimit="10"/>
<path d="M1680.88 760.068C1680 756.574 1679.53 752.907 1679.53 749.124C1679.53 725.468 1697.8 706.289 1720.34 706.289C1723.96 706.289 1727.47 706.787 1730.81 707.714" stroke="#EAC2B2" stroke-opacity="0.2" stroke-width="2" stroke-miterlimit="10"/>
<path d="M1730.81 707.714C1729.77 703.923 1729.21 699.92 1729.21 695.778C1729.21 672.12 1747.48 652.943 1770.01 652.943C1774.97 652.943 1779.71 653.867 1784.1 655.561" stroke="#EAC2B2" stroke-opacity="0.2" stroke-width="2" stroke-miterlimit="10"/>
<path d="M1912.09 806.713C1866.42 806.713 1829.39 767.85 1829.39 719.908" stroke="#EAC2B2" stroke-opacity="0.2" stroke-width="2" stroke-miterlimit="10"/>
<path d="M1782.43 654.362C1747.99 636.863 1724.23 599.826 1724.23 556.965C1724.23 497.24 1770.36 448.824 1827.26 448.824" stroke="#EAC2B2" stroke-opacity="0.2" stroke-width="2" stroke-miterlimit="10"/>
<path d="M307.571 55.6797C355.664 74.1099 389.997 122.551 389.997 179.411C389.997 183.522 389.819 187.592 389.467 191.612" stroke="#EAC2B2" stroke-opacity="0.2" stroke-width="2" stroke-miterlimit="10"/>
<path d="M389.266 190.141C386.716 139.863 347.066 99.9175 298.528 99.9175C295.142 99.9175 291.794 100.112 288.501 100.492" stroke="#EAC2B2" stroke-opacity="0.2" stroke-width="2" stroke-miterlimit="10"/>
<path d="M288.501 100.494C297.653 50.6661 339.282 12.9982 389.427 12.9982C439.566 12.9982 481.772 50.6754 490.933 100.494" stroke="#EAC2B2" stroke-opacity="0.2" stroke-width="2" stroke-miterlimit="10"/>
<path d="M490.934 100.492C487.639 100.113 484.295 99.918 480.905 99.918C432.367 99.918 392.718 139.863 390.167 190.142" stroke="#EAC2B2" stroke-opacity="0.2" stroke-width="2" stroke-miterlimit="10"/>
<path d="M471.855 55.6797C423.761 74.1099 389.428 122.551 389.428 179.411C389.428 183.522 389.607 187.592 389.96 191.612" stroke="#EAC2B2" stroke-opacity="0.2" stroke-width="2" stroke-miterlimit="10"/>
<path d="M900.543 654.584L773.02 520.289L840.775 448.753L773.02 377.292L900.543 242.997" stroke="#EAC2B2" stroke-opacity="0.2" stroke-width="2" stroke-miterlimit="10"/>
<path d="M1018.01 654.583L1145.54 520.288L1077.78 448.752L1145.54 377.291L1018.01 242.996" stroke="#EAC2B2" stroke-opacity="0.2" stroke-width="2" stroke-miterlimit="10"/>
<path d="M-119.575 654.584L7.94768 520.289L-59.8098 448.754L7.94768 377.292L-119.575 242.998" stroke="#EAC2B2" stroke-opacity="0.2" stroke-width="2" stroke-miterlimit="10"/>
<path d="M-195.831 849.072L9.29395 633.765" stroke="#EAC2B2" stroke-opacity="0.2" stroke-width="2" stroke-miterlimit="10"/>
<path d="M2115.83 850.771L1909.26 633.951" stroke="#EAC2B2" stroke-opacity="0.2" stroke-width="2" stroke-miterlimit="10"/>
</g>
</svg>
