<svg width="1618" height="208" viewBox="0 0 1618 208" fill="none" xmlns="http://www.w3.org/2000/svg">
<path d="M152.068 101.346C117.105 97.9958 89.8353 67.7391 89.8353 32.1282C89.8353 29.5712 89.9695 26.9932 90.2483 24.4466L90.7027 20.2927L86.6447 21.0859C47.0048 28.8197 18.248 64.2114 18.248 105.25C18.248 146.288 47.0048 181.22 86.6344 188.943L90.6923 189.737L90.238 185.583C89.9695 183.047 89.825 180.458 89.825 177.901C89.825 142.29 117.095 112.034 152.057 108.683M83.8465 28.0161C82.2873 57.6779 98.7463 86.0351 124.529 99.5092C94.1101 92.172 68.6679 70.0248 57.1755 40.5195C65.312 34.6122 74.2747 30.4061 83.8465 28.0056V28.0161ZM83.7329 177.901C83.7329 179.258 83.7742 180.636 83.8465 182.013C74.2747 179.623 65.3017 175.428 57.1548 169.541C68.6266 140.025 94.0791 117.868 124.509 110.52C99.9028 123.378 83.7432 149.732 83.7432 177.901H83.7329ZM52.1366 165.617C48.2852 162.329 44.7538 158.676 41.6252 154.752C30.4839 140.746 24.3401 123.159 24.3401 105.25C24.3401 87.3397 30.4735 69.5134 41.6252 55.4235C44.7538 51.4679 48.2955 47.7837 52.1573 44.4751C64.424 74.4396 90.0108 96.8582 121.111 105.02C89.9902 113.182 64.3931 135.631 52.1366 165.627V165.617Z" fill="#E3BCA0"/>
<path d="M1543.74 104.88H151.741" stroke="#E3BCA0" stroke-width="7" stroke-miterlimit="10"/>
<path d="M476.181 121.74C484.925 121.74 492.013 114.635 492.013 105.87C492.013 97.1053 484.925 90 476.181 90C467.436 90 460.348 97.1053 460.348 105.87C460.348 114.635 467.436 121.74 476.181 121.74Z" fill="#29354D" stroke="#E3BCA0" stroke-width="7" stroke-miterlimit="10"/>
<path d="M659.833 121.74C668.577 121.74 675.666 114.635 675.666 105.87C675.666 97.1053 668.577 90 659.833 90C651.089 90 644 97.1053 644 105.87C644 114.635 651.089 121.74 659.833 121.74Z" fill="#29354D" stroke="#E3BCA0" stroke-width="7" stroke-miterlimit="10"/>
<path d="M843.833 121.74C852.577 121.74 859.666 114.635 859.666 105.87C859.666 97.1053 852.577 90 843.833 90C835.089 90 828 97.1053 828 105.87C828 114.635 835.089 121.74 843.833 121.74Z" fill="#29354D" stroke="#E3BCA0" stroke-width="7" stroke-miterlimit="10"/>
<path d="M1027.83 121.74C1036.58 121.74 1043.67 114.635 1043.67 105.87C1043.67 97.1053 1036.58 90 1027.83 90C1019.09 90 1012 97.1053 1012 105.87C1012 114.635 1019.09 121.74 1027.83 121.74Z" fill="#29354D" stroke="#E3BCA0" stroke-width="7" stroke-miterlimit="10"/>
<path d="M1211.83 121.74C1220.58 121.74 1227.67 114.635 1227.67 105.87C1227.67 97.1053 1220.58 90 1211.83 90C1203.09 90 1196 97.1053 1196 105.87C1196 114.635 1203.09 121.74 1211.83 121.74Z" fill="#29354D" stroke="#E3BCA0" stroke-width="7" stroke-miterlimit="10"/>
<path d="M1395.83 121.74C1404.58 121.74 1411.67 114.635 1411.67 105.87C1411.67 97.1053 1404.58 90 1395.83 90C1387.09 90 1380 97.1053 1380 105.87C1380 114.635 1387.09 121.74 1395.83 121.74Z" fill="#29354D" stroke="#E3BCA0" stroke-width="7" stroke-miterlimit="10"/>
<path d="M1544.19 64.6912L1609.99 106.188L1544.19 147.686V64.6912Z" fill="#29354D" stroke="#E3BCA0" stroke-width="7" stroke-miterlimit="10"/>
</svg>
