<svg width="82" height="29" viewBox="0 0 82 29" fill="none" xmlns="http://www.w3.org/2000/svg">
<g id="International">
<path id="visa-logo" fill-rule="evenodd" clip-rule="evenodd" d="M20.5633 27.3083H13.5492L8.28953 6.35036C8.03988 5.3863 7.50981 4.53401 6.73008 4.13231C4.78419 3.12284 2.63995 2.31945 0.300781 1.91426V1.10738H11.5999C13.1594 1.10738 14.329 2.31945 14.5239 3.72713L17.2529 18.8448L24.2636 1.10738H31.0828L20.5633 27.3083ZM34.9836 27.3095H28.3594L33.814 1.10852H40.4383L34.9836 27.3095ZM49.0091 8.36272C49.2041 6.95156 50.3736 6.14467 51.7382 6.14467C53.8824 5.94208 56.2181 6.34727 58.1675 7.35325L59.337 1.71207C57.3877 0.905187 55.2435 0.5 53.2976 0.5C46.8683 0.5 42.19 4.12922 42.19 9.16611C42.19 12.9979 45.5038 15.0099 47.843 16.222C50.3736 17.4305 51.3483 18.2374 51.1534 19.446C51.1534 21.2589 49.2041 22.0657 47.2582 22.0657C44.919 22.0657 42.5798 21.4614 40.439 20.452L39.2694 26.0966C41.6086 27.1026 44.1393 27.5078 46.4784 27.5078C53.6875 27.7069 58.1675 24.0812 58.1675 18.6391C58.1675 11.7859 49.0091 11.3842 49.0091 8.36272ZM81.3507 27.3095L76.091 1.10852H70.4414C69.2718 1.10852 68.1022 1.9154 67.7124 3.12398L57.9727 27.3095H64.7918L66.1529 23.4811H74.5315L75.3113 27.3095H81.3507ZM71.415 8.15906L73.3609 18.0337H67.9062L71.415 8.15906Z" fill="#172B85"/>
</g>
</svg>
