<svg width="22" height="6" viewBox="0 0 22 6" fill="none" xmlns="http://www.w3.org/2000/svg">
<path d="M19.6144 0.0976562H18.2981C17.8865 0.0976562 17.5768 0.203583 17.4016 0.57811L14.875 5.9085H16.6681C16.6681 5.9085 16.9655 5.1935 17.0267 5.04217H19.2109C19.2639 5.24268 19.4188 5.9085 19.4188 5.9085H21.004L19.6144 0.0976562ZM17.5157 3.85049C17.6542 3.51758 18.184 2.21998 18.184 2.21998C18.184 2.21998 18.3307 1.8795 18.4163 1.67143L18.5304 2.1708C18.5304 2.1708 18.8605 3.55541 18.9257 3.85049H17.5157Z" fill="#FFF9EE"/>
<path d="M12.5986 1.71375C12.5945 1.98235 12.9654 2.16393 13.5603 2.43253C14.5424 2.84868 14.9989 3.34805 14.9866 4.01387C14.9785 5.22068 13.813 6 12.024 6C11.2579 5.99243 10.5244 5.84868 10.125 5.68979L10.3654 4.3884L10.5814 4.47919C11.1397 4.69483 11.5065 4.78562 12.187 4.78562C12.676 4.78562 13.2017 4.60782 13.2099 4.21816C13.214 3.96091 12.9857 3.77932 12.3256 3.49559C11.6735 3.21942 10.8178 2.7541 10.83 1.92182C10.8381 0.794451 12.0281 0 13.7111 0C14.3713 0 14.9051 0.128625 15.2393 0.245902L15.007 1.50189L14.8522 1.43758C14.5343 1.3203 14.1309 1.21059 13.5726 1.21438C12.9083 1.21059 12.5986 1.47163 12.5986 1.71375Z" fill="#FFF9EE"/>
<path d="M10.1115 0.101562L9.0476 5.90862H7.34375L7.55163 4.78126L7.88996 2.92754L8.40357 0.105346L10.1115 0.101562Z" fill="#FFF9EE"/>
<path d="M3.98956 3.09447C3.41904 1.75147 2.05794 0.635455 0 0.173917L0.0203769 0.0566406H2.66514C3.02375 0.071773 3.31308 0.173917 3.41089 0.529528L3.98956 3.09447Z" fill="#FFF9EE"/>
<path d="M7.72582 0.109375L5.04031 5.90509H3.23911L1.71094 1.06272C2.80715 1.71719 3.74035 2.75376 4.07044 3.47255L4.24974 4.07407L5.92054 0.109375H7.72582Z" fill="#FFF9EE"/>
</svg>
