<svg width="36" height="27" viewBox="0 0 36 27" fill="none" xmlns="http://www.w3.org/2000/svg">
<path d="M4.75 12.7754C4.33579 12.7754 4 13.1112 4 13.5254C4 13.9396 4.33579 14.2754 4.75 14.2754L4.75 12.7754ZM31.2803 14.0557C31.5732 13.7628 31.5732 13.288 31.2803 12.9951L26.5074 8.22209C26.2145 7.9292 25.7396 7.9292 25.4467 8.22209C25.1538 8.51498 25.1538 8.98986 25.4467 9.28275L29.6893 13.5254L25.4467 17.768C25.1538 18.0609 25.1538 18.5358 25.4467 18.8287C25.7396 19.1216 26.2145 19.1216 26.5074 18.8287L31.2803 14.0557ZM4.75 14.2754L30.75 14.2754L30.75 12.7754L4.75 12.7754L4.75 14.2754Z" fill="#E6AF9A"/>
</svg>
