<svg width="150" height="150" viewBox="0 0 150 150" fill="none" xmlns="http://www.w3.org/2000/svg">
<g clip-path="url(#clip0_868_197600)">
<path d="M50.6595 3.77885C51.6678 3.77885 52.4851 2.96703 52.4851 1.96559C52.4851 0.964164 51.6678 0.152344 50.6595 0.152344C49.6513 0.152344 48.834 0.964164 48.834 1.96559C48.834 2.96703 49.6513 3.77885 50.6595 3.77885Z" fill="#29354D"/>
<path d="M62.8295 3.77885C63.8377 3.77885 64.655 2.96703 64.655 1.96559C64.655 0.964164 63.8377 0.152344 62.8295 0.152344C61.8212 0.152344 61.0039 0.964164 61.0039 1.96559C61.0039 2.96703 61.8212 3.77885 62.8295 3.77885Z" fill="#29354D"/>
<path d="M74.9994 3.77885C76.0076 3.77885 76.8249 2.96703 76.8249 1.96559C76.8249 0.964164 76.0076 0.152344 74.9994 0.152344C73.9912 0.152344 73.1738 0.964164 73.1738 1.96559C73.1738 2.96703 73.9912 3.77885 74.9994 3.77885Z" fill="#29354D"/>
<path d="M81.0853 3.77885C82.0936 3.77885 82.9109 2.96703 82.9109 1.96559C82.9109 0.964164 82.0936 0.152344 81.0853 0.152344C80.0771 0.152344 79.2598 0.964164 79.2598 1.96559C79.2598 2.96703 80.0771 3.77885 81.0853 3.77885Z" fill="#29354D"/>
<path d="M87.1693 3.77885C88.1775 3.77885 88.9949 2.96703 88.9949 1.96559C88.9949 0.964164 88.1775 0.152344 87.1693 0.152344C86.1611 0.152344 85.3438 0.964164 85.3438 1.96559C85.3438 2.96703 86.1611 3.77885 87.1693 3.77885Z" fill="#29354D"/>
<path d="M93.2552 3.77885C94.2635 3.77885 95.0808 2.96703 95.0808 1.96559C95.0808 0.964164 94.2635 0.152344 93.2552 0.152344C92.247 0.152344 91.4297 0.964164 91.4297 1.96559C91.4297 2.96703 92.247 3.77885 93.2552 3.77885Z" fill="#29354D"/>
<path d="M50.6595 9.82181C51.6678 9.82181 52.4851 9.00999 52.4851 8.00856C52.4851 7.00713 51.6678 6.19531 50.6595 6.19531C49.6513 6.19531 48.834 7.00713 48.834 8.00856C48.834 9.00999 49.6513 9.82181 50.6595 9.82181Z" fill="#29354D"/>
<path d="M62.8295 9.82181C63.8377 9.82181 64.655 9.00999 64.655 8.00856C64.655 7.00713 63.8377 6.19531 62.8295 6.19531C61.8212 6.19531 61.0039 7.00713 61.0039 8.00856C61.0039 9.00999 61.8212 9.82181 62.8295 9.82181Z" fill="#29354D"/>
<path d="M99.3412 9.82181C100.349 9.82181 101.167 9.00999 101.167 8.00856C101.167 7.00713 100.349 6.19531 99.3412 6.19531C98.333 6.19531 97.5156 7.00713 97.5156 8.00856C97.5156 9.00999 98.333 9.82181 99.3412 9.82181Z" fill="#29354D"/>
<path d="M50.6595 15.8667C51.6678 15.8667 52.4851 15.0549 52.4851 14.0535C52.4851 13.0521 51.6678 12.2402 50.6595 12.2402C49.6513 12.2402 48.834 13.0521 48.834 14.0535C48.834 15.0549 49.6513 15.8667 50.6595 15.8667Z" fill="#29354D"/>
<path d="M56.7455 15.8667C57.7537 15.8667 58.571 15.0549 58.571 14.0535C58.571 13.0521 57.7537 12.2402 56.7455 12.2402C55.7373 12.2402 54.9199 13.0521 54.9199 14.0535C54.9199 15.0549 55.7373 15.8667 56.7455 15.8667Z" fill="#29354D"/>
<path d="M62.8295 15.8667C63.8377 15.8667 64.655 15.0549 64.655 14.0535C64.655 13.0521 63.8377 12.2402 62.8295 12.2402C61.8212 12.2402 61.0039 13.0521 61.0039 14.0535C61.0039 15.0549 61.8212 15.8667 62.8295 15.8667Z" fill="#29354D"/>
<path d="M68.9154 15.8667C69.9236 15.8667 70.741 15.0549 70.741 14.0535C70.741 13.0521 69.9236 12.2402 68.9154 12.2402C67.9072 12.2402 67.0898 13.0521 67.0898 14.0535C67.0898 15.0549 67.9072 15.8667 68.9154 15.8667Z" fill="#29354D"/>
<path d="M74.9994 15.8667C76.0076 15.8667 76.8249 15.0549 76.8249 14.0535C76.8249 13.0521 76.0076 12.2402 74.9994 12.2402C73.9912 12.2402 73.1738 13.0521 73.1738 14.0535C73.1738 15.0549 73.9912 15.8667 74.9994 15.8667Z" fill="#29354D"/>
<path d="M81.0853 15.8667C82.0936 15.8667 82.9109 15.0549 82.9109 14.0535C82.9109 13.0521 82.0936 12.2402 81.0853 12.2402C80.0771 12.2402 79.2598 13.0521 79.2598 14.0535C79.2598 15.0549 80.0771 15.8667 81.0853 15.8667Z" fill="#29354D"/>
<path d="M87.1693 15.8667C88.1775 15.8667 88.9949 15.0549 88.9949 14.0535C88.9949 13.0521 88.1775 12.2402 87.1693 12.2402C86.1611 12.2402 85.3438 13.0521 85.3438 14.0535C85.3438 15.0549 86.1611 15.8667 87.1693 15.8667Z" fill="#29354D"/>
<path d="M56.7455 21.9097C57.7537 21.9097 58.571 21.0979 58.571 20.0965C58.571 19.095 57.7537 18.2832 56.7455 18.2832C55.7373 18.2832 54.9199 19.095 54.9199 20.0965C54.9199 21.0979 55.7373 21.9097 56.7455 21.9097Z" fill="#29354D"/>
<path d="M68.9154 21.9097C69.9236 21.9097 70.741 21.0979 70.741 20.0965C70.741 19.095 69.9236 18.2832 68.9154 18.2832C67.9072 18.2832 67.0898 19.095 67.0898 20.0965C67.0898 21.0979 67.9072 21.9097 68.9154 21.9097Z" fill="#29354D"/>
<path d="M99.3412 21.9097C100.349 21.9097 101.167 21.0979 101.167 20.0965C101.167 19.095 100.349 18.2832 99.3412 18.2832C98.333 18.2832 97.5156 19.095 97.5156 20.0965C97.5156 21.0979 98.333 21.9097 99.3412 21.9097Z" fill="#29354D"/>
<path d="M50.6595 27.9546C51.6678 27.9546 52.4851 27.1428 52.4851 26.1414C52.4851 25.1399 51.6678 24.3281 50.6595 24.3281C49.6513 24.3281 48.834 25.1399 48.834 26.1414C48.834 27.1428 49.6513 27.9546 50.6595 27.9546Z" fill="#29354D"/>
<path d="M56.7455 27.9546C57.7537 27.9546 58.571 27.1428 58.571 26.1414C58.571 25.1399 57.7537 24.3281 56.7455 24.3281C55.7373 24.3281 54.9199 25.1399 54.9199 26.1414C54.9199 27.1428 55.7373 27.9546 56.7455 27.9546Z" fill="#29354D"/>
<path d="M62.8295 27.9546C63.8377 27.9546 64.655 27.1428 64.655 26.1414C64.655 25.1399 63.8377 24.3281 62.8295 24.3281C61.8212 24.3281 61.0039 25.1399 61.0039 26.1414C61.0039 27.1428 61.8212 27.9546 62.8295 27.9546Z" fill="#29354D"/>
<path d="M68.9154 27.9546C69.9236 27.9546 70.741 27.1428 70.741 26.1414C70.741 25.1399 69.9236 24.3281 68.9154 24.3281C67.9072 24.3281 67.0898 25.1399 67.0898 26.1414C67.0898 27.1428 67.9072 27.9546 68.9154 27.9546Z" fill="#29354D"/>
<path d="M81.0853 27.9546C82.0936 27.9546 82.9109 27.1428 82.9109 26.1414C82.9109 25.1399 82.0936 24.3281 81.0853 24.3281C80.0771 24.3281 79.2598 25.1399 79.2598 26.1414C79.2598 27.1428 80.0771 27.9546 81.0853 27.9546Z" fill="#29354D"/>
<path d="M87.1693 27.9546C88.1775 27.9546 88.9949 27.1428 88.9949 26.1414C88.9949 25.1399 88.1775 24.3281 87.1693 24.3281C86.1611 24.3281 85.3438 25.1399 85.3438 26.1414C85.3438 27.1428 86.1611 27.9546 87.1693 27.9546Z" fill="#29354D"/>
<path d="M99.3412 27.9546C100.349 27.9546 101.167 27.1428 101.167 26.1414C101.167 25.1399 100.349 24.3281 99.3412 24.3281C98.333 24.3281 97.5156 25.1399 97.5156 26.1414C97.5156 27.1428 98.333 27.9546 99.3412 27.9546Z" fill="#29354D"/>
<path d="M56.7455 33.9976C57.7537 33.9976 58.571 33.1858 58.571 32.1843C58.571 31.1829 57.7537 30.3711 56.7455 30.3711C55.7373 30.3711 54.9199 31.1829 54.9199 32.1843C54.9199 33.1858 55.7373 33.9976 56.7455 33.9976Z" fill="#29354D"/>
<path d="M68.9154 33.9976C69.9236 33.9976 70.741 33.1858 70.741 32.1843C70.741 31.1829 69.9236 30.3711 68.9154 30.3711C67.9072 30.3711 67.0898 31.1829 67.0898 32.1843C67.0898 33.1858 67.9072 33.9976 68.9154 33.9976Z" fill="#29354D"/>
<path d="M74.9994 33.9976C76.0076 33.9976 76.8249 33.1858 76.8249 32.1843C76.8249 31.1829 76.0076 30.3711 74.9994 30.3711C73.9912 30.3711 73.1738 31.1829 73.1738 32.1843C73.1738 33.1858 73.9912 33.9976 74.9994 33.9976Z" fill="#29354D"/>
<path d="M81.0853 33.9976C82.0936 33.9976 82.9109 33.1858 82.9109 32.1843C82.9109 31.1829 82.0936 30.3711 81.0853 30.3711C80.0771 30.3711 79.2598 31.1829 79.2598 32.1843C79.2598 33.1858 80.0771 33.9976 81.0853 33.9976Z" fill="#29354D"/>
<path d="M50.6595 40.0425C51.6678 40.0425 52.4851 39.2307 52.4851 38.2293C52.4851 37.2278 51.6678 36.416 50.6595 36.416C49.6513 36.416 48.834 37.2278 48.834 38.2293C48.834 39.2307 49.6513 40.0425 50.6595 40.0425Z" fill="#29354D"/>
<path d="M62.8295 40.0425C63.8377 40.0425 64.655 39.2307 64.655 38.2293C64.655 37.2278 63.8377 36.416 62.8295 36.416C61.8212 36.416 61.0039 37.2278 61.0039 38.2293C61.0039 39.2307 61.8212 40.0425 62.8295 40.0425Z" fill="#29354D"/>
<path d="M74.9994 40.0425C76.0076 40.0425 76.8249 39.2307 76.8249 38.2293C76.8249 37.2278 76.0076 36.416 74.9994 36.416C73.9912 36.416 73.1738 37.2278 73.1738 38.2293C73.1738 39.2307 73.9912 40.0425 74.9994 40.0425Z" fill="#29354D"/>
<path d="M87.1693 40.0425C88.1775 40.0425 88.9949 39.2307 88.9949 38.2293C88.9949 37.2278 88.1775 36.416 87.1693 36.416C86.1611 36.416 85.3438 37.2278 85.3438 38.2293C85.3438 39.2307 86.1611 40.0425 87.1693 40.0425Z" fill="#29354D"/>
<path d="M99.3412 40.0425C100.349 40.0425 101.167 39.2307 101.167 38.2293C101.167 37.2278 100.349 36.416 99.3412 36.416C98.333 36.416 97.5156 37.2278 97.5156 38.2293C97.5156 39.2307 98.333 40.0425 99.3412 40.0425Z" fill="#29354D"/>
<path d="M56.7455 46.0874C57.7537 46.0874 58.571 45.2756 58.571 44.2742C58.571 43.2728 57.7537 42.4609 56.7455 42.4609C55.7373 42.4609 54.9199 43.2728 54.9199 44.2742C54.9199 45.2756 55.7373 46.0874 56.7455 46.0874Z" fill="#29354D"/>
<path d="M74.9994 46.0874C76.0076 46.0874 76.8249 45.2756 76.8249 44.2742C76.8249 43.2728 76.0076 42.4609 74.9994 42.4609C73.9912 42.4609 73.1738 43.2728 73.1738 44.2742C73.1738 45.2756 73.9912 46.0874 74.9994 46.0874Z" fill="#29354D"/>
<path d="M81.0853 46.0874C82.0936 46.0874 82.9109 45.2756 82.9109 44.2742C82.9109 43.2728 82.0936 42.4609 81.0853 42.4609C80.0771 42.4609 79.2598 43.2728 79.2598 44.2742C79.2598 45.2756 80.0771 46.0874 81.0853 46.0874Z" fill="#29354D"/>
<path d="M87.1693 46.0874C88.1775 46.0874 88.9949 45.2756 88.9949 44.2742C88.9949 43.2728 88.1775 42.4609 87.1693 42.4609C86.1611 42.4609 85.3438 43.2728 85.3438 44.2742C85.3438 45.2756 86.1611 46.0874 87.1693 46.0874Z" fill="#29354D"/>
<path d="M1.9779 52.1304C2.98613 52.1304 3.80346 51.3186 3.80346 50.3172C3.80346 49.3157 2.98613 48.5039 1.9779 48.5039C0.969674 48.5039 0.152344 49.3157 0.152344 50.3172C0.152344 51.3186 0.969674 52.1304 1.9779 52.1304Z" fill="#29354D"/>
<path d="M20.2338 52.1304C21.242 52.1304 22.0593 51.3186 22.0593 50.3172C22.0593 49.3157 21.242 48.5039 20.2338 48.5039C19.2255 48.5039 18.4082 49.3157 18.4082 50.3172C18.4082 51.3186 19.2255 52.1304 20.2338 52.1304Z" fill="#29354D"/>
<path d="M26.3177 52.1304C27.326 52.1304 28.1433 51.3186 28.1433 50.3172C28.1433 49.3157 27.326 48.5039 26.3177 48.5039C25.3095 48.5039 24.4922 49.3157 24.4922 50.3172C24.4922 51.3186 25.3095 52.1304 26.3177 52.1304Z" fill="#29354D"/>
<path d="M32.4037 52.1304C33.4119 52.1304 34.2292 51.3186 34.2292 50.3172C34.2292 49.3157 33.4119 48.5039 32.4037 48.5039C31.3955 48.5039 30.5781 49.3157 30.5781 50.3172C30.5781 51.3186 31.3955 52.1304 32.4037 52.1304Z" fill="#29354D"/>
<path d="M38.4896 52.1304C39.4978 52.1304 40.3152 51.3186 40.3152 50.3172C40.3152 49.3157 39.4978 48.5039 38.4896 48.5039C37.4814 48.5039 36.6641 49.3157 36.6641 50.3172C36.6641 51.3186 37.4814 52.1304 38.4896 52.1304Z" fill="#29354D"/>
<path d="M44.5736 52.1304C45.5818 52.1304 46.3992 51.3186 46.3992 50.3172C46.3992 49.3157 45.5818 48.5039 44.5736 48.5039C43.5654 48.5039 42.748 49.3157 42.748 50.3172C42.748 51.3186 43.5654 52.1304 44.5736 52.1304Z" fill="#29354D"/>
<path d="M50.6595 52.1304C51.6678 52.1304 52.4851 51.3186 52.4851 50.3172C52.4851 49.3157 51.6678 48.5039 50.6595 48.5039C49.6513 48.5039 48.834 49.3157 48.834 50.3172C48.834 51.3186 49.6513 52.1304 50.6595 52.1304Z" fill="#29354D"/>
<path d="M56.7455 52.1304C57.7537 52.1304 58.571 51.3186 58.571 50.3172C58.571 49.3157 57.7537 48.5039 56.7455 48.5039C55.7373 48.5039 54.9199 49.3157 54.9199 50.3172C54.9199 51.3186 55.7373 52.1304 56.7455 52.1304Z" fill="#29354D"/>
<path d="M62.8295 52.1304C63.8377 52.1304 64.655 51.3186 64.655 50.3172C64.655 49.3157 63.8377 48.5039 62.8295 48.5039C61.8212 48.5039 61.0039 49.3157 61.0039 50.3172C61.0039 51.3186 61.8212 52.1304 62.8295 52.1304Z" fill="#29354D"/>
<path d="M68.9154 52.1304C69.9236 52.1304 70.741 51.3186 70.741 50.3172C70.741 49.3157 69.9236 48.5039 68.9154 48.5039C67.9072 48.5039 67.0898 49.3157 67.0898 50.3172C67.0898 51.3186 67.9072 52.1304 68.9154 52.1304Z" fill="#29354D"/>
<path d="M87.1693 52.1304C88.1775 52.1304 88.9949 51.3186 88.9949 50.3172C88.9949 49.3157 88.1775 48.5039 87.1693 48.5039C86.1611 48.5039 85.3438 49.3157 85.3438 50.3172C85.3438 51.3186 86.1611 52.1304 87.1693 52.1304Z" fill="#29354D"/>
<path d="M93.2552 52.1304C94.2635 52.1304 95.0808 51.3186 95.0808 50.3172C95.0808 49.3157 94.2635 48.5039 93.2552 48.5039C92.247 48.5039 91.4297 49.3157 91.4297 50.3172C91.4297 51.3186 92.247 52.1304 93.2552 52.1304Z" fill="#29354D"/>
<path d="M99.3412 52.1304C100.349 52.1304 101.167 51.3186 101.167 50.3172C101.167 49.3157 100.349 48.5039 99.3412 48.5039C98.333 48.5039 97.5156 49.3157 97.5156 50.3172C97.5156 51.3186 98.333 52.1304 99.3412 52.1304Z" fill="#29354D"/>
<path d="M105.425 52.1304C106.433 52.1304 107.251 51.3186 107.251 50.3172C107.251 49.3157 106.433 48.5039 105.425 48.5039C104.417 48.5039 103.6 49.3157 103.6 50.3172C103.6 51.3186 104.417 52.1304 105.425 52.1304Z" fill="#29354D"/>
<path d="M123.681 52.1304C124.689 52.1304 125.507 51.3186 125.507 50.3172C125.507 49.3157 124.689 48.5039 123.681 48.5039C122.673 48.5039 121.855 49.3157 121.855 50.3172C121.855 51.3186 122.673 52.1304 123.681 52.1304Z" fill="#29354D"/>
<path d="M135.853 52.1304C136.861 52.1304 137.678 51.3186 137.678 50.3172C137.678 49.3157 136.861 48.5039 135.853 48.5039C134.845 48.5039 134.027 49.3157 134.027 50.3172C134.027 51.3186 134.845 52.1304 135.853 52.1304Z" fill="#29354D"/>
<path d="M141.937 52.1304C142.945 52.1304 143.762 51.3186 143.762 50.3172C143.762 49.3157 142.945 48.5039 141.937 48.5039C140.929 48.5039 140.111 49.3157 140.111 50.3172C140.111 51.3186 140.929 52.1304 141.937 52.1304Z" fill="#29354D"/>
<path d="M148.023 52.1304C149.031 52.1304 149.848 51.3186 149.848 50.3172C149.848 49.3157 149.031 48.5039 148.023 48.5039C147.015 48.5039 146.197 49.3157 146.197 50.3172C146.197 51.3186 147.015 52.1304 148.023 52.1304Z" fill="#29354D"/>
<path d="M1.9779 58.1753C2.98613 58.1753 3.80346 57.3635 3.80346 56.3621C3.80346 55.3606 2.98613 54.5488 1.9779 54.5488C0.969674 54.5488 0.152344 55.3606 0.152344 56.3621C0.152344 57.3635 0.969674 58.1753 1.9779 58.1753Z" fill="#29354D"/>
<path d="M14.1478 58.1753C15.1561 58.1753 15.9734 57.3635 15.9734 56.3621C15.9734 55.3606 15.1561 54.5488 14.1478 54.5488C13.1396 54.5488 12.3223 55.3606 12.3223 56.3621C12.3223 57.3635 13.1396 58.1753 14.1478 58.1753Z" fill="#29354D"/>
<path d="M44.5736 58.1753C45.5818 58.1753 46.3992 57.3635 46.3992 56.3621C46.3992 55.3606 45.5818 54.5488 44.5736 54.5488C43.5654 54.5488 42.748 55.3606 42.748 56.3621C42.748 57.3635 43.5654 58.1753 44.5736 58.1753Z" fill="#29354D"/>
<path d="M50.6595 58.1753C51.6678 58.1753 52.4851 57.3635 52.4851 56.3621C52.4851 55.3606 51.6678 54.5488 50.6595 54.5488C49.6513 54.5488 48.834 55.3606 48.834 56.3621C48.834 57.3635 49.6513 58.1753 50.6595 58.1753Z" fill="#29354D"/>
<path d="M56.7455 58.1753C57.7537 58.1753 58.571 57.3635 58.571 56.3621C58.571 55.3606 57.7537 54.5488 56.7455 54.5488C55.7373 54.5488 54.9199 55.3606 54.9199 56.3621C54.9199 57.3635 55.7373 58.1753 56.7455 58.1753Z" fill="#29354D"/>
<path d="M74.9994 58.1753C76.0076 58.1753 76.8249 57.3635 76.8249 56.3621C76.8249 55.3606 76.0076 54.5488 74.9994 54.5488C73.9912 54.5488 73.1738 55.3606 73.1738 56.3621C73.1738 57.3635 73.9912 58.1753 74.9994 58.1753Z" fill="#29354D"/>
<path d="M87.1693 58.1753C88.1775 58.1753 88.9949 57.3635 88.9949 56.3621C88.9949 55.3606 88.1775 54.5488 87.1693 54.5488C86.1611 54.5488 85.3438 55.3606 85.3438 56.3621C85.3438 57.3635 86.1611 58.1753 87.1693 58.1753Z" fill="#29354D"/>
<path d="M93.2552 58.1753C94.2635 58.1753 95.0808 57.3635 95.0808 56.3621C95.0808 55.3606 94.2635 54.5488 93.2552 54.5488C92.247 54.5488 91.4297 55.3606 91.4297 56.3621C91.4297 57.3635 92.247 58.1753 93.2552 58.1753Z" fill="#29354D"/>
<path d="M117.597 58.1753C118.605 58.1753 119.423 57.3635 119.423 56.3621C119.423 55.3606 118.605 54.5488 117.597 54.5488C116.589 54.5488 115.771 55.3606 115.771 56.3621C115.771 57.3635 116.589 58.1753 117.597 58.1753Z" fill="#29354D"/>
<path d="M123.681 58.1753C124.689 58.1753 125.507 57.3635 125.507 56.3621C125.507 55.3606 124.689 54.5488 123.681 54.5488C122.673 54.5488 121.855 55.3606 121.855 56.3621C121.855 57.3635 122.673 58.1753 123.681 58.1753Z" fill="#29354D"/>
<path d="M129.767 58.1753C130.775 58.1753 131.593 57.3635 131.593 56.3621C131.593 55.3606 130.775 54.5488 129.767 54.5488C128.759 54.5488 127.941 55.3606 127.941 56.3621C127.941 57.3635 128.759 58.1753 129.767 58.1753Z" fill="#29354D"/>
<path d="M135.853 58.1753C136.861 58.1753 137.678 57.3635 137.678 56.3621C137.678 55.3606 136.861 54.5488 135.853 54.5488C134.845 54.5488 134.027 55.3606 134.027 56.3621C134.027 57.3635 134.845 58.1753 135.853 58.1753Z" fill="#29354D"/>
<path d="M141.937 58.1753C142.945 58.1753 143.762 57.3635 143.762 56.3621C143.762 55.3606 142.945 54.5488 141.937 54.5488C140.929 54.5488 140.111 55.3606 140.111 56.3621C140.111 57.3635 140.929 58.1753 141.937 58.1753Z" fill="#29354D"/>
<path d="M14.1478 64.2183C15.1561 64.2183 15.9734 63.4065 15.9734 62.405C15.9734 61.4036 15.1561 60.5918 14.1478 60.5918C13.1396 60.5918 12.3223 61.4036 12.3223 62.405C12.3223 63.4065 13.1396 64.2183 14.1478 64.2183Z" fill="#29354D"/>
<path d="M32.4037 64.2183C33.4119 64.2183 34.2292 63.4065 34.2292 62.405C34.2292 61.4036 33.4119 60.5918 32.4037 60.5918C31.3955 60.5918 30.5781 61.4036 30.5781 62.405C30.5781 63.4065 31.3955 64.2183 32.4037 64.2183Z" fill="#29354D"/>
<path d="M38.4896 64.2183C39.4978 64.2183 40.3152 63.4065 40.3152 62.405C40.3152 61.4036 39.4978 60.5918 38.4896 60.5918C37.4814 60.5918 36.6641 61.4036 36.6641 62.405C36.6641 63.4065 37.4814 64.2183 38.4896 64.2183Z" fill="#29354D"/>
<path d="M44.5736 64.2183C45.5818 64.2183 46.3992 63.4065 46.3992 62.405C46.3992 61.4036 45.5818 60.5918 44.5736 60.5918C43.5654 60.5918 42.748 61.4036 42.748 62.405C42.748 63.4065 43.5654 64.2183 44.5736 64.2183Z" fill="#29354D"/>
<path d="M50.6595 64.2183C51.6678 64.2183 52.4851 63.4065 52.4851 62.405C52.4851 61.4036 51.6678 60.5918 50.6595 60.5918C49.6513 60.5918 48.834 61.4036 48.834 62.405C48.834 63.4065 49.6513 64.2183 50.6595 64.2183Z" fill="#29354D"/>
<path d="M56.7455 64.2183C57.7537 64.2183 58.571 63.4065 58.571 62.405C58.571 61.4036 57.7537 60.5918 56.7455 60.5918C55.7373 60.5918 54.9199 61.4036 54.9199 62.405C54.9199 63.4065 55.7373 64.2183 56.7455 64.2183Z" fill="#29354D"/>
<path d="M62.8295 64.2183C63.8377 64.2183 64.655 63.4065 64.655 62.405C64.655 61.4036 63.8377 60.5918 62.8295 60.5918C61.8212 60.5918 61.0039 61.4036 61.0039 62.405C61.0039 63.4065 61.8212 64.2183 62.8295 64.2183Z" fill="#29354D"/>
<path d="M74.9994 64.2183C76.0076 64.2183 76.8249 63.4065 76.8249 62.405C76.8249 61.4036 76.0076 60.5918 74.9994 60.5918C73.9912 60.5918 73.1738 61.4036 73.1738 62.405C73.1738 63.4065 73.9912 64.2183 74.9994 64.2183Z" fill="#29354D"/>
<path d="M93.2552 64.2183C94.2635 64.2183 95.0808 63.4065 95.0808 62.405C95.0808 61.4036 94.2635 60.5918 93.2552 60.5918C92.247 60.5918 91.4297 61.4036 91.4297 62.405C91.4297 63.4065 92.247 64.2183 93.2552 64.2183Z" fill="#29354D"/>
<path d="M99.3412 64.2183C100.349 64.2183 101.167 63.4065 101.167 62.405C101.167 61.4036 100.349 60.5918 99.3412 60.5918C98.333 60.5918 97.5156 61.4036 97.5156 62.405C97.5156 63.4065 98.333 64.2183 99.3412 64.2183Z" fill="#29354D"/>
<path d="M105.425 64.2183C106.433 64.2183 107.251 63.4065 107.251 62.405C107.251 61.4036 106.433 60.5918 105.425 60.5918C104.417 60.5918 103.6 61.4036 103.6 62.405C103.6 63.4065 104.417 64.2183 105.425 64.2183Z" fill="#29354D"/>
<path d="M111.511 64.2183C112.519 64.2183 113.337 63.4065 113.337 62.405C113.337 61.4036 112.519 60.5918 111.511 60.5918C110.503 60.5918 109.686 61.4036 109.686 62.405C109.686 63.4065 110.503 64.2183 111.511 64.2183Z" fill="#29354D"/>
<path d="M123.681 64.2183C124.689 64.2183 125.507 63.4065 125.507 62.405C125.507 61.4036 124.689 60.5918 123.681 60.5918C122.673 60.5918 121.855 61.4036 121.855 62.405C121.855 63.4065 122.673 64.2183 123.681 64.2183Z" fill="#29354D"/>
<path d="M129.767 64.2183C130.775 64.2183 131.593 63.4065 131.593 62.405C131.593 61.4036 130.775 60.5918 129.767 60.5918C128.759 60.5918 127.941 61.4036 127.941 62.405C127.941 63.4065 128.759 64.2183 129.767 64.2183Z" fill="#29354D"/>
<path d="M148.023 64.2183C149.031 64.2183 149.848 63.4065 149.848 62.405C149.848 61.4036 149.031 60.5918 148.023 60.5918C147.015 60.5918 146.197 61.4036 146.197 62.405C146.197 63.4065 147.015 64.2183 148.023 64.2183Z" fill="#29354D"/>
<path d="M1.9779 70.2632C2.98613 70.2632 3.80346 69.4514 3.80346 68.45C3.80346 67.4485 2.98613 66.6367 1.9779 66.6367C0.969674 66.6367 0.152344 67.4485 0.152344 68.45C0.152344 69.4514 0.969674 70.2632 1.9779 70.2632Z" fill="#29354D"/>
<path d="M8.06189 70.2632C9.07011 70.2632 9.88744 69.4514 9.88744 68.45C9.88744 67.4485 9.07011 66.6367 8.06189 66.6367C7.05366 66.6367 6.23633 67.4485 6.23633 68.45C6.23633 69.4514 7.05366 70.2632 8.06189 70.2632Z" fill="#29354D"/>
<path d="M14.1478 70.2632C15.1561 70.2632 15.9734 69.4514 15.9734 68.45C15.9734 67.4485 15.1561 66.6367 14.1478 66.6367C13.1396 66.6367 12.3223 67.4485 12.3223 68.45C12.3223 69.4514 13.1396 70.2632 14.1478 70.2632Z" fill="#29354D"/>
<path d="M20.2338 70.2632C21.242 70.2632 22.0593 69.4514 22.0593 68.45C22.0593 67.4485 21.242 66.6367 20.2338 66.6367C19.2255 66.6367 18.4082 67.4485 18.4082 68.45C18.4082 69.4514 19.2255 70.2632 20.2338 70.2632Z" fill="#29354D"/>
<path d="M26.3177 70.2632C27.326 70.2632 28.1433 69.4514 28.1433 68.45C28.1433 67.4485 27.326 66.6367 26.3177 66.6367C25.3095 66.6367 24.4922 67.4485 24.4922 68.45C24.4922 69.4514 25.3095 70.2632 26.3177 70.2632Z" fill="#29354D"/>
<path d="M56.7455 70.2632C57.7537 70.2632 58.571 69.4514 58.571 68.45C58.571 67.4485 57.7537 66.6367 56.7455 66.6367C55.7373 66.6367 54.9199 67.4485 54.9199 68.45C54.9199 69.4514 55.7373 70.2632 56.7455 70.2632Z" fill="#29354D"/>
<path d="M74.9994 70.2632C76.0076 70.2632 76.8249 69.4514 76.8249 68.45C76.8249 67.4485 76.0076 66.6367 74.9994 66.6367C73.9912 66.6367 73.1738 67.4485 73.1738 68.45C73.1738 69.4514 73.9912 70.2632 74.9994 70.2632Z" fill="#29354D"/>
<path d="M93.2552 70.2632C94.2635 70.2632 95.0808 69.4514 95.0808 68.45C95.0808 67.4485 94.2635 66.6367 93.2552 66.6367C92.247 66.6367 91.4297 67.4485 91.4297 68.45C91.4297 69.4514 92.247 70.2632 93.2552 70.2632Z" fill="#29354D"/>
<path d="M105.425 70.2632C106.433 70.2632 107.251 69.4514 107.251 68.45C107.251 67.4485 106.433 66.6367 105.425 66.6367C104.417 66.6367 103.6 67.4485 103.6 68.45C103.6 69.4514 104.417 70.2632 105.425 70.2632Z" fill="#29354D"/>
<path d="M129.767 70.2632C130.775 70.2632 131.593 69.4514 131.593 68.45C131.593 67.4485 130.775 66.6367 129.767 66.6367C128.759 66.6367 127.941 67.4485 127.941 68.45C127.941 69.4514 128.759 70.2632 129.767 70.2632Z" fill="#29354D"/>
<path d="M135.853 70.2632C136.861 70.2632 137.678 69.4514 137.678 68.45C137.678 67.4485 136.861 66.6367 135.853 66.6367C134.845 66.6367 134.027 67.4485 134.027 68.45C134.027 69.4514 134.845 70.2632 135.853 70.2632Z" fill="#29354D"/>
<path d="M141.937 70.2632C142.945 70.2632 143.762 69.4514 143.762 68.45C143.762 67.4485 142.945 66.6367 141.937 66.6367C140.929 66.6367 140.111 67.4485 140.111 68.45C140.111 69.4514 140.929 70.2632 141.937 70.2632Z" fill="#29354D"/>
<path d="M148.023 70.2632C149.031 70.2632 149.848 69.4514 149.848 68.45C149.848 67.4485 149.031 66.6367 148.023 66.6367C147.015 66.6367 146.197 67.4485 146.197 68.45C146.197 69.4514 147.015 70.2632 148.023 70.2632Z" fill="#29354D"/>
<path d="M1.9779 76.3081C2.98613 76.3081 3.80346 75.4963 3.80346 74.4949C3.80346 73.4935 2.98613 72.6816 1.9779 72.6816C0.969674 72.6816 0.152344 73.4935 0.152344 74.4949C0.152344 75.4963 0.969674 76.3081 1.9779 76.3081Z" fill="#29354D"/>
<path d="M20.2338 76.3081C21.242 76.3081 22.0593 75.4963 22.0593 74.4949C22.0593 73.4935 21.242 72.6816 20.2338 72.6816C19.2255 72.6816 18.4082 73.4935 18.4082 74.4949C18.4082 75.4963 19.2255 76.3081 20.2338 76.3081Z" fill="#29354D"/>
<path d="M26.3177 76.3081C27.326 76.3081 28.1433 75.4963 28.1433 74.4949C28.1433 73.4935 27.326 72.6816 26.3177 72.6816C25.3095 72.6816 24.4922 73.4935 24.4922 74.4949C24.4922 75.4963 25.3095 76.3081 26.3177 76.3081Z" fill="#29354D"/>
<path d="M38.4896 76.3081C39.4978 76.3081 40.3152 75.4963 40.3152 74.4949C40.3152 73.4935 39.4978 72.6816 38.4896 72.6816C37.4814 72.6816 36.6641 73.4935 36.6641 74.4949C36.6641 75.4963 37.4814 76.3081 38.4896 76.3081Z" fill="#29354D"/>
<path d="M50.6595 76.3081C51.6678 76.3081 52.4851 75.4963 52.4851 74.4949C52.4851 73.4935 51.6678 72.6816 50.6595 72.6816C49.6513 72.6816 48.834 73.4935 48.834 74.4949C48.834 75.4963 49.6513 76.3081 50.6595 76.3081Z" fill="#29354D"/>
<path d="M56.7455 76.3081C57.7537 76.3081 58.571 75.4963 58.571 74.4949C58.571 73.4935 57.7537 72.6816 56.7455 72.6816C55.7373 72.6816 54.9199 73.4935 54.9199 74.4949C54.9199 75.4963 55.7373 76.3081 56.7455 76.3081Z" fill="#29354D"/>
<path d="M81.0853 76.3081C82.0936 76.3081 82.9109 75.4963 82.9109 74.4949C82.9109 73.4935 82.0936 72.6816 81.0853 72.6816C80.0771 72.6816 79.2598 73.4935 79.2598 74.4949C79.2598 75.4963 80.0771 76.3081 81.0853 76.3081Z" fill="#29354D"/>
<path d="M87.1693 76.3081C88.1775 76.3081 88.9949 75.4963 88.9949 74.4949C88.9949 73.4935 88.1775 72.6816 87.1693 72.6816C86.1611 72.6816 85.3438 73.4935 85.3438 74.4949C85.3438 75.4963 86.1611 76.3081 87.1693 76.3081Z" fill="#29354D"/>
<path d="M99.3412 76.3081C100.349 76.3081 101.167 75.4963 101.167 74.4949C101.167 73.4935 100.349 72.6816 99.3412 72.6816C98.333 72.6816 97.5156 73.4935 97.5156 74.4949C97.5156 75.4963 98.333 76.3081 99.3412 76.3081Z" fill="#29354D"/>
<path d="M111.511 76.3081C112.519 76.3081 113.337 75.4963 113.337 74.4949C113.337 73.4935 112.519 72.6816 111.511 72.6816C110.503 72.6816 109.686 73.4935 109.686 74.4949C109.686 75.4963 110.503 76.3081 111.511 76.3081Z" fill="#29354D"/>
<path d="M148.023 76.3081C149.031 76.3081 149.848 75.4963 149.848 74.4949C149.848 73.4935 149.031 72.6816 148.023 72.6816C147.015 72.6816 146.197 73.4935 146.197 74.4949C146.197 75.4963 147.015 76.3081 148.023 76.3081Z" fill="#29354D"/>
<path d="M1.9779 82.3511C2.98613 82.3511 3.80346 81.5393 3.80346 80.5379C3.80346 79.5364 2.98613 78.7246 1.9779 78.7246C0.969674 78.7246 0.152344 79.5364 0.152344 80.5379C0.152344 81.5393 0.969674 82.3511 1.9779 82.3511Z" fill="#29354D"/>
<path d="M8.06189 82.3511C9.07011 82.3511 9.88744 81.5393 9.88744 80.5379C9.88744 79.5364 9.07011 78.7246 8.06189 78.7246C7.05366 78.7246 6.23633 79.5364 6.23633 80.5379C6.23633 81.5393 7.05366 82.3511 8.06189 82.3511Z" fill="#29354D"/>
<path d="M20.2338 82.3511C21.242 82.3511 22.0593 81.5393 22.0593 80.5379C22.0593 79.5364 21.242 78.7246 20.2338 78.7246C19.2255 78.7246 18.4082 79.5364 18.4082 80.5379C18.4082 81.5393 19.2255 82.3511 20.2338 82.3511Z" fill="#29354D"/>
<path d="M26.3177 82.3511C27.326 82.3511 28.1433 81.5393 28.1433 80.5379C28.1433 79.5364 27.326 78.7246 26.3177 78.7246C25.3095 78.7246 24.4922 79.5364 24.4922 80.5379C24.4922 81.5393 25.3095 82.3511 26.3177 82.3511Z" fill="#29354D"/>
<path d="M32.4037 82.3511C33.4119 82.3511 34.2292 81.5393 34.2292 80.5379C34.2292 79.5364 33.4119 78.7246 32.4037 78.7246C31.3955 78.7246 30.5781 79.5364 30.5781 80.5379C30.5781 81.5393 31.3955 82.3511 32.4037 82.3511Z" fill="#29354D"/>
<path d="M44.5736 82.3511C45.5818 82.3511 46.3992 81.5393 46.3992 80.5379C46.3992 79.5364 45.5818 78.7246 44.5736 78.7246C43.5654 78.7246 42.748 79.5364 42.748 80.5379C42.748 81.5393 43.5654 82.3511 44.5736 82.3511Z" fill="#29354D"/>
<path d="M56.7455 82.3511C57.7537 82.3511 58.571 81.5393 58.571 80.5379C58.571 79.5364 57.7537 78.7246 56.7455 78.7246C55.7373 78.7246 54.9199 79.5364 54.9199 80.5379C54.9199 81.5393 55.7373 82.3511 56.7455 82.3511Z" fill="#29354D"/>
<path d="M62.8295 82.3511C63.8377 82.3511 64.655 81.5393 64.655 80.5379C64.655 79.5364 63.8377 78.7246 62.8295 78.7246C61.8212 78.7246 61.0039 79.5364 61.0039 80.5379C61.0039 81.5393 61.8212 82.3511 62.8295 82.3511Z" fill="#29354D"/>
<path d="M74.9994 82.3511C76.0076 82.3511 76.8249 81.5393 76.8249 80.5379C76.8249 79.5364 76.0076 78.7246 74.9994 78.7246C73.9912 78.7246 73.1738 79.5364 73.1738 80.5379C73.1738 81.5393 73.9912 82.3511 74.9994 82.3511Z" fill="#29354D"/>
<path d="M87.1693 82.3511C88.1775 82.3511 88.9949 81.5393 88.9949 80.5379C88.9949 79.5364 88.1775 78.7246 87.1693 78.7246C86.1611 78.7246 85.3438 79.5364 85.3438 80.5379C85.3438 81.5393 86.1611 82.3511 87.1693 82.3511Z" fill="#29354D"/>
<path d="M93.2552 82.3511C94.2635 82.3511 95.0808 81.5393 95.0808 80.5379C95.0808 79.5364 94.2635 78.7246 93.2552 78.7246C92.247 78.7246 91.4297 79.5364 91.4297 80.5379C91.4297 81.5393 92.247 82.3511 93.2552 82.3511Z" fill="#29354D"/>
<path d="M123.681 82.3511C124.689 82.3511 125.507 81.5393 125.507 80.5379C125.507 79.5364 124.689 78.7246 123.681 78.7246C122.673 78.7246 121.855 79.5364 121.855 80.5379C121.855 81.5393 122.673 82.3511 123.681 82.3511Z" fill="#29354D"/>
<path d="M141.937 82.3511C142.945 82.3511 143.762 81.5393 143.762 80.5379C143.762 79.5364 142.945 78.7246 141.937 78.7246C140.929 78.7246 140.111 79.5364 140.111 80.5379C140.111 81.5393 140.929 82.3511 141.937 82.3511Z" fill="#29354D"/>
<path d="M1.9779 88.396C2.98613 88.396 3.80346 87.5842 3.80346 86.5828C3.80346 85.5814 2.98613 84.7695 1.9779 84.7695C0.969674 84.7695 0.152344 85.5814 0.152344 86.5828C0.152344 87.5842 0.969674 88.396 1.9779 88.396Z" fill="#29354D"/>
<path d="M8.06189 88.396C9.07011 88.396 9.88744 87.5842 9.88744 86.5828C9.88744 85.5814 9.07011 84.7695 8.06189 84.7695C7.05366 84.7695 6.23633 85.5814 6.23633 86.5828C6.23633 87.5842 7.05366 88.396 8.06189 88.396Z" fill="#29354D"/>
<path d="M38.4896 88.396C39.4978 88.396 40.3152 87.5842 40.3152 86.5828C40.3152 85.5814 39.4978 84.7695 38.4896 84.7695C37.4814 84.7695 36.6641 85.5814 36.6641 86.5828C36.6641 87.5842 37.4814 88.396 38.4896 88.396Z" fill="#29354D"/>
<path d="M44.5736 88.396C45.5818 88.396 46.3992 87.5842 46.3992 86.5828C46.3992 85.5814 45.5818 84.7695 44.5736 84.7695C43.5654 84.7695 42.748 85.5814 42.748 86.5828C42.748 87.5842 43.5654 88.396 44.5736 88.396Z" fill="#29354D"/>
<path d="M56.7455 88.396C57.7537 88.396 58.571 87.5842 58.571 86.5828C58.571 85.5814 57.7537 84.7695 56.7455 84.7695C55.7373 84.7695 54.9199 85.5814 54.9199 86.5828C54.9199 87.5842 55.7373 88.396 56.7455 88.396Z" fill="#29354D"/>
<path d="M87.1693 88.396C88.1775 88.396 88.9949 87.5842 88.9949 86.5828C88.9949 85.5814 88.1775 84.7695 87.1693 84.7695C86.1611 84.7695 85.3438 85.5814 85.3438 86.5828C85.3438 87.5842 86.1611 88.396 87.1693 88.396Z" fill="#29354D"/>
<path d="M93.2552 88.396C94.2635 88.396 95.0808 87.5842 95.0808 86.5828C95.0808 85.5814 94.2635 84.7695 93.2552 84.7695C92.247 84.7695 91.4297 85.5814 91.4297 86.5828C91.4297 87.5842 92.247 88.396 93.2552 88.396Z" fill="#29354D"/>
<path d="M111.511 88.396C112.519 88.396 113.337 87.5842 113.337 86.5828C113.337 85.5814 112.519 84.7695 111.511 84.7695C110.503 84.7695 109.686 85.5814 109.686 86.5828C109.686 87.5842 110.503 88.396 111.511 88.396Z" fill="#29354D"/>
<path d="M123.681 88.396C124.689 88.396 125.507 87.5842 125.507 86.5828C125.507 85.5814 124.689 84.7695 123.681 84.7695C122.673 84.7695 121.855 85.5814 121.855 86.5828C121.855 87.5842 122.673 88.396 123.681 88.396Z" fill="#29354D"/>
<path d="M129.767 88.396C130.775 88.396 131.593 87.5842 131.593 86.5828C131.593 85.5814 130.775 84.7695 129.767 84.7695C128.759 84.7695 127.941 85.5814 127.941 86.5828C127.941 87.5842 128.759 88.396 129.767 88.396Z" fill="#29354D"/>
<path d="M135.853 88.396C136.861 88.396 137.678 87.5842 137.678 86.5828C137.678 85.5814 136.861 84.7695 135.853 84.7695C134.845 84.7695 134.027 85.5814 134.027 86.5828C134.027 87.5842 134.845 88.396 135.853 88.396Z" fill="#29354D"/>
<path d="M141.937 88.396C142.945 88.396 143.762 87.5842 143.762 86.5828C143.762 85.5814 142.945 84.7695 141.937 84.7695C140.929 84.7695 140.111 85.5814 140.111 86.5828C140.111 87.5842 140.929 88.396 141.937 88.396Z" fill="#29354D"/>
<path d="M148.023 88.396C149.031 88.396 149.848 87.5842 149.848 86.5828C149.848 85.5814 149.031 84.7695 148.023 84.7695C147.015 84.7695 146.197 85.5814 146.197 86.5828C146.197 87.5842 147.015 88.396 148.023 88.396Z" fill="#29354D"/>
<path d="M1.9779 94.441C2.98613 94.441 3.80346 93.6291 3.80346 92.6277C3.80346 91.6263 2.98613 90.8145 1.9779 90.8145C0.969674 90.8145 0.152344 91.6263 0.152344 92.6277C0.152344 93.6291 0.969674 94.441 1.9779 94.441Z" fill="#29354D"/>
<path d="M32.4037 94.441C33.4119 94.441 34.2292 93.6291 34.2292 92.6277C34.2292 91.6263 33.4119 90.8145 32.4037 90.8145C31.3955 90.8145 30.5781 91.6263 30.5781 92.6277C30.5781 93.6291 31.3955 94.441 32.4037 94.441Z" fill="#29354D"/>
<path d="M56.7455 94.441C57.7537 94.441 58.571 93.6291 58.571 92.6277C58.571 91.6263 57.7537 90.8145 56.7455 90.8145C55.7373 90.8145 54.9199 91.6263 54.9199 92.6277C54.9199 93.6291 55.7373 94.441 56.7455 94.441Z" fill="#29354D"/>
<path d="M62.8295 94.441C63.8377 94.441 64.655 93.6291 64.655 92.6277C64.655 91.6263 63.8377 90.8145 62.8295 90.8145C61.8212 90.8145 61.0039 91.6263 61.0039 92.6277C61.0039 93.6291 61.8212 94.441 62.8295 94.441Z" fill="#29354D"/>
<path d="M74.9994 94.441C76.0076 94.441 76.8249 93.6291 76.8249 92.6277C76.8249 91.6263 76.0076 90.8145 74.9994 90.8145C73.9912 90.8145 73.1738 91.6263 73.1738 92.6277C73.1738 93.6291 73.9912 94.441 74.9994 94.441Z" fill="#29354D"/>
<path d="M81.0853 94.441C82.0936 94.441 82.9109 93.6291 82.9109 92.6277C82.9109 91.6263 82.0936 90.8145 81.0853 90.8145C80.0771 90.8145 79.2598 91.6263 79.2598 92.6277C79.2598 93.6291 80.0771 94.441 81.0853 94.441Z" fill="#29354D"/>
<path d="M87.1693 94.441C88.1775 94.441 88.9949 93.6291 88.9949 92.6277C88.9949 91.6263 88.1775 90.8145 87.1693 90.8145C86.1611 90.8145 85.3438 91.6263 85.3438 92.6277C85.3438 93.6291 86.1611 94.441 87.1693 94.441Z" fill="#29354D"/>
<path d="M105.425 94.441C106.433 94.441 107.251 93.6291 107.251 92.6277C107.251 91.6263 106.433 90.8145 105.425 90.8145C104.417 90.8145 103.6 91.6263 103.6 92.6277C103.6 93.6291 104.417 94.441 105.425 94.441Z" fill="#29354D"/>
<path d="M117.597 94.441C118.605 94.441 119.423 93.6291 119.423 92.6277C119.423 91.6263 118.605 90.8145 117.597 90.8145C116.589 90.8145 115.771 91.6263 115.771 92.6277C115.771 93.6291 116.589 94.441 117.597 94.441Z" fill="#29354D"/>
<path d="M129.767 94.441C130.775 94.441 131.593 93.6291 131.593 92.6277C131.593 91.6263 130.775 90.8145 129.767 90.8145C128.759 90.8145 127.941 91.6263 127.941 92.6277C127.941 93.6291 128.759 94.441 129.767 94.441Z" fill="#29354D"/>
<path d="M135.853 94.441C136.861 94.441 137.678 93.6291 137.678 92.6277C137.678 91.6263 136.861 90.8145 135.853 90.8145C134.845 90.8145 134.027 91.6263 134.027 92.6277C134.027 93.6291 134.845 94.441 135.853 94.441Z" fill="#29354D"/>
<path d="M148.023 94.441C149.031 94.441 149.848 93.6291 149.848 92.6277C149.848 91.6263 149.031 90.8145 148.023 90.8145C147.015 90.8145 146.197 91.6263 146.197 92.6277C146.197 93.6291 147.015 94.441 148.023 94.441Z" fill="#29354D"/>
<path d="M1.9779 100.484C2.98613 100.484 3.80346 99.6721 3.80346 98.6707C3.80346 97.6692 2.98613 96.8574 1.9779 96.8574C0.969674 96.8574 0.152344 97.6692 0.152344 98.6707C0.152344 99.6721 0.969674 100.484 1.9779 100.484Z" fill="#29354D"/>
<path d="M26.3177 100.484C27.326 100.484 28.1433 99.6721 28.1433 98.6707C28.1433 97.6692 27.326 96.8574 26.3177 96.8574C25.3095 96.8574 24.4922 97.6692 24.4922 98.6707C24.4922 99.6721 25.3095 100.484 26.3177 100.484Z" fill="#29354D"/>
<path d="M32.4037 100.484C33.4119 100.484 34.2292 99.6721 34.2292 98.6707C34.2292 97.6692 33.4119 96.8574 32.4037 96.8574C31.3955 96.8574 30.5781 97.6692 30.5781 98.6707C30.5781 99.6721 31.3955 100.484 32.4037 100.484Z" fill="#29354D"/>
<path d="M38.4896 100.484C39.4978 100.484 40.3152 99.6721 40.3152 98.6707C40.3152 97.6692 39.4978 96.8574 38.4896 96.8574C37.4814 96.8574 36.6641 97.6692 36.6641 98.6707C36.6641 99.6721 37.4814 100.484 38.4896 100.484Z" fill="#29354D"/>
<path d="M56.7455 100.484C57.7537 100.484 58.571 99.6721 58.571 98.6707C58.571 97.6692 57.7537 96.8574 56.7455 96.8574C55.7373 96.8574 54.9199 97.6692 54.9199 98.6707C54.9199 99.6721 55.7373 100.484 56.7455 100.484Z" fill="#29354D"/>
<path d="M68.9154 100.484C69.9236 100.484 70.741 99.6721 70.741 98.6707C70.741 97.6692 69.9236 96.8574 68.9154 96.8574C67.9072 96.8574 67.0898 97.6692 67.0898 98.6707C67.0898 99.6721 67.9072 100.484 68.9154 100.484Z" fill="#29354D"/>
<path d="M74.9994 100.484C76.0076 100.484 76.8249 99.6721 76.8249 98.6707C76.8249 97.6692 76.0076 96.8574 74.9994 96.8574C73.9912 96.8574 73.1738 97.6692 73.1738 98.6707C73.1738 99.6721 73.9912 100.484 74.9994 100.484Z" fill="#29354D"/>
<path d="M93.2552 100.484C94.2635 100.484 95.0808 99.6721 95.0808 98.6707C95.0808 97.6692 94.2635 96.8574 93.2552 96.8574C92.247 96.8574 91.4297 97.6692 91.4297 98.6707C91.4297 99.6721 92.247 100.484 93.2552 100.484Z" fill="#29354D"/>
<path d="M99.3412 100.484C100.349 100.484 101.167 99.6721 101.167 98.6707C101.167 97.6692 100.349 96.8574 99.3412 96.8574C98.333 96.8574 97.5156 97.6692 97.5156 98.6707C97.5156 99.6721 98.333 100.484 99.3412 100.484Z" fill="#29354D"/>
<path d="M105.425 100.484C106.433 100.484 107.251 99.6721 107.251 98.6707C107.251 97.6692 106.433 96.8574 105.425 96.8574C104.417 96.8574 103.6 97.6692 103.6 98.6707C103.6 99.6721 104.417 100.484 105.425 100.484Z" fill="#29354D"/>
<path d="M111.511 100.484C112.519 100.484 113.337 99.6721 113.337 98.6707C113.337 97.6692 112.519 96.8574 111.511 96.8574C110.503 96.8574 109.686 97.6692 109.686 98.6707C109.686 99.6721 110.503 100.484 111.511 100.484Z" fill="#29354D"/>
<path d="M117.597 100.484C118.605 100.484 119.423 99.6721 119.423 98.6707C119.423 97.6692 118.605 96.8574 117.597 96.8574C116.589 96.8574 115.771 97.6692 115.771 98.6707C115.771 99.6721 116.589 100.484 117.597 100.484Z" fill="#29354D"/>
<path d="M123.681 100.484C124.689 100.484 125.507 99.6721 125.507 98.6707C125.507 97.6692 124.689 96.8574 123.681 96.8574C122.673 96.8574 121.855 97.6692 121.855 98.6707C121.855 99.6721 122.673 100.484 123.681 100.484Z" fill="#29354D"/>
<path d="M135.853 100.484C136.861 100.484 137.678 99.6721 137.678 98.6707C137.678 97.6692 136.861 96.8574 135.853 96.8574C134.845 96.8574 134.027 97.6692 134.027 98.6707C134.027 99.6721 134.845 100.484 135.853 100.484Z" fill="#29354D"/>
<path d="M141.937 100.484C142.945 100.484 143.762 99.6721 143.762 98.6707C143.762 97.6692 142.945 96.8574 141.937 96.8574C140.929 96.8574 140.111 97.6692 140.111 98.6707C140.111 99.6721 140.929 100.484 141.937 100.484Z" fill="#29354D"/>
<path d="M50.6595 106.529C51.6678 106.529 52.4851 105.717 52.4851 104.716C52.4851 103.714 51.6678 102.902 50.6595 102.902C49.6513 102.902 48.834 103.714 48.834 104.716C48.834 105.717 49.6513 106.529 50.6595 106.529Z" fill="#29354D"/>
<path d="M62.8295 106.529C63.8377 106.529 64.655 105.717 64.655 104.716C64.655 103.714 63.8377 102.902 62.8295 102.902C61.8212 102.902 61.0039 103.714 61.0039 104.716C61.0039 105.717 61.8212 106.529 62.8295 106.529Z" fill="#29354D"/>
<path d="M68.9154 106.529C69.9236 106.529 70.741 105.717 70.741 104.716C70.741 103.714 69.9236 102.902 68.9154 102.902C67.9072 102.902 67.0898 103.714 67.0898 104.716C67.0898 105.717 67.9072 106.529 68.9154 106.529Z" fill="#29354D"/>
<path d="M93.2552 106.529C94.2635 106.529 95.0808 105.717 95.0808 104.716C95.0808 103.714 94.2635 102.902 93.2552 102.902C92.247 102.902 91.4297 103.714 91.4297 104.716C91.4297 105.717 92.247 106.529 93.2552 106.529Z" fill="#29354D"/>
<path d="M99.3412 106.529C100.349 106.529 101.167 105.717 101.167 104.716C101.167 103.714 100.349 102.902 99.3412 102.902C98.333 102.902 97.5156 103.714 97.5156 104.716C97.5156 105.717 98.333 106.529 99.3412 106.529Z" fill="#29354D"/>
<path d="M123.681 106.529C124.689 106.529 125.507 105.717 125.507 104.716C125.507 103.714 124.689 102.902 123.681 102.902C122.673 102.902 121.855 103.714 121.855 104.716C121.855 105.717 122.673 106.529 123.681 106.529Z" fill="#29354D"/>
<path d="M135.853 106.529C136.861 106.529 137.678 105.717 137.678 104.716C137.678 103.714 136.861 102.902 135.853 102.902C134.845 102.902 134.027 103.714 134.027 104.716C134.027 105.717 134.845 106.529 135.853 106.529Z" fill="#29354D"/>
<path d="M141.937 106.529C142.945 106.529 143.762 105.717 143.762 104.716C143.762 103.714 142.945 102.902 141.937 102.902C140.929 102.902 140.111 103.714 140.111 104.716C140.111 105.717 140.929 106.529 141.937 106.529Z" fill="#29354D"/>
<path d="M50.6595 112.572C51.6678 112.572 52.4851 111.76 52.4851 110.759C52.4851 109.757 51.6678 108.945 50.6595 108.945C49.6513 108.945 48.834 109.757 48.834 110.759C48.834 111.76 49.6513 112.572 50.6595 112.572Z" fill="#29354D"/>
<path d="M56.7455 112.572C57.7537 112.572 58.571 111.76 58.571 110.759C58.571 109.757 57.7537 108.945 56.7455 108.945C55.7373 108.945 54.9199 109.757 54.9199 110.759C54.9199 111.76 55.7373 112.572 56.7455 112.572Z" fill="#29354D"/>
<path d="M62.8295 112.572C63.8377 112.572 64.655 111.76 64.655 110.759C64.655 109.757 63.8377 108.945 62.8295 108.945C61.8212 108.945 61.0039 109.757 61.0039 110.759C61.0039 111.76 61.8212 112.572 62.8295 112.572Z" fill="#29354D"/>
<path d="M74.9994 112.572C76.0076 112.572 76.8249 111.76 76.8249 110.759C76.8249 109.757 76.0076 108.945 74.9994 108.945C73.9912 108.945 73.1738 109.757 73.1738 110.759C73.1738 111.76 73.9912 112.572 74.9994 112.572Z" fill="#29354D"/>
<path d="M81.0853 112.572C82.0936 112.572 82.9109 111.76 82.9109 110.759C82.9109 109.757 82.0936 108.945 81.0853 108.945C80.0771 108.945 79.2598 109.757 79.2598 110.759C79.2598 111.76 80.0771 112.572 81.0853 112.572Z" fill="#29354D"/>
<path d="M87.1693 112.572C88.1775 112.572 88.9949 111.76 88.9949 110.759C88.9949 109.757 88.1775 108.945 87.1693 108.945C86.1611 108.945 85.3438 109.757 85.3438 110.759C85.3438 111.76 86.1611 112.572 87.1693 112.572Z" fill="#29354D"/>
<path d="M99.3412 112.572C100.349 112.572 101.167 111.76 101.167 110.759C101.167 109.757 100.349 108.945 99.3412 108.945C98.333 108.945 97.5156 109.757 97.5156 110.759C97.5156 111.76 98.333 112.572 99.3412 112.572Z" fill="#29354D"/>
<path d="M111.511 112.572C112.519 112.572 113.337 111.76 113.337 110.759C113.337 109.757 112.519 108.945 111.511 108.945C110.503 108.945 109.686 109.757 109.686 110.759C109.686 111.76 110.503 112.572 111.511 112.572Z" fill="#29354D"/>
<path d="M123.681 112.572C124.689 112.572 125.507 111.76 125.507 110.759C125.507 109.757 124.689 108.945 123.681 108.945C122.673 108.945 121.855 109.757 121.855 110.759C121.855 111.76 122.673 112.572 123.681 112.572Z" fill="#29354D"/>
<path d="M148.023 112.572C149.031 112.572 149.848 111.76 149.848 110.759C149.848 109.757 149.031 108.945 148.023 108.945C147.015 108.945 146.197 109.757 146.197 110.759C146.197 111.76 147.015 112.572 148.023 112.572Z" fill="#29354D"/>
<path d="M50.6595 118.617C51.6678 118.617 52.4851 117.805 52.4851 116.803C52.4851 115.802 51.6678 114.99 50.6595 114.99C49.6513 114.99 48.834 115.802 48.834 116.803C48.834 117.805 49.6513 118.617 50.6595 118.617Z" fill="#29354D"/>
<path d="M56.7455 118.617C57.7537 118.617 58.571 117.805 58.571 116.803C58.571 115.802 57.7537 114.99 56.7455 114.99C55.7373 114.99 54.9199 115.802 54.9199 116.803C54.9199 117.805 55.7373 118.617 56.7455 118.617Z" fill="#29354D"/>
<path d="M62.8295 118.617C63.8377 118.617 64.655 117.805 64.655 116.803C64.655 115.802 63.8377 114.99 62.8295 114.99C61.8212 114.99 61.0039 115.802 61.0039 116.803C61.0039 117.805 61.8212 118.617 62.8295 118.617Z" fill="#29354D"/>
<path d="M68.9154 118.617C69.9236 118.617 70.741 117.805 70.741 116.803C70.741 115.802 69.9236 114.99 68.9154 114.99C67.9072 114.99 67.0898 115.802 67.0898 116.803C67.0898 117.805 67.9072 118.617 68.9154 118.617Z" fill="#29354D"/>
<path d="M81.0853 118.617C82.0936 118.617 82.9109 117.805 82.9109 116.803C82.9109 115.802 82.0936 114.99 81.0853 114.99C80.0771 114.99 79.2598 115.802 79.2598 116.803C79.2598 117.805 80.0771 118.617 81.0853 118.617Z" fill="#29354D"/>
<path d="M93.2552 118.617C94.2635 118.617 95.0808 117.805 95.0808 116.803C95.0808 115.802 94.2635 114.99 93.2552 114.99C92.247 114.99 91.4297 115.802 91.4297 116.803C91.4297 117.805 92.247 118.617 93.2552 118.617Z" fill="#29354D"/>
<path d="M99.3412 118.617C100.349 118.617 101.167 117.805 101.167 116.803C101.167 115.802 100.349 114.99 99.3412 114.99C98.333 114.99 97.5156 115.802 97.5156 116.803C97.5156 117.805 98.333 118.617 99.3412 118.617Z" fill="#29354D"/>
<path d="M123.681 118.617C124.689 118.617 125.507 117.805 125.507 116.803C125.507 115.802 124.689 114.99 123.681 114.99C122.673 114.99 121.855 115.802 121.855 116.803C121.855 117.805 122.673 118.617 123.681 118.617Z" fill="#29354D"/>
<path d="M148.023 118.617C149.031 118.617 149.848 117.805 149.848 116.803C149.848 115.802 149.031 114.99 148.023 114.99C147.015 114.99 146.197 115.802 146.197 116.803C146.197 117.805 147.015 118.617 148.023 118.617Z" fill="#29354D"/>
<path d="M50.6595 124.662C51.6678 124.662 52.4851 123.85 52.4851 122.848C52.4851 121.847 51.6678 121.035 50.6595 121.035C49.6513 121.035 48.834 121.847 48.834 122.848C48.834 123.85 49.6513 124.662 50.6595 124.662Z" fill="#29354D"/>
<path d="M62.8295 124.662C63.8377 124.662 64.655 123.85 64.655 122.848C64.655 121.847 63.8377 121.035 62.8295 121.035C61.8212 121.035 61.0039 121.847 61.0039 122.848C61.0039 123.85 61.8212 124.662 62.8295 124.662Z" fill="#29354D"/>
<path d="M68.9154 124.662C69.9236 124.662 70.741 123.85 70.741 122.848C70.741 121.847 69.9236 121.035 68.9154 121.035C67.9072 121.035 67.0898 121.847 67.0898 122.848C67.0898 123.85 67.9072 124.662 68.9154 124.662Z" fill="#29354D"/>
<path d="M81.0853 124.662C82.0936 124.662 82.9109 123.85 82.9109 122.848C82.9109 121.847 82.0936 121.035 81.0853 121.035C80.0771 121.035 79.2598 121.847 79.2598 122.848C79.2598 123.85 80.0771 124.662 81.0853 124.662Z" fill="#29354D"/>
<path d="M93.2552 124.662C94.2635 124.662 95.0808 123.85 95.0808 122.848C95.0808 121.847 94.2635 121.035 93.2552 121.035C92.247 121.035 91.4297 121.847 91.4297 122.848C91.4297 123.85 92.247 124.662 93.2552 124.662Z" fill="#29354D"/>
<path d="M99.3412 124.662C100.349 124.662 101.167 123.85 101.167 122.848C101.167 121.847 100.349 121.035 99.3412 121.035C98.333 121.035 97.5156 121.847 97.5156 122.848C97.5156 123.85 98.333 124.662 99.3412 124.662Z" fill="#29354D"/>
<path d="M105.425 124.662C106.433 124.662 107.251 123.85 107.251 122.848C107.251 121.847 106.433 121.035 105.425 121.035C104.417 121.035 103.6 121.847 103.6 122.848C103.6 123.85 104.417 124.662 105.425 124.662Z" fill="#29354D"/>
<path d="M111.511 124.662C112.519 124.662 113.337 123.85 113.337 122.848C113.337 121.847 112.519 121.035 111.511 121.035C110.503 121.035 109.686 121.847 109.686 122.848C109.686 123.85 110.503 124.662 111.511 124.662Z" fill="#29354D"/>
<path d="M117.597 124.662C118.605 124.662 119.423 123.85 119.423 122.848C119.423 121.847 118.605 121.035 117.597 121.035C116.589 121.035 115.771 121.847 115.771 122.848C115.771 123.85 116.589 124.662 117.597 124.662Z" fill="#29354D"/>
<path d="M123.681 124.662C124.689 124.662 125.507 123.85 125.507 122.848C125.507 121.847 124.689 121.035 123.681 121.035C122.673 121.035 121.855 121.847 121.855 122.848C121.855 123.85 122.673 124.662 123.681 124.662Z" fill="#29354D"/>
<path d="M141.937 124.662C142.945 124.662 143.762 123.85 143.762 122.848C143.762 121.847 142.945 121.035 141.937 121.035C140.929 121.035 140.111 121.847 140.111 122.848C140.111 123.85 140.929 124.662 141.937 124.662Z" fill="#29354D"/>
<path d="M148.023 124.662C149.031 124.662 149.848 123.85 149.848 122.848C149.848 121.847 149.031 121.035 148.023 121.035C147.015 121.035 146.197 121.847 146.197 122.848C146.197 123.85 147.015 124.662 148.023 124.662Z" fill="#29354D"/>
<path d="M50.6595 130.705C51.6678 130.705 52.4851 129.893 52.4851 128.891C52.4851 127.89 51.6678 127.078 50.6595 127.078C49.6513 127.078 48.834 127.89 48.834 128.891C48.834 129.893 49.6513 130.705 50.6595 130.705Z" fill="#29354D"/>
<path d="M56.7455 130.705C57.7537 130.705 58.571 129.893 58.571 128.891C58.571 127.89 57.7537 127.078 56.7455 127.078C55.7373 127.078 54.9199 127.89 54.9199 128.891C54.9199 129.893 55.7373 130.705 56.7455 130.705Z" fill="#29354D"/>
<path d="M62.8295 130.705C63.8377 130.705 64.655 129.893 64.655 128.891C64.655 127.89 63.8377 127.078 62.8295 127.078C61.8212 127.078 61.0039 127.89 61.0039 128.891C61.0039 129.893 61.8212 130.705 62.8295 130.705Z" fill="#29354D"/>
<path d="M74.9994 130.705C76.0076 130.705 76.8249 129.893 76.8249 128.891C76.8249 127.89 76.0076 127.078 74.9994 127.078C73.9912 127.078 73.1738 127.89 73.1738 128.891C73.1738 129.893 73.9912 130.705 74.9994 130.705Z" fill="#29354D"/>
<path d="M81.0853 130.705C82.0936 130.705 82.9109 129.893 82.9109 128.891C82.9109 127.89 82.0936 127.078 81.0853 127.078C80.0771 127.078 79.2598 127.89 79.2598 128.891C79.2598 129.893 80.0771 130.705 81.0853 130.705Z" fill="#29354D"/>
<path d="M93.2552 130.705C94.2635 130.705 95.0808 129.893 95.0808 128.891C95.0808 127.89 94.2635 127.078 93.2552 127.078C92.247 127.078 91.4297 127.89 91.4297 128.891C91.4297 129.893 92.247 130.705 93.2552 130.705Z" fill="#29354D"/>
<path d="M111.511 130.705C112.519 130.705 113.337 129.893 113.337 128.891C113.337 127.89 112.519 127.078 111.511 127.078C110.503 127.078 109.686 127.89 109.686 128.891C109.686 129.893 110.503 130.705 111.511 130.705Z" fill="#29354D"/>
<path d="M141.937 130.705C142.945 130.705 143.762 129.893 143.762 128.891C143.762 127.89 142.945 127.078 141.937 127.078C140.929 127.078 140.111 127.89 140.111 128.891C140.111 129.893 140.929 130.705 141.937 130.705Z" fill="#29354D"/>
<path d="M148.023 130.705C149.031 130.705 149.848 129.893 149.848 128.891C149.848 127.89 149.031 127.078 148.023 127.078C147.015 127.078 146.197 127.89 146.197 128.891C146.197 129.893 147.015 130.705 148.023 130.705Z" fill="#29354D"/>
<path d="M56.7455 136.75C57.7537 136.75 58.571 135.938 58.571 134.936C58.571 133.935 57.7537 133.123 56.7455 133.123C55.7373 133.123 54.9199 133.935 54.9199 134.936C54.9199 135.938 55.7373 136.75 56.7455 136.75Z" fill="#29354D"/>
<path d="M62.8295 136.75C63.8377 136.75 64.655 135.938 64.655 134.936C64.655 133.935 63.8377 133.123 62.8295 133.123C61.8212 133.123 61.0039 133.935 61.0039 134.936C61.0039 135.938 61.8212 136.75 62.8295 136.75Z" fill="#29354D"/>
<path d="M68.9154 136.75C69.9236 136.75 70.741 135.938 70.741 134.936C70.741 133.935 69.9236 133.123 68.9154 133.123C67.9072 133.123 67.0898 133.935 67.0898 134.936C67.0898 135.938 67.9072 136.75 68.9154 136.75Z" fill="#29354D"/>
<path d="M81.0853 136.75C82.0936 136.75 82.9109 135.938 82.9109 134.936C82.9109 133.935 82.0936 133.123 81.0853 133.123C80.0771 133.123 79.2598 133.935 79.2598 134.936C79.2598 135.938 80.0771 136.75 81.0853 136.75Z" fill="#29354D"/>
<path d="M93.2552 136.75C94.2635 136.75 95.0808 135.938 95.0808 134.936C95.0808 133.935 94.2635 133.123 93.2552 133.123C92.247 133.123 91.4297 133.935 91.4297 134.936C91.4297 135.938 92.247 136.75 93.2552 136.75Z" fill="#29354D"/>
<path d="M105.425 136.75C106.433 136.75 107.251 135.938 107.251 134.936C107.251 133.935 106.433 133.123 105.425 133.123C104.417 133.123 103.6 133.935 103.6 134.936C103.6 135.938 104.417 136.75 105.425 136.75Z" fill="#29354D"/>
<path d="M123.681 136.75C124.689 136.75 125.507 135.938 125.507 134.936C125.507 133.935 124.689 133.123 123.681 133.123C122.673 133.123 121.855 133.935 121.855 134.936C121.855 135.938 122.673 136.75 123.681 136.75Z" fill="#29354D"/>
<path d="M129.767 136.75C130.775 136.75 131.593 135.938 131.593 134.936C131.593 133.935 130.775 133.123 129.767 133.123C128.759 133.123 127.941 133.935 127.941 134.936C127.941 135.938 128.759 136.75 129.767 136.75Z" fill="#29354D"/>
<path d="M135.853 136.75C136.861 136.75 137.678 135.938 137.678 134.936C137.678 133.935 136.861 133.123 135.853 133.123C134.845 133.123 134.027 133.935 134.027 134.936C134.027 135.938 134.845 136.75 135.853 136.75Z" fill="#29354D"/>
<path d="M141.937 136.75C142.945 136.75 143.762 135.938 143.762 134.936C143.762 133.935 142.945 133.123 141.937 133.123C140.929 133.123 140.111 133.935 140.111 134.936C140.111 135.938 140.929 136.75 141.937 136.75Z" fill="#29354D"/>
<path d="M148.023 136.75C149.031 136.75 149.848 135.938 149.848 134.936C149.848 133.935 149.031 133.123 148.023 133.123C147.015 133.123 146.197 133.935 146.197 134.936C146.197 135.938 147.015 136.75 148.023 136.75Z" fill="#29354D"/>
<path d="M68.9154 142.793C69.9236 142.793 70.741 141.981 70.741 140.979C70.741 139.978 69.9236 139.166 68.9154 139.166C67.9072 139.166 67.0898 139.978 67.0898 140.979C67.0898 141.981 67.9072 142.793 68.9154 142.793Z" fill="#29354D"/>
<path d="M74.9994 142.793C76.0076 142.793 76.8249 141.981 76.8249 140.979C76.8249 139.978 76.0076 139.166 74.9994 139.166C73.9912 139.166 73.1738 139.978 73.1738 140.979C73.1738 141.981 73.9912 142.793 74.9994 142.793Z" fill="#29354D"/>
<path d="M81.0853 142.793C82.0936 142.793 82.9109 141.981 82.9109 140.979C82.9109 139.978 82.0936 139.166 81.0853 139.166C80.0771 139.166 79.2598 139.978 79.2598 140.979C79.2598 141.981 80.0771 142.793 81.0853 142.793Z" fill="#29354D"/>
<path d="M93.2552 142.793C94.2635 142.793 95.0808 141.981 95.0808 140.979C95.0808 139.978 94.2635 139.166 93.2552 139.166C92.247 139.166 91.4297 139.978 91.4297 140.979C91.4297 141.981 92.247 142.793 93.2552 142.793Z" fill="#29354D"/>
<path d="M117.597 142.793C118.605 142.793 119.423 141.981 119.423 140.979C119.423 139.978 118.605 139.166 117.597 139.166C116.589 139.166 115.771 139.978 115.771 140.979C115.771 141.981 116.589 142.793 117.597 142.793Z" fill="#29354D"/>
<path d="M123.681 142.793C124.689 142.793 125.507 141.981 125.507 140.979C125.507 139.978 124.689 139.166 123.681 139.166C122.673 139.166 121.855 139.978 121.855 140.979C121.855 141.981 122.673 142.793 123.681 142.793Z" fill="#29354D"/>
<path d="M135.853 142.793C136.861 142.793 137.678 141.981 137.678 140.979C137.678 139.978 136.861 139.166 135.853 139.166C134.845 139.166 134.027 139.978 134.027 140.979C134.027 141.981 134.845 142.793 135.853 142.793Z" fill="#29354D"/>
<path d="M141.937 142.793C142.945 142.793 143.762 141.981 143.762 140.979C143.762 139.978 142.945 139.166 141.937 139.166C140.929 139.166 140.111 139.978 140.111 140.979C140.111 141.981 140.929 142.793 141.937 142.793Z" fill="#29354D"/>
<path d="M148.023 142.793C149.031 142.793 149.848 141.981 149.848 140.979C149.848 139.978 149.031 139.166 148.023 139.166C147.015 139.166 146.197 139.978 146.197 140.979C146.197 141.981 147.015 142.793 148.023 142.793Z" fill="#29354D"/>
<path d="M50.6595 148.837C51.6678 148.837 52.4851 148.026 52.4851 147.024C52.4851 146.023 51.6678 145.211 50.6595 145.211C49.6513 145.211 48.834 146.023 48.834 147.024C48.834 148.026 49.6513 148.837 50.6595 148.837Z" fill="#29354D"/>
<path d="M56.7455 148.837C57.7537 148.837 58.571 148.026 58.571 147.024C58.571 146.023 57.7537 145.211 56.7455 145.211C55.7373 145.211 54.9199 146.023 54.9199 147.024C54.9199 148.026 55.7373 148.837 56.7455 148.837Z" fill="#29354D"/>
<path d="M68.9154 148.837C69.9236 148.837 70.741 148.026 70.741 147.024C70.741 146.023 69.9236 145.211 68.9154 145.211C67.9072 145.211 67.0898 146.023 67.0898 147.024C67.0898 148.026 67.9072 148.837 68.9154 148.837Z" fill="#29354D"/>
<path d="M74.9994 148.837C76.0076 148.837 76.8249 148.026 76.8249 147.024C76.8249 146.023 76.0076 145.211 74.9994 145.211C73.9912 145.211 73.1738 146.023 73.1738 147.024C73.1738 148.026 73.9912 148.837 74.9994 148.837Z" fill="#29354D"/>
<path d="M81.0853 148.837C82.0936 148.837 82.9109 148.026 82.9109 147.024C82.9109 146.023 82.0936 145.211 81.0853 145.211C80.0771 145.211 79.2598 146.023 79.2598 147.024C79.2598 148.026 80.0771 148.837 81.0853 148.837Z" fill="#29354D"/>
<path d="M99.3412 148.837C100.349 148.837 101.167 148.026 101.167 147.024C101.167 146.023 100.349 145.211 99.3412 145.211C98.333 145.211 97.5156 146.023 97.5156 147.024C97.5156 148.026 98.333 148.837 99.3412 148.837Z" fill="#29354D"/>
<path d="M105.425 148.837C106.433 148.837 107.251 148.026 107.251 147.024C107.251 146.023 106.433 145.211 105.425 145.211C104.417 145.211 103.6 146.023 103.6 147.024C103.6 148.026 104.417 148.837 105.425 148.837Z" fill="#29354D"/>
<path d="M129.767 148.837C130.775 148.837 131.593 148.026 131.593 147.024C131.593 146.023 130.775 145.211 129.767 145.211C128.759 145.211 127.941 146.023 127.941 147.024C127.941 148.026 128.759 148.837 129.767 148.837Z" fill="#29354D"/>
<path d="M148.023 148.837C149.031 148.837 149.848 148.026 149.848 147.024C149.848 146.023 149.031 145.211 148.023 145.211C147.015 145.211 146.197 146.023 146.197 147.024C146.197 148.026 147.015 148.837 148.023 148.837Z" fill="#29354D"/>
<path d="M35.1424 -1.05859H-1.06445V41.2506H41.5319V-1.05859H35.1424ZM35.1424 34.9042H5.325V5.28778H35.1424V34.9042Z" fill="#29354D"/>
<path d="M144.676 -1.05859H108.469V41.2506H151.065V-1.05859H144.676ZM144.676 34.9042H114.858V5.28778H144.676V34.9042Z" fill="#29354D"/>
<path d="M35.1424 107.738H-1.06445V150.047H41.5319V107.738H35.1424ZM35.1424 143.701H5.325V114.085H35.1424V143.701Z" fill="#29354D"/>
<path d="M29.361 11.0312H11.1055V29.1638H29.361V11.0312Z" fill="#29354D"/>
<path d="M138.894 11.0312H120.639V29.1638H138.894V11.0312Z" fill="#29354D"/>
<path d="M29.361 119.826H11.1055V137.959H29.361V119.826Z" fill="#29354D"/>
</g>
<defs>
<clipPath id="clip0_868_197600">
<rect width="150" height="150" fill="white"/>
</clipPath>
</defs>
</svg>
