<svg width="17" height="17" viewBox="0 0 17 17" fill="none" xmlns="http://www.w3.org/2000/svg">
<path d="M14.8657 14.5011L14.8661 14.5007C15.1049 14.2372 15.2866 13.9561 15.4256 13.6616C15.5815 13.3317 15.6582 12.9846 15.6582 12.6407C15.6582 12.3458 15.5934 12.0899 15.5017 11.8607L15.4969 11.8489L15.4918 11.8372C15.358 11.5331 15.1445 11.2961 14.8827 11.114L12.7581 9.60556L12.7519 9.60118L12.7456 9.59691C12.557 9.46869 12.3623 9.35585 12.1579 9.27223C11.9387 9.18257 11.7138 9.13282 11.4817 9.13282C11.176 9.13282 10.9018 9.21952 10.6565 9.36447C10.4262 9.48848 10.2187 9.66113 10.034 9.84566L9.73482 10.1409C9.59366 10.0505 9.4124 9.9171 9.18953 9.72854C8.87007 9.45728 8.55193 9.15804 8.21289 8.82541C7.89494 8.50108 7.59959 8.17513 7.32019 7.85236C7.13345 7.63149 6.99852 7.4525 6.90679 7.31464L7.20891 7.00059C7.3921 6.81667 7.55664 6.61453 7.68026 6.39855C7.83054 6.1478 7.91817 5.8638 7.91817 5.56282C7.91817 5.31729 7.85583 5.08297 7.77001 4.88106C7.68607 4.67735 7.57213 4.48059 7.43129 4.28469L5.94346 2.18762C5.74689 1.90527 5.49357 1.70797 5.21829 1.57994C4.9513 1.45279 4.66137 1.39282 4.37817 1.39282C3.67316 1.39282 3.04412 1.69398 2.52063 2.20698C2.10811 2.59761 1.80088 3.04611 1.60459 3.54411C1.41306 4.02371 1.32031 4.53609 1.32031 5.06139C1.32031 5.84697 1.50179 6.64672 1.84194 7.45458L1.84194 7.45458L1.84287 7.45676C2.17684 8.243 2.63078 9.02408 3.18432 9.79363L3.18431 9.79363L3.18685 9.79712C3.74351 10.5617 4.3661 11.2912 5.05386 11.9856L5.05383 11.9856L5.05898 11.9907C5.75356 12.6786 6.48274 13.3009 7.25293 13.8635L7.25387 13.8641C8.02763 14.4275 8.81599 14.8812 9.61275 15.2207C10.4273 15.5677 11.2281 15.75 12.0025 15.75C12.5469 15.75 13.0624 15.6485 13.5423 15.4489C14.0488 15.241 14.4852 14.9205 14.8657 14.5011Z" stroke="#797979" stroke-width="1.5" stroke-miterlimit="10"/>
</svg>
