<svg width="335" height="95" viewBox="0 0 335 95" fill="none" xmlns="http://www.w3.org/2000/svg">
<mask id="mask0_3802_115488" style="mask-type:alpha" maskUnits="userSpaceOnUse" x="0" y="0" width="335" height="95">
<rect width="335" height="95" fill="#FFFCF8"/>
</mask>
<g mask="url(#mask0_3802_115488)">
<path d="M287.5 18L242.221 65.7485C236.761 71.5068 236.73 80.522 242.152 86.3172L251.755 96.5832C257.215 102.419 257.14 111.51 251.586 117.256L242.481 126.674C236.9 132.448 236.856 141.594 242.382 147.421L287.5 195" stroke="white" stroke-opacity="0.2" stroke-width="1.5" stroke-miterlimit="10"/>
<path d="M267.501 -10C279.005 -6.88536 287.501 4.13538 287.501 17C287.501 17.4038 287.517 17.601 287.501 18" stroke="white" stroke-opacity="0.2" stroke-width="1.5" stroke-miterlimit="10"/>
<path d="M345.5 -92L232.5 27" stroke="white" stroke-opacity="0.2" stroke-width="1.5" stroke-miterlimit="10"/>
<path d="M309.5 -5C309.957 -3.33899 310.5 -1.81524 310.5 0C310.5 10.3665 302.355 19 292.5 19C290.336 19 288.42 18.7422 286.5 18" stroke="white" stroke-opacity="0.2" stroke-width="1.5" stroke-miterlimit="10"/>
<path d="M287.5 18C302.21 25.4922 312.5 41.6493 312.5 60C312.5 85.5709 292.8 106 268.5 106" stroke="white" stroke-opacity="0.2" stroke-width="1.5" stroke-miterlimit="10"/>
<path d="M197.5 -10C185.996 -6.88537 177.5 4.13538 177.5 17C177.5 17.4038 177.484 17.601 177.5 18" stroke="white" stroke-opacity="0.2" stroke-width="1.5" stroke-miterlimit="10"/>
<path d="M119.5 -92L232.5 27" stroke="white" stroke-opacity="0.2" stroke-width="1.5" stroke-miterlimit="10"/>
<path d="M177.5 18C162.791 25.4922 152.5 41.6493 152.5 60C152.5 85.5709 172.199 106 196.5 106" stroke="white" stroke-opacity="0.2" stroke-width="1.5" stroke-miterlimit="10"/>
<path d="M106.5 -10C118.006 -6.88536 126.5 4.13538 126.5 17C126.5 17.4038 126.517 17.601 126.5 18" stroke="white" stroke-opacity="0.2" stroke-width="1.5" stroke-miterlimit="10"/>
<path d="M184.5 -92L71.5 27" stroke="white" stroke-opacity="0.2" stroke-width="1.5" stroke-miterlimit="10"/>
<path d="M126.5 18C141.211 25.4922 151.5 41.6493 151.5 60C151.5 85.5709 131.801 106 107.5 106" stroke="white" stroke-opacity="0.2" stroke-width="1.5" stroke-miterlimit="10"/>
<path d="M16.5 18L61.7787 65.7485C67.2392 71.5068 67.2698 80.522 61.8484 86.3172L52.2448 96.5832C46.7854 102.419 46.8599 111.51 52.414 117.256L61.5185 126.674C67.1 132.448 67.1438 141.594 61.618 147.421L16.5 195" stroke="white" stroke-opacity="0.2" stroke-width="1.5" stroke-miterlimit="10"/>
<path d="M36.5 -10C24.9943 -6.88537 16.5 4.13538 16.5 17C16.5 17.4038 16.4843 17.601 16.5 18" stroke="white" stroke-opacity="0.2" stroke-width="1.5" stroke-miterlimit="10"/>
<path d="M-40.5 -92L72.5 27" stroke="white" stroke-opacity="0.2" stroke-width="1.5" stroke-miterlimit="10"/>
<path d="M-5.5 -5C-5.95704 -3.33899 -6.5 -1.81524 -6.5 -2.09815e-06C-6.5 10.3665 1.64474 19 11.5 19C13.6641 19 15.5804 18.7422 17.5 18" stroke="white" stroke-opacity="0.2" stroke-width="1.5" stroke-miterlimit="10"/>
<path d="M16.5 18C1.79006 25.4922 -8.5 41.6493 -8.5 60C-8.50001 85.5709 11.1995 106 35.5 106" stroke="white" stroke-opacity="0.2" stroke-width="1.5" stroke-miterlimit="10"/>
<path d="M176.5 18L221.779 65.7485C227.239 71.5068 227.27 80.522 221.848 86.3172L212.245 96.5832C206.785 102.419 206.86 111.51 212.414 117.256L221.518 126.674C227.1 132.448 227.144 141.594 221.618 147.421L176.5 195" stroke="white" stroke-opacity="0.2" stroke-width="1.5" stroke-miterlimit="10"/>
<path d="M126.5 18L81.2213 65.7485C75.7608 71.5068 75.7302 80.522 81.1516 86.3172L90.7552 96.5832C96.2145 102.419 96.1401 111.51 90.586 117.256L81.4815 126.674C75.9 132.448 75.8562 141.594 81.382 147.421L126.5 195" stroke="white" stroke-opacity="0.2" stroke-width="1.5" stroke-miterlimit="10"/>
</g>
</svg>
