<svg width="335" height="468" viewBox="0 0 335 468" fill="none" xmlns="http://www.w3.org/2000/svg">
<path d="M28.3877 817.744L173.994 664.405L96.6281 582.726L173.994 501.131L28.3877 347.793" stroke="white" stroke-opacity="0.2" stroke-width="2" stroke-miterlimit="10"/>
<path d="M-78.3535 -8.37617L176.597 259.283" stroke="white" stroke-opacity="0.2" stroke-width="2" stroke-miterlimit="10"/>
<path d="M81.6365 272.496C51.0797 280.901 28.5342 310.082 28.5342 344.79C28.5342 345.881 28.5575 346.965 28.6012 348.043" stroke="white" stroke-opacity="0.2" stroke-width="2" stroke-miterlimit="10"/>
<path d="M-124.369 55.6606L176.591 371.559" stroke="white" stroke-opacity="0.2" stroke-width="2" stroke-miterlimit="10"/>
<path d="M-73.3604 109.598C-20.2584 109.598 22.7927 64.4134 22.7927 8.67438C22.7927 2.86302 22.3256 -2.83424 21.4265 -8.37537" stroke="white" stroke-opacity="0.2" stroke-width="2" stroke-miterlimit="10"/>
<path d="M-30.3446 287.128C-31.5385 291.453 -32.1777 296.027 -32.1777 300.757C-32.1777 327.768 -11.317 349.666 14.4189 349.666C20.0692 349.666 25.4866 348.611 30.4996 346.677" stroke="white" stroke-opacity="0.2" stroke-width="2" stroke-miterlimit="10"/>
<path d="M176.646 174.089C124.494 174.089 82.2207 218.463 82.2207 273.199" stroke="white" stroke-opacity="0.2" stroke-width="2" stroke-miterlimit="10"/>
<path d="M28.6023 348.043C-10.7254 368.022 -37.8516 410.312 -37.8516 459.252C-37.8516 527.444 14.8184 582.727 79.787 582.727" stroke="white" stroke-opacity="0.2" stroke-width="2" stroke-miterlimit="10"/>
<path d="M428.595 -8.37422L173.644 259.285" stroke="white" stroke-opacity="0.2" stroke-width="2" stroke-miterlimit="10"/>
<path d="M268.604 272.5C299.159 280.905 321.705 310.086 321.705 344.794C321.705 345.885 321.682 346.969 321.639 348.047" stroke="white" stroke-opacity="0.2" stroke-width="2" stroke-miterlimit="10"/>
<path d="M539.577 -12.5044L173.901 371.043" stroke="white" stroke-opacity="0.2" stroke-width="2" stroke-miterlimit="10"/>
<path d="M173.588 174.085C225.736 174.085 268.014 218.459 268.014 273.195" stroke="white" stroke-opacity="0.2" stroke-width="2" stroke-miterlimit="10"/>
<path d="M321.643 348.039C360.971 368.018 388.097 410.308 388.097 459.248C388.097 527.44 335.428 582.723 270.457 582.723" stroke="white" stroke-opacity="0.2" stroke-width="2" stroke-miterlimit="10"/>
<path d="M241.263 -9.75494L604.189 371.043" stroke="white" stroke-opacity="0.2" stroke-width="2" stroke-miterlimit="10"/>
<path d="M321.847 817.744L176.239 664.405L253.603 582.726L176.239 501.131L321.847 347.793" stroke="white" stroke-opacity="0.2" stroke-width="2" stroke-miterlimit="10"/>
<rect x="2" y="1" width="332" height="466" stroke="white" stroke-opacity="0.2" stroke-width="2"/>
</svg>
