<svg width="1109" height="430" viewBox="0 0 1109 430" fill="none" xmlns="http://www.w3.org/2000/svg">
<path d="M1203.65 286.502C1200.73 229.099 1155.47 183.497 1100.05 183.497C1096.18 183.497 1092.37 183.717 1088.61 184.153" stroke="white" stroke-opacity="0.2" stroke-width="2" stroke-miterlimit="10"/>
<path d="M1088.6 184.15C1099.05 127.259 1146.57 84.2568 1203.82 84.2568C1261.07 84.2568 1309.25 127.272 1319.71 184.15" stroke="white" stroke-opacity="0.2" stroke-width="2" stroke-miterlimit="10"/>
<path d="M193.511 817.744L339.117 664.405L261.751 582.726L339.117 501.131L193.511 347.793" stroke="white" stroke-opacity="0.2" stroke-width="2" stroke-miterlimit="10"/>
<path d="M86.7695 -8.37617L341.72 259.283" stroke="white" stroke-opacity="0.2" stroke-width="2" stroke-miterlimit="10"/>
<path d="M20.2578 185.668C59.5778 185.668 91.4521 152.21 91.4521 110.937C91.4521 109.848 91.4326 108.764 91.387 107.687" stroke="white" stroke-opacity="0.2" stroke-width="2" stroke-miterlimit="10"/>
<path d="M246.76 272.496C216.203 280.901 193.657 310.082 193.657 344.79C193.657 345.881 193.681 346.965 193.724 348.043" stroke="white" stroke-opacity="0.2" stroke-width="2" stroke-miterlimit="10"/>
<path d="M40.7539 55.6606L341.714 371.559" stroke="white" stroke-opacity="0.2" stroke-width="2" stroke-miterlimit="10"/>
<path d="M-1.10547 134.957C24.8279 131.886 44.9832 108.783 44.9832 80.7394C44.9832 71.6976 42.8875 63.1684 39.1771 55.6599" stroke="white" stroke-opacity="0.2" stroke-width="2" stroke-miterlimit="10"/>
<path d="M39.1719 55.6611C65.1088 52.5912 85.1725 29.4877 85.1725 1.44452C85.1725 -1.90828 84.8831 -5.19069 84.3311 -8.3772" stroke="white" stroke-opacity="0.2" stroke-width="2" stroke-miterlimit="10"/>
<path d="M91.7627 109.598C144.865 109.598 187.916 64.4134 187.916 8.67438C187.916 2.86302 187.449 -2.83424 186.55 -8.37537" stroke="white" stroke-opacity="0.2" stroke-width="2" stroke-miterlimit="10"/>
<path d="M19.5098 185.598C22.1279 210.005 41.8578 228.975 65.8104 228.975C69.9438 228.975 73.9518 228.41 77.7701 227.348" stroke="white" stroke-opacity="0.2" stroke-width="2" stroke-miterlimit="10"/>
<path d="M77.7601 227.345C76.7578 231.335 76.2187 235.52 76.2187 239.839C76.2187 266.851 97.0818 288.75 122.818 288.75C126.952 288.75 130.959 288.183 134.774 287.122" stroke="white" stroke-opacity="0.2" stroke-width="2" stroke-miterlimit="10"/>
<path d="M134.778 287.128C133.585 291.453 132.945 296.027 132.945 300.757C132.945 327.768 153.806 349.666 179.542 349.666C185.192 349.666 190.61 348.611 195.623 346.677" stroke="white" stroke-opacity="0.2" stroke-width="2" stroke-miterlimit="10"/>
<path d="M341.77 174.089C289.617 174.089 247.344 218.463 247.344 273.199" stroke="white" stroke-opacity="0.2" stroke-width="2" stroke-miterlimit="10"/>
<path d="M193.725 348.043C154.398 368.022 127.271 410.312 127.271 459.252C127.271 527.444 179.941 582.727 244.91 582.727" stroke="white" stroke-opacity="0.2" stroke-width="2" stroke-miterlimit="10"/>
<path d="M593.718 -8.37422L338.767 259.285" stroke="white" stroke-opacity="0.2" stroke-width="2" stroke-miterlimit="10"/>
<path d="M433.727 272.5C464.282 280.905 486.828 310.086 486.828 344.794C486.828 345.885 486.805 346.969 486.762 348.047" stroke="white" stroke-opacity="0.2" stroke-width="2" stroke-miterlimit="10"/>
<path d="M704.7 -12.5044L339.024 371.043" stroke="white" stroke-opacity="0.2" stroke-width="2" stroke-miterlimit="10"/>
<path d="M338.711 174.085C390.859 174.085 433.137 218.459 433.137 273.195" stroke="white" stroke-opacity="0.2" stroke-width="2" stroke-miterlimit="10"/>
<path d="M486.766 348.039C526.094 368.018 553.22 410.308 553.22 459.248C553.22 527.44 500.551 582.723 435.58 582.723" stroke="white" stroke-opacity="0.2" stroke-width="2" stroke-miterlimit="10"/>
<path d="M514.349 -8.37617L769.3 259.283" stroke="white" stroke-opacity="0.2" stroke-width="2" stroke-miterlimit="10"/>
<path d="M674.328 272.496C643.769 280.901 621.227 310.082 621.227 344.79C621.227 345.881 621.25 346.965 621.294 348.043" stroke="white" stroke-opacity="0.2" stroke-width="2" stroke-miterlimit="10"/>
<path d="M406.386 -9.75494L769.312 371.043" stroke="white" stroke-opacity="0.2" stroke-width="2" stroke-miterlimit="10"/>
<path d="M769.347 174.089C717.199 174.089 674.923 218.463 674.923 273.199" stroke="white" stroke-opacity="0.2" stroke-width="2" stroke-miterlimit="10"/>
<path d="M621.306 348.039C581.974 368.018 554.851 410.308 554.851 459.248C554.851 527.44 607.519 582.723 672.489 582.723" stroke="white" stroke-opacity="0.2" stroke-width="2" stroke-miterlimit="10"/>
<path d="M913.04 817.744L767.434 664.405L844.799 582.726L767.434 501.131L913.04 347.793" stroke="white" stroke-opacity="0.2" stroke-width="2" stroke-miterlimit="10"/>
<path d="M1020.85 -8.37812L765.895 259.281" stroke="white" stroke-opacity="0.2" stroke-width="2" stroke-miterlimit="10"/>
<path d="M1087.35 185.666C1048.03 185.666 1016.15 152.208 1016.15 110.935C1016.15 109.846 1016.18 108.762 1016.22 107.685" stroke="white" stroke-opacity="0.2" stroke-width="2" stroke-miterlimit="10"/>
<path d="M860.854 272.496C891.413 280.901 913.955 310.082 913.955 344.79C913.955 345.881 913.932 346.965 913.89 348.043" stroke="white" stroke-opacity="0.2" stroke-width="2" stroke-miterlimit="10"/>
<path d="M1066.85 55.6626L765.895 371.561" stroke="white" stroke-opacity="0.2" stroke-width="2" stroke-miterlimit="10"/>
<path d="M1108.72 134.957C1082.79 131.886 1062.63 108.783 1062.63 80.7394C1062.63 71.6976 1064.73 63.1684 1068.44 55.6599" stroke="white" stroke-opacity="0.2" stroke-width="2" stroke-miterlimit="10"/>
<path d="M1068.43 55.665C1042.5 52.5951 1022.43 29.4916 1022.43 1.44843C1022.43 -1.90437 1022.72 -5.18678 1023.27 -8.37329" stroke="white" stroke-opacity="0.2" stroke-width="2" stroke-miterlimit="10"/>
<path d="M1015.84 109.598C962.741 109.598 919.693 64.4134 919.693 8.67438C919.693 2.86302 920.16 -2.83424 921.058 -8.37537" stroke="white" stroke-opacity="0.2" stroke-width="2" stroke-miterlimit="10"/>
<path d="M1155.67 35.1562C1131.65 35.1562 1112.16 16.1109 1109.6 -8.37689" stroke="white" stroke-opacity="0.2" stroke-width="2" stroke-miterlimit="10"/>
<path d="M1088.1 185.598C1085.49 210.005 1065.75 228.975 1041.8 228.975C1037.67 228.975 1033.66 228.41 1029.84 227.348" stroke="white" stroke-opacity="0.2" stroke-width="2" stroke-miterlimit="10"/>
<path d="M1029.84 227.345C1030.84 231.335 1031.38 235.52 1031.38 239.839C1031.38 266.851 1010.52 288.75 984.783 288.75C980.648 288.75 976.644 288.183 972.827 287.122" stroke="white" stroke-opacity="0.2" stroke-width="2" stroke-miterlimit="10"/>
<path d="M972.826 287.122C974.019 291.447 974.66 296.021 974.66 300.751C974.66 327.762 953.8 349.66 928.063 349.66C922.411 349.66 916.996 348.605 911.983 346.671" stroke="white" stroke-opacity="0.2" stroke-width="2" stroke-miterlimit="10"/>
<path d="M765.845 174.089C817.991 174.089 860.269 218.463 860.269 273.199" stroke="white" stroke-opacity="0.2" stroke-width="2" stroke-miterlimit="10"/>
<path d="M913.888 348.043C953.216 368.022 980.339 410.312 980.339 459.252C980.339 527.444 927.672 582.727 862.703 582.727" stroke="white" stroke-opacity="0.2" stroke-width="2" stroke-miterlimit="10"/>
<path d="M-211.863 185.082C-201.413 128.188 -153.881 85.1789 -96.6255 85.1789C-39.3764 85.1789 8.81457 128.199 19.2749 185.082" stroke="white" stroke-opacity="0.2" stroke-width="2" stroke-miterlimit="10"/>
<path d="M19.2755 185.081C15.5133 184.648 11.6949 184.425 7.82368 184.425C-47.5969 184.425 -92.8686 230.035 -95.7812 287.443" stroke="white" stroke-opacity="0.2" stroke-width="2" stroke-miterlimit="10"/>
<path d="M486.97 817.744L341.362 664.405L418.726 582.726L341.362 501.131L486.97 347.793" stroke="white" stroke-opacity="0.2" stroke-width="2" stroke-miterlimit="10"/>
<path d="M621.094 817.744L766.701 664.405L689.336 582.726L766.701 501.131L621.094 347.793" stroke="white" stroke-opacity="0.2" stroke-width="2" stroke-miterlimit="10"/>
<rect x="1" y="1" width="1108" height="428" stroke="white" stroke-opacity="0.2" stroke-width="2"/>
</svg>
