<svg
  xmlns="http://www.w3.org/2000/svg"
  viewBox="0 0 70 70"
  fill="none">
  <rect
    width="70"
    height="70"
    rx="35"
    fill="#FFF9EE" />
  <path
    d="M22 34.25C21.5858 34.25 21.25 34.5858 21.25 35C21.25 35.4142 21.5858 35.75 22 35.75L22 34.25ZM48.5303 35.5303C48.8232 35.2374 48.8232 34.7626 48.5303 34.4697L43.7574 29.6967C43.4645 29.4038 42.9896 29.4038 42.6967 29.6967C42.4038 29.9896 42.4038 30.4645 42.6967 30.7574L46.9393 35L42.6967 39.2426C42.4038 39.5355 42.4038 40.0104 42.6967 40.3033C42.9896 40.5962 43.4645 40.5962 43.7574 40.3033L48.5303 35.5303ZM22 35.75L48 35.75L48 34.25L22 34.25L22 35.75Z"
    fill="#29354D" />
</svg>