<svg width="510" height="294" viewBox="0 0 510 294" fill="none" xmlns="http://www.w3.org/2000/svg">
<mask id="mask0_5846_31982" style="mask-type:alpha" maskUnits="userSpaceOnUse" x="0" y="0" width="510" height="294">
<path d="M50 294C22.3858 294 -9.78513e-07 271.614 -2.18557e-06 244L-1.28511e-05 3.05176e-05L510 8.22477e-06L510 244C510 271.614 487.614 294 460 294L50 294Z" fill="#D9D9D9"/>
</mask>
<g mask="url(#mask0_5846_31982)">
<path d="M103.554 -3.39177L-114.129 225.143" stroke="#EAC2B2" stroke-opacity="0.05" stroke-width="2.5823" stroke-miterlimit="10"/>
<path d="M160.348 162.285C126.775 162.285 99.5596 133.718 99.5596 98.478C99.5596 97.5484 99.5762 96.6223 99.6161 95.7029" stroke="#EAC2B2" stroke-opacity="0.05" stroke-width="2.5823" stroke-miterlimit="10"/>
<path d="M-33.0479 236.427C-6.95864 243.603 12.2896 268.519 12.2896 298.153C12.2896 299.085 12.2717 300.01 12.2331 300.931" stroke="#EAC2B2" stroke-opacity="0.05" stroke-width="2.5823" stroke-miterlimit="10"/>
<path d="M142.84 51.2851L-114.129 321.007" stroke="#EAC2B2" stroke-opacity="0.05" stroke-width="2.5823" stroke-miterlimit="10"/>
<path d="M178.584 118.99C156.439 116.368 139.229 96.6425 139.229 72.6979C139.229 64.9777 141.019 57.6953 144.187 51.2843" stroke="#EAC2B2" stroke-opacity="0.05" stroke-width="2.5823" stroke-miterlimit="10"/>
<path d="M144.188 51.2852C122.043 48.664 104.912 28.9376 104.912 4.99364C104.912 2.13093 105.158 -0.671672 105.63 -3.39239" stroke="#EAC2B2" stroke-opacity="0.05" stroke-width="2.5823" stroke-miterlimit="10"/>
<path d="M99.2909 97.3379C53.9507 97.3379 17.1953 58.7584 17.1953 11.1671C17.1953 6.20517 17.5941 1.34071 18.3614 -3.39045" stroke="#EAC2B2" stroke-opacity="0.05" stroke-width="2.5823" stroke-miterlimit="10"/>
<path d="M337.507 -3.39138C335.606 17.733 319.09 33.7783 298.391 33.7783" stroke="#EAC2B2" stroke-opacity="0.05" stroke-width="2.5823" stroke-miterlimit="10"/>
<path d="M298.394 33.7789C298.394 56.8859 280.548 75.6182 258.532 75.6182C236.516 75.6182 218.672 56.8859 218.672 33.7789" stroke="#EAC2B2" stroke-opacity="0.05" stroke-width="2.5823" stroke-miterlimit="10"/>
<path d="M218.67 33.7773C198.158 33.7773 181.518 17.5159 179.34 -3.39235" stroke="#EAC2B2" stroke-opacity="0.05" stroke-width="2.5823" stroke-miterlimit="10"/>
<path d="M160.985 162.23C158.75 183.07 141.903 199.267 121.452 199.267C117.921 199.267 114.499 198.784 111.24 197.878" stroke="#EAC2B2" stroke-opacity="0.05" stroke-width="2.5823" stroke-miterlimit="10"/>
<path d="M111.24 197.874C112.095 201.28 112.555 204.854 112.555 208.541C112.555 231.605 94.7413 250.303 72.7684 250.303C69.2385 250.303 65.8197 249.818 62.5605 248.913" stroke="#EAC2B2" stroke-opacity="0.05" stroke-width="2.5823" stroke-miterlimit="10"/>
<path d="M62.5639 248.916C63.583 252.609 64.1281 256.514 64.1281 260.553C64.1281 283.616 46.3167 302.312 24.3434 302.312C19.5184 302.312 14.8939 301.412 10.6133 299.76" stroke="#EAC2B2" stroke-opacity="0.05" stroke-width="2.5823" stroke-miterlimit="10"/>
<path d="M416.159 -3.39177L633.842 225.143" stroke="#EAC2B2" stroke-opacity="0.05" stroke-width="2.5823" stroke-miterlimit="10"/>
<path d="M359.367 162.287C392.94 162.287 420.155 133.72 420.155 98.4799C420.155 97.5504 420.138 96.6243 420.099 95.7048" stroke="#EAC2B2" stroke-opacity="0.05" stroke-width="2.5823" stroke-miterlimit="10"/>
<path d="M376.87 51.2851L633.838 321.007" stroke="#EAC2B2" stroke-opacity="0.05" stroke-width="2.5823" stroke-miterlimit="10"/>
<path d="M341.128 118.99C363.271 116.368 380.48 96.6425 380.48 72.6979C380.48 64.9777 378.69 57.6953 375.522 51.2843" stroke="#EAC2B2" stroke-opacity="0.05" stroke-width="2.5823" stroke-miterlimit="10"/>
<path d="M375.518 51.2852C397.663 48.664 414.794 28.9376 414.794 4.99364C414.794 2.13093 414.547 -0.671672 414.076 -3.39239" stroke="#EAC2B2" stroke-opacity="0.05" stroke-width="2.5823" stroke-miterlimit="10"/>
<path d="M420.421 97.3369C465.761 97.3369 502.519 58.7574 502.519 11.1661C502.519 6.20419 502.12 1.33973 501.352 -3.39143" stroke="#EAC2B2" stroke-opacity="0.05" stroke-width="2.5823" stroke-miterlimit="10"/>
<path d="M358.729 162.228C360.965 183.068 377.811 199.265 398.262 199.265C401.791 199.265 405.213 198.782 408.474 197.876" stroke="#EAC2B2" stroke-opacity="0.05" stroke-width="2.5823" stroke-miterlimit="10"/>
<path d="M408.465 197.874C407.61 201.28 407.149 204.854 407.149 208.541C407.149 231.605 424.963 250.303 446.937 250.303C450.467 250.303 453.888 249.818 457.146 248.913" stroke="#EAC2B2" stroke-opacity="0.05" stroke-width="2.5823" stroke-miterlimit="10"/>
<path d="M179.769 118.099C226.654 136.067 260.126 183.292 260.126 238.724C260.126 242.732 259.952 246.701 259.608 250.619" stroke="#EAC2B2" stroke-opacity="0.05" stroke-width="2.5823" stroke-miterlimit="10"/>
<path d="M259.412 249.186C256.927 200.169 218.272 161.226 170.953 161.226C167.651 161.226 164.387 161.416 161.177 161.786" stroke="#EAC2B2" stroke-opacity="0.05" stroke-width="2.5823" stroke-miterlimit="10"/>
<path d="M161.177 161.788C170.099 113.211 210.683 76.4883 259.57 76.4883C308.45 76.4883 349.597 113.22 358.528 161.788" stroke="#EAC2B2" stroke-opacity="0.05" stroke-width="2.5823" stroke-miterlimit="10"/>
<path d="M358.529 161.787C355.317 161.417 352.057 161.227 348.752 161.227C301.432 161.227 262.778 200.17 260.291 249.187" stroke="#EAC2B2" stroke-opacity="0.05" stroke-width="2.5823" stroke-miterlimit="10"/>
<path d="M339.929 118.099C293.043 136.067 259.571 183.292 259.571 238.724C259.571 242.732 259.746 246.701 260.09 250.619" stroke="#EAC2B2" stroke-opacity="0.05" stroke-width="2.5823" stroke-miterlimit="10"/>
</g>
</svg>
