<svg width="335" height="273" viewBox="0 0 335 273" fill="none" xmlns="http://www.w3.org/2000/svg">
<mask id="mask0_5732_36005" style="mask-type:alpha" maskUnits="userSpaceOnUse" x="0" y="0" width="335" height="273">
<path d="M36 273C16.1178 273 -7.05414e-07 256.882 -1.57559e-06 237L-1.19482e-05 0L335 -1.46249e-05L335 237C335 256.882 318.882 273 299 273L36 273Z" fill="#D9D9D9"/>
</mask>
<g mask="url(#mask0_5732_36005)">
<path d="M294.847 344.29C268.205 332.033 249.499 306.089 248.932 276.065C248.142 234.231 282.87 200.316 326.501 200.316" stroke="#EAC2B2" stroke-opacity="0.05" stroke-miterlimit="10"/>
<path d="M210.097 -165.645L387.251 1.32479" stroke="#EAC2B2" stroke-opacity="0.05" stroke-miterlimit="10"/>
<path d="M324.095 9.42529C303.477 14.5413 288.527 32.3077 288.927 53.4386C288.939 54.1019 288.967 54.7617 289.009 55.4171" stroke="#EAC2B2" stroke-opacity="0.05" stroke-miterlimit="10"/>
<path d="M183.006 -123.465L388.67 70.5002" stroke="#EAC2B2" stroke-opacity="0.05" stroke-miterlimit="10"/>
<path d="M386.478 -50.7614C351.685 -50.7614 323.993 -23.4561 324.63 10.2277" stroke="#EAC2B2" stroke-opacity="0.05" stroke-miterlimit="10"/>
<path d="M288.882 56.2899C262.704 68.5477 244.977 94.491 245.544 124.514C246.335 166.35 282.345 200.264 325.975 200.264" stroke="#EAC2B2" stroke-opacity="0.05" stroke-miterlimit="10"/>
<path d="M325.776 199.668L336.776 199.668" stroke="#EAC2B2" stroke-opacity="0.05" stroke-miterlimit="10"/>
<path d="M203.599 343.949C229.781 331.692 247.506 305.748 246.939 275.724C246.148 233.89 210.139 199.975 166.508 199.975" stroke="#EAC2B2" stroke-opacity="0.05" stroke-miterlimit="10"/>
<path d="M268.976 -165.489L98.1293 1.48167" stroke="#EAC2B2" stroke-opacity="0.05" stroke-miterlimit="10"/>
<path d="M162.159 9.38846C182.973 14.5044 198.591 32.2708 198.99 53.4018C199.003 54.0651 198.999 54.7249 198.982 55.3803" stroke="#EAC2B2" stroke-opacity="0.05" stroke-miterlimit="10"/>
<path d="M298.185 -123.633L99.8482 70.3319" stroke="#EAC2B2" stroke-opacity="0.05" stroke-miterlimit="10"/>
<path d="M97.6812 -50.9228C132.475 -50.9228 161.197 -23.6175 161.833 10.0664" stroke="#EAC2B2" stroke-opacity="0.05" stroke-miterlimit="10"/>
<path d="M199.016 56.2507C225.661 68.5085 244.366 94.4518 244.933 124.475C245.723 166.311 210.994 200.225 167.363 200.225" stroke="#EAC2B2" stroke-opacity="0.05" stroke-miterlimit="10"/>
<path d="M167.278 200.237L157.278 200.237" stroke="#EAC2B2" stroke-opacity="0.05" stroke-miterlimit="10"/>
<path d="M39.3799 200.157L54.3799 200.157" stroke="#EAC2B2" stroke-opacity="0.05" stroke-miterlimit="10"/>
<path d="M2.52491 55.3513L102.306 149.631L51.1833 199.852L104.202 250.02L7.98261 344.3" stroke="#EAC2B2" stroke-opacity="0.05" stroke-miterlimit="10"/>
<path d="M8.3057 343.873C-18.3368 331.616 -37.0422 305.672 -37.6093 275.648C-38.3994 233.814 -3.67045 199.899 39.96 199.899" stroke="#EAC2B2" stroke-opacity="0.05" stroke-miterlimit="10"/>
<path d="M-76.4438 -166.063L100.71 0.90743" stroke="#EAC2B2" stroke-opacity="0.05" stroke-miterlimit="10"/>
<path d="M37.5542 9.00797C16.9334 14.124 1.98641 31.8903 2.38553 53.0213C2.39806 53.6846 2.42635 54.3444 2.46699 54.9998" stroke="#EAC2B2" stroke-opacity="0.05" stroke-miterlimit="10"/>
<path d="M-103.535 -123.883L102.128 70.0829" stroke="#EAC2B2" stroke-opacity="0.05" stroke-miterlimit="10"/>
<path d="M-37.7769 18.0977C-38.5271 20.7271 -38.9037 23.5039 -38.8495 26.3776C-38.5395 42.7883 -24.31 56.0909 -7.06333 56.0909C-3.27621 56.0909 0.340376 55.45 3.67746 54.2751" stroke="#EAC2B2" stroke-opacity="0.05" stroke-miterlimit="10"/>
<path d="M99.9365 -51.1788C65.1445 -51.1788 37.4523 -23.8735 38.0885 9.81034" stroke="#EAC2B2" stroke-opacity="0.05" stroke-miterlimit="10"/>
<path d="M2.34069 55.8726C-23.8388 68.1304 -41.5641 94.0737 -40.997 124.097C-40.2068 165.933 -4.19665 199.847 39.4338 199.847" stroke="#EAC2B2" stroke-opacity="0.05" stroke-miterlimit="10"/>
<path d="M289.066 55.7686L388.847 150.049L337.726 200.269L390.743 250.437L294.524 344.717" stroke="#EAC2B2" stroke-opacity="0.05" stroke-miterlimit="10"/>
<path d="M199.003 55.1736L102.784 149.454L155.802 199.674L104.68 249.842L204.461 344.122" stroke="#EAC2B2" stroke-opacity="0.05" stroke-miterlimit="10"/>
</g>
</svg>
