<svg width="783" height="353" viewBox="0 0 783 353" fill="none" xmlns="http://www.w3.org/2000/svg">
<mask id="mask0_3334_10888" style="mask-type:alpha" maskUnits="userSpaceOnUse" x="0" y="0" width="783" height="353">
<path d="M0 0H783V303C783 330.614 760.614 353 733 353H50C22.3858 353 0 330.614 0 303V0Z" fill="#484848"/>
<path d="M1.25 1.25H781.75V303C781.75 329.924 759.924 351.75 733 351.75H50C23.0761 351.75 1.25 329.924 1.25 303V1.25Z" stroke="#EAC2B2" stroke-opacity="0.05" stroke-width="2.5"/>
</mask>
<g mask="url(#mask0_3334_10888)">
<path d="M294.095 149.86C358.628 172.164 404.699 230.794 404.699 299.609C404.699 304.587 404.458 309.513 403.988 314.375" stroke="#EAC2B2" stroke-opacity="0.05" stroke-width="2" stroke-miterlimit="10"/>
<path d="M403.71 312.599C400.288 251.746 347.084 203.402 281.951 203.402C277.404 203.402 272.915 203.636 268.497 204.098" stroke="#EAC2B2" stroke-opacity="0.05" stroke-width="2" stroke-miterlimit="10"/>
<path d="M268.497 204.098C280.776 143.787 336.637 98.2001 403.927 98.2001C471.207 98.2001 527.844 143.801 540.132 204.098" stroke="#EAC2B2" stroke-opacity="0.05" stroke-width="2" stroke-miterlimit="10"/>
<path d="M540.134 204.098C535.718 203.636 531.227 203.402 526.678 203.402C461.548 203.402 408.342 251.746 404.92 312.599" stroke="#EAC2B2" stroke-opacity="0.05" stroke-width="2" stroke-miterlimit="10"/>
<path d="M514.528 149.86C449.994 172.164 403.922 230.794 403.922 299.609C403.922 304.587 404.162 309.513 404.633 314.375" stroke="#EAC2B2" stroke-opacity="0.05" stroke-width="2" stroke-miterlimit="10"/>
<path d="M188.875 0.00041269L-110.786 283.749" stroke="#EAC2B2" stroke-opacity="0.05" stroke-width="2" stroke-miterlimit="10"/>
<path d="M267.047 205.705C220.827 205.705 183.364 170.236 183.364 126.482C183.364 125.328 183.391 124.178 183.439 123.037" stroke="#EAC2B2" stroke-opacity="0.05" stroke-width="2" stroke-miterlimit="10"/>
<path d="M0.83252 297.757C36.7507 306.667 63.2463 337.602 63.2463 374.397C63.2463 375.553 63.2189 376.702 63.1699 377.845" stroke="#EAC2B2" stroke-opacity="0.05" stroke-width="2" stroke-miterlimit="10"/>
<path d="M242.952 67.8885L-110.786 402.775" stroke="#EAC2B2" stroke-opacity="0.05" stroke-width="2" stroke-miterlimit="10"/>
<path d="M292.157 151.952C261.674 148.696 237.983 124.205 237.983 94.4754C237.983 84.89 240.445 75.8481 244.807 67.8882" stroke="#EAC2B2" stroke-opacity="0.05" stroke-width="2" stroke-miterlimit="10"/>
<path d="M244.813 67.889C214.328 64.6346 190.749 40.1423 190.749 10.4134C190.749 6.8591 191.086 3.37938 191.735 0.00133219" stroke="#EAC2B2" stroke-opacity="0.05" stroke-width="2" stroke-miterlimit="10"/>
<path d="M182.996 125.065C120.579 125.065 69.9829 77.1651 69.9829 18.0756C69.9829 11.9149 70.5318 5.87514 71.5867 0.00092613" stroke="#EAC2B2" stroke-opacity="0.05" stroke-width="2" stroke-miterlimit="10"/>
<path d="M510.933 7.18892e-05C508.317 26.2281 485.577 46.15 457.083 46.15" stroke="#EAC2B2" stroke-opacity="0.05" stroke-width="2" stroke-miterlimit="10"/>
<path d="M457.08 46.1517C457.08 74.8414 432.512 98.0994 402.208 98.0994C371.903 98.0994 347.335 74.8414 347.335 46.1517" stroke="#EAC2B2" stroke-opacity="0.05" stroke-width="2" stroke-miterlimit="10"/>
<path d="M347.337 46.1503C319.101 46.1503 296.193 25.9601 293.194 0.00031603" stroke="#EAC2B2" stroke-opacity="0.05" stroke-width="2" stroke-miterlimit="10"/>
<path d="M267.93 205.634C264.852 231.508 241.66 251.618 213.506 251.618C208.648 251.618 203.936 251.019 199.452 249.894" stroke="#EAC2B2" stroke-opacity="0.05" stroke-width="2" stroke-miterlimit="10"/>
<path d="M199.45 249.893C200.627 254.123 201.257 258.56 201.257 263.138C201.257 291.774 176.738 314.989 146.489 314.989C141.629 314.989 136.923 314.388 132.437 313.263" stroke="#EAC2B2" stroke-opacity="0.05" stroke-width="2" stroke-miterlimit="10"/>
<path d="M132.441 313.264C133.843 317.848 134.596 322.697 134.596 327.712C134.596 356.347 110.079 379.561 79.8281 379.561C73.1855 379.561 66.8208 378.442 60.9287 376.392" stroke="#EAC2B2" stroke-opacity="0.05" stroke-width="2" stroke-miterlimit="10"/>
<path d="M-110.845 193.434C-49.5536 193.434 0.138708 240.475 0.138708 298.502" stroke="#EAC2B2" stroke-opacity="0.05" stroke-width="2" stroke-miterlimit="10"/>
<path d="M619.193 0.00041269L918.857 283.749" stroke="#EAC2B2" stroke-opacity="0.05" stroke-width="2" stroke-miterlimit="10"/>
<path d="M541.017 205.705C587.234 205.705 624.699 170.236 624.699 126.482C624.699 125.328 624.677 124.178 624.622 123.037" stroke="#EAC2B2" stroke-opacity="0.05" stroke-width="2" stroke-miterlimit="10"/>
<path d="M807.234 297.757C771.318 306.667 744.824 337.602 744.824 374.397C744.824 375.553 744.847 376.702 744.898 377.845" stroke="#EAC2B2" stroke-opacity="0.05" stroke-width="2" stroke-miterlimit="10"/>
<path d="M565.112 67.8885L918.85 402.775" stroke="#EAC2B2" stroke-opacity="0.05" stroke-width="2" stroke-miterlimit="10"/>
<path d="M515.906 151.952C546.389 148.696 570.079 124.205 570.079 94.4754C570.079 84.89 567.615 75.8481 563.256 67.8882" stroke="#EAC2B2" stroke-opacity="0.05" stroke-width="2" stroke-miterlimit="10"/>
<path d="M563.263 67.889C593.747 64.6346 617.326 40.1423 617.326 10.4134C617.326 6.8591 616.989 3.37938 616.34 0.00133219" stroke="#EAC2B2" stroke-opacity="0.05" stroke-width="2" stroke-miterlimit="10"/>
<path d="M625.066 125.065C687.482 125.065 738.082 77.1651 738.082 18.0756C738.082 11.9149 737.529 5.87514 736.474 0.00092613" stroke="#EAC2B2" stroke-opacity="0.05" stroke-width="2" stroke-miterlimit="10"/>
<path d="M540.13 205.634C543.211 231.508 566.401 251.618 594.554 251.618C599.413 251.618 604.126 251.019 608.61 249.894" stroke="#EAC2B2" stroke-opacity="0.05" stroke-width="2" stroke-miterlimit="10"/>
<path d="M608.609 249.893C607.433 254.123 606.801 258.56 606.801 263.138C606.801 291.774 631.323 314.989 661.569 314.989C666.429 314.989 671.136 314.388 675.623 313.263" stroke="#EAC2B2" stroke-opacity="0.05" stroke-width="2" stroke-miterlimit="10"/>
<path d="M675.626 313.264C674.222 317.848 673.469 322.697 673.469 327.712C673.469 356.347 697.99 379.561 728.237 379.561C734.882 379.561 741.249 378.442 747.138 376.392" stroke="#EAC2B2" stroke-opacity="0.05" stroke-width="2" stroke-miterlimit="10"/>
</g>
</svg>
