<svg width="518" height="307" viewBox="0 0 518 307" fill="none" xmlns="http://www.w3.org/2000/svg">
<mask id="mask0_3811_23139" style="mask-type:alpha" maskUnits="userSpaceOnUse" x="4" y="0" width="510" height="299">
<path d="M54 299C26.3858 299 4 276.614 4 249L3.99999 3.05176e-05L514 8.22477e-06L514 249C514 276.614 491.614 299 464 299L54 299Z" fill="#D9D9D9"/>
</mask>
<g mask="url(#mask0_3811_23139)">
<path d="M107.554 -3.39177L-110.129 225.143" stroke="#EAC2B2" stroke-opacity="0.05" stroke-width="2.5823" stroke-miterlimit="10"/>
<path d="M164.347 162.285C130.774 162.285 103.559 133.718 103.559 98.478C103.559 97.5484 103.575 96.6223 103.615 95.7029" stroke="#EAC2B2" stroke-opacity="0.05" stroke-width="2.5823" stroke-miterlimit="10"/>
<path d="M-29.0469 236.427C-2.95766 243.603 16.2906 268.519 16.2906 298.153C16.2906 299.085 16.2726 300.01 16.2341 300.931" stroke="#EAC2B2" stroke-opacity="0.05" stroke-width="2.5823" stroke-miterlimit="10"/>
<path d="M146.84 51.2851L-110.129 321.007" stroke="#EAC2B2" stroke-opacity="0.05" stroke-width="2.5823" stroke-miterlimit="10"/>
<path d="M182.586 118.99C160.441 116.368 143.23 96.6425 143.23 72.6979C143.23 64.9777 145.021 57.6953 148.189 51.2843" stroke="#EAC2B2" stroke-opacity="0.05" stroke-width="2.5823" stroke-miterlimit="10"/>
<path d="M148.19 51.2852C126.045 48.664 108.914 28.9376 108.914 4.99364C108.914 2.13093 109.16 -0.671672 109.631 -3.39239" stroke="#EAC2B2" stroke-opacity="0.05" stroke-width="2.5823" stroke-miterlimit="10"/>
<path d="M103.291 97.3379C57.9507 97.3379 21.1953 58.7584 21.1953 11.1671C21.1953 6.20517 21.5941 1.34071 22.3614 -3.39045" stroke="#EAC2B2" stroke-opacity="0.05" stroke-width="2.5823" stroke-miterlimit="10"/>
<path d="M341.507 -3.39138C339.606 17.733 323.09 33.7783 302.391 33.7783" stroke="#EAC2B2" stroke-opacity="0.05" stroke-width="2.5823" stroke-miterlimit="10"/>
<path d="M302.394 33.7789C302.394 56.8859 284.548 75.6182 262.532 75.6182C240.516 75.6182 222.672 56.8859 222.672 33.7789" stroke="#EAC2B2" stroke-opacity="0.05" stroke-width="2.5823" stroke-miterlimit="10"/>
<path d="M222.67 33.7773C202.158 33.7773 185.518 17.5159 183.34 -3.39235" stroke="#EAC2B2" stroke-opacity="0.05" stroke-width="2.5823" stroke-miterlimit="10"/>
<path d="M164.987 162.23C162.752 183.07 145.905 199.267 125.454 199.267C121.923 199.267 118.501 198.784 115.242 197.878" stroke="#EAC2B2" stroke-opacity="0.05" stroke-width="2.5823" stroke-miterlimit="10"/>
<path d="M115.242 197.874C116.097 201.28 116.557 204.854 116.557 208.541C116.557 231.605 98.7433 250.303 76.7704 250.303C73.2405 250.303 69.8217 249.818 66.5625 248.913" stroke="#EAC2B2" stroke-opacity="0.05" stroke-width="2.5823" stroke-miterlimit="10"/>
<path d="M66.5639 248.916C67.583 252.608 68.1281 256.514 68.1281 260.553C68.1281 283.615 50.3167 302.312 28.3434 302.312C23.5184 302.312 18.8939 301.411 14.6133 299.76" stroke="#EAC2B2" stroke-opacity="0.05" stroke-width="2.5823" stroke-miterlimit="10"/>
<path d="M420.16 -3.39177L637.843 225.143" stroke="#EAC2B2" stroke-opacity="0.05" stroke-width="2.5823" stroke-miterlimit="10"/>
<path d="M363.367 162.287C396.94 162.287 424.155 133.72 424.155 98.4799C424.155 97.5504 424.138 96.6243 424.099 95.7048" stroke="#EAC2B2" stroke-opacity="0.05" stroke-width="2.5823" stroke-miterlimit="10"/>
<path d="M380.871 51.2851L637.839 321.007" stroke="#EAC2B2" stroke-opacity="0.05" stroke-width="2.5823" stroke-miterlimit="10"/>
<path d="M345.129 118.99C367.271 116.368 384.481 96.6425 384.481 72.6979C384.481 64.9777 382.691 57.6953 379.523 51.2843" stroke="#EAC2B2" stroke-opacity="0.05" stroke-width="2.5823" stroke-miterlimit="10"/>
<path d="M379.52 51.2852C401.665 48.664 418.796 28.9376 418.796 4.99364C418.796 2.13093 418.549 -0.671672 418.078 -3.39239" stroke="#EAC2B2" stroke-opacity="0.05" stroke-width="2.5823" stroke-miterlimit="10"/>
<path d="M424.422 97.3369C469.762 97.3369 506.52 58.7574 506.52 11.1661C506.52 6.20419 506.121 1.33973 505.353 -3.39143" stroke="#EAC2B2" stroke-opacity="0.05" stroke-width="2.5823" stroke-miterlimit="10"/>
<path d="M362.73 162.228C364.966 183.068 381.812 199.265 402.263 199.265C405.792 199.265 409.214 198.782 412.475 197.876" stroke="#EAC2B2" stroke-opacity="0.05" stroke-width="2.5823" stroke-miterlimit="10"/>
<path d="M412.465 197.874C411.609 201.28 411.148 204.854 411.148 208.541C411.148 231.605 428.962 250.303 450.936 250.303C454.466 250.303 457.887 249.818 461.145 248.913" stroke="#EAC2B2" stroke-opacity="0.05" stroke-width="2.5823" stroke-miterlimit="10"/>
<path d="M183.77 118.099C230.655 136.067 264.127 183.292 264.127 238.724C264.127 242.732 263.953 246.701 263.609 250.619" stroke="#EAC2B2" stroke-opacity="0.05" stroke-width="2.5823" stroke-miterlimit="10"/>
<path d="M263.411 249.186C260.926 200.169 222.271 161.226 174.952 161.226C171.65 161.226 168.386 161.416 165.176 161.786" stroke="#EAC2B2" stroke-opacity="0.05" stroke-width="2.5823" stroke-miterlimit="10"/>
<path d="M165.176 161.788C174.098 113.211 214.682 76.4883 263.569 76.4883C312.449 76.4883 353.596 113.22 362.527 161.788" stroke="#EAC2B2" stroke-opacity="0.05" stroke-width="2.5823" stroke-miterlimit="10"/>
<path d="M362.527 161.787C359.315 161.417 356.055 161.227 352.75 161.227C305.43 161.227 266.776 200.169 264.289 249.186" stroke="#EAC2B2" stroke-opacity="0.05" stroke-width="2.5823" stroke-miterlimit="10"/>
<path d="M343.928 118.099C297.042 136.067 263.57 183.292 263.57 238.724C263.57 242.732 263.745 246.701 264.089 250.619" stroke="#EAC2B2" stroke-opacity="0.05" stroke-width="2.5823" stroke-miterlimit="10"/>
</g>
</svg>
