<svg
  viewBox="0 0 1599 170"
  fill="none"
  xmlns="http://www.w3.org/2000/svg"
  class="chronology__timeline__img">
  <path
    d="M133.82 81.0534C98.8571 77.7031 71.5873 47.4464 71.5873 11.8355C71.5873 9.27845 71.7215 6.70052 72.0003 4.15391L72.4546 0L68.3967 0.793208C28.7567 8.52699 0 43.9187 0 84.9568C0 125.995 28.7567 160.927 68.3863 168.651L72.4443 169.444L71.99 165.29C71.7215 162.754 71.5769 160.165 71.5769 157.608C71.5769 121.998 98.8468 91.7408 133.809 88.3905M65.5984 7.72334C64.0393 37.3852 80.4982 65.7424 106.281 79.2165C75.8621 71.8793 50.4198 49.7321 38.9274 20.2268C47.064 14.3195 56.0266 10.1134 65.5984 7.71291V7.72334ZM65.4848 157.608C65.4848 158.965 65.5261 160.343 65.5984 161.721C56.0266 159.331 47.0537 155.135 38.9068 149.248C50.3785 119.733 75.8311 97.5751 106.261 90.2274C81.6547 103.086 65.4952 129.439 65.4952 157.608H65.4848ZM33.8886 145.324C30.0371 142.036 26.5058 138.384 23.3771 134.459C12.2358 120.453 6.09209 102.867 6.09209 84.9568C6.09209 67.047 12.2255 49.2207 23.3771 35.1308C26.5058 31.1752 30.0474 27.4909 33.9092 24.1824C46.176 54.1469 71.7628 76.5655 102.863 84.7272C71.7421 92.8889 46.145 115.339 33.8886 145.335V145.324Z"
    fill="#EAB7A1" />
  <path
    d="M1525.49 84.5876H133.493"
    stroke="#EAB7A1"
    stroke-width="7"
    stroke-miterlimit="10" />
  <path
    d="M1525.94 44.3986L1591.74 85.8959L1525.94 127.393V44.3986Z"
    stroke="#EAB7A1"
    stroke-width="7"
    stroke-miterlimit="10" />
</svg>