<?xml version="1.0" encoding="utf-8"?><svg xmlns="http://www.w3.org/2000/svg" xmlns:xlink="http://www.w3.org/1999/xlink"><symbol fill="none" viewBox="0 0 122 129" id="angle-1" xmlns="http://www.w3.org/2000/svg"><path d="M122 4H48.047c0 24.422-19.72 44.221-44.047 44.221V129" stroke="#E6AF9A" stroke-width="7" stroke-miterlimit="10"/></symbol><symbol fill="none" viewBox="0 0 122 129" id="angle-2" xmlns="http://www.w3.org/2000/svg"><path d="M0 4h73.953c0 24.422 19.72 44.221 44.047 44.221V129" stroke="#E6AF9A" stroke-width="7" stroke-miterlimit="10"/></symbol><symbol fill="none" viewBox="0 0 122 129" id="angle-3" xmlns="http://www.w3.org/2000/svg"><path d="M122 125H48.047c0-24.423-19.72-44.221-44.047-44.221V0" stroke="#E6AF9A" stroke-width="7" stroke-miterlimit="10"/></symbol><symbol fill="none" viewBox="0 0 122 129" id="angle-4" xmlns="http://www.w3.org/2000/svg"><path d="M0 125h73.953c0-24.423 19.72-44.221 44.047-44.221V0" stroke="#E6AF9A" stroke-width="7" stroke-miterlimit="10"/></symbol><symbol fill="none" viewBox="0 0 24 24" id="arrow-up-and-down" xmlns="http://www.w3.org/2000/svg"><path d="M10.45 6.72 6.73 3 3.01 6.72M6.73 21V3M13.55 17.281l3.72 3.72 3.72-3.72M17.27 3v18" stroke="#29354D" stroke-width="1.5" stroke-linecap="round" stroke-linejoin="round"/></symbol><symbol fill="none" viewBox="0 0 28 29" id="bag" xmlns="http://www.w3.org/2000/svg"><path d="M8.75 9.448V8.317c0-2.625 2.111-5.204 4.736-5.449 3.127-.303 5.764 2.159 5.764 5.227v1.61M10.5 26.167h7c4.69 0 5.53-1.879 5.775-4.165l.875-7c.315-2.847-.502-5.169-5.483-5.169H9.332c-4.982 0-5.798 2.322-5.483 5.169l.875 7c.245 2.286 1.085 4.165 5.775 4.165ZM18.078 14.5h.01M9.91 14.5h.01"/></symbol><symbol viewBox="0 0 70 70" fill="none" id="catalog-arrow-left" xmlns="http://www.w3.org/2000/svg"><rect width="70" height="70" rx="35" fill="#FFF9EE"/><path d="M22 34.25a.75.75 0 0 0 0 1.5v-1.5Zm26.53 1.28a.75.75 0 0 0 0-1.06l-4.773-4.773a.75.75 0 0 0-1.06 1.06L46.939 35l-4.242 4.243a.75.75 0 0 0 1.06 1.06l4.773-4.773ZM22 35.75h26v-1.5H22v1.5Z" fill="#29354D"/></symbol><symbol viewBox="0 0 70 70" fill="none" id="catalog-arrow-right" xmlns="http://www.w3.org/2000/svg"><rect width="70" height="70" rx="35" fill="#FFF9EE"/><path d="M22 34.25a.75.75 0 0 0 0 1.5v-1.5Zm26.53 1.28a.75.75 0 0 0 0-1.06l-4.773-4.773a.75.75 0 0 0-1.06 1.06L46.939 35l-4.242 4.243a.75.75 0 0 0 1.06 1.06l4.773-4.773ZM22 35.75h26v-1.5H22v1.5Z" fill="#29354D"/></symbol><symbol class="aitime-icon" viewBox="0 0 21 21" fill="none" id="clock" xmlns="http://www.w3.org/2000/svg"><path d="M19.216 10.5c0 4.787-3.884 8.671-8.67 8.671a8.674 8.674 0 0 1-8.671-8.67c0-4.786 3.884-8.67 8.67-8.67 4.787 0 8.671 3.884 8.671 8.67Z" stroke="#29354D" stroke-linecap="round" stroke-linejoin="round"/><path d="m13.76 13.258-2.688-1.604c-.468-.278-.85-.945-.85-1.492V6.607" stroke="#29354D" stroke-linecap="round" stroke-linejoin="round"/></symbol><symbol fill="none" viewBox="0 0 207 193" id="composition-1" xmlns="http://www.w3.org/2000/svg"><g clip-path="url(#aja)" stroke="#FFF9EE" stroke-width="2" stroke-linecap="round" stroke-linejoin="round"><path d="M103.94 174.37H30v-32h14.4l-.05 1.48c0 .19-.01.38-.01.57 0 12.06 10.15 21.87 22.63 21.87 12.48 0 22.63-9.81 22.63-21.87 0-.22 0-.43-.02-.65l-.06-1.41h14.41v32l.01.01ZM66.39 60.34c-6.15 0-11.15-4.86-11.15-10.83s5-10.83 11.15-10.83 11.15 4.86 11.15 10.83-5 10.83-11.15 10.83ZM66.48 94.63l36.25 47.6h-72.5l36.25-47.6Z"/><path d="M32.38 80.01h68.2l-.06 1.59c-.62 17.93-15.58 31.97-34.05 31.97S33.05 99.52 32.43 81.59L32.37 80l.01.01ZM175.2 174.37h-70.92v-32h13.82l-.05 1.48c0 .19-.01.38-.01.57 0 12.06 9.74 21.87 21.7 21.87 11.96 0 21.7-9.81 21.7-21.87 0-.22 0-.43-.02-.65l-.05-1.41h13.82v32l.01.01ZM139.49 142.79v23.14M66.52 60.66v34.61M66.52 19v19.36M140.68 60.34c-6.15 0-11.15-4.86-11.15-10.83s5-10.83 11.15-10.83 11.15 4.86 11.15 10.83-5 10.83-11.15 10.83ZM140.76 62.77l33.83 44.43h-67.66l33.84-44.43h-.01ZM174.86 141.72h-68.2l.06-1.59c.62-17.93 15.58-31.97 34.05-31.97s33.43 14.04 34.05 31.97l.06 1.59h-.02ZM140.8 19v19.36"/></g><path d="M198.428 15.97c-.629-.037-1.085-.61-1.092-1.242a5.175 5.175 0 0 0-5.091-5.082c-.632-.01-1.203-.463-1.243-1.09a1.161 1.161 0 0 1 1.16-1.23 5.177 5.177 0 0 0 5.174-5.08c.011-.63.46-1.208 1.096-1.244a1.16 1.16 0 0 1 1.232 1.159c0 2.819 2.274 5.118 5.087 5.164.633.011 1.211.46 1.247 1.09a1.161 1.161 0 0 1-1.16 1.23c-2.853 0-5.174 2.318-5.174 5.166 0 .663-.557 1.198-1.232 1.158h-.004Z" stroke="#FFF9EE" stroke-width="2" stroke-miterlimit="10"/><circle cx="5" cy="114" r="5" fill="#FFF9EE"/><defs><clipPath id="aja"><path fill="#fff" transform="translate(29 18)" d="M0 0h147.2v157.37H0z"/></clipPath></defs></symbol><symbol fill="none" viewBox="0 0 176 161" id="composition-2" xmlns="http://www.w3.org/2000/svg"><g clip-path="url(#aka)" stroke="#FFF9EE" stroke-width="2" stroke-linecap="round" stroke-linejoin="round"><path d="M61.43 149.7C38.74 149.7 20 132.59 20 111.74V73.17h83.04v37.76c0 21.3-18.44 38.77-41.61 38.77Z"/><path d="M91.83 159.59H31.22l19.28-11.46c5.22 1.66 10.94 1.57 10.94 1.57s5.89.09 11.13-1.57l19.28 11.46h-.02Z"/><path d="M61.43 149.7s-3.95-47.02 41.61-47.02"/><path d="M61.43 149.7s4.13-47.02-41.43-47.02"/><path d="M61.43 149.7s-5.62-33.42 39.94-33.42"/><path d="M61.43 149.7s5.53-33.02-40.03-33.02"/><path d="M61.43 149.7S57.58 131.48 97 129.94"/><path d="M26.21 131.14c39.43 1.55 35.23 18.56 35.23 18.56l.09-76.52M64.94 30.32h100.73l-50.36 56.11-50.37-56.11Z"/><path d="M89.46 40.36h51.69l-25.84 28.8-25.85-28.8ZM143.77 159.58H86.84l28.52-15.59 28.41 15.59ZM115.31 86.43v57.56M115.31 69.16v-28.8M102.69 40.36l12.62 28.8M127.93 40.36l-12.62 28.8M166.62 3.92c.878 0 1.59-.654 1.59-1.46 0-.806-.712-1.46-1.59-1.46-.878 0-1.59.654-1.59 1.46 0 .806.712 1.46 1.59 1.46ZM161.61 20.24c0 5.49-4.4 9.95-9.84 9.95-5.44 0-9.84-4.45-9.84-9.95 0-5.5 4.4-9.95 9.84-9.95 5.44 0 9.84 4.45 9.84 9.95Z"/><path d="M154.69 18.67s10.51-5.07 11.93-16.21"/></g><path d="M8.428 52.998c-.629-.036-1.085-.611-1.092-1.243a5.18 5.18 0 0 0-5.09-5.093c-.633-.01-1.204-.463-1.244-1.092a1.162 1.162 0 0 1 1.16-1.233 5.181 5.181 0 0 0 5.174-5.088c.01-.632.46-1.211 1.096-1.247a1.162 1.162 0 0 1 1.232 1.16 5.181 5.181 0 0 0 5.087 5.175c.633.011 1.211.46 1.247 1.093a1.162 1.162 0 0 1-1.16 1.233 5.18 5.18 0 0 0-5.174 5.174c0 .665-.557 1.2-1.232 1.16h-.004Z" stroke="#FFF9EE" stroke-width="2" stroke-miterlimit="10"/><circle cx="165.5" cy="104.5" r="9.5" stroke="#FFF9EE" stroke-width="2"/><defs><clipPath id="aka"><path fill="#fff" transform="translate(19)" d="M0 0h150.21v160.59H0z"/></clipPath></defs></symbol><symbol fill="none" viewBox="0 0 158 168" id="composition-3" xmlns="http://www.w3.org/2000/svg"><mask id="ala" style="mask-type:luminance" maskUnits="userSpaceOnUse" x="80" y="34" width="77" height="133"><path d="M132.01 166.199h-26.89c-15.11 0-26.71-20.93-24.54-44.29l8.08-87.22h59.83l8.08 87.22c2.16 23.36-9.43 44.29-24.54 44.29h-.02Z" fill="#fff"/></mask><g mask="url(#ala)" stroke="#FFF9EE" stroke-width="2" stroke-linecap="round" stroke-linejoin="round"><path d="m80.46 136.85 12.42 20 12.42-20 12.42 20 12.43-20 12.42 20 12.43-20"/><path d="m80.46 152.97 12.42 20 12.42-20 12.42 20 12.43-20 12.42 20 12.43-20M80.46 120.729l12.42 20 12.42-20 12.42 20 12.43-20 12.42 20 12.43-20"/><path d="m80.46 104.61 12.42 20 12.42-20 12.42 20 12.43-20 12.42 20 12.43-20"/><path d="m80.46 88.49 12.42 20 12.42-20 12.42 20 12.43-20 12.42 20 12.43-20"/></g><path d="M132.01 166.199h-26.89c-15.11 0-26.71-20.93-24.54-44.29l8.08-87.22h59.83l8.08 87.22c2.16 23.36-9.43 44.29-24.54 44.29h-.02Z" stroke="#FFF9EE" stroke-width="2" stroke-linecap="round" stroke-linejoin="round"/><path d="M132.01 166.199h-26.89c-15.11 0-26.71-20.93-24.54-44.29l8.08-87.22h59.83l8.08 87.22c2.16 23.36-9.43 44.29-24.54 44.29h-.02ZM71.28 91.2 8.27 166.25h70.19V80.66h-9.31L8 152.29v4.92M136.05 9l-25.41 74.67" stroke="#FFF9EE" stroke-width="2" stroke-linecap="round" stroke-linejoin="round"/><path d="M63.16 119.19a1.54 1.54 0 1 0 0-3.08 1.54 1.54 0 0 0 0 3.08ZM54.41 126.91a1.54 1.54 0 1 0 0-3.08 1.54 1.54 0 0 0 0 3.08ZM66.73 133.56a1.54 1.54 0 1 0 0-3.08 1.54 1.54 0 0 0 0 3.08ZM55.73 137.2a1.54 1.54 0 1 0 0-3.08 1.54 1.54 0 0 0 0 3.08ZM37.65 142.95a1.54 1.54 0 1 0 .001-3.08 1.54 1.54 0 0 0 0 3.08ZM51.06 147.32a1.54 1.54 0 1 0 0-3.08 1.54 1.54 0 0 0 0 3.08ZM66.36 149.16a1.54 1.54 0 1 0 0-3.08 1.54 1.54 0 0 0 0 3.08ZM38.08 155.33a1.54 1.54 0 1 0 0-3.08 1.54 1.54 0 0 0 0 3.08ZM58.43 157.61a1.54 1.54 0 1 0 0-3.08 1.54 1.54 0 0 0 0 3.08ZM46.38 158.91a1.54 1.54 0 1 0 0-3.08 1.54 1.54 0 0 0 0 3.08ZM70.82 115.48a1.54 1.54 0 1 0 0-3.08 1.54 1.54 0 0 0 0 3.08Z" fill="#FFF9EE" stroke="#FFF9EE" stroke-width="2" stroke-linecap="round" stroke-linejoin="round"/><path d="M30.428 27.998c-.629-.036-1.085-.611-1.092-1.243a5.18 5.18 0 0 0-5.09-5.092c-.633-.011-1.204-.464-1.244-1.093a1.162 1.162 0 0 1 1.16-1.233 5.181 5.181 0 0 0 5.174-5.088c.01-.632.46-1.211 1.096-1.247a1.162 1.162 0 0 1 1.232 1.16 5.181 5.181 0 0 0 5.087 5.175c.633.011 1.211.46 1.247 1.093a1.162 1.162 0 0 1-1.16 1.233 5.18 5.18 0 0 0-5.174 5.174c0 .665-.557 1.2-1.232 1.16h-.004Z" stroke="#FFF9EE" stroke-width="2" stroke-miterlimit="10"/><circle cx="13.5" cy="45.5" r="4.5" fill="#FFF9EE"/></symbol><symbol fill="none" viewBox="0 0 185 160" id="composition-4" xmlns="http://www.w3.org/2000/svg"><g clip-path="url(#ama)" stroke-width="2" stroke-linecap="round" stroke-linejoin="round"><path d="M113.68 35.51c-2.05-7.92-7.92-20.27-24.61-20.27-16.69 0-22.53 12.34-24.56 20.26l11.48 2.59 13.1 3.05 13.13-3.05 11.46-2.59v.01Z" stroke="#FFF9EE"/><path d="M76.7 67.14h24.81l-7.55-23.3-4.87-3.1-4.84 3.1-7.55 23.3ZM61.94 111.7c-.04.08-.08.16-.11.23 1.45 4.5 3.38 8.72 5.8 12.48l21.96 34.13 16.84-26.17 5.12-7.96c2.21-3.44 4.02-7.28 5.43-11.36-.24-.44-.48-.89-.7-1.35H61.94ZM108.96 90.12H69.25l-6.13 18.91c-.37.93-.76 1.81-1.18 2.67h54.32c-.42-.85-.81-1.74-1.18-2.67l-6.13-18.91h.01ZM108.96 90.12l-7.45-22.98H76.7l-7.45 22.98h39.71Z" stroke="#FFF9EE"/><path d="M157.27 78.83c-1.49-2.09-3.23-3.94-5.26-5.62l-8.95-6.31c-2.97 1.6-6.35 2.2-9.71 1.56-1.49-.28-2.96-.81-4.43-1.58l-18.23-12.02-16.72-11.03 7.55 23.31 7.45 22.98 6.13 18.91c.37.93.76 1.81 1.18 2.67.23.46.46.91.7 1.35.58 1.07 1.21 2.08 1.9 3.03 8.48 11.88 23.89 14.59 35.01 5.14.3-.17.48-.35.68-.66.3-.17.48-.35.68-.66 9.99-11.03 10.51-29.2 2.03-41.08l-.01.01Z" stroke="#FFF9EE"/><path d="M61.76 111.7c.02.08.05.15.07.23.04-.08.08-.15.11-.23h-.19.01Z" fill="#FFF9EE" stroke="#C93413"/><path d="M69.35 53.66 49.3 66.88c-1.48.78-2.94 1.3-4.44 1.58-3.37.64-6.74.03-9.71-1.56l-8.95 6.31a29.098 29.098 0 0 0-5.26 5.62c-8.48 11.88-7.96 30.04 2.03 41.08.2.31.38.49.68.66.2.31.38.49.68.66 11.12 9.45 26.54 6.74 35.01-5.14.92-1.29 2.6-4.39 2.6-4.39.42-.85.81-1.74 1.18-2.67l6.13-18.91 7.45-22.98 7.55-23.31-14.9 9.83ZM138.58 31.09c-1.49-.28-3.02-.33-4.64-.14l-20.26 4.57-11.46 2.59-9.43 2.13-3.21.72 1.61 1.06.12.08 2.65 1.75 16.72 11.03 18.23 12.02c1.48.78 2.94 1.3 4.43 1.58 3.37.64 6.74.03 9.71-1.56 4.54-2.43 8.14-7.17 9.36-13.32.09-.23.11-.41.09-.66.09-.23.11-.41.09-.66.87-10.39-5.52-19.56-14.02-21.18l.01-.01Z" stroke="#FFF9EE"/><path d="m85.42 40.23-9.43-2.13-11.48-2.59-20.24-4.57c-1.61-.19-3.14-.14-4.64.14-8.5 1.62-14.89 10.79-14.02 21.18-.02.25 0 .43.09.66-.02.25 0 .43.09.66 1.21 6.14 4.82 10.88 9.36 13.32 2.97 1.6 6.35 2.2 9.71 1.56 1.49-.28 2.96-.81 4.44-1.58l20.05-13.22 14.9-9.83 2.45-1.61.32-.21 1.61-1.06-3.21-.72ZM66.87 1 77.1 17.98M109.26 1 99.04 16.73" stroke="#FFF9EE"/></g><path d="M176.428 149.998c-.629-.036-1.085-.611-1.092-1.243a5.18 5.18 0 0 0-5.091-5.092c-.632-.011-1.203-.464-1.243-1.093a1.162 1.162 0 0 1 1.16-1.233 5.181 5.181 0 0 0 5.174-5.088c.011-.632.46-1.211 1.096-1.247a1.162 1.162 0 0 1 1.232 1.161 5.18 5.18 0 0 0 5.087 5.174c.633.011 1.211.46 1.247 1.093a1.162 1.162 0 0 1-1.16 1.233 5.18 5.18 0 0 0-5.174 5.174c0 .665-.557 1.2-1.232 1.161h-.004Z" stroke="#FFF9EE" stroke-width="2" stroke-miterlimit="10"/><circle cx="7.5" cy="16.5" r="6.5" stroke="#FFF9EE" stroke-width="2"/><defs><clipPath id="ama"><path fill="#fff" transform="translate(14)" d="M0 0h150.21v159.54H0z"/></clipPath></defs></symbol><symbol viewBox="0 0 24 25" id="crest" xmlns="http://www.w3.org/2000/svg"><path d="m3 4 18 18m0-18L3 22"/></symbol><symbol fill="none" viewBox="0 0 24 25" id="delivery" xmlns="http://www.w3.org/2000/svg"><path d="M11.998 14.5h1c1.1 0 2-.9 2-2v-10h-9c-1.5 0-2.81.83-3.49 2.05" stroke="#29354D" stroke-width="1.5" stroke-linecap="round" stroke-linejoin="round"/><path d="M2 17.5c0 1.66 1.34 3 3 3h1c0-1.1.9-2 2-2s2 .9 2 2h4c0-1.1.9-2 2-2s2 .9 2 2h1c1.66 0 3-1.34 3-3v-3h-3c-.55 0-1-.45-1-1v-3c0-.55.45-1 1-1h1.29l-1.71-2.99a2.016 2.016 0 0 0-1.74-1.01H15v7c0 1.1-.9 2-2 2h-1" stroke="#29354D" stroke-width="1.5" stroke-linecap="round" stroke-linejoin="round"/><path d="M8 22.5a2 2 0 1 0 0-4 2 2 0 0 0 0 4ZM16 22.5a2 2 0 1 0 0-4 2 2 0 0 0 0 4ZM22 12.5v2h-3c-.55 0-1-.45-1-1v-3c0-.55.45-1 1-1h1.29l1.71 3ZM2 8.5h6M2 11.5h4M2 14.5h2" stroke="#29354D" stroke-width="1.5" stroke-linecap="round" stroke-linejoin="round"/></symbol><symbol viewBox="0 0 40 40" fill="none" id="email" xmlns="http://www.w3.org/2000/svg"><path d="M28.213 33.964H11.785c-4.929 0-8.215-2.464-8.215-8.214v-11.5c0-5.75 3.286-8.214 8.215-8.214h16.428c4.929 0 8.215 2.464 8.215 8.214v11.5c0 5.75-3.286 8.214-8.215 8.214Z" stroke="#E6AF9A" stroke-width="2" stroke-miterlimit="10" stroke-linecap="round" stroke-linejoin="round"/><path d="m28.214 15.072-5.142 4.107c-1.693 1.347-4.469 1.347-6.161 0l-5.126-4.107" stroke="#E6AF9A" stroke-width="2" stroke-miterlimit="10" stroke-linecap="round" stroke-linejoin="round"/></symbol><symbol fill="none" viewBox="0 0 24 25" id="filter" xmlns="http://www.w3.org/2000/svg"><path d="M22 18h-7M5 18H2M22 7h-3M9 7H2M7 15h6c1.1 0 2 .5 2 2v2c0 1.5-.9 2-2 2H7c-1.1 0-2-.5-2-2v-2c0-1.5.9-2 2-2ZM11 4h6c1.1 0 2 .5 2 2v2c0 1.5-.9 2-2 2h-6c-1.1 0-2-.5-2-2V6c0-1.5.9-2 2-2Z" stroke="#29354D" stroke-width="1.5" stroke-miterlimit="10" stroke-linecap="round" stroke-linejoin="round"/></symbol><symbol fill="none" viewBox="0 0 24 25" id="geo" xmlns="http://www.w3.org/2000/svg"><path d="M11.999 13.931a3.12 3.12 0 1 0 0-6.24 3.12 3.12 0 0 0 0 6.24Z"/><path d="M3.622 8.991C5.592.332 18.42.342 20.38 9.001c1.15 5.08-2.01 9.379-4.78 12.039a5.193 5.193 0 0 1-7.209 0c-2.76-2.66-5.92-6.97-4.77-12.049Z"/></symbol><symbol viewBox="0 0 28 29" id="home" xmlns="http://www.w3.org/2000/svg"><path d="M12 21h4m2.18 4H9.82c-2.31 0-4.18-1.786-4.18-3.99v-4.877a2.61 2.61 0 0 0-.82-1.888c-1.216-1.16-1.058-3.083.333-4.048l6.388-4.434a4.343 4.343 0 0 1 4.918 0l6.389 4.434c1.39.965 1.548 2.888.332 4.048a2.61 2.61 0 0 0-.82 1.888v4.878c0 2.203-1.87 3.989-4.18 3.989Z"/></symbol><symbol fill="none" viewBox="0 0 181 84" id="logo" xmlns="http://www.w3.org/2000/svg"><g clip-path="url(#ata)" fill="#E6AF9A"><path d="M113.996 44.96c0 2.89-2.347 5.232-5.218 5.232s-5.218-2.353-5.218-5.232c0-2.88 2.347-5.232 5.218-5.232s5.218 2.342 5.218 5.232Zm-5.218-7.542c-4.146 0-7.532 3.384-7.532 7.542 0 4.157 3.375 7.541 7.532 7.541s7.532-3.384 7.532-7.541c0-4.158-3.375-7.542-7.532-7.542ZM93.693 49.031a5.262 5.262 0 0 1-3.29 1.171c-2.892 0-5.238-2.352-5.238-5.253 0-2.9 2.346-5.253 5.239-5.253 1.178 0 2.293.386 3.225 1.117l.353.28 1.64-1.634-.429-.354a7.555 7.555 0 0 0-4.778-1.72c-4.157 0-7.543 3.396-7.543 7.575s3.386 7.563 7.543 7.563a7.544 7.544 0 0 0 4.864-1.784l.418-.354-1.629-1.644-.353.29h-.022ZM139.795 52.286h2.303v-6.198h5.443v-2.32h-5.443v-3.825h6.857v-2.32h-9.16v14.663ZM167.243 49.944h-6.932v-3.781h5.496v-2.331h-5.496v-3.879h6.932v-2.33h-9.257v14.663h9.257v-2.342ZM85.047 75.094h2.314v-6.199h5.443v-2.32H87.36V62.75h6.857v-2.32h-9.171v14.664ZM103.635 75.094h9.246v-2.331h-6.921V68.97h5.496v-2.33h-5.496v-3.868h6.921V60.43h-9.246v14.664ZM156.733 60.462v2.32h4.597v12.29h2.303v-12.29h4.596v-2.32h-11.496ZM143.502 66.199c-.964-.258-2.122-.784-2.122-1.87a1.84 1.84 0 0 1 1.832-1.837c1.361 0 1.961.85 2.304 1.494l.15.29 1.703-1.558-.128-.183c-.804-1.181-1.779-2.33-4.039-2.33a4.127 4.127 0 0 0-4.114 4.124c0 1.988 1.36 3.438 3.824 4.083.783.204 2.583.838 2.583 2.331a2.299 2.299 0 0 1-2.293 2.3 2.299 2.299 0 0 1-2.293-2.3v-.505h-2.282v.505c0 2.525 2.046 4.587 4.575 4.587 2.528 0 4.575-2.062 4.575-4.587 0-2.17-1.565-3.825-4.286-4.544"/><path d="M178.686 81.68h-51.384V31.284h51.384V81.68Zm-53.698 0H73.54V31.284h51.448V81.68ZM71.226 84h109.763V28.963H71.226V84ZM46.134 69.357V54.811a7.255 7.255 0 0 1 6.739 7.273 7.255 7.255 0 0 1-6.74 7.273Zm16.35-43.67c-11.465-.613-22.425 5.833-27.621 15.932 2.84-11.914 11.389-21.873 22.788-26.375 2.282 3.191 3.91 6.693 4.832 10.443Zm-57.92-.043c-.525 0-1.06.01-1.586.043A30.332 30.332 0 0 1 7.8 15.234c11.41 4.49 19.97 14.46 22.81 26.374-4.972-9.637-15.15-15.964-26.035-15.964m8.946-16.49c5.41-4.363 12.203-6.769 19.124-6.769 6.921 0 13.81 2.406 19.253 6.768a30.142 30.142 0 0 1 4.232 4.125c-11.582 4.803-20.239 14.826-23.4 27.008C29.582 28.093 20.904 18.07 9.31 13.278a30.435 30.435 0 0 1 4.2-4.114M43.745 54.8V70.54c0 6.091-4.94 11.055-11.014 11.055-6.075 0-11.014-4.953-11.014-11.055V54.8h22.038-.01ZM65.15 26.783C62.173 11.258 48.501 0 32.645 0 16.79 0 3.29 11.259.311 26.782L0 28.372l1.607-.171a27.476 27.476 0 0 1 2.968-.162c13.767 0 25.456 10.679 26.742 24.376H19.338V70.55c0 7.412 6.011 13.44 13.404 13.44 6.9 0 12.706-5.35 13.328-12.216 5.089-.247 9.192-4.533 9.192-9.668 0-5.136-4.071-9.38-9.128-9.67l-.429-.02H34.156C35.452 38.728 47.14 28.05 60.898 28.05c.985 0 1.982.054 2.967.161l1.607.172-.3-1.59-.021-.01Z"/></g><defs><clipPath id="ata"><path fill="#fff" d="M0 0h181v84H0z"/></clipPath></defs></symbol><symbol fill="none" viewBox="0 0 22 23" id="phone" xmlns="http://www.w3.org/2000/svg"><path d="M21 17.83c0 .36-.08.73-.25 1.09-.17.36-.391.7-.681 1.02-.491.54-1.032.93-1.643 1.18-.6.25-1.252.38-1.953.38-1.021 0-2.113-.24-3.265-.73a17.6 17.6 0 0 1-3.445-1.98 28.782 28.782 0 0 1-3.285-2.8 28.424 28.424 0 0 1-2.794-3.27c-.821-1.14-1.482-2.28-1.963-3.41C1.241 8.17 1 7.08 1 6.04c0-.68.12-1.33.36-1.93.24-.61.621-1.17 1.152-1.67.641-.63 1.342-.94 2.083-.94.28 0 .561.06.812.18.26.12.49.3.67.56l2.324 3.27c.18.25.31.48.4.7.09.21.14.42.14.61 0 .24-.07.48-.21.71-.13.23-.32.47-.56.71l-.761.79c-.11.11-.16.24-.16.4 0 .08.01.15.03.23.03.08.06.14.08.2.18.33.49.76.93 1.28.452.52.932 1.05 1.453 1.58.54.53 1.062 1.02 1.592 1.47.521.44.952.74 1.292.92.05.02.11.05.18.08.08.03.161.04.251.04.17 0 .3-.06.41-.17l.762-.75c.25-.25.49-.44.72-.56.231-.14.462-.21.712-.21.19 0 .39.04.61.13.221.09.452.22.702.39l3.315 2.35c.26.18.44.39.55.64.1.25.161.5.161.78Z"/></symbol><symbol fill="none" viewBox="0 0 24 24" id="popup-icon" xmlns="http://www.w3.org/2000/svg"><path d="m6 9 6 6 6-6" stroke="#29354D" stroke-width="1.5"/></symbol><symbol fill="none" viewBox="0 0 21 25" id="profile" xmlns="http://www.w3.org/2000/svg"><path d="M15.045 5.884c0 2.871-2.208 5.135-4.855 5.135-2.647 0-4.854-2.264-4.854-5.135C5.336 3.014 7.543.75 10.19.75c2.647 0 4.855 2.264 4.855 5.134ZM19.626 23.376H.752c.1-4.29 4.196-7.915 9.437-7.915 5.24 0 9.336 3.625 9.437 7.915Z"/></symbol><symbol fill="none" viewBox="0 0 24 25" id="remove" xmlns="http://www.w3.org/2000/svg"><g clip-path="url(#axa)"><circle cx="11.969" cy="12.471" r="12" fill="#29354D"/><path d="m8.332 8.834 7.273 7.273M8.332 16.107l7.273-7.273" stroke="#FFF9EE" stroke-width="1.5" stroke-linecap="round" stroke-linejoin="round"/></g><defs><clipPath id="axa"><path fill="#fff" transform="translate(0 .5)" d="M0 0h24v24H0z"/></clipPath></defs></symbol><symbol viewBox="0 0 30 30" id="search" xmlns="http://www.w3.org/2000/svg"><path d="m4.145 17.226.73-.171-.73.171Zm0-6.821.73.171-.73-.171Zm19.342 0 .73-.171-.73.171Zm0 6.821.73.172-.73-.172Zm-6.26 6.26-.172-.73.171.73Zm-6.822 0-.171.73.171-.73Zm0-19.341-.171-.73.171.73Zm6.821 0 .172-.73-.172.73ZM25.72 26.78a.75.75 0 1 0 1.06-1.06l-1.06 1.06ZM4.875 17.055c-.5-2.13-.5-4.348 0-6.479l-1.46-.342a15.685 15.685 0 0 0 0 7.164l1.46-.343Zm17.881-6.479c.5 2.13.5 4.348 0 6.479l1.46.343a15.683 15.683 0 0 0 0-7.164l-1.46.342Zm-5.701 12.18c-2.13.5-4.348.5-6.479 0l-.342 1.46c2.356.553 4.808.553 7.164 0l-.343-1.46ZM10.576 4.875c2.13-.5 4.348-.5 6.479 0l.343-1.46a15.685 15.685 0 0 0-7.164 0l.342 1.46Zm0 17.881a7.65 7.65 0 0 1-5.701-5.701l-1.46.343a9.15 9.15 0 0 0 6.819 6.819l.342-1.46Zm6.822 1.46a9.15 9.15 0 0 0 6.819-6.818l-1.46-.343a7.65 7.65 0 0 1-5.702 5.701l.343 1.46Zm-.343-19.341a7.65 7.65 0 0 1 5.701 5.701l1.46-.342a9.15 9.15 0 0 0-6.818-6.82l-.343 1.46Zm-6.821-1.46a9.15 9.15 0 0 0-6.82 6.819l1.46.342a7.65 7.65 0 0 1 5.702-5.701l-.342-1.46Zm10.905 18.784 4.58 4.581 1.061-1.06-4.58-4.581-1.061 1.06Z"/></symbol><symbol viewBox="0 0 35 26" id="search-arrow" xmlns="http://www.w3.org/2000/svg"><path d="M4.5 12.75a.75.75 0 0 0 0 1.5v-1.5Zm26.53 1.28a.75.75 0 0 0 0-1.06l-4.773-4.773a.75.75 0 0 0-1.06 1.06l4.242 4.243-4.242 4.243a.75.75 0 0 0 1.06 1.06l4.773-4.773Zm-26.53.22h26v-1.5h-26v1.5Z"/></symbol><symbol fill="none" viewBox="0 0 28 12" id="short-arrow-right" xmlns="http://www.w3.org/2000/svg"><path d="M1 5.25a.75.75 0 0 0 0 1.5v-1.5Zm26.53 1.28a.75.75 0 0 0 0-1.06L22.757.697a.75.75 0 0 0-1.06 1.06L25.939 6l-4.242 4.243a.75.75 0 0 0 1.06 1.06L27.53 6.53ZM1 6.75h26v-1.5H1v1.5Z" fill="#29354D"/></symbol><symbol viewBox="0 0 28 16" id="standart-arrow-left" xmlns="http://www.w3.org/2000/svg"><path d="M27 7a1 1 0 1 1 0 2V7ZM.293 8.707a1 1 0 0 1 0-1.414L6.657.929A1 1 0 0 1 8.07 2.343L2.414 8l5.657 5.657a1 1 0 1 1-1.414 1.414L.293 8.707ZM27 9H1V7h26v2Z"/></symbol><symbol viewBox="0 0 28 16" id="standart-arrow-right" xmlns="http://www.w3.org/2000/svg"><path d="M1 9a1 1 0 0 1 0-2v2Zm26.707-1.707a1 1 0 0 1 0 1.414l-6.364 6.364a1 1 0 0 1-1.414-1.414L25.586 8l-5.657-5.657A1 1 0 0 1 21.343.93l6.364 6.364ZM1 7h26v2H1V7Z"/></symbol><symbol fill="none" viewBox="0 0 45 45" id="telegram" xmlns="http://www.w3.org/2000/svg"><path stroke="#fff" stroke-width="2" d="M1 1h43v43H1z"/><path d="m31.5 14.178-3.381 17.65s-.473 1.225-1.773.638l-7.8-6.194-.037-.019c1.054-.98 9.225-8.587 9.582-8.932.553-.535.21-.852-.432-.449l-12.07 7.938-4.657-1.623s-.732-.27-.803-.857c-.071-.588.828-.906.828-.906l18.983-7.711s1.56-.71 1.56.465Z" fill="#fff"/></symbol><symbol fill="none" viewBox="0 0 45 45" id="telegram-dark" xmlns="http://www.w3.org/2000/svg"><path stroke="#29354D" stroke-width="2" d="M1 1h43v43H1z"/><path d="m31.5 14.178-3.381 17.65s-.473 1.225-1.773.638l-7.8-6.194-.037-.019c1.054-.98 9.225-8.587 9.582-8.932.553-.535.21-.852-.432-.449l-12.07 7.938-4.657-1.623s-.732-.27-.803-.857c-.071-.588.828-.906.828-.906l18.983-7.711s1.56-.71 1.56.465Z" fill="#29354D"/></symbol><symbol viewBox="0 0 1599 170" fill="none" class="bfchronology__timeline__img" id="timeline" xmlns="http://www.w3.org/2000/svg"><path d="M133.82 81.053c-34.963-3.35-62.233-33.607-62.233-69.218 0-2.557.135-5.134.413-7.681L72.455 0l-4.058.793C28.757 8.527 0 43.92 0 84.957c0 41.038 28.757 75.97 68.386 83.694l4.058.793-.454-4.154a73.323 73.323 0 0 1-.413-7.682c0-35.61 27.27-65.867 62.232-69.218M65.599 7.724c-1.56 29.662 14.9 58.02 40.682 71.493-30.419-7.337-55.861-29.484-67.354-58.99 8.137-5.906 17.1-10.113 26.671-12.513v.01Zm-.114 149.885c0 1.357.041 2.735.113 4.113-9.571-2.39-18.544-6.586-26.691-12.473 11.472-29.515 36.924-51.673 67.354-59.02-24.606 12.858-40.766 39.211-40.766 67.38h-.01Zm-31.596-12.284a79.337 79.337 0 0 1-10.512-10.865C12.236 120.453 6.092 102.867 6.092 84.957c0-17.91 6.134-35.736 17.285-49.826A78.93 78.93 0 0 1 33.91 24.182c12.267 29.965 37.854 52.383 68.954 60.545-31.12 8.162-56.718 30.612-68.974 60.608v-.011Z" fill="#EAB7A1"/><path d="M1525.49 84.588H133.493M1525.94 44.399l65.8 41.497-65.8 41.497V44.399Z" stroke="#EAB7A1" stroke-width="7" stroke-miterlimit="10"/></symbol><symbol fill="none" viewBox="0 0 16 28" id="vertical-arrow" xmlns="http://www.w3.org/2000/svg"><path d="M7 27a1 1 0 1 0 2 0H7ZM8.707.293a1 1 0 0 0-1.414 0L.929 6.657A1 1 0 0 0 2.343 8.07L8 2.414l5.657 5.657a1 1 0 1 0 1.414-1.414L8.707.293ZM9 27V1H7v26h2Z" fill="#29354D"/></symbol><symbol fill="none" viewBox="0 0 45 45" id="vk" xmlns="http://www.w3.org/2000/svg"><path stroke="#fff" stroke-width="2" d="M1 1h43v43H1z"/><path d="M23.605 30.375c-8.456 0-13.279-5.912-13.48-15.75h4.236c.139 7.22 3.262 10.28 5.735 10.91v-10.91h3.989v6.227c2.442-.268 5.008-3.105 5.874-6.227h3.988a12.137 12.137 0 0 1-1.91 4.503 11.877 11.877 0 0 1-3.516 3.348 12.256 12.256 0 0 1 4.008 3.255 12.545 12.545 0 0 1 2.346 4.644h-4.39a7.808 7.808 0 0 0-2.367-3.8 7.567 7.567 0 0 0-4.033-1.828v5.628h-.48Z" fill="#fff"/></symbol><symbol fill="none" viewBox="0 0 45 45" id="vk-dark" xmlns="http://www.w3.org/2000/svg"><path stroke="#29354D" stroke-width="2" d="M1 1h43v43H1z"/><path d="M23.605 30.375c-8.456 0-13.279-5.912-13.48-15.75h4.236c.139 7.22 3.262 10.28 5.735 10.91v-10.91h3.989v6.227c2.442-.268 5.008-3.105 5.874-6.227h3.988a12.137 12.137 0 0 1-1.91 4.503 11.877 11.877 0 0 1-3.516 3.348 12.256 12.256 0 0 1 4.008 3.255 12.545 12.545 0 0 1 2.346 4.644h-4.39a7.808 7.808 0 0 0-2.367-3.8 7.567 7.567 0 0 0-4.033-1.828v5.628h-.48Z" fill="#29354D"/></symbol></svg>