<?xml version="1.0" encoding="utf-8"?><svg viewBox="0 0 103 100" xmlns="http://www.w3.org/2000/svg" xmlns:xlink="http://www.w3.org/1999/xlink"><style>:root>svg{display:none}:root>svg:target{display:block}</style><svg viewBox="0 0 103 100" id="InlineSprite" xmlns="http://www.w3.org/2000/svg"><svg viewBox="0 0 22.5 21"><path stroke="#29354D" fill="#292D3200" stroke-linecap="round" stroke-linejoin="round" stroke-width="1.5" d="M22.5 18h-7m-10 0h-3m20-11h-3m-10 0h-7m5 8h6c1.1 0 2 .5 2 2v2c0 1.5-.9 2-2 2h-6c-1.1 0-2-.5-2-2v-2c0-1.5.9-2 2-2Zm4-11h6c1.1 0 2 .5 2 2v2c0 1.5-.9 2-2 2h-6c-1.1 0-2-.5-2-2V6c0-1.5.9-2 2-2Z"/></svg></svg></svg>