<svg width="90" height="114" viewBox="0 0 90 114" fill="none" xmlns="http://www.w3.org/2000/svg">
<path d="M90 54.5318C66.4861 52.2778 48.1458 31.9214 48.1458 7.9628C48.1458 6.24244 48.2361 4.50804 48.4236 2.7947L48.7292 0L46 0.533662C19.3403 5.73687 0 29.548 0 57.158C0 84.768 19.3403 108.27 45.9931 113.466L48.7222 114L48.4167 111.205C48.2361 109.499 48.1389 107.758 48.1389 106.037C48.1389 82.0786 66.4792 61.7222 89.993 59.4682M44.1181 5.19618C43.0694 25.1523 54.1389 44.2307 71.4792 53.296C51.0208 48.3596 33.9097 33.4592 26.1806 13.6084C31.6528 9.634 37.6806 6.80419 44.1181 5.18916V5.19618ZM44.0417 106.037C44.0417 106.95 44.0694 107.877 44.1181 108.804C37.6806 107.196 31.6458 104.373 26.1667 100.413C33.8819 80.5549 51 65.6474 71.4653 60.704C54.9167 69.355 44.0486 87.0852 44.0486 106.037H44.0417ZM22.7917 97.7725C20.2014 95.5606 17.8264 93.1029 15.7222 90.4627C8.22917 81.0394 4.09722 69.2075 4.09722 57.158C4.09722 45.1085 8.22222 33.1151 15.7222 23.6356C17.8264 20.9743 20.2083 18.4956 22.8056 16.2697C31.0556 36.4294 48.2639 51.5124 69.1806 57.0035C48.25 62.4946 31.0347 77.5987 22.7917 97.7795V97.7725Z" fill="#EAB7A1"/>
</svg>
