<svg width="375" height="787" viewBox="0 0 375 787" fill="none" xmlns="http://www.w3.org/2000/svg">
<path d="M105.522 139.861C161.401 161.273 201.294 217.56 201.294 283.624C201.294 288.404 201.085 293.133 200.678 297.8" stroke="#FBEEE2" stroke-width="2" stroke-miterlimit="10"/>
<path d="M200.448 296.098C197.485 237.676 151.416 191.265 95.0175 191.265C91.0807 191.265 87.1935 191.489 83.3682 191.933" stroke="#FBEEE2" stroke-width="2" stroke-miterlimit="10"/>
<path d="M83.3633 191.93C93.9958 134.03 142.365 90.2642 200.631 90.2642C258.888 90.2642 307.93 134.042 318.57 191.93" stroke="#FBEEE2" stroke-width="2" stroke-miterlimit="10"/>
<path d="M318.578 191.931C314.753 191.488 310.865 191.263 306.926 191.263C250.53 191.263 204.46 237.675 201.496 296.096" stroke="#FBEEE2" stroke-width="2" stroke-miterlimit="10"/>
<path d="M296.409 139.86C240.529 161.272 200.636 217.558 200.636 283.623C200.636 288.403 200.843 293.132 201.251 297.799" stroke="#FBEEE2" stroke-width="2" stroke-miterlimit="10"/>
<path d="M14.4067 -4.01231L-245.067 268.396" stroke="#FBEEE2" stroke-width="2" stroke-miterlimit="10"/>
<path d="M82.0896 193.473C42.0684 193.473 9.62891 159.422 9.62891 117.416C9.62891 116.308 9.65277 115.204 9.694 114.108" stroke="#FBEEE2" stroke-width="2" stroke-miterlimit="10"/>
<path d="M61.2323 61.1637L-245.067 382.667" stroke="#FBEEE2" stroke-width="2" stroke-miterlimit="10"/>
<path d="M103.847 141.866C77.4521 138.741 56.9385 115.228 56.9385 86.6867C56.9385 77.4843 59.0702 68.8039 62.8472 61.1621" stroke="#FBEEE2" stroke-width="2" stroke-miterlimit="10"/>
<path d="M62.8384 61.1665C36.4414 58.0421 16.0244 34.5287 16.0244 5.98795C16.0244 2.57566 16.3166 -0.764985 16.8783 -4.00803" stroke="#FBEEE2" stroke-width="2" stroke-miterlimit="10"/>
<path d="M9.31445 116.055C-44.7317 116.055 -88.543 70.0692 -88.543 13.3413C-88.543 7.42679 -88.0677 1.62845 -87.1543 -4.01099" stroke="#FBEEE2" stroke-width="2" stroke-miterlimit="10"/>
<path d="M293.279 -4.00988C291.014 21.17 271.324 40.2957 246.65 40.2957" stroke="#FBEEE2" stroke-width="2" stroke-miterlimit="10"/>
<path d="M246.648 40.2954C246.648 67.8385 225.374 90.167 199.134 90.167C172.893 90.167 151.62 67.8385 151.62 40.2954" stroke="#FBEEE2" stroke-width="2" stroke-miterlimit="10"/>
<path d="M151.624 40.2949C127.174 40.2949 107.339 20.9116 104.742 -4.01061" stroke="#FBEEE2" stroke-width="2" stroke-miterlimit="10"/>
<path d="M82.8606 193.404C80.1952 218.244 60.1136 237.551 35.7349 237.551C31.5285 237.551 27.4483 236.976 23.5654 235.895" stroke="#FBEEE2" stroke-width="2" stroke-miterlimit="10"/>
<path d="M23.5617 235.893C24.581 239.953 25.1261 244.213 25.1261 248.608C25.1261 276.1 3.89523 298.387 -22.2965 298.387C-26.5048 298.387 -30.58 297.81 -34.4648 296.73" stroke="#FBEEE2" stroke-width="2" stroke-miterlimit="10"/>
<path d="M319.33 193.474C359.35 193.474 391.791 159.422 391.791 117.417C391.791 116.309 391.771 115.205 391.723 114.109" stroke="#FBEEE2" stroke-width="2" stroke-miterlimit="10"/>
<path d="M340.194 61.1637L646.494 382.667" stroke="#FBEEE2" stroke-width="2" stroke-miterlimit="10"/>
<path d="M297.58 141.866C323.975 138.741 344.488 115.228 344.488 86.6867C344.488 77.4843 342.355 68.8039 338.58 61.1621" stroke="#FBEEE2" stroke-width="2" stroke-miterlimit="10"/>
<path d="M338.584 61.1641C364.98 58.0397 385.397 34.5262 385.397 5.98551C385.397 2.57322 385.105 -0.767426 384.543 -4.01047" stroke="#FBEEE2" stroke-width="2" stroke-miterlimit="10"/>
<path d="M318.555 193.405C321.223 218.246 341.303 237.552 365.68 237.552C369.888 237.552 373.969 236.977 377.851 235.896" stroke="#FBEEE2" stroke-width="2" stroke-miterlimit="10"/>
<path d="M296.409 662.957C240.529 641.543 200.636 585.257 200.636 519.19C200.636 514.411 200.843 509.683 201.251 505.015" stroke="#FBEEE2" stroke-width="2" stroke-miterlimit="10"/>
<path d="M201.496 506.717C204.46 565.139 250.53 611.552 306.926 611.552C310.865 611.552 314.753 611.325 318.578 610.883" stroke="#FBEEE2" stroke-width="2" stroke-miterlimit="10"/>
<path d="M318.57 610.887C307.936 668.786 259.568 712.552 201.301 712.552C143.045 712.552 94.0045 668.775 83.3633 610.887" stroke="#FBEEE2" stroke-width="2" stroke-miterlimit="10"/>
<path d="M83.3633 610.881C87.1887 611.324 91.0758 611.551 95.0126 611.551C151.411 611.551 197.48 565.137 200.443 506.716" stroke="#FBEEE2" stroke-width="2" stroke-miterlimit="10"/>
<path d="M105.522 662.958C161.401 641.544 201.294 585.259 201.294 519.191C201.294 514.413 201.085 509.685 200.678 505.017" stroke="#FBEEE2" stroke-width="2" stroke-miterlimit="10"/>
<path d="M18.6718 812.728L-245.067 535.844" stroke="#FBEEE2" stroke-width="2" stroke-miterlimit="10"/>
<path d="M82.0945 610.774C42.0733 610.774 9.63379 644.824 9.63379 686.828C9.63379 687.937 9.65765 689.039 9.69888 690.138" stroke="#FBEEE2" stroke-width="2" stroke-miterlimit="10"/>
<path d="M61.2323 743.08L-245.067 421.577" stroke="#FBEEE2" stroke-width="2" stroke-miterlimit="10"/>
<path d="M103.839 662.374C77.4443 665.499 56.9307 689.01 56.9307 717.552C56.9307 726.756 59.0623 735.435 62.8394 743.078" stroke="#FBEEE2" stroke-width="2" stroke-miterlimit="10"/>
<path d="M62.8384 743.078C36.4414 746.205 16.0244 769.716 16.0244 798.256C16.0244 803.344 16.6738 808.269 17.8953 812.949" stroke="#FBEEE2" stroke-width="2" stroke-miterlimit="10"/>
<path d="M9.31445 688.184C-44.7317 688.184 -88.543 734.172 -88.543 790.899C-88.543 798.488 -87.7596 805.884 -86.2729 813.005" stroke="#FBEEE2" stroke-width="2" stroke-miterlimit="10"/>
<path d="M293.5 813.124C293.5 785.581 272.892 763.947 246.65 763.947" stroke="#FBEEE2" stroke-width="2" stroke-miterlimit="10"/>
<path d="M246.648 763.946C246.648 736.402 225.374 714.074 199.134 714.074C172.893 714.074 151.62 736.402 151.62 763.946" stroke="#FBEEE2" stroke-width="2" stroke-miterlimit="10"/>
<path d="M151.615 763.946C125.372 763.946 104.441 786.276 104.441 813.82" stroke="#FBEEE2" stroke-width="2" stroke-miterlimit="10"/>
<path d="M82.8606 610.835C80.1952 585.996 60.1136 566.69 35.7349 566.69C31.5285 566.69 27.4483 567.266 23.5654 568.347" stroke="#FBEEE2" stroke-width="2" stroke-miterlimit="10"/>
<path d="M23.5617 568.346C24.581 564.286 25.1261 560.025 25.1261 555.629C25.1261 528.139 3.89523 505.851 -22.2965 505.851C-26.5048 505.851 -30.58 506.43 -34.4648 507.508" stroke="#FBEEE2" stroke-width="2" stroke-miterlimit="10"/>
<path d="M319.324 610.768C359.344 610.768 391.785 644.818 391.785 686.822C391.785 687.931 391.765 689.033 391.717 690.132" stroke="#FBEEE2" stroke-width="2" stroke-miterlimit="10"/>
<path d="M340.194 743.078L646.494 421.575" stroke="#FBEEE2" stroke-width="2" stroke-miterlimit="10"/>
<path d="M297.58 662.374C323.975 665.499 344.488 689.01 344.488 717.552C344.488 726.756 342.355 735.435 338.58 743.078" stroke="#FBEEE2" stroke-width="2" stroke-miterlimit="10"/>
<path d="M338.584 743.078C364.98 746.205 385.397 769.716 385.397 798.256C385.397 803.344 384.748 808.269 383.526 812.949" stroke="#FBEEE2" stroke-width="2" stroke-miterlimit="10"/>
<path d="M318.555 610.837C321.223 585.999 341.303 566.692 365.68 566.692C369.888 566.692 373.969 567.268 377.851 568.349" stroke="#FBEEE2" stroke-width="2" stroke-miterlimit="10"/>
</svg>
