<svg width="784" height="261" viewBox="0 0 784 261" fill="none" xmlns="http://www.w3.org/2000/svg">
  <mask id="mask0_5705_184370" style="mask-type:alpha" maskUnits="userSpaceOnUse" x="-51" y="-18"
    width="947" height="344">
    <path d="M364.554 0.609088L146.871 229.143" stroke="#EAC2B2" stroke-opacity="0.05"
      stroke-width="2.5823" stroke-miterlimit="10" />
    <path
      d="M421.349 166.286C387.776 166.286 360.561 137.719 360.561 102.479C360.561 101.549 360.577 100.623 360.617 99.7038"
      stroke="#EAC2B2" stroke-opacity="0.05" stroke-width="2.5823" stroke-miterlimit="10" />
    <path
      d="M227.953 240.428C254.042 247.604 273.291 272.52 273.291 302.154C273.291 303.086 273.273 304.011 273.234 304.932"
      stroke="#EAC2B2" stroke-opacity="0.05" stroke-width="2.5823" stroke-miterlimit="10" />
    <path d="M403.84 55.286L146.871 325.008" stroke="#EAC2B2" stroke-opacity="0.05"
      stroke-width="2.5823" stroke-miterlimit="10" />
    <path
      d="M439.584 122.991C417.439 120.369 400.229 100.643 400.229 76.6987C400.229 68.9786 402.019 61.6962 405.187 55.2852"
      stroke="#EAC2B2" stroke-opacity="0.05" stroke-width="2.5823" stroke-miterlimit="10" />
    <path
      d="M405.188 55.286C383.043 52.6648 365.912 32.9384 365.912 8.99449C365.912 6.13179 366.158 3.32918 366.63 0.608461"
      stroke="#EAC2B2" stroke-opacity="0.05" stroke-width="2.5823" stroke-miterlimit="10" />
    <path
      d="M360.291 101.339C314.951 101.339 278.195 62.7593 278.195 15.1679C278.195 10.206 278.594 5.34156 279.361 0.610405"
      stroke="#EAC2B2" stroke-opacity="0.05" stroke-width="2.5823" stroke-miterlimit="10" />
    <path d="M598.507 0.609477C596.606 21.7339 580.09 37.7792 559.391 37.7792" stroke="#EAC2B2"
      stroke-opacity="0.05" stroke-width="2.5823" stroke-miterlimit="10" />
    <path
      d="M559.394 37.7798C559.394 60.8868 541.548 79.619 519.532 79.619C497.516 79.619 479.672 60.8868 479.672 37.7798"
      stroke="#EAC2B2" stroke-opacity="0.05" stroke-width="2.5823" stroke-miterlimit="10" />
    <path d="M479.67 37.7782C459.158 37.7782 442.518 21.5168 440.34 0.6085" stroke="#EAC2B2"
      stroke-opacity="0.05" stroke-width="2.5823" stroke-miterlimit="10" />
    <path
      d="M421.985 166.231C419.75 187.071 402.903 203.267 382.452 203.267C378.921 203.267 375.499 202.785 372.24 201.879"
      stroke="#EAC2B2" stroke-opacity="0.05" stroke-width="2.5823" stroke-miterlimit="10" />
    <path
      d="M372.24 201.875C373.095 205.281 373.555 208.855 373.555 212.542C373.555 235.606 355.741 254.304 333.768 254.304C330.239 254.304 326.82 253.819 323.561 252.914"
      stroke="#EAC2B2" stroke-opacity="0.05" stroke-width="2.5823" stroke-miterlimit="10" />
    <path
      d="M323.564 252.917C324.583 256.609 325.128 260.515 325.128 264.554C325.128 287.616 307.317 306.313 285.343 306.313C280.518 306.313 275.894 305.412 271.613 303.761"
      stroke="#EAC2B2" stroke-opacity="0.05" stroke-width="2.5823" stroke-miterlimit="10" />
    <path d="M146.826 156.403C191.354 156.403 227.449 194.291 227.449 241.026" stroke="#EAC2B2"
      stroke-opacity="0.05" stroke-width="2.5823" stroke-miterlimit="10" />
    <path d="M677.16 0.609088L894.843 229.143" stroke="#EAC2B2" stroke-opacity="0.05"
      stroke-width="2.5823" stroke-miterlimit="10" />
    <path
      d="M620.367 166.288C653.94 166.288 681.155 137.721 681.155 102.481C681.155 101.551 681.138 100.625 681.099 99.7057"
      stroke="#EAC2B2" stroke-opacity="0.05" stroke-width="2.5823" stroke-miterlimit="10" />
    <path d="M637.871 55.286L894.839 325.008" stroke="#EAC2B2" stroke-opacity="0.05"
      stroke-width="2.5823" stroke-miterlimit="10" />
    <path
      d="M602.129 122.991C624.271 120.369 641.481 100.643 641.481 76.6987C641.481 68.9786 639.691 61.6962 636.523 55.2852"
      stroke="#EAC2B2" stroke-opacity="0.05" stroke-width="2.5823" stroke-miterlimit="10" />
    <path
      d="M636.518 55.286C658.663 52.6648 675.794 32.9384 675.794 8.99449C675.794 6.13179 675.547 3.32918 675.076 0.608461"
      stroke="#EAC2B2" stroke-opacity="0.05" stroke-width="2.5823" stroke-miterlimit="10" />
    <path
      d="M681.422 101.338C726.762 101.338 763.52 62.7583 763.52 15.1669C763.52 10.205 763.121 5.34058 762.353 0.609428"
      stroke="#EAC2B2" stroke-opacity="0.05" stroke-width="2.5823" stroke-miterlimit="10" />
    <path
      d="M619.73 166.229C621.966 187.069 638.812 203.266 659.263 203.266C662.792 203.266 666.214 202.783 669.475 201.877"
      stroke="#EAC2B2" stroke-opacity="0.05" stroke-width="2.5823" stroke-miterlimit="10" />
    <path
      d="M669.466 201.875C668.611 205.281 668.15 208.855 668.15 212.542C668.15 235.606 685.964 254.304 707.938 254.304C711.468 254.304 714.889 253.819 718.147 252.914"
      stroke="#EAC2B2" stroke-opacity="0.05" stroke-width="2.5823" stroke-miterlimit="10" />
    <path d="M-50 19.1982L149.977 229.143" stroke="#EAC2B2" stroke-opacity="0.05"
      stroke-width="2.5823" stroke-miterlimit="10" />
    <path
      d="M68.8961 240.427C42.8069 247.603 23.5586 272.519 23.5586 302.153C23.5586 303.085 23.5782 304.01 23.6141 304.931"
      stroke="#EAC2B2" stroke-opacity="0.05" stroke-width="2.5823" stroke-miterlimit="10" />
    <path d="M-50 115.108L149.977 325.011" stroke="#EAC2B2" stroke-opacity="0.05"
      stroke-width="2.5823" stroke-miterlimit="10" />
    <path d="M150.022 156.401C105.495 156.401 69.3984 194.289 69.3984 241.024" stroke="#EAC2B2"
      stroke-opacity="0.05" stroke-width="2.5823" stroke-miterlimit="10" />
    <path d="M107.285 -16.999L-50 148.503" stroke="#EAC2B2" stroke-opacity="0.05"
      stroke-width="2.5823" stroke-miterlimit="10" />
    <path
      d="M440.77 122.1C487.655 140.067 521.127 187.293 521.127 242.725C521.127 246.733 520.953 250.702 520.609 254.62"
      stroke="#EAC2B2" stroke-opacity="0.05" stroke-width="2.5823" stroke-miterlimit="10" />
    <path
      d="M520.413 253.186C517.928 204.17 479.273 165.227 431.954 165.227C428.652 165.227 425.388 165.417 422.178 165.787"
      stroke="#EAC2B2" stroke-opacity="0.05" stroke-width="2.5823" stroke-miterlimit="10" />
    <path
      d="M422.178 165.789C431.1 117.212 471.684 80.4892 520.571 80.4892C569.451 80.4892 610.598 117.221 619.529 165.789"
      stroke="#EAC2B2" stroke-opacity="0.05" stroke-width="2.5823" stroke-miterlimit="10" />
    <path
      d="M619.529 165.787C616.317 165.418 613.057 165.228 609.752 165.228C562.432 165.228 523.778 204.17 521.291 253.187"
      stroke="#EAC2B2" stroke-opacity="0.05" stroke-width="2.5823" stroke-miterlimit="10" />
    <path
      d="M600.93 122.1C554.044 140.067 520.572 187.293 520.572 242.725C520.572 246.733 520.747 250.702 521.091 254.62"
      stroke="#EAC2B2" stroke-opacity="0.05" stroke-width="2.5823" stroke-miterlimit="10" />
  </mask>
  <g mask="url(#mask0_5705_184370)">
    <g filter="url(#filter0_b_5705_184370)">
      <path
        d="M0 0H784V209.354C784 237.877 760.877 261 732.354 261H51.6459C23.1227 261 0 237.877 0 209.354V0Z"
        fill="#E8CCBF" />
    </g>
  </g>
  <defs>
    <filter id="filter0_b_5705_184370" x="-103.292" y="-103.292" width="990.584" height="467.584"
      filterUnits="userSpaceOnUse" color-interpolation-filters="sRGB">
      <feFlood flood-opacity="0" result="BackgroundImageFix" />
      <feGaussianBlur in="BackgroundImageFix" stdDeviation="51.646" />
      <feComposite in2="SourceAlpha" operator="in" result="effect1_backgroundBlur_5705_184370" />
      <feBlend mode="normal" in="SourceGraphic" in2="effect1_backgroundBlur_5705_184370"
        result="shape" />
    </filter>
  </defs>
</svg>