<svg width="1600" height="634" viewBox="0 0 1600 634" fill="none" xmlns="http://www.w3.org/2000/svg">
<path d="M1409.27 -74.979C1465.65 -55.4544 1505.16 -5.02837 1503.97 53.7655C1503.88 58.019 1503.59 62.2262 1503.09 66.3762" stroke="#EAC2B2" stroke-opacity="0.05" stroke-width="2" stroke-miterlimit="10"/>
<path d="M1502.9 64.7987C1500.95 13.043 1455.24 -28.4321 1398.25 -28.8959C1394.27 -28.9283 1390.34 -28.7615 1386.47 -28.4003" stroke="#EAC2B2" stroke-opacity="0.05" stroke-width="2" stroke-miterlimit="10"/>
<path d="M1622.66 -25.7539C1618.81 -26.178 1614.88 -26.4087 1610.9 -26.4411C1553.92 -26.9049 1506.53 13.8126 1502.48 65.5195" stroke="#EAC2B2" stroke-opacity="0.05" stroke-width="2" stroke-miterlimit="10"/>
<path d="M1601.47 -72.8242C1544.32 -54.2369 1502.78 -4.48005 1501.59 54.3138C1501.51 58.5673 1501.63 62.778 1501.96 66.9349" stroke="#EAC2B2" stroke-opacity="0.05" stroke-width="2" stroke-miterlimit="10"/>
<path d="M1588.93 748.335C1532.55 728.809 1493.04 678.383 1494.23 619.587C1494.32 615.334 1494.61 611.128 1495.11 606.978" stroke="#EAC2B2" stroke-opacity="0.05" stroke-width="2" stroke-miterlimit="10"/>
<path d="M1495.31 608.553C1497.25 660.309 1542.97 701.786 1599.95 702.25C1603.93 702.282 1607.86 702.113 1611.74 701.753" stroke="#EAC2B2" stroke-opacity="0.05" stroke-width="2" stroke-miterlimit="10"/>
<path d="M1375.54 699.115C1379.4 699.538 1383.32 699.77 1387.3 699.803C1444.29 700.267 1491.68 659.547 1495.73 607.84" stroke="#EAC2B2" stroke-opacity="0.05" stroke-width="2" stroke-miterlimit="10"/>
<path d="M1396.73 746.184C1453.88 727.595 1495.42 677.839 1496.61 619.043C1496.7 614.79 1496.57 610.58 1496.24 606.423" stroke="#EAC2B2" stroke-opacity="0.05" stroke-width="2" stroke-miterlimit="10"/>
<path d="M268.36 729.53C211.979 710.004 172.47 659.578 173.659 600.782C173.746 596.53 174.041 592.324 174.541 588.173" stroke="#EAC2B2" stroke-opacity="0.05" stroke-width="2" stroke-miterlimit="10"/>
<path d="M174.729 589.749C176.671 641.504 222.387 682.981 279.373 683.445C283.352 683.477 287.286 683.309 291.162 682.948" stroke="#EAC2B2" stroke-opacity="0.05" stroke-width="2" stroke-miterlimit="10"/>
<path d="M54.9652 680.31C58.8238 680.733 62.7489 680.966 66.7281 680.998C123.718 681.462 171.105 640.742 175.152 589.036" stroke="#EAC2B2" stroke-opacity="0.05" stroke-width="2" stroke-miterlimit="10"/>
<path d="M76.1602 727.375C133.312 708.787 174.848 659.03 176.038 600.234C176.124 595.981 175.997 591.772 175.666 587.614" stroke="#EAC2B2" stroke-opacity="0.05" stroke-width="2" stroke-miterlimit="10"/>
<path d="M524.809 323.48L543.93 323.676" stroke="#EAC2B2" stroke-opacity="0.05" stroke-width="2" stroke-miterlimit="10"/>
<path d="M466.961 536.887L620.75 398.8L541.821 323.672L623.536 250.191L474.98 109.148" stroke="#EAC2B2" stroke-opacity="0.05" stroke-width="2" stroke-miterlimit="10"/>
<path d="M2.345 -224.713L-264.656 14.9062" stroke="#EAC2B2" stroke-opacity="0.05" stroke-width="2" stroke-miterlimit="10"/>
<path d="M48.6546 -165.217L-266.531 117.586" stroke="#EAC2B2" stroke-opacity="0.05" stroke-width="2" stroke-miterlimit="10"/>
<path d="M6.63044 -9.36737C7.58886 -5.75321 8.06704 -1.96596 7.98957 1.93691C7.50503 26.3479 -14.3439 45.9523 -40.8102 45.7235C-45.0619 45.6867 -49.1697 45.1384 -53.0763 44.146" stroke="#EAC2B2" stroke-opacity="0.05" stroke-width="2" stroke-miterlimit="10"/>
<path d="M370.934 -217.999L628.333 26.1535" stroke="#EAC2B2" stroke-opacity="0.05" stroke-width="2" stroke-miterlimit="10"/>
<path d="M531.324 39.4904C499.672 46.8293 475.907 73.0581 475.285 104.495C475.265 105.483 475.27 106.465 475.296 107.442" stroke="#EAC2B2" stroke-opacity="0.05" stroke-width="2" stroke-miterlimit="10"/>
<path d="M323.194 -159.572L627.045 128.582" stroke="#EAC2B2" stroke-opacity="0.05" stroke-width="2" stroke-miterlimit="10"/>
<path d="M359.484 -4.02463C358.381 -0.428283 357.752 3.34938 357.674 7.25226C357.19 31.6633 378.253 51.6386 404.72 51.8674C408.972 51.9042 413.103 51.4271 417.046 50.5026" stroke="#EAC2B2" stroke-opacity="0.05" stroke-width="2" stroke-miterlimit="10"/>
<path d="M416.599 51.5857C415.294 55.4816 414.555 59.6082 414.47 63.881C413.986 88.2814 435.04 108.248 461.497 108.477C467.306 108.527 472.894 107.623 478.082 105.92" stroke="#EAC2B2" stroke-opacity="0.05" stroke-width="2" stroke-miterlimit="10"/>
<path d="M629.369 -49.1761C575.734 -49.6398 531.462 -9.91474 530.48 39.5508" stroke="#EAC2B2" stroke-opacity="0.05" stroke-width="2" stroke-miterlimit="10"/>
<path d="M476.568 108.614C435.555 126.385 406.762 164.523 405.896 208.95C404.689 270.854 458.164 321.53 525.333 322.135" stroke="#EAC2B2" stroke-opacity="0.05" stroke-width="2" stroke-miterlimit="10"/>
<path d="M33.3591 796.598L-270.494 508.443" stroke="#EAC2B2" stroke-opacity="0.05" stroke-width="2" stroke-miterlimit="10"/>
<path d="M-2.94368 641.046C-1.84214 637.45 -1.21377 633.67 -1.1363 629.768C-0.651782 605.358 -21.7151 585.382 -48.1814 585.153C-52.4331 585.117 -56.5612 585.595 -60.5059 586.518" stroke="#EAC2B2" stroke-opacity="0.05" stroke-width="2" stroke-miterlimit="10"/>
<path d="M349.855 865.688L621.245 622.132" stroke="#EAC2B2" stroke-opacity="0.05" stroke-width="2" stroke-miterlimit="10"/>
<path d="M522.864 607.16C491.514 599.275 468.795 572.64 469.417 541.203C469.437 540.216 469.48 539.235 469.544 538.26" stroke="#EAC2B2" stroke-opacity="0.05" stroke-width="2" stroke-miterlimit="10"/>
<path d="M307.898 802.238L623.082 519.435" stroke="#EAC2B2" stroke-opacity="0.05" stroke-width="2" stroke-miterlimit="10"/>
<path d="M349.909 646.389C348.95 642.775 348.471 638.986 348.548 635.083C349.033 610.673 370.882 591.069 397.349 591.297C401.601 591.334 405.712 591.884 409.617 592.875" stroke="#EAC2B2" stroke-opacity="0.05" stroke-width="2" stroke-miterlimit="10"/>
<path d="M408.584 592.442C407.434 588.522 406.859 584.387 406.943 580.114C407.428 555.713 429.266 536.118 455.723 536.347C461.532 536.398 467.083 537.399 472.201 539.191" stroke="#EAC2B2" stroke-opacity="0.05" stroke-width="2" stroke-miterlimit="10"/>
<path d="M618.22 698.34C564.585 697.876 521.905 657.399 522.887 607.931" stroke="#EAC2B2" stroke-opacity="0.05" stroke-width="2" stroke-miterlimit="10"/>
<path d="M469.353 536.717C429.047 518.212 401.75 479.57 402.617 435.144C403.823 373.238 459.255 323.545 526.424 324.15" stroke="#EAC2B2" stroke-opacity="0.05" stroke-width="2" stroke-miterlimit="10"/>
<path d="M889.076 -212.088L622.074 27.5312" stroke="#EAC2B2" stroke-opacity="0.05" stroke-width="2" stroke-miterlimit="10"/>
<path d="M720.417 42.4826C751.766 50.3699 774.485 77.0034 773.863 108.441C773.844 109.428 773.8 110.41 773.737 111.386" stroke="#EAC2B2" stroke-opacity="0.05" stroke-width="2" stroke-miterlimit="10"/>
<path d="M935.383 -152.588L620.199 130.215" stroke="#EAC2B2" stroke-opacity="0.05" stroke-width="2" stroke-miterlimit="10"/>
<path d="M625.059 -48.6954C678.69 -48.2317 721.374 -7.75488 720.392 41.7106" stroke="#EAC2B2" stroke-opacity="0.05" stroke-width="2" stroke-miterlimit="10"/>
<path d="M773.924 112.925C814.23 131.429 841.526 170.072 840.66 214.499C839.453 276.403 784.022 326.097 716.852 325.492" stroke="#EAC2B2" stroke-opacity="0.05" stroke-width="2" stroke-miterlimit="10"/>
<path d="M876.557 871.699L614.927 623.535" stroke="#EAC2B2" stroke-opacity="0.05" stroke-width="2" stroke-miterlimit="10"/>
<path d="M711.953 610.152C743.604 602.815 767.369 576.586 767.991 545.148C768.011 544.161 768.006 543.179 767.981 542.204" stroke="#EAC2B2" stroke-opacity="0.05" stroke-width="2" stroke-miterlimit="10"/>
<path d="M920.084 809.227L616.233 521.072" stroke="#EAC2B2" stroke-opacity="0.05" stroke-width="2" stroke-miterlimit="10"/>
<path d="M613.91 698.824C667.541 699.288 711.817 659.563 712.799 610.094" stroke="#EAC2B2" stroke-opacity="0.05" stroke-width="2" stroke-miterlimit="10"/>
<path d="M766.708 541.035C807.721 523.263 836.514 485.127 837.38 440.701C838.587 378.795 785.113 328.12 717.942 327.515" stroke="#EAC2B2" stroke-opacity="0.05" stroke-width="2" stroke-miterlimit="10"/>
<path d="M718.462 326.24L702.453 326.012" stroke="#EAC2B2" stroke-opacity="0.05" stroke-width="2" stroke-miterlimit="10"/>
<path d="M805.2 -211.815L1062.6 32.3371" stroke="#EAC2B2" stroke-opacity="0.05" stroke-width="2" stroke-miterlimit="10"/>
<path d="M965.601 45.6701C933.946 53.009 910.184 79.2378 909.562 110.675C909.543 111.663 909.547 112.645 909.573 113.622" stroke="#EAC2B2" stroke-opacity="0.05" stroke-width="2" stroke-miterlimit="10"/>
<path d="M757.46 -153.393L1061.31 134.762" stroke="#EAC2B2" stroke-opacity="0.05" stroke-width="2" stroke-miterlimit="10"/>
<path d="M1063.63 -42.9925C1010 -43.4562 965.728 -3.73115 964.746 45.7344" stroke="#EAC2B2" stroke-opacity="0.05" stroke-width="2" stroke-miterlimit="10"/>
<path d="M910.839 114.794C869.822 132.565 841.032 170.703 840.166 215.13C838.959 277.034 892.432 327.709 959.602 328.314" stroke="#EAC2B2" stroke-opacity="0.05" stroke-width="2" stroke-miterlimit="10"/>
<path d="M784.117 871.871L1055.51 628.316" stroke="#EAC2B2" stroke-opacity="0.05" stroke-width="2" stroke-miterlimit="10"/>
<path d="M957.137 613.344C925.784 605.458 903.068 578.824 903.69 547.386C903.71 546.4 903.754 545.418 903.818 544.444" stroke="#EAC2B2" stroke-opacity="0.05" stroke-width="2" stroke-miterlimit="10"/>
<path d="M742.168 808.422L1057.35 525.619" stroke="#EAC2B2" stroke-opacity="0.05" stroke-width="2" stroke-miterlimit="10"/>
<path d="M1052.49 704.527C998.861 704.063 956.179 663.587 957.161 614.118" stroke="#EAC2B2" stroke-opacity="0.05" stroke-width="2" stroke-miterlimit="10"/>
<path d="M903.627 542.9C863.317 524.396 836.024 485.754 836.89 441.328C838.097 379.422 893.527 329.728 960.697 330.333" stroke="#EAC2B2" stroke-opacity="0.05" stroke-width="2" stroke-miterlimit="10"/>
<path d="M959.078 329.668L974.888 329.893" stroke="#EAC2B2" stroke-opacity="0.05" stroke-width="2" stroke-miterlimit="10"/>
<path d="M1152.28 332.415L1129.46 332.09" stroke="#EAC2B2" stroke-opacity="0.05" stroke-width="2" stroke-miterlimit="10"/>
<path d="M1201.03 546.662L1052.48 405.618L1134.19 332.061L1055.26 257.01L1209.05 118.923" stroke="#EAC2B2" stroke-opacity="0.05" stroke-width="2" stroke-miterlimit="10"/>
<path d="M1322.89 -205.912L1055.89 33.707" stroke="#EAC2B2" stroke-opacity="0.05" stroke-width="2" stroke-miterlimit="10"/>
<path d="M1154.23 48.6623C1185.58 56.5497 1208.3 83.183 1207.68 114.62C1207.66 115.608 1207.61 116.59 1207.55 117.566" stroke="#EAC2B2" stroke-opacity="0.05" stroke-width="2" stroke-miterlimit="10"/>
<path d="M1369.2 -146.412L1054.01 136.391" stroke="#EAC2B2" stroke-opacity="0.05" stroke-width="2" stroke-miterlimit="10"/>
<path d="M1386.78 -28.0269C1383.66 -6.05576 1363.08 10.8605 1338.51 10.6435C1334.27 10.606 1330.17 10.0606 1326.27 9.06922" stroke="#EAC2B2" stroke-opacity="0.05" stroke-width="2" stroke-miterlimit="10"/>
<path d="M1327.17 9.43341C1328.13 13.0476 1328.6 16.8348 1328.53 20.7377C1328.04 45.1487 1306.2 64.7531 1279.73 64.5243C1275.48 64.4875 1271.37 63.9391 1267.46 62.9468" stroke="#EAC2B2" stroke-opacity="0.05" stroke-width="2" stroke-miterlimit="10"/>
<path d="M1268.5 63.3804C1269.65 67.2975 1270.22 71.4354 1270.14 75.7083C1269.65 100.109 1247.82 119.704 1221.36 119.475C1215.55 119.425 1210 118.424 1204.88 116.632" stroke="#EAC2B2" stroke-opacity="0.05" stroke-width="2" stroke-miterlimit="10"/>
<path d="M1058.87 -42.5157C1112.5 -42.052 1155.18 -1.57521 1154.2 47.8903" stroke="#EAC2B2" stroke-opacity="0.05" stroke-width="2" stroke-miterlimit="10"/>
<path d="M1207.73 119.101C1248.04 137.605 1275.33 176.248 1274.46 220.675C1273.26 282.579 1217.83 332.273 1150.66 331.668" stroke="#EAC2B2" stroke-opacity="0.05" stroke-width="2" stroke-miterlimit="10"/>
<path d="M1310.37 877.87L1048.74 629.707" stroke="#EAC2B2" stroke-opacity="0.05" stroke-width="2" stroke-miterlimit="10"/>
<path d="M1145.77 616.332C1177.42 608.995 1201.18 582.765 1201.8 551.328C1201.82 550.341 1201.82 549.359 1201.8 548.384" stroke="#EAC2B2" stroke-opacity="0.05" stroke-width="2" stroke-miterlimit="10"/>
<path d="M1353.9 815.398L1050.05 527.244" stroke="#EAC2B2" stroke-opacity="0.05" stroke-width="2" stroke-miterlimit="10"/>
<path d="M1317.6 659.847C1318.7 656.25 1319.32 652.471 1319.4 648.568C1319.89 624.158 1298.83 604.183 1272.36 603.954C1268.11 603.917 1263.98 604.396 1260.03 605.319" stroke="#EAC2B2" stroke-opacity="0.05" stroke-width="2" stroke-miterlimit="10"/>
<path d="M1260.48 604.233C1261.79 600.334 1262.53 596.21 1262.61 591.938C1263.1 567.536 1242.04 547.571 1215.58 547.342C1209.77 547.291 1204.19 548.196 1199 549.898" stroke="#EAC2B2" stroke-opacity="0.05" stroke-width="2" stroke-miterlimit="10"/>
<path d="M1047.72 704.996C1101.35 705.46 1145.63 665.735 1146.61 616.266" stroke="#EAC2B2" stroke-opacity="0.05" stroke-width="2" stroke-miterlimit="10"/>
<path d="M1200.52 547.207C1241.53 529.435 1270.32 491.299 1271.19 446.873C1272.39 384.967 1218.92 334.292 1151.75 333.687" stroke="#EAC2B2" stroke-opacity="0.05" stroke-width="2" stroke-miterlimit="10"/>
<path d="M88.4698 -92.9246C144.854 -73.3959 184.369 -22.9644 183.179 35.8375C183.093 40.0892 182.797 44.2973 182.297 48.4503" stroke="#EAC2B2" stroke-opacity="0.05" stroke-width="2" stroke-miterlimit="10"/>
<path d="M182.102 46.8689C180.161 -4.89161 134.44 -46.3734 77.4452 -46.8372C73.4685 -46.8696 69.5333 -46.7013 65.6587 -46.3423" stroke="#EAC2B2" stroke-opacity="0.05" stroke-width="2" stroke-miterlimit="10"/>
<path d="M301.881 -43.6997C298.02 -44.1216 294.097 -44.3539 290.116 -44.3863C233.122 -44.8501 185.728 -4.12604 181.68 47.5857" stroke="#EAC2B2" stroke-opacity="0.05" stroke-width="2" stroke-miterlimit="10"/>
<path d="M280.679 -90.7696C223.522 -72.1784 181.98 -22.4161 180.79 36.3859C180.704 40.6375 180.83 44.8491 181.163 49.009" stroke="#EAC2B2" stroke-opacity="0.05" stroke-width="2" stroke-miterlimit="10"/>
<path d="M768.291 540.498L619.734 399.454L701.449 325.897L622.52 250.846L776.31 112.759" stroke="#EAC2B2" stroke-opacity="0.05" stroke-width="2" stroke-miterlimit="10"/>
<path d="M901.23 543.07L1055.02 404.983L976.092 329.855L1057.81 256.375L909.25 115.332" stroke="#EAC2B2" stroke-opacity="0.05" stroke-width="2" stroke-miterlimit="10"/>
</svg>
