<svg width="219" height="852" viewBox="0 0 219 852" fill="none" xmlns="http://www.w3.org/2000/svg">
<g opacity="0.4" clip-path="url(#clip0_4114_185140)">
<mask id="mask0_4114_185140" style="mask-type:alpha" maskUnits="userSpaceOnUse" x="-2" y="-1" width="440" height="3515">
<path d="M367.781 661.887L218.051 504.205L297.607 420.212L218.051 336.306L367.781 178.625" stroke="#E8CCBF" stroke-opacity="0.5" stroke-width="2" stroke-miterlimit="10"/>
<path d="M278.352 22.3359L218.352 85.3359" stroke="#E8CCBF" stroke-opacity="0.5" stroke-width="2" stroke-miterlimit="10"/>
<path d="M313.352 101.336L216.352 203.336" stroke="#E8CCBF" stroke-opacity="0.5" stroke-width="2" stroke-miterlimit="10"/>
<path d="M216.406 0.00253563C270.034 0.00253563 313.506 45.6333 313.506 101.92" stroke="#E8CCBF" stroke-opacity="0.5" stroke-width="2" stroke-miterlimit="10"/>
<path d="M278.352 818.336L217.352 754.336" stroke="#E8CCBF" stroke-opacity="0.5" stroke-width="2" stroke-miterlimit="10"/>
<path d="M314.352 740.336L216.352 637.336" stroke="#E8CCBF" stroke-opacity="0.5" stroke-width="2" stroke-miterlimit="10"/>
<path d="M216.406 840.512C270.034 840.512 313.506 794.881 313.506 738.591" stroke="#E8CCBF" stroke-opacity="0.5" stroke-width="2" stroke-miterlimit="10"/>
<path d="M158.352 22.3359L218.352 85.3359" stroke="#E8CCBF" stroke-opacity="0.5" stroke-width="2" stroke-miterlimit="10"/>
<path d="M122.549 101.2C91.1274 109.843 67.9453 139.851 67.9453 175.542C67.9453 176.664 67.9689 177.778 68.0122 178.887" stroke="#E8CCBF" stroke-opacity="0.5" stroke-width="2" stroke-miterlimit="10"/>
<path d="M123.355 101.336L220.355 203.336" stroke="#E8CCBF" stroke-opacity="0.5" stroke-width="2" stroke-miterlimit="10"/>
<path d="M220.253 0.000582509C166.626 0.000582509 123.152 45.6313 123.152 101.918" stroke="#E8CCBF" stroke-opacity="0.5" stroke-width="2" stroke-miterlimit="10"/>
<path d="M68.0107 178.878C27.569 199.423 -0.324219 242.911 -0.324219 293.237C-0.324219 363.36 53.8376 420.209 120.646 420.209" stroke="#E8CCBF" stroke-opacity="0.5" stroke-width="2" stroke-miterlimit="10"/>
<path d="M158.352 817.336L218.352 754.336" stroke="#E8CCBF" stroke-opacity="0.5" stroke-width="2" stroke-miterlimit="10"/>
<path d="M220.253 840.512C166.626 840.512 123.152 794.881 123.152 738.591" stroke="#E8CCBF" stroke-opacity="0.5" stroke-width="2" stroke-miterlimit="10"/>
<path d="M68.0146 661.629C27.5729 641.082 -0.320313 597.596 -0.320313 547.271C-0.320313 477.146 53.8415 420.298 120.65 420.298" stroke="#E8CCBF" stroke-opacity="0.5" stroke-width="2" stroke-miterlimit="10"/>
<path d="M120.648 420.297H137.533" stroke="#E8CCBF" stroke-opacity="0.5" stroke-width="2" stroke-miterlimit="10"/>
<path d="M122.549 739.311C91.1274 730.669 67.9453 700.661 67.9453 664.969C67.9453 663.849 67.9689 662.735 68.0122 661.628" stroke="#E8CCBF" stroke-opacity="0.5" stroke-width="2" stroke-miterlimit="10"/>
<path d="M68.8906 661.889L218.621 504.207L139.064 420.214L218.621 336.308L68.8906 178.627" stroke="#E8CCBF" stroke-opacity="0.5" stroke-width="2" stroke-miterlimit="10"/>
<path d="M122.352 740.336L220.352 637.336" stroke="#E8CCBF" stroke-opacity="0.5" stroke-width="2" stroke-miterlimit="10"/>
</mask>
<g mask="url(#mask0_4114_185140)">
<rect x="-43.3203" y="0.335938" width="509" height="3512" fill="#E6AF9A"/>
</g>
</g>
<defs>
<clipPath id="clip0_4114_185140">
<rect width="505" height="852" fill="white"/>
</clipPath>
</defs>
</svg>
