<svg width="1600" height="516" viewBox="0 0 1600 516" fill="none" xmlns="http://www.w3.org/2000/svg">
<path d="M1628.44 544.593C1668.48 526.335 1696.14 487.644 1696.22 442.845C1696.33 380.415 1642.83 329.762 1576.73 329.706" stroke="#EAC2B2" stroke-opacity="0.05" stroke-width="2" stroke-miterlimit="10"/>
<path d="M1576.78 329.605L1558.59 329.583" stroke="#EAC2B2" stroke-opacity="0.05" stroke-width="2" stroke-miterlimit="10"/>
<path d="M942.221 -83.3709C998.044 -64.0703 1037.83 -13.4192 1037.73 45.9949C1037.72 50.2932 1037.5 54.5464 1037.09 58.7434" stroke="#EAC2B2" stroke-opacity="0.05" stroke-width="2" stroke-miterlimit="10"/>
<path d="M1036.85 57.2024C1033.99 4.6814 988.034 -37.0749 931.684 -37.1172C927.75 -37.1201 923.866 -36.9213 920.043 -36.5255" stroke="#EAC2B2" stroke-opacity="0.05" stroke-width="2" stroke-miterlimit="10"/>
<path d="M1154.92 -36.2928C1151.1 -36.6943 1147.22 -36.899 1143.28 -36.9019C1086.93 -36.9442 1040.83 4.74318 1037.77 57.2598" stroke="#EAC2B2" stroke-opacity="0.05" stroke-width="2" stroke-miterlimit="10"/>
<path d="M1132.88 -83.1822C1076.98 -63.9689 1037.01 -13.3801 1036.91 46.034C1036.9 50.3324 1037.1 54.5858 1037.5 58.7834" stroke="#EAC2B2" stroke-opacity="0.05" stroke-width="2" stroke-miterlimit="10"/>
<path d="M62.666 327.579L81.7862 327.525" stroke="#EAC2B2" stroke-opacity="0.05" stroke-width="2" stroke-miterlimit="10"/>
<path d="M9.96484 542.656L158.388 402.388L79.7701 327.524L158.633 252.884L10.6701 112.341" stroke="#EAC2B2" stroke-opacity="0.05" stroke-width="2" stroke-miterlimit="10"/>
<path d="M-97.3869 -214.036L161.436 31.1093" stroke="#EAC2B2" stroke-opacity="0.05" stroke-width="2" stroke-miterlimit="10"/>
<path d="M64.9399 43.3121C33.847 50.9803 10.8693 77.6709 10.8138 109.439C10.8121 110.437 10.8341 111.429 10.8767 112.416" stroke="#EAC2B2" stroke-opacity="0.05" stroke-width="2" stroke-miterlimit="10"/>
<path d="M-144.206 -155.389L161.325 133.937" stroke="#EAC2B2" stroke-opacity="0.05" stroke-width="2" stroke-miterlimit="10"/>
<path d="M-48.8886 56.5972C-50.1097 60.5535 -50.767 64.739 -50.7746 69.0674C-50.8182 93.7849 -29.6414 113.84 -3.47197 113.861C2.27351 113.865 7.78382 112.904 12.8844 111.138" stroke="#EAC2B2" stroke-opacity="0.05" stroke-width="2" stroke-miterlimit="10"/>
<path d="M161.584 -46.7185C108.551 -46.7605 65.4925 -6.18714 65.4043 43.9031" stroke="#EAC2B2" stroke-opacity="0.05" stroke-width="2" stroke-miterlimit="10"/>
<path d="M10.9938 112.511C-29.0483 130.768 -56.7119 169.459 -56.7887 214.262C-56.8957 276.688 -3.3977 327.343 62.6992 327.398" stroke="#EAC2B2" stroke-opacity="0.05" stroke-width="2" stroke-miterlimit="10"/>
<path d="M1627.69 544.761L1479.73 404.217L1558.59 329.5L1479.97 254.714L1628.4 114.445" stroke="#EAC2B2" stroke-opacity="0.05" stroke-width="2" stroke-miterlimit="10"/>
<path d="M1718.84 -193.4L1478.6 33.007" stroke="#EAC2B2" stroke-opacity="0.05" stroke-width="2" stroke-miterlimit="10"/>
<path d="M1575.22 45.3544C1606.28 53.0705 1629.17 79.7992 1629.11 111.567C1629.11 112.565 1629.09 113.557 1629.04 114.544" stroke="#EAC2B2" stroke-opacity="0.05" stroke-width="2" stroke-miterlimit="10"/>
<path d="M1718.71 -90.4885L1478.47 135.872" stroke="#EAC2B2" stroke-opacity="0.05" stroke-width="2" stroke-miterlimit="10"/>
<path d="M1478.81 -44.8925C1531.84 -44.8505 1574.76 -4.2098 1574.67 45.8815" stroke="#EAC2B2" stroke-opacity="0.05" stroke-width="2" stroke-miterlimit="10"/>
<path d="M1629.06 114.669C1669.05 132.994 1696.58 171.731 1696.5 216.533C1696.39 278.961 1642.72 329.525 1576.62 329.469" stroke="#EAC2B2" stroke-opacity="0.05" stroke-width="2" stroke-miterlimit="10"/>
<path d="M10.3678 542.439C-29.6117 524.113 -57.1425 485.377 -57.0657 440.575C-56.9587 378.146 -3.28727 327.583 62.8097 327.639" stroke="#EAC2B2" stroke-opacity="0.05" stroke-width="2" stroke-miterlimit="10"/>
<path d="M417.834 -213.523L158.148 31.2115" stroke="#EAC2B2" stroke-opacity="0.05" stroke-width="2" stroke-miterlimit="10"/>
<path d="M254.791 43.5623C285.856 51.2806 308.74 78.0081 308.685 109.776C308.683 110.774 308.657 111.766 308.612 112.753" stroke="#EAC2B2" stroke-opacity="0.05" stroke-width="2" stroke-miterlimit="10"/>
<path d="M464.536 -154.78L157.986 134.062" stroke="#EAC2B2" stroke-opacity="0.05" stroke-width="2" stroke-miterlimit="10"/>
<path d="M158.377 -46.681C211.405 -46.639 254.325 -5.99763 254.236 44.0926" stroke="#EAC2B2" stroke-opacity="0.05" stroke-width="2" stroke-miterlimit="10"/>
<path d="M308.638 112.874C348.618 131.199 376.149 169.937 376.072 214.739C375.965 277.166 322.295 327.73 256.195 327.674" stroke="#EAC2B2" stroke-opacity="0.05" stroke-width="2" stroke-miterlimit="10"/>
<path d="M308.005 542.803C348.047 524.546 375.71 485.855 375.787 441.054C375.894 378.625 322.397 327.972 256.298 327.916" stroke="#EAC2B2" stroke-opacity="0.05" stroke-width="2" stroke-miterlimit="10"/>
<path d="M256.335 327.814L240.324 327.794" stroke="#EAC2B2" stroke-opacity="0.05" stroke-width="2" stroke-miterlimit="10"/>
<path d="M336.922 -213.511L595.746 31.6342" stroke="#EAC2B2" stroke-opacity="0.05" stroke-width="2" stroke-miterlimit="10"/>
<path d="M499.259 43.8334C468.164 51.5015 445.19 78.1921 445.134 109.96C445.132 110.958 445.154 111.95 445.197 112.937" stroke="#EAC2B2" stroke-opacity="0.05" stroke-width="2" stroke-miterlimit="10"/>
<path d="M290.103 -154.864L595.632 134.462" stroke="#EAC2B2" stroke-opacity="0.05" stroke-width="2" stroke-miterlimit="10"/>
<path d="M595.895 -46.1922C542.866 -46.2341 499.805 -5.66077 499.717 44.4294" stroke="#EAC2B2" stroke-opacity="0.05" stroke-width="2" stroke-miterlimit="10"/>
<path d="M445.313 113.035C405.267 131.292 377.606 169.983 377.53 214.786C377.423 277.212 430.919 327.867 497.018 327.923" stroke="#EAC2B2" stroke-opacity="0.05" stroke-width="2" stroke-miterlimit="10"/>
<path d="M444.687 542.963C404.704 524.638 377.176 485.901 377.253 441.099C377.36 378.671 431.029 328.108 497.128 328.163" stroke="#EAC2B2" stroke-opacity="0.05" stroke-width="2" stroke-miterlimit="10"/>
<path d="M496.977 328.105L512.788 328.124" stroke="#EAC2B2" stroke-opacity="0.05" stroke-width="2" stroke-miterlimit="10"/>
<path d="M1383.33 329.175L1402.45 329.121" stroke="#EAC2B2" stroke-opacity="0.05" stroke-width="2" stroke-miterlimit="10"/>
<path d="M690.194 328.336L667.371 328.308" stroke="#EAC2B2" stroke-opacity="0.05" stroke-width="2" stroke-miterlimit="10"/>
<path d="M741.114 543.498L593.152 402.954L672.015 328.237L593.397 253.45L741.82 113.183" stroke="#EAC2B2" stroke-opacity="0.05" stroke-width="2" stroke-miterlimit="10"/>
<path d="M1330.64 544.25L1479.06 403.983L1400.45 329.119L1479.31 254.479L1331.34 113.936" stroke="#EAC2B2" stroke-opacity="0.05" stroke-width="2" stroke-miterlimit="10"/>
<path d="M851.693 -212.997L592.008 31.7383" stroke="#EAC2B2" stroke-opacity="0.05" stroke-width="2" stroke-miterlimit="10"/>
<path d="M688.646 44.0874C719.715 51.8057 742.596 78.5333 742.54 110.301C742.539 111.299 742.513 112.292 742.469 113.278" stroke="#EAC2B2" stroke-opacity="0.05" stroke-width="2" stroke-miterlimit="10"/>
<path d="M898.391 -154.258L591.842 134.584" stroke="#EAC2B2" stroke-opacity="0.05" stroke-width="2" stroke-miterlimit="10"/>
<path d="M919.622 -35.2758C916.92 -12.9477 896.83 4.39192 872.477 4.37249C868.275 4.36914 864.2 3.84901 860.323 2.8745" stroke="#EAC2B2" stroke-opacity="0.05" stroke-width="2" stroke-miterlimit="10"/>
<path d="M860.404 2.90464C861.416 6.55627 861.954 10.3869 861.947 14.3391C861.904 39.0586 840.656 59.0817 814.486 59.061C810.281 59.0577 806.211 58.5352 802.331 57.5616" stroke="#EAC2B2" stroke-opacity="0.05" stroke-width="2" stroke-miterlimit="10"/>
<path d="M802.427 57.6017C803.634 61.5599 804.277 65.7464 804.27 70.0748C804.226 94.7924 782.98 114.814 756.809 114.793C751.063 114.789 745.558 113.819 740.464 112.045" stroke="#EAC2B2" stroke-opacity="0.05" stroke-width="2" stroke-miterlimit="10"/>
<path d="M592.23 -46.1558C645.257 -46.1139 688.177 -5.47249 688.089 44.6177" stroke="#EAC2B2" stroke-opacity="0.05" stroke-width="2" stroke-miterlimit="10"/>
<path d="M742.489 113.398C782.468 131.722 809.997 170.46 809.92 215.263C809.813 277.69 756.144 328.253 690.047 328.198" stroke="#EAC2B2" stroke-opacity="0.05" stroke-width="2" stroke-miterlimit="10"/>
<path d="M1223.29 -212.441L1482.11 32.7041" stroke="#EAC2B2" stroke-opacity="0.05" stroke-width="2" stroke-miterlimit="10"/>
<path d="M1385.61 44.9068C1354.51 52.575 1331.54 79.2656 1331.49 111.033C1331.48 112.032 1331.5 113.024 1331.54 114.011" stroke="#EAC2B2" stroke-opacity="0.05" stroke-width="2" stroke-miterlimit="10"/>
<path d="M1176.46 -153.796L1482 135.531" stroke="#EAC2B2" stroke-opacity="0.05" stroke-width="2" stroke-miterlimit="10"/>
<path d="M1154.81 -34.9658C1157.43 -12.6334 1177.46 4.73822 1201.81 4.75766C1206.01 4.76101 1210.09 4.24738 1213.97 3.27907" stroke="#EAC2B2" stroke-opacity="0.05" stroke-width="2" stroke-miterlimit="10"/>
<path d="M1213.94 3.35536C1212.91 7.00538 1212.36 10.8352 1212.35 14.7874C1212.31 39.5069 1233.49 59.5635 1259.66 59.5842C1263.86 59.5876 1267.94 59.0715 1271.82 58.1041" stroke="#EAC2B2" stroke-opacity="0.05" stroke-width="2" stroke-miterlimit="10"/>
<path d="M1271.79 58.1918C1270.57 62.1481 1269.91 66.3336 1269.9 70.662C1269.86 95.3795 1291.03 115.435 1317.2 115.455C1322.95 115.46 1328.46 114.499 1333.56 112.733" stroke="#EAC2B2" stroke-opacity="0.05" stroke-width="2" stroke-miterlimit="10"/>
<path d="M1482.25 -45.1216C1429.23 -45.1636 1386.16 -4.59022 1386.07 45.5" stroke="#EAC2B2" stroke-opacity="0.05" stroke-width="2" stroke-miterlimit="10"/>
<path d="M1331.67 114.105C1291.63 132.361 1263.97 171.053 1263.89 215.855C1263.79 278.282 1317.28 328.936 1383.38 328.992" stroke="#EAC2B2" stroke-opacity="0.05" stroke-width="2" stroke-miterlimit="10"/>
<path d="M741.857 543.323C781.899 525.066 809.56 486.376 809.637 441.574C809.744 379.145 756.248 328.492 690.151 328.436" stroke="#EAC2B2" stroke-opacity="0.05" stroke-width="2" stroke-miterlimit="10"/>
<path d="M1331.05 544.031C1291.06 525.706 1263.54 486.969 1263.61 442.168C1263.72 379.739 1317.39 329.176 1383.49 329.232" stroke="#EAC2B2" stroke-opacity="0.05" stroke-width="2" stroke-miterlimit="10"/>
<path d="M308.331 542.973L160.367 402.43L239.227 327.713L160.612 252.926L309.036 112.659" stroke="#EAC2B2" stroke-opacity="0.05" stroke-width="2" stroke-miterlimit="10"/>
<path d="M444.277 543.182L592.701 402.914L514.085 328.051L592.946 253.411L444.983 112.867" stroke="#EAC2B2" stroke-opacity="0.05" stroke-width="2" stroke-miterlimit="10"/>
</svg>
