<svg width="783" height="261" viewBox="0 0 783 261" fill="none" xmlns="http://www.w3.org/2000/svg">
<mask id="mask0_5504_110462" style="mask-type:alpha" maskUnits="userSpaceOnUse" x="-51" y="-18" width="947" height="344">
<path d="M364.554 0.609088L146.871 229.143" stroke="#EAC2B2" stroke-opacity="0.05" stroke-width="2.5823" stroke-miterlimit="10"/>
<path d="M421.348 166.286C387.775 166.286 360.56 137.719 360.56 102.479C360.56 101.549 360.576 100.623 360.616 99.7038" stroke="#EAC2B2" stroke-opacity="0.05" stroke-width="2.5823" stroke-miterlimit="10"/>
<path d="M227.952 240.428C254.041 247.604 273.29 272.52 273.29 302.154C273.29 303.086 273.272 304.011 273.233 304.932" stroke="#EAC2B2" stroke-opacity="0.05" stroke-width="2.5823" stroke-miterlimit="10"/>
<path d="M403.84 55.286L146.871 325.008" stroke="#EAC2B2" stroke-opacity="0.05" stroke-width="2.5823" stroke-miterlimit="10"/>
<path d="M439.584 122.991C417.439 120.369 400.229 100.643 400.229 76.6987C400.229 68.9786 402.019 61.6962 405.187 55.2852" stroke="#EAC2B2" stroke-opacity="0.05" stroke-width="2.5823" stroke-miterlimit="10"/>
<path d="M405.188 55.286C383.043 52.6648 365.912 32.9384 365.912 8.99449C365.912 6.13179 366.158 3.32918 366.63 0.608461" stroke="#EAC2B2" stroke-opacity="0.05" stroke-width="2.5823" stroke-miterlimit="10"/>
<path d="M360.291 101.339C314.951 101.339 278.195 62.7593 278.195 15.1679C278.195 10.206 278.594 5.34156 279.361 0.610405" stroke="#EAC2B2" stroke-opacity="0.05" stroke-width="2.5823" stroke-miterlimit="10"/>
<path d="M598.507 0.609477C596.606 21.7339 580.09 37.7792 559.391 37.7792" stroke="#EAC2B2" stroke-opacity="0.05" stroke-width="2.5823" stroke-miterlimit="10"/>
<path d="M559.394 37.7798C559.394 60.8868 541.548 79.619 519.532 79.619C497.516 79.619 479.672 60.8868 479.672 37.7798" stroke="#EAC2B2" stroke-opacity="0.05" stroke-width="2.5823" stroke-miterlimit="10"/>
<path d="M479.67 37.7782C459.158 37.7782 442.518 21.5168 440.34 0.6085" stroke="#EAC2B2" stroke-opacity="0.05" stroke-width="2.5823" stroke-miterlimit="10"/>
<path d="M421.985 166.231C419.75 187.071 402.903 203.267 382.452 203.267C378.921 203.267 375.499 202.785 372.24 201.879" stroke="#EAC2B2" stroke-opacity="0.05" stroke-width="2.5823" stroke-miterlimit="10"/>
<path d="M372.24 201.875C373.095 205.281 373.555 208.855 373.555 212.542C373.555 235.606 355.741 254.304 333.768 254.304C330.239 254.304 326.82 253.819 323.561 252.914" stroke="#EAC2B2" stroke-opacity="0.05" stroke-width="2.5823" stroke-miterlimit="10"/>
<path d="M323.564 252.917C324.583 256.609 325.128 260.515 325.128 264.554C325.128 287.616 307.317 306.313 285.343 306.313C280.518 306.313 275.894 305.412 271.613 303.761" stroke="#EAC2B2" stroke-opacity="0.05" stroke-width="2.5823" stroke-miterlimit="10"/>
<path d="M146.826 156.403C191.354 156.403 227.449 194.291 227.449 241.026" stroke="#EAC2B2" stroke-opacity="0.05" stroke-width="2.5823" stroke-miterlimit="10"/>
<path d="M677.159 0.609088L894.842 229.143" stroke="#EAC2B2" stroke-opacity="0.05" stroke-width="2.5823" stroke-miterlimit="10"/>
<path d="M620.367 166.288C653.94 166.288 681.155 137.721 681.155 102.481C681.155 101.551 681.138 100.625 681.099 99.7057" stroke="#EAC2B2" stroke-opacity="0.05" stroke-width="2.5823" stroke-miterlimit="10"/>
<path d="M637.87 55.286L894.838 325.008" stroke="#EAC2B2" stroke-opacity="0.05" stroke-width="2.5823" stroke-miterlimit="10"/>
<path d="M602.128 122.991C624.271 120.369 641.48 100.643 641.48 76.6987C641.48 68.9786 639.69 61.6962 636.522 55.2852" stroke="#EAC2B2" stroke-opacity="0.05" stroke-width="2.5823" stroke-miterlimit="10"/>
<path d="M636.518 55.286C658.663 52.6648 675.794 32.9384 675.794 8.99449C675.794 6.13179 675.547 3.32918 675.076 0.608461" stroke="#EAC2B2" stroke-opacity="0.05" stroke-width="2.5823" stroke-miterlimit="10"/>
<path d="M681.421 101.338C726.761 101.338 763.519 62.7583 763.519 15.1669C763.519 10.205 763.12 5.34058 762.352 0.609428" stroke="#EAC2B2" stroke-opacity="0.05" stroke-width="2.5823" stroke-miterlimit="10"/>
<path d="M619.729 166.229C621.965 187.069 638.811 203.266 659.262 203.266C662.791 203.266 666.213 202.783 669.474 201.877" stroke="#EAC2B2" stroke-opacity="0.05" stroke-width="2.5823" stroke-miterlimit="10"/>
<path d="M669.465 201.875C668.61 205.281 668.149 208.855 668.149 212.542C668.149 235.606 685.963 254.304 707.937 254.304C711.467 254.304 714.888 253.819 718.146 252.914" stroke="#EAC2B2" stroke-opacity="0.05" stroke-width="2.5823" stroke-miterlimit="10"/>
<path d="M-50 19.1982L149.977 229.143" stroke="#EAC2B2" stroke-opacity="0.05" stroke-width="2.5823" stroke-miterlimit="10"/>
<path d="M68.8951 240.427C42.8059 247.603 23.5576 272.519 23.5576 302.153C23.5576 303.085 23.5772 304.01 23.6132 304.931" stroke="#EAC2B2" stroke-opacity="0.05" stroke-width="2.5823" stroke-miterlimit="10"/>
<path d="M-50 115.108L149.977 325.011" stroke="#EAC2B2" stroke-opacity="0.05" stroke-width="2.5823" stroke-miterlimit="10"/>
<path d="M150.021 156.401C105.494 156.401 69.3975 194.289 69.3975 241.024" stroke="#EAC2B2" stroke-opacity="0.05" stroke-width="2.5823" stroke-miterlimit="10"/>
<path d="M107.285 -16.999L-50 148.503" stroke="#EAC2B2" stroke-opacity="0.05" stroke-width="2.5823" stroke-miterlimit="10"/>
<path d="M440.769 122.1C487.654 140.067 521.126 187.293 521.126 242.725C521.126 246.733 520.952 250.702 520.608 254.62" stroke="#EAC2B2" stroke-opacity="0.05" stroke-width="2.5823" stroke-miterlimit="10"/>
<path d="M520.412 253.186C517.927 204.17 479.272 165.227 431.953 165.227C428.651 165.227 425.387 165.417 422.177 165.787" stroke="#EAC2B2" stroke-opacity="0.05" stroke-width="2.5823" stroke-miterlimit="10"/>
<path d="M422.177 165.789C431.099 117.212 471.683 80.4892 520.57 80.4892C569.45 80.4892 610.597 117.221 619.528 165.789" stroke="#EAC2B2" stroke-opacity="0.05" stroke-width="2.5823" stroke-miterlimit="10"/>
<path d="M619.529 165.787C616.317 165.418 613.057 165.228 609.752 165.228C562.432 165.228 523.778 204.17 521.291 253.187" stroke="#EAC2B2" stroke-opacity="0.05" stroke-width="2.5823" stroke-miterlimit="10"/>
<path d="M600.929 122.1C554.043 140.067 520.571 187.293 520.571 242.725C520.571 246.733 520.746 250.702 521.09 254.62" stroke="#EAC2B2" stroke-opacity="0.05" stroke-width="2.5823" stroke-miterlimit="10"/>
</mask>
<g mask="url(#mask0_5504_110462)">
<g filter="url(#filter0_b_5504_110462)">
<path d="M-0.357422 0.174805H782.643V209.529C782.643 238.052 759.52 261.175 730.997 261.175H51.2885C22.7652 261.175 -0.357422 238.052 -0.357422 209.529V0.174805Z" fill="#E8CCBF"/>
</g>
</g>
<defs>
<filter id="filter0_b_5504_110462" x="-103.649" y="-103.117" width="989.584" height="467.584" filterUnits="userSpaceOnUse" color-interpolation-filters="sRGB">
<feFlood flood-opacity="0" result="BackgroundImageFix"/>
<feGaussianBlur in="BackgroundImageFix" stdDeviation="51.646"/>
<feComposite in2="SourceAlpha" operator="in" result="effect1_backgroundBlur_5504_110462"/>
<feBlend mode="normal" in="SourceGraphic" in2="effect1_backgroundBlur_5504_110462" result="shape"/>
</filter>
</defs>
</svg>
