<svg width="28" height="16" viewBox="0 0 28 16" fill="none" xmlns="http://www.w3.org/2000/svg">
<path d="M1 9C0.447715 9 -9.65645e-08 8.55228 0 8C9.65645e-08 7.44772 0.447715 7 1 7L1 9ZM27.7071 7.2929C28.0976 7.68342 28.0976 8.31659 27.7071 8.70711L21.3431 15.0711C20.9526 15.4616 20.3195 15.4616 19.9289 15.0711C19.5384 14.6805 19.5384 14.0474 19.9289 13.6569L25.5858 8L19.9289 2.34315C19.5384 1.95262 19.5384 1.31946 19.9289 0.928935C20.3195 0.538411 20.9526 0.538411 21.3431 0.928936L27.7071 7.2929ZM1 7L27 7L27 9L1 9L1 7Z" fill="#29354D"/>
</svg>
