<svg viewBox="0 0 35 26" xmlns="http://www.w3.org/2000/svg">
<path d="M4.5 12.75C4.08579 12.75 3.75 13.0858 3.75 13.5C3.75 13.9142 4.08579 14.25 4.5 14.25L4.5 12.75ZM31.0303 14.0303C31.3232 13.7374 31.3232 13.2626 31.0303 12.9697L26.2574 8.1967C25.9645 7.90381 25.4896 7.90381 25.1967 8.1967C24.9038 8.48959 24.9038 8.96447 25.1967 9.25736L29.4393 13.5L25.1967 17.7426C24.9038 18.0355 24.9038 18.5104 25.1967 18.8033C25.4896 19.0962 25.9645 19.0962 26.2574 18.8033L31.0303 14.0303ZM4.5 14.25L30.5 14.25L30.5 12.75L4.5 12.75L4.5 14.25Z"/>
</svg>
