<svg width="375" height="731" viewBox="0 0 375 731" fill="none" xmlns="http://www.w3.org/2000/svg">
<g clip-path="url(#clip0_4472_120457)">
<path d="M-50.7168 579.501L52.0295 471.298L-2.56325 413.661L52.0295 356.084L-50.7168 247.882" stroke="#FBEEE2" stroke-width="2" stroke-miterlimit="10"/>
<path d="M-126.037 -3.44687L53.8677 185.426" stroke="#FBEEE2" stroke-width="2" stroke-miterlimit="10"/>
<path d="M-158.508 41.7408L53.8634 264.653" stroke="#FBEEE2" stroke-width="2" stroke-miterlimit="10"/>
<path d="M53.9026 125.308C17.1016 125.308 -12.7285 156.621 -12.7285 195.245" stroke="#FBEEE2" stroke-width="2" stroke-miterlimit="10"/>
<path d="M-128.996 833.931L53.8659 641.956" stroke="#FBEEE2" stroke-width="2" stroke-miterlimit="10"/>
<path d="M-158.508 785.64L53.8634 562.728" stroke="#FBEEE2" stroke-width="2" stroke-miterlimit="10"/>
<path d="M53.9026 702.073C17.1016 702.073 -12.7285 670.761 -12.7285 632.134" stroke="#FBEEE2" stroke-width="2" stroke-miterlimit="10"/>
<path d="M231.686 -3.44638L51.7812 185.426" stroke="#FBEEE2" stroke-width="2" stroke-miterlimit="10"/>
<path d="M118.791 194.751C140.352 200.682 156.262 221.273 156.262 245.765C156.262 246.534 156.245 247.299 156.215 248.06" stroke="#FBEEE2" stroke-width="2" stroke-miterlimit="10"/>
<path d="M310.001 -6.35938L51.9629 264.289" stroke="#FBEEE2" stroke-width="2" stroke-miterlimit="10"/>
<path d="M51.7441 125.306C88.5424 125.306 118.375 156.619 118.375 195.243" stroke="#FBEEE2" stroke-width="2" stroke-miterlimit="10"/>
<path d="M156.219 248.055C183.97 262.154 203.112 291.995 203.112 326.53C203.112 374.649 165.946 413.659 120.1 413.659" stroke="#FBEEE2" stroke-width="2" stroke-miterlimit="10"/>
<path d="M234.639 833.931L51.7773 641.955" stroke="#FBEEE2" stroke-width="2" stroke-miterlimit="10"/>
<path d="M118.791 632.628C140.352 626.699 156.262 606.107 156.262 581.615C156.262 580.846 156.245 580.081 156.215 579.322" stroke="#FBEEE2" stroke-width="2" stroke-miterlimit="10"/>
<path d="M315.821 839.539L51.9629 563.07" stroke="#FBEEE2" stroke-width="2" stroke-miterlimit="10"/>
<path d="M51.7441 702.074C88.5424 702.074 118.375 670.761 118.375 632.135" stroke="#FBEEE2" stroke-width="2" stroke-miterlimit="10"/>
<path d="M156.219 579.323C183.97 565.224 203.112 535.383 203.112 500.85C203.112 452.729 165.946 413.72 120.1 413.72" stroke="#FBEEE2" stroke-width="2" stroke-miterlimit="10"/>
<path d="M120.097 413.72H108.975" stroke="#FBEEE2" stroke-width="2" stroke-miterlimit="10"/>
<path d="M175.682 -3.44687L355.587 185.426" stroke="#FBEEE2" stroke-width="2" stroke-miterlimit="10"/>
<path d="M288.568 194.749C267.005 200.68 251.098 221.272 251.098 245.763C251.098 246.533 251.114 247.298 251.145 248.059" stroke="#FBEEE2" stroke-width="2" stroke-miterlimit="10"/>
<path d="M99.4961 -4.41926L355.594 264.289" stroke="#FBEEE2" stroke-width="2" stroke-miterlimit="10"/>
<path d="M355.621 125.308C318.822 125.308 288.99 156.62 288.99 195.245" stroke="#FBEEE2" stroke-width="2" stroke-miterlimit="10"/>
<path d="M251.156 248.055C223.401 262.154 204.262 291.995 204.262 326.53C204.262 374.649 241.427 413.659 287.273 413.659" stroke="#FBEEE2" stroke-width="2" stroke-miterlimit="10"/>
<path d="M172.719 833.931L355.582 641.956" stroke="#FBEEE2" stroke-width="2" stroke-miterlimit="10"/>
<path d="M288.576 632.629C267.012 626.7 251.105 606.108 251.105 581.616C251.105 580.847 251.122 580.082 251.153 579.323" stroke="#FBEEE2" stroke-width="2" stroke-miterlimit="10"/>
<path d="M75.2461 857L355.595 563.07" stroke="#FBEEE2" stroke-width="2" stroke-miterlimit="10"/>
<path d="M355.621 702.074C318.822 702.074 288.99 670.762 288.99 632.135" stroke="#FBEEE2" stroke-width="2" stroke-miterlimit="10"/>
<path d="M251.156 579.323C223.401 565.224 204.262 535.383 204.262 500.85C204.262 452.729 241.427 413.72 287.273 413.72" stroke="#FBEEE2" stroke-width="2" stroke-miterlimit="10"/>
<path d="M287.268 413.719H298.252" stroke="#FBEEE2" stroke-width="2" stroke-miterlimit="10"/>
<path d="M457.014 579.5L354.268 471.298L408.86 413.661L354.268 356.084L457.014 247.881" stroke="#FBEEE2" stroke-width="2" stroke-miterlimit="10"/>
<path d="M533.088 -3.44833L353.184 185.424" stroke="#FBEEE2" stroke-width="2" stroke-miterlimit="10"/>
<path d="M565.555 41.7413L353.184 264.653" stroke="#FBEEE2" stroke-width="2" stroke-miterlimit="10"/>
<path d="M353.147 125.307C389.944 125.307 419.777 156.62 419.777 195.244" stroke="#FBEEE2" stroke-width="2" stroke-miterlimit="10"/>
<path d="M536.046 833.931L353.184 641.956" stroke="#FBEEE2" stroke-width="2" stroke-miterlimit="10"/>
<path d="M565.555 785.641L353.184 562.729" stroke="#FBEEE2" stroke-width="2" stroke-miterlimit="10"/>
<path d="M353.147 702.073C389.944 702.073 419.777 670.761 419.777 632.134" stroke="#FBEEE2" stroke-width="2" stroke-miterlimit="10"/>
<path d="M156.358 579.501L53.6113 471.299L108.203 413.662L53.6113 356.085L156.358 247.882" stroke="#FBEEE2" stroke-width="2" stroke-miterlimit="10"/>
<path d="M251.006 579.5L353.753 471.298L299.161 413.661L353.753 356.084L251.006 247.881" stroke="#FBEEE2" stroke-width="2" stroke-miterlimit="10"/>
</g>
<defs>
<clipPath id="clip0_4472_120457">
<rect width="375" height="731" fill="white"/>
</clipPath>
</defs>
</svg>
