<svg width="36" height="27" viewBox="0 0 36 27" fill="none" xmlns="http://www.w3.org/2000/svg">
<path d="M30.75 12.7754C31.1642 12.7754 31.5 13.1112 31.5 13.5254C31.5 13.9396 31.1642 14.2754 30.75 14.2754L30.75 12.7754ZM4.21967 14.0557C3.92678 13.7628 3.92678 13.288 4.21967 12.9951L8.99264 8.22209C9.28553 7.9292 9.76041 7.9292 10.0533 8.22209C10.3462 8.51498 10.3462 8.98986 10.0533 9.28275L5.81066 13.5254L10.0533 17.768C10.3462 18.0609 10.3462 18.5358 10.0533 18.8287C9.76041 19.1216 9.28553 19.1216 8.99264 18.8287L4.21967 14.0557ZM30.75 14.2754L4.75 14.2754L4.75 12.7754L30.75 12.7754L30.75 14.2754Z" fill="#E6AF9A"/>
</svg>
