<svg width="24" height="25" viewBox="0 0 24 25" fill="none" xmlns="http://www.w3.org/2000/svg">
<path d="M22 18H15" stroke="#29354D" stroke-width="1.5" stroke-miterlimit="10" stroke-linecap="round" stroke-linejoin="round"/>
<path d="M5 18H2" stroke="#29354D" stroke-width="1.5" stroke-miterlimit="10" stroke-linecap="round" stroke-linejoin="round"/>
<path d="M22 7H19" stroke="#29354D" stroke-width="1.5" stroke-miterlimit="10" stroke-linecap="round" stroke-linejoin="round"/>
<path d="M9 7H2" stroke="#29354D" stroke-width="1.5" stroke-miterlimit="10" stroke-linecap="round" stroke-linejoin="round"/>
<path d="M7 15H13C14.1 15 15 15.5 15 17V19C15 20.5 14.1 21 13 21H7C5.9 21 5 20.5 5 19V17C5 15.5 5.9 15 7 15Z" stroke="#29354D" stroke-width="1.5" stroke-miterlimit="10" stroke-linecap="round" stroke-linejoin="round"/>
<path d="M11 4H17C18.1 4 19 4.5 19 6V8C19 9.5 18.1 10 17 10H11C9.9 10 9 9.5 9 8V6C9 4.5 9.9 4 11 4Z" stroke="#29354D" stroke-width="1.5" stroke-miterlimit="10" stroke-linecap="round" stroke-linejoin="round"/>
</svg>
