<svg viewBox="0 0 66 74" fill="none" xmlns="http://www.w3.org/2000/svg">
<g id="&#208;&#147;&#208;&#181;&#208;&#190;&#208;&#188;&#208;&#181;&#209;&#130;&#208;&#186;&#208;&#176;">
<path id="Ellipse 1009" d="M66 33.2245C66 51.5739 45 63.4286 33 74C19.5 62.9252 0 51.5739 0 33.2245C0 14.8751 14.7746 0 33 0C51.2254 0 66 14.8751 66 33.2245Z" fill="#FFF9EE"/>
<path id="Ellipse 1010" d="M64 33.4286C64 50.7861 44.2727 62 33 72C20.3182 61.5238 2 50.7861 2 33.4286C2 16.0711 15.8792 2 33 2C50.1208 2 64 16.0711 64 33.4286Z" fill="#E9B7A0"/>
<path id="Vector" d="M19.0004 29.2007C20.267 22.2537 26.0652 17 33.0002 17C39.9363 17 45.7343 22.2522 47 29.2007M44.3331 22.8823C37.7331 25.4521 32.9999 32.1654 32.9999 40.094M32.9999 40.094C32.9999 40.6676 32.9519 41.2769 32.9999 41.837C33.0481 41.2769 32.9999 40.6676 32.9999 40.094ZM32.9999 40.094C32.9999 32.1654 28.2667 25.4521 21.6667 22.8823M33.0002 41.6192C33.3546 34.5903 38.9229 28.9828 45.6667 28.9828C46.1374 28.9828 46.5426 28.9294 47 28.9828M19 28.9824C19.4573 28.929 19.8623 28.9824 20.3333 28.9824C27.0767 28.9824 32.6454 34.5899 32.9998 41.6188M37.6411 41.9858H28.0694V48.638C28.3261 50.0556 29.6745 53 33.0202 53C36.4874 53 37.4944 50.1283 37.6411 48.638M37.6411 41.9858V48.638M37.6411 41.9858C38.8513 41.9495 41.2497 42.5747 41.1617 45.3664C41.0737 48.1581 38.7779 48.7107 37.6411 48.638" stroke="#FFFCF8"/>
</g>
</svg>
