<svg width="18" height="18" viewBox="0 0 18 18" fill="none" xmlns="http://www.w3.org/2000/svg">
<path d="M1.97722 3.2857C2.54864 0.814272 6.27007 0.814272 6.83436 3.2857C7.17007 4.7357 6.24864 5.96427 5.44864 6.72856C4.86293 7.2857 3.9415 7.27856 3.35579 6.72856C2.56293 5.96427 1.6415 4.7357 1.97722 3.2857Z" stroke="#797979" stroke-width="1.5"/>
<path d="M11.2643 11.857C11.8357 9.38556 15.5786 9.38556 16.15 11.857C16.4857 13.307 15.5643 14.5356 14.7571 15.2998C14.1714 15.857 13.2429 15.8498 12.6571 15.2998C11.85 14.5356 10.9286 13.307 11.2643 11.857Z" stroke="#797979" stroke-width="1.5"/>
<path d="M9.07149 3.57153H10.9858C12.3072 3.57153 12.9215 5.20725 11.9286 6.07868L6.22149 11.0715C5.22864 11.9358 5.84292 13.5715 7.15721 13.5715H9.07149" stroke="#797979" stroke-width="1.5" stroke-linecap="round" stroke-linejoin="round"/>
<path d="M4.42117 3.92868H4.42942" stroke="#797979" stroke-width="1.5" stroke-linecap="round" stroke-linejoin="round"/>
<path d="M13.7063 12.5H13.7146" stroke="#797979" stroke-width="1.5" stroke-linecap="round" stroke-linejoin="round"/>
</svg>
