<svg viewBox="0 0 24 24" xmlns="http://www.w3.org/2000/svg">
  <defs>
    <style><![CDATA[
      .sprite { display: none;}
      .sprite:target { display: inline; }
    ]]></style>
  </defs>

  <g class="sprite" id="filter" fill="none" >
    <path 
      d="M21 15H14M4 15H1M21 4H18M8 4H1M6 12H12C13.1 12 14 12.5 14 14V16C14 17.5 13.1 18 12 18H6C4.9 18 4 17.5 4 16V14C4 12.5 4.9 12 6 12ZM10 1H16C17.1 1 18 1.5 18 3V5C18 6.5 17.1 7 16 7H10C8.9 7 8 6.5 8 5V3C8 1.5 8.9 1 10 1Z"
      stroke="#29354D" stroke-width="1.5" stroke-miterlimit="10" stroke-linecap="round"
      stroke-linejoin="round" />
  </g>

  <g id="search" class="sprite">
    <path
      d="M22.7 24.7998C22.7406 24.9316 22.8145 25.0507 22.9147 25.1455C23.0149 25.2403 23.1379 25.3076 23.2718 25.3408C23.4057 25.3741 23.5459 25.3721 23.6788 25.3352C23.8117 25.2982 23.9327 25.2276 24.0303 25.1301C24.1278 25.0325 24.1984 24.9115 24.2354 24.7786C24.2723 24.6457 24.2743 24.5055 24.241 24.3716C24.2078 24.2378 24.1405 24.1148 24.0457 24.0146C23.9509 23.9144 23.8318 23.8404 23.7 23.7998L22.7 24.7998ZM2 14.9998C1.5 12.7998 1.5 10.5998 2 8.49982L0.5 8.09982C0 10.4998 0 12.8998 0.5 15.2998L2 14.9998ZM19.9 8.49982C20.4 10.5998 20.4 12.7998 19.9 14.9998L21.3 15.2998C21.9 12.8998 21.9 10.4998 21.3 8.09982L19.9 8.49982ZM14.2 20.6998C12 21.1998 9.80001 21.1998 7.70001 20.6998L7.29999 22.0998C9.69999 22.6998 12.1 22.6998 14.5 22.0998L14.2 20.6998ZM7.70001 2.69983C9.80001 2.29983 12 2.29983 14.2 2.69983L14.5 1.2998C12.1 0.799805 9.69999 0.799805 7.29999 1.2998L7.70001 2.7998V2.69983ZM7.70001 20.6998C6.31099 20.3799 5.03995 19.6757 4.03204 18.6678C3.02413 17.6599 2.31997 16.3888 2 14.9998L0.5 15.2998C0.895926 16.9502 1.74068 18.4589 2.9408 19.659C4.14091 20.8591 5.6496 21.7039 7.29999 22.0998L7.70001 20.6998ZM14.5 22.0998C16.1554 21.7145 17.6698 20.8732 18.8716 19.6714C20.0735 18.4696 20.9147 16.9552 21.3 15.2998L19.9 14.9998C19.5801 16.3888 18.8759 17.6599 17.868 18.6678C16.8601 19.6757 15.589 20.3799 14.2 20.6998L14.5 22.0998ZM14.2 2.7998C15.584 3.13045 16.8493 3.83815 17.8555 4.84433C18.8616 5.85051 19.5694 7.11582 19.9 8.49982L21.3 8.09982C20.9041 6.44943 20.0593 4.94072 18.8592 3.7406C17.6591 2.54049 16.1504 1.69573 14.5 1.2998L14.2 2.7998ZM7.29999 1.2998C5.6496 1.69573 4.14091 2.54049 2.9408 3.7406C1.74068 4.94072 0.895926 6.44943 0.5 8.09982L2 8.49982C2.33065 7.11582 3.03832 5.85051 4.04449 4.84433C5.05067 3.83815 6.31601 3.13045 7.70001 2.7998L7.29999 1.2998ZM18.3 20.0998L22.8 24.6998L23.8 23.6998L19.3 18.9998L18.3 20.0998Z"
      fill="#29354D" />
  </g>


  <g id="double-arrows" class="sprite">
    <path
      d="M8.5 4.70001L4.59998 1L1 4.70001M4.70001 19V1M11.5 15.3L15.3 19M15.3 19L19 15.3M15.3 19V1"
      stroke="#29354D" stroke-width="1.5" stroke-linecap="round" stroke-linejoin="round" fill="none" />
  </g>

  <symbol id="bag" viewBox="0 0 23 26" fill="none">
    <path
      d="M5.99812 7.49974V6.49974C5.99812 3.79974 8.19811 1.19974 10.7981 0.999737C11.5105 0.945384 12.2265 1.0356 12.9031 1.265C13.5797 1.49439 14.2029 1.8582 14.7354 2.33458C15.2678 2.81096 15.6984 3.39006 16.0013 4.03709C16.3043 4.68412 16.4732 5.38571 16.4981 6.09971V7.69975M7.79811 24.2997H14.7981C19.4981 24.2997 20.2981 22.2997 20.5981 20.0997L21.3981 13.0997C21.7981 10.2997 20.8981 7.89976 15.9981 7.89976H6.59813C1.59813 7.89976 0.79813 10.2997 1.09813 13.0997L2.09813 20.0997C2.29813 22.3997 3.09811 24.2997 7.79811 24.2997Z"
      stroke="#29354D" stroke-width="1.5" stroke-miterlimit="10" stroke-linecap="round"
      stroke-linejoin="round" />
  </symbol>

  <symbol id="standart-arrow-right" viewBox="0 0 28 15">
    <path
      d="M1.00159 8.29953C0.805863 8.29678 0.615245 8.23665 0.453371 8.12659C0.291498 8.01653 0.165475 7.86139 0.0909447 7.68039C0.0164147 7.49939 -0.00335138 7.3005 0.0340905 7.10837C0.0715323 6.91624 0.164536 6.73932 0.301577 6.59955C0.501577 6.39955 0.701589 6.29953 1.00159 6.29953V8.29953ZM27.7016 6.59955C27.8848 6.78648 27.9875 7.03778 27.9875 7.29953C27.9875 7.56128 27.8848 7.81261 27.7016 7.99954L21.3016 14.3995C21.109 14.544 20.8708 14.6141 20.6307 14.597C20.3906 14.58 20.1647 14.4769 19.9945 14.3066C19.8243 14.1364 19.7212 13.9106 19.7041 13.6704C19.687 13.4303 19.7572 13.1921 19.9016 12.9995L25.6016 7.29953L19.9016 1.69955C19.7184 1.51263 19.6157 1.26129 19.6157 0.999542C19.6157 0.73779 19.7184 0.486459 19.9016 0.29953C20.0885 0.116303 20.3398 0.0136719 20.6016 0.0136719C20.8633 0.0136719 21.1146 0.116303 21.3016 0.29953L27.7016 6.59955ZM1.00159 6.29953H27.0016V8.29953H1.00159V6.29953Z"
    />
  </symbol>

  <symbol id="dark-crest" viewBox="0 0 20 20">
    <path d="M1 1L19 19M19 1L1 19" stroke="#29354D" stroke-width="2" stroke-linecap="round" />
  </symbol>

  <symbol id="arrow-right" fill="none" viewBox="0 0 28 11">
    <path
      d="M0.800025 4.7999C0.700076 4.78546 0.598214 4.79285 0.50138 4.8215C0.404546 4.85016 0.315049 4.89941 0.239051 4.96591C0.163052 5.03241 0.102328 5.11458 0.0610721 5.20676C0.0198159 5.29893 -0.000999644 5.39893 3.68944e-05 5.49991C3.68944e-05 5.71208 0.0843218 5.91555 0.234351 6.06558C0.38438 6.21561 0.587852 6.2999 0.800025 6.2999V4.7999ZM27.3 5.99991C27.4136 5.85802 27.4756 5.68167 27.4756 5.49991C27.4756 5.31814 27.4136 5.1418 27.3 4.99991L22.5 0.199921C22.3581 0.0863179 22.1818 0.0244141 22 0.0244141C21.8183 0.0244141 21.6419 0.0863179 21.5 0.199921C21.4335 0.265096 21.3807 0.342886 21.3446 0.428741C21.3085 0.514597 21.29 0.606793 21.29 0.699921C21.29 0.793048 21.3085 0.885214 21.3446 0.971069C21.3807 1.05693 21.4335 1.13474 21.5 1.19992L25.7 5.49991L21.4001 9.69992C21.3063 9.85313 21.2667 10.0334 21.2879 10.2118C21.309 10.3902 21.3896 10.5563 21.5166 10.6833C21.6437 10.8103 21.8097 10.8909 21.9881 10.912C22.1665 10.9332 22.3468 10.8937 22.5 10.7999L27.3 5.99991ZM0.800025 6.2999H26.8V4.7999H0.800025V6.2999Z"
      fill="#29354D" />
  </symbol>

  <symbol id="popup" fill="none" viewBox="0 0 14 9">
    <path d="M1 1L7 7L13 1" stroke="#29354D" stroke-width="1.5" />
  </symbol>

  <symbol id="geo-icon" fill="none" viewBox="0 0 20 22">
    <path
      d="M9.60001 12.3992C10.4222 12.3992 11.2107 12.0726 11.792 11.4912C12.3734 10.9098 12.7 10.1214 12.7 9.29919C12.7 8.47702 12.3734 7.68854 11.792 7.10718C11.2107 6.52581 10.4222 6.19922 9.60001 6.19922C8.77784 6.19922 7.98932 6.52581 7.40796 7.10718C6.8266 7.68854 6.5 8.47702 6.5 9.29919C6.5 10.1214 6.8266 10.9098 7.40796 11.4912C7.98932 12.0726 8.77784 12.3992 9.60001 12.3992Z"
      stroke="#292D32" stroke-width="1.5" />
    <path
      d="M1.19902 7.49961C3.19902 -1.20039 15.999 -1.20039 17.999 7.49961C19.199 12.4996 15.999 16.8996 13.199 19.4996C12.2308 20.4286 10.9409 20.9473 9.59902 20.9473C8.25718 20.9473 6.96728 20.4286 5.99901 19.4996C3.29901 16.8996 -0.000975341 12.4996 1.19902 7.49961Z"
      stroke="#292D32" stroke-width="1.5" />
  </symbol>

  <symbol id="home" fill="none" viewBox="0 0 22 22">
    <path
      d="M9.00008 17.0004H13.0001M15.2001 21.0004H6.80007C6.2582 21.0276 5.71647 20.9441 5.20785 20.7553C4.69922 20.5665 4.23433 20.2761 3.84145 19.902C3.44857 19.5278 3.13591 19.0776 2.92251 18.5788C2.7091 18.08 2.59941 17.543 2.60009 17.0004V12.1004C2.60009 11.4004 2.30007 10.7004 1.80007 10.2004C1.52345 9.93507 1.30893 9.61183 1.17187 9.25385C1.0348 8.89586 0.978615 8.51195 1.00728 8.1297C1.03595 7.74745 1.14877 7.37626 1.3377 7.04272C1.52662 6.70919 1.78698 6.42158 2.10009 6.20044L8.50008 1.80042C9.22949 1.27919 10.1036 0.999023 11.0001 0.999023C11.8966 0.999023 12.7707 1.27919 13.5001 1.80042L19.8001 6.20044C20.1201 6.41354 20.3889 6.69493 20.5871 7.02441C20.7852 7.35389 20.9079 7.72326 20.9461 8.10583C20.9844 8.48841 20.9373 8.87468 20.8083 9.23688C20.6793 9.59907 20.4716 9.92819 20.2001 10.2004C19.7001 10.7004 19.4001 11.4004 19.4001 12.2004V17.0004C19.4008 17.543 19.2911 18.08 19.0777 18.5788C18.8642 19.0776 18.5516 19.5278 18.1587 19.902C17.7658 20.2761 17.3009 20.5665 16.7923 20.7553C16.2837 20.9441 15.742 21.0276 15.2001 21.0004Z"
      stroke="#29354D" stroke-width="1.5" stroke-linecap="round" />
  </symbol>


</svg>