<svg xmlns="http://www.w3.org/2000/svg">
  <defs>
    <style><![CDATA[
      .sprite { display: none; }
      .sprite:target { display: inline; }
    ]]></style>
  </defs>
  <g class="sprite" id="circle">
    <circle cx="50" cy="50" r="45" stroke-width="5" stroke="#0f0" fill="#0f0" fill-opacity="0.5" />
  </g>
  <g class="sprite" id="square">
    <rect y="5" x="5" width="90" height="90" stroke-width="5" stroke="#f00" fill="#f00"
      fill-opacity="0.5" />
  </g>
  <g class="sprite" id="triangle">
    <path d="M20,7 L92,50 L6,93 z" stroke-width="5" stroke="#00f" fill="#00f" fill-opacity="0.5" />
  </g>

  <g id="popup" fill="none" class="sprite" viewBox="0 0 14 9">
    <path d="M1 1L7 7L13 1" stroke="#29354D" stroke-width="1.5" />
  </g>

  <g id="filter" class="sprite" fill="none" viewBox="0 0 20 20">
    <path
      d="M21 15H14M4 15H1M21 4H18M8 4H1M6 12H12C13.1 12 14 12.5 14 14V16C14 17.5 13.1 18 12 18H6C4.9 18 4 17.5 4 16V14C4 12.5 4.9 12 6 12ZM10 1H16C17.1 1 18 1.5 18 3V5C18 6.5 17.1 7 16 7H10C8.9 7 8 6.5 8 5V3C8 1.5 8.9 1 10 1Z"
      stroke="#292D32" stroke-width="1.5" stroke-miterlimit="10" stroke-linecap="round"
      stroke-linejoin="round" />
  </g>

</svg>