<svg viewBox="0 0 24 24" preserveAspectRatio="xMidYMin meet" xmlns="http://www.w3.org/2000/svg">
  <defs>
    <style>.sprite{display:none}.sprite:target{display:inline}</style>
  </defs>

  <g class="sprite" id="filter" fill="none">
    <path
      d="M21 15h-7M4 15H1M21 4h-3M8 4H1m5 8h6c1.1 0 2 .5 2 2v2c0 1.5-.9 2-2 2H6c-1.1 0-2-.5-2-2v-2c0-1.5.9-2 2-2zm4-11h6c1.1 0 2 .5 2 2v2c0 1.5-.9 2-2 2h-6c-1.1 0-2-.5-2-2V3c0-1.5.9-2 2-2z"
      stroke="#35415c" stroke-width="1.5" stroke-miterlimit="10" stroke-linecap="round"
      stroke-linejoin="round" />
  </g>

  <g id="search" class="sprite">
    <path
      d="M22.7 24.8a.8.8 0 1 0 1-1l-1 1zM2 15c-.5-2.2-.5-4.4 0-6.5L.5 8.1c-.5 2.4-.5 4.8 0 7.2L2 15zm17.9-6.5c.5 2.1.5 4.3 0 6.5l1.4.3c.6-2.4.6-4.8 0-7.2l-1.4.4zm-5.7 12.2c-2.2.5-4.4.5-6.5 0l-.4 1.4c2.4.6 4.8.6 7.2 0l-.3-1.4zm-6.5-18c2.1-.4 4.3-.4 6.5 0l.3-1.4c-2.4-.5-4.8-.5-7.2 0l.4 1.5v-.1zm0 18A7.6 7.6 0 0 1 2 15l-1.5.3a9.2 9.2 0 0 0 6.8 6.8l.4-1.4zm6.8 1.4a9.1 9.1 0 0 0 6.8-6.8l-1.4-.3a7.6 7.6 0 0 1-5.7 5.7l.3 1.4zm-.3-19.3a7.7 7.7 0 0 1 5.7 5.7l1.4-.4a9.2 9.2 0 0 0-6.8-6.8l-.3 1.5zM7.3 1.3A9.2 9.2 0 0 0 .5 8.1l1.5.4a7.7 7.7 0 0 1 5.7-5.7l-.4-1.5zm11 18.8 4.5 4.6 1-1-4.5-4.7-1 1.1z"
      fill="#35415c" />
  </g>

  <g id="search-light" class="sprite">
    <path
      d="M22.7 24.8a.8.8 0 1 0 1-1l-1 1zM2 15c-.5-2.2-.5-4.4 0-6.5L.5 8.1c-.5 2.4-.5 4.8 0 7.2L2 15zm17.9-6.5c.5 2.1.5 4.3 0 6.5l1.4.3c.6-2.4.6-4.8 0-7.2l-1.4.4zm-5.7 12.2c-2.2.5-4.4.5-6.5 0l-.4 1.4c2.4.6 4.8.6 7.2 0l-.3-1.4zm-6.5-18c2.1-.4 4.3-.4 6.5 0l.3-1.4c-2.4-.5-4.8-.5-7.2 0l.4 1.5v-.1zm0 18A7.6 7.6 0 0 1 2 15l-1.5.3a9.2 9.2 0 0 0 6.8 6.8l.4-1.4zm6.8 1.4a9.1 9.1 0 0 0 6.8-6.8l-1.4-.3a7.6 7.6 0 0 1-5.7 5.7l.3 1.4zm-.3-19.3a7.7 7.7 0 0 1 5.7 5.7l1.4-.4a9.2 9.2 0 0 0-6.8-6.8l-.3 1.5zM7.3 1.3A9.2 9.2 0 0 0 .5 8.1l1.5.4a7.7 7.7 0 0 1 5.7-5.7l-.4-1.5zm11 18.8 4.5 4.6 1-1-4.5-4.7-1 1.1z"
      fill="#FFF9EE" />
  </g>

  <g id="arrow-right-bg" class="sprite">
    <path
      d="M1.002 8.3a1 1 0 0 1-.7-1.7c.2-.2.4-.3.7-.3v2zm26.7-1.7a1 1 0 0 1 0 1.4l-6.4 6.4a1 1 0 0 1-1.4-1.4l5.7-5.7-5.7-5.6a1 1 0 0 1 0-1.4 1 1 0 0 1 1.4 0l6.4 6.3zm-26.7-.3h26v2h-26v-2z"
      fill="#35415c" />
  </g>

  <g id="double-arrows"
    class="sprite">
    <path d="M8.5 4.7 4.6 1 1 4.7M4.7 19V1m6.8 14.3 3.8 3.7m0 0 3.7-3.7M15.3 19V1" stroke="#35415c"
      stroke-width="1.5" stroke-linecap="round" stroke-linejoin="round" fill="none" />
  </g>

  <g id="invalid" class="sprite">
    <path d="M12 24a12 12 0 1 0 0-24 12 12 0 0 0 0 24z" fill="#35415c" />
    <path d="m8.398 8.4 7.2 7.2m-7.2 0 7.2-7.2" stroke="#FFF9EE" stroke-width="1.5"
      stroke-linecap="round" stroke-linejoin="round" />
  </g>

  <g id="succes" class="sprite" fill="#67A7AC" stroke-width="1.5" stroke-linecap="round"
    stroke-linejoin="round">
    <path d="M11 21a10 10 0 1 0 0-20 10 10 0 0 0 0 20z" stroke="#67A7AC" />
    <path d="m6.8 11 2.8 2.8 5.6-5.6" stroke="#fff" />
  </g>

  <g id="clock" class="sprite" fill="none" stroke="#797979" stroke-width="1.5"
    stroke-linecap="round">
    <path d="M16.84 8.92A7.92 7.92 0 1 1 1 8.92a7.92 7.92 0 0 1 15.84 0z" />
    <path d="M11.86 11.44 9.4 9.97a1.75 1.75 0 0 1-.77-1.36V5.37" />
  </g>

  <g id="geograph" class="sprite" fill="none" stroke="#797979" stroke-width="1.5">
    <path
      d="M1.084 3.175c.7-2.9 5-2.9 5.7 0 .4 1.7-.7 3.1-1.6 4-.7.6-1.8.6-2.4 0-1-.9-2.1-2.3-1.7-4zm10.8 10c.7-2.9 5-2.9 5.7 0 .4 1.7-.7 3.1-1.6 4a2 2 0 0 1-2.5 0c-.9-.9-1.9-2.3-1.6-4z" />
    <path d="M9.384 3.475h2.2c1.5 0 2.3 1.9 1.1 2.9l-6.7 5.8c-1.2 1-.4 2.9 1.1 2.9h2.2"
      stroke-linecap="round" stroke-linejoin="round" />
  </g>

  <g id="close-light" class="sprite" fill="none">
    <path d="m1 1 18 18m0-18L1 19" stroke="#FFF9EE" stroke-width="2" stroke-linecap="round"
    />
  </g>

  <g id="tel" class="sprite">
    <path
      d="M21 17.3c0 .4-.1.7-.3 1.1l-.7 1c-.5.5-1 .9-1.6 1.2-.6.2-1.3.4-2 .4-1 0-2.1-.2-3.3-.7-1.2-.5-2.3-1.1-3.4-2-1.2-.8-2.2-1.8-3.3-2.8a22.2 22.2 0 0 1-4.8-6.7C1.3 7.7 1 6.6 1 5.5c0-.7.1-1.3.4-1.9.2-.6.6-1.2 1.2-1.7.6-.6 1.3-.9 2.1-.9l.8.2c.3.1.5.3.7.6l2.3 3.3.4.7.1.6-.2.7-.6.7-.8.8-.1.3v.2l.1.2.9 1.3 1.5 1.6 1.6 1.5 1.3.9.2.1h.3l.4-.2.8-.8.7-.6.7-.2.6.1.7.4 3.3 2.4.6.6v.9z"
      stroke="#797979" stroke-width="1.5" stroke-miterlimit="10" fill="none" />
  </g>
  <g id="photo-app" class="sprite" fill="none" stroke="#BABABA" stroke-width="1.5"
    stroke-linecap="round" stroke-linejoin="round">
    <path
      d="M9.258 7h3m-6.74 14h10.48c2.76 0 3.86-1.69 3.99-3.75l.52-8.26A3.754 3.754 0 0 0 16.758 5c-.61 0-1.17-.35-1.45-.89l-.72-1.45c-.46-.91-1.66-1.66-2.68-1.66h-2.29c-1.03 0-2.23.75-2.69 1.66l-.72 1.45c-.28.54-.84.89-1.45.89-2.17 0-3.89 1.83-3.75 3.99l.52 8.26c.12 2.06 1.23 3.75 3.99 3.75z" />
    <path
      d="M10.758 17c1.79 0 3.25-1.46 3.25-3.25s-1.46-3.25-3.25-3.25-3.25 1.46-3.25 3.25S8.968 17 10.758 17z" />
  </g>

  <g id="geo-bg" fill="none" class="sprite" stroke="#35415c" stroke-width="1.5">
    <path d="M9.6 12.4a3.1 3.1 0 1 0 0-6.2 3.1 3.1 0 0 0 0 6.2z" />
    <path
      d="M1.199 7.5c2-8.7 14.8-8.7 16.8 0 1.2 5-2 9.4-4.8 12a5.2 5.2 0 0 1-7.2 0c-2.7-2.6-6-7-4.8-12z" />
  </g>
  <g id="checked" fill="none" class="sprite">
    <path d="M10.333 1 3.917 7.875 1 4.75" stroke="#35415c" stroke-width="1.5"
      stroke-linecap="round"
      stroke-linejoin="round" />
  </g>

  <g id="close"
    fill="none" class="sprite">
    <path d="m1 1 18 18m0-18L1 19" stroke="#35415c" stroke-width="2" stroke-linecap="round"
    />
  </g>

  <g id="cart" class="sprite" fill="none" stroke="#35415c" stroke-width="1.5" stroke-linecap="round"
    stroke-linejoin="round">
    <path
      d="M21 5.98c-3.33-.33-6.68-.5-10.02-.5-1.98 0-3.96.1-5.94.3L3 5.98M8.5 4.97l.22-1.31C8.88 2.71 9 2 10.69 2h2.62c1.69 0 1.82.75 1.97 1.67l.22 1.3M18.848 9.14l-.65 10.07c-.11 1.57-.2 2.79-2.99 2.79h-6.42c-2.79 0-2.88-1.22-2.99-2.79l-.65-10.07M10.328 16.5h3.33M9.5 12.5h5" />
  </g>

  <g id="is-done" class="sprite" fill="none">
    <path d="m1.36 4.396 3.419 3.42L11.63.976" stroke="#fff" stroke-width="1.844"
      stroke-linecap="round" stroke-linejoin="round" />
  </g>

  <symbol id="plus" fill="none" viewBox="0 0 14 14">
    <path d="M1 7h12m-6 6V1" stroke="#35415c" stroke-width="1.5" stroke-linecap="round"
      stroke-linejoin="round" />
  </symbol>

  <symbol id="minus" viewBox="0 0 14 2" fill="none">
    <path d="M1 1h12" stroke="#35415c" stroke-width="1.5" stroke-linecap="round"
      stroke-linejoin="round" />
  </symbol>

  <symbol id="arrow" viewBox="0 0 15 28" fill="none">
    <path
      d="M6.302 27a1 1 0 1 0 2 0h-2zM8.002.3a1 1 0 0 0-1.4 0l-6.3 6.4a1 1 0 0 0 1.4 1.4l5.6-5.7 5.7 5.7a1 1 0 0 0 .7.3 1 1 0 0 0 .7-1.7L8.002.3zm.3 26.7V1h-2v26h2z"
      fill="#35415c" />
  </symbol>

  <symbol id="phone" viewBox="0 0 22 22" fill="none">
    <path
      d="M21 17.3c0 .4-.1.7-.3 1.1l-.7 1c-.5.5-1 .9-1.6 1.2-.6.2-1.3.4-2 .4-1 0-2.1-.2-3.3-.7-1.2-.5-2.3-1.1-3.4-2-1.2-.8-2.2-1.8-3.3-2.8-2-2-3.6-4.2-4.8-6.7C1.3 7.7 1 6.6 1 5.5c0-.7.1-1.3.4-1.9.2-.6.6-1.2 1.2-1.7.6-.6 1.3-.9 2.1-.9l.8.2c.3.1.5.3.7.6l2.3 3.3.4.7.1.6-.2.7-.6.7-.8.8-.1.3v.2l.1.2.9 1.3 1.5 1.6 1.6 1.5 1.3.9.2.1h.3l.4-.2.8-.8.7-.6.7-.2.6.1.7.4 3.3 2.4.6.6v.9z" />
  </symbol>

  <symbol id="email" viewBox="0 0 22 19" fill="none">
    <path d="M16 18H6c-3 0-5-1.5-5-5V6c0-3.5 2-5 5-5h10c3 0 5 1.5 5 5v7c0 3.5-2 5-5 5z"
      stroke="#EAB7A1" stroke-width="1.5" stroke-miterlimit="10" stroke-linecap="round"
      stroke-linejoin="round" />
    <path d="M16 6.5 12.9 9a3.2 3.2 0 0 1-3.8 0L6 6.5" stroke="#EAB7A1" stroke-width="1.5"
      stroke-miterlimit="10" stroke-linecap="round" stroke-linejoin="round" />
  </symbol>

  <symbol id="bag" viewBox="0 0 23 26" fill="none">
    <path
      d="M5.998 7.5v-1c0-2.7 2.2-5.3 4.8-5.5a5.3 5.3 0 0 1 5.7 5.1v1.6m-8.7 16.6h7c4.7 0 5.5-2 5.8-4.2l.8-7c.4-2.8-.5-5.2-5.4-5.2h-9.4c-5 0-5.8 2.4-5.5 5.2l1 7c.2 2.3 1 4.2 5.7 4.2z" />
  </symbol>

  <symbol id="standart-arrow-right" viewBox="0 0 28 15">
    <path
      d="M1.002 8.3a1 1 0 0 1-.7-1.7c.2-.2.4-.3.7-.3v2zm26.7-1.7a1 1 0 0 1 0 1.4l-6.4 6.4a1 1 0 0 1-1.4-1.4l5.7-5.7-5.7-5.6a1 1 0 0 1 0-1.4 1 1 0 0 1 1.4 0l6.4 6.3zm-26.7-.3h26v2h-26v-2z" />
  </symbol>

  <symbol id="slim-arrow" viewBox="0 0 28 11">
    <path
      d="M.8 4.8a.7.7 0 0 0-.8.7.8.8 0 0 0 .8.8V4.8zM27.3 6a.8.8 0 0 0 0-1L22.5.2a.8.8 0 0 0-1 0 .7.7 0 0 0 0 1l4.2 4.3-4.3 4.2a.8.8 0 0 0 1.1 1.1L27.3 6zM.8 6.3h26V4.8H.8v1.5z" />
  </symbol>

  <symbol id="standart-arrow-left" viewBox="0 0 28 15">
    <path
      d="M27.002 6.3a1 1 0 0 1 0 2v-2zM.302 8a1 1 0 0 1 0-1.4l6.4-6.3a1 1 0 0 1 1.4 1.4l-5.7 5.6 5.7 5.7a1 1 0 0 1 .3.7 1 1 0 0 1-1.7.7L.302 8zm26.7.3h-26v-2h26v2z" />
  </symbol>

  <symbol id="crest" viewBox="0 0 20 20">
    <path d="m1 1 18 18m0-18L1 19" />
  </symbol>

  <symbol id="dark-crest" viewBox="0 0 20 20">
    <path d="m1 1 18 18m0-18L1 19" stroke="#35415c" stroke-width="2" stroke-linecap="round" />
  </symbol>

  <symbol id="arrow-right" fill="none" viewBox="0 0 28 11">
    <path
      d="M.8 4.8a.7.7 0 0 0-.8.7.8.8 0 0 0 .8.8V4.8zM27.3 6a.8.8 0 0 0 0-1L22.5.2a.8.8 0 0 0-1 0 .7.7 0 0 0 0 1l4.2 4.3-4.3 4.2a.8.8 0 0 0 1.1 1.1L27.3 6zM.8 6.3h26V4.8H.8v1.5z"
      fill="#35415c" />
  </symbol>

  <symbol id="popup" fill="none" viewBox="0 0 14 9">
    <path d="m1 1 6 6 6-6" stroke="#35415c" stroke-width="1.5" />
  </symbol>

  <symbol id="geo-icon" fill="none" viewBox="0 0 20 22">
    <path d="M9.6 12.4a3.1 3.1 0 1 0 0-6.2 3.1 3.1 0 0 0 0 6.2z" stroke="#35415c" stroke-width="1.5" />
    <path
      d="M1.199 7.5c2-8.7 14.8-8.7 16.8 0 1.2 5-2 9.4-4.8 12a5.2 5.2 0 0 1-7.2 0c-2.7-2.6-6-7-4.8-12z"
      stroke="#35415c" stroke-width="1.5" />
  </symbol>

  <symbol id="home" fill="none" viewBox="0 0 22 22">
    <path
      d="M9 17h4m2.2 4H6.8a4 4 0 0 1-4.2-4v-4.9c0-.7-.3-1.4-.8-1.9a2.6 2.6 0 0 1 .3-4l6.4-4.4a4.3 4.3 0 0 1 5 0l6.3 4.4a2.6 2.6 0 0 1 .4 4c-.5.5-.8 1.2-.8 2V17a4 4 0 0 1-4.2 4z"
      stroke="#35415c" stroke-width="1.5" stroke-linecap="round" />
  </symbol>

  <symbol id="vk-dark" viewBox="0 0 45 45" fill="none">
    <path d="M1 1h43v43H1V1z" stroke="#35415c" stroke-width="2" />
    <path
      d="M23.602 30.4c-8.5 0-13.3-6-13.5-15.8h4.3c.1 7.2 3.2 10.3 5.7 11v-11h4v6.3c2.4-.3 5-3.2 5.9-6.3h4a12.101 12.101 0 0 1-5.5 7.9 12.3 12.3 0 0 1 6.4 7.9h-4.4a7.8 7.8 0 0 0-2.4-3.8 7.6 7.6 0 0 0-4-1.9v5.7h-.5z"
      fill="#35415c" />
  </symbol>

  <symbol id="vk" viewBox="0 0 45 45" fill="none">
    <path d="M1 1h43v43H1V1z" stroke="#FFF9EE" stroke-width="2" />
    <path
      d="M23.602 30.4c-8.5 0-13.3-6-13.5-15.8h4.3c.1 7.2 3.2 10.3 5.7 11v-11h4v6.3c2.4-.3 5-3.2 5.9-6.3h4a12.101 12.101 0 0 1-5.5 7.9 12.3 12.3 0 0 1 6.4 7.9h-4.4a7.8 7.8 0 0 0-2.4-3.8 7.6 7.6 0 0 0-4-1.9v5.7h-.5z"
      fill="#FFF9EE" />
  </symbol>

  <symbol id="youtube-dark" viewBox="0 0 45 45" fill="none">
    <path
      d="M30.3 28H29v-.7c0-.5.2-.7.6-.7.5 0 .7.2.7.7v.8-.1zm-5-1.6c-.5 0-.7.1-.7.5v3.8c0 .3.2.5.7.5.4 0 .6-.2.6-.5v-3.8c0-.4-.2-.5-.6-.5zm8.2-2.2v7.3a2.998 2.998 0 0 1-1 2.2c-.7.6-1.5 1-2.4 1H16.4c-1 0-1.8-.4-2.4-1a2.999 2.999 0 0 1-1-2.2v-7.3a3 3 0 0 1 1-2.2c.6-.6 1.4-1 2.4-1H30c1 0 1.7.4 2.4 1a3 3 0 0 1 1 2.2h.1zm-16.2 8v-7.5H19v-1.2h-4.6v1.1h1.4v7.7h1.5v-.1zm5-6.4H21v5a.6.6 0 0 1-.3.4c-.2 0-.4 0-.5-.3v-5.1h-1.4v5.3c0 .6.2 1 .4 1 .3.3.7.3 1.2 0 .5-.1.8-.4 1-.7v.9h1v-6.5h-.1zm4.6 4.7V27c0-.6-.2-1-.6-1.3-.5-.3-1-.2-1.6.3v-2.5h-1.5v8.7h1.2l.1-.6c.8.7 1.3.8 1.8.6.4-.3.6-.9.6-1.7zm4.5-.5h-1v.7c0 .4-.3.6-.7.6h-.2c-.4 0-.6-.2-.6-.6v-1.5h2.5v-2.7c-.2-.6-.6-1-1.2-1-.7-.2-1.2-.1-1.6.2a2 2 0 0 0-.6.8l-.2 1.5v2c0 1.3.5 2 1.5 2.3.9.1 1.5-.1 1.9-.9.2-.4.3-.9.2-1.4zm-5.5-11c0 .2.2.3.4.4l.6.2c.2 0 .3 0 .5-.2l.4-.4v.5h1.6v-6.8H28V18c0 .3-.2.5-.6.5-.3 0-.4-.2-.4-.5v-5.3h-1.4v4.6a6.994 6.994 0 0 0 .2 1.7h.1zm-4.8-3.8c0-.6 0-1.1.2-1.5 0-.3.3-.6.5-.9.3-.2.7-.3 1.1-.3.4 0 .7 0 1 .2l.6.6.3.6v4.3a2.101 2.101 0 0 1-1 1.3l-.8.2c-.3 0-.7 0-1-.2-.2 0-.4-.2-.5-.4l-.3-.8a7 7 0 0 1-.1-1.3v-1.8zm1.2 2.7c0 .2 0 .3.2.5a.6.6 0 0 0 .5.2c.4 0 .6-.3.6-.7v-3.6c0-.4-.2-.7-.6-.7-.5 0-.7.3-.7.7v3.6zM18 19.7h1.4v-5.2l1.8-4.4h-1.6l-1 3.3-1-3.3h-1.5l1.9 4.4v5.2z"
      fill="#35415c" />
    <path d="M1 1h43v43H1V1z" stroke="#35415c" stroke-width="2" />
  </symbol>

  <symbol id="youtube" viewBox="0 0 45 45" fill="none">
    <path
      d="M30.3 28H29v-.7c0-.5.2-.7.6-.7.5 0 .7.2.7.7v.8-.1zm-5-1.6c-.5 0-.7.1-.7.5v3.8c0 .3.2.5.7.5.4 0 .6-.2.6-.5v-3.8c0-.4-.2-.5-.6-.5zm8.2-2.2v7.3a2.998 2.998 0 0 1-1 2.2c-.7.6-1.5 1-2.4 1H16.4c-1 0-1.8-.4-2.4-1a2.999 2.999 0 0 1-1-2.2v-7.3a3 3 0 0 1 1-2.2c.6-.6 1.4-1 2.4-1H30c1 0 1.7.4 2.4 1a3 3 0 0 1 1 2.2h.1zm-16.2 8v-7.5H19v-1.2h-4.6v1.1h1.4v7.7h1.5v-.1zm5-6.4H21v5a.6.6 0 0 1-.3.4c-.2 0-.4 0-.5-.3v-5.1h-1.4v5.3c0 .6.2 1 .4 1 .3.3.7.3 1.2 0 .5-.1.8-.4 1-.7v.9h1v-6.5h-.1zm4.6 4.7V27c0-.6-.2-1-.6-1.3-.5-.3-1-.2-1.6.3v-2.5h-1.5v8.7h1.2l.1-.6c.8.7 1.3.8 1.8.6.4-.3.6-.9.6-1.7zm4.5-.5h-1v.7c0 .4-.3.6-.7.6h-.2c-.4 0-.6-.2-.6-.6v-1.5h2.5v-2.7c-.2-.6-.6-1-1.2-1-.7-.2-1.2-.1-1.6.2a2 2 0 0 0-.6.8l-.2 1.5v2c0 1.3.5 2 1.5 2.3.9.1 1.5-.1 1.9-.9.2-.4.3-.9.2-1.4zm-5.5-11c0 .2.2.3.4.4l.6.2c.2 0 .3 0 .5-.2l.4-.4v.5h1.6v-6.8H28V18c0 .3-.2.5-.6.5-.3 0-.4-.2-.4-.5v-5.3h-1.4v4.6a6.994 6.994 0 0 0 .2 1.7h.1zm-4.8-3.8c0-.6 0-1.1.2-1.5 0-.3.3-.6.5-.9.3-.2.7-.3 1.1-.3.4 0 .7 0 1 .2l.6.6.3.6v4.3a2.101 2.101 0 0 1-1 1.3l-.8.2c-.3 0-.7 0-1-.2-.2 0-.4-.2-.5-.4l-.3-.8a7 7 0 0 1-.1-1.3v-1.8zm1.2 2.7c0 .2 0 .3.2.5a.6.6 0 0 0 .5.2c.4 0 .6-.3.6-.7v-3.6c0-.4-.2-.7-.6-.7-.5 0-.7.3-.7.7v3.6zM18 19.7h1.4v-5.2l1.8-4.4h-1.6l-1 3.3-1-3.3h-1.5l1.9 4.4v5.2z"
      fill="#FFF9EE" />
    <path d="M1 1h43v43H1V1z" stroke="#FFF9EE" stroke-width="2" />
  </symbol>

  <symbol id="telegram-dark" viewBox="0 0 45 45" fill="none">
    <path d="M1 1h43v43H1V1z" stroke="#35415c" stroke-width="2" />
    <path
      d="m31.502 14.2-3.4 17.6s-.5 1.3-1.8.7l-7.8-6.2 9.6-9c.5-.5.2-.8-.4-.4l-12.1 8-4.7-1.7s-.7-.3-.8-.9c0-.6.9-.9.9-.9l19-7.7s1.5-.7 1.5.5z"
      fill="#35415c" />
  </symbol>

  <symbol id="telegram" viewBox="0 0 45 45" fill="none">
    <path d="M1 1h43v43H1V1z" stroke="#fff" stroke-width="2" />
    <path
      d="m31.502 14.2-3.4 17.6s-.5 1.3-1.8.7l-7.8-6.2 9.6-9c.5-.5.2-.8-.4-.4l-12.1 8-4.7-1.7s-.7-.3-.8-.9c0-.6.9-.9.9-.9l19-7.7s1.5-.7 1.5.5z"
      fill="#fff" />
  </symbol>

  <symbol id="dzen-dark" fill="none" viewBox="0 0 45 45">
    <path stroke="#35415c" stroke-width="2" d="M1 1h43v43H1z" />
    <path fill-rule="evenodd" clip-rule="evenodd"
      d="M20.822 19.976c1.454-1.671 1.49-7.098 1.355-7.474-6.962.358-9.858 6.772-9.567 9.804l2.042-.058c4.064-.252 5.111-1.056 6.17-2.272zm1.998-7.47c-.136.377-.099 5.803 1.355 7.474 1.058 1.217 2.105 2.02 6.17 2.273l2.042.058c.29-3.032-2.605-9.446-9.567-9.804zm-.003 19.991c-.136-.376-.099-5.802 1.355-7.474 1.058-1.216 2.105-2.02 6.17-2.272l2.042-.058c.29 3.032-2.605 9.446-9.567 9.804zm-.637-.004c.136-.377.098-5.803-1.355-7.474-1.059-1.217-2.106-2.02-6.17-2.273l-2.042-.058c-.29 3.032 2.604 9.446 9.567 9.805z"
      fill="#35415c" />
  </symbol>

  <symbol id="dzen" fill="none" viewBox="0 0 45 45">
    <path stroke="#fff" stroke-width="2" d="M1 1h43v43H1z" />
    <path fill-rule="evenodd" clip-rule="evenodd"
      d="M20.822 19.976c1.454-1.671 1.49-7.098 1.355-7.474-6.962.358-9.858 6.772-9.567 9.804l2.042-.058c4.064-.252 5.111-1.056 6.17-2.272zm1.998-7.47c-.136.377-.099 5.803 1.355 7.474 1.058 1.217 2.105 2.02 6.17 2.273l2.042.058c.29-3.032-2.605-9.446-9.567-9.804zm-.003 19.991c-.136-.376-.099-5.802 1.355-7.474 1.058-1.216 2.105-2.02 6.17-2.272l2.042-.058c.29 3.032-2.605 9.446-9.567 9.804zm-.637-.004c.136-.377.098-5.803-1.355-7.474-1.059-1.217-2.106-2.02-6.17-2.273l-2.042-.058c-.29 3.032 2.604 9.446 9.567 9.805z"
      fill="#fff" />
  </symbol>

  <symbol id="circle" fill="none" viewBox="0 0 40 40">
    <path
      d="M20.18 35.74c8.745 0 15.833-7.105 15.833-15.87C36.013 11.105 28.925 4 20.181 4 11.435 4 4.347 11.105 4.347 19.87c0 8.765 7.088 15.87 15.832 15.87z"
      fill="#35415c" />
  </symbol>

  <symbol id="password" fill="none" viewBox="0 0 24 24">
    <path d="m13.6 8.5-5.1 5c-.6-.6-1-1.5-1-2.5 0-2 1.6-3.6 3.6-3.6.9 0 1.8.4 2.5 1.1z" />
    <path
      d="M16.8 4.8a10 10 0 0 0-5.8-2c-3.5 0-6.8 2.1-9.1 5.7a5.3 5.3 0 0 0 0 5.2 16.997 16.997 0 0 0 2.7 3.2m2.8 1.6c1.1.5 2.4.7 3.6.7 3.5 0 6.8-2.1 9.1-5.7.9-1.4.9-3.8 0-5.2L19 6.8" />
    <path d="M14.5 11.7c-.3 1.4-1.4 2.6-2.8 2.8m-3.2-1L1 21M21 1l-7.5 7.5" />
  </symbol>

  <symbol id="profile" fill="none" viewBox="0 0 21 25">
    <path
      d="M13.879 7.864a4.375 4.375 0 0 1-4.244 4.497 4.375 4.375 0 0 1-4.244-4.497 4.375 4.375 0 0 1 4.244-4.489 4.375 4.375 0 0 1 4.244 4.489zm4.016 15.312H1.375c.087-3.762 3.675-6.93 8.26-6.93s8.173 3.177 8.26 6.93z" />
  </symbol>

  <symbol id="bonuses" viewBox="0 0 24 25" fill="none">
    <path
      d="M12.5 22c5.326 0 9.643-4.477 9.643-10S17.826 2 12.5 2C7.175 2 2.857 6.477 2.857 12S7.175 22 12.5 22zM9.607 15l5.786-6"
      stroke="#35415c" stroke-width="1.5" stroke-linecap="round" stroke-linejoin="round" />
    <path d="M14.906 14.5h.008M10.084 9.5h.009" stroke="#35415c" stroke-width="2"
      stroke-linecap="round" stroke-linejoin="round" />
  </symbol>

  <symbol id="triangal" viewBox="0 0 10 5">
    <path d="M5 4.5.67 0h8.66L5 4.5z" fill="#797979" />
  </symbol>

  <symbol id="request" viewBox="0 0 44 44">
    <path
      d="M19.898 1.1.998 20a3 3 0 0 0 0 4.2l19 18.8a3 3 0 0 0 4.2 0l18.8-19a3 3 0 0 0 0-4.2l-19-18.8a3 3 0 0 0-4.2 0l.1.1z"
      fill="#35415c" />
    <path d="M21.997 35.2a13.2 13.2 0 1 0 0-26.399 13.2 13.2 0 0 0 0 26.399z" fill="#FFF9EE" />
    <path
      d="M27.397 13.8h-10.6a3 3 0 0 0-3 3v10.5a3 3 0 0 0 3 3h10.6a3 3 0 0 0 3-3V16.8a3 3 0 0 0-3-3z"
      fill="#35415c" />
    <path d="M22 27.7a5.75 5.75 0 1 0 0-11.5 5.75 5.75 0 0 0 0 11.5z" fill="#FFF9EE" />
    <path
      d="m21.498 20-1.2 1.3a1 1 0 0 0 0 1.4l1.2 1.2c.4.4 1 .4 1.4 0l1.2-1.2c.4-.4.4-1 0-1.4l-1.1-1.3a1 1 0 0 0-1.4 0h-.1z"
      fill="#35415c" />
  </symbol>

  <symbol viewBox="0 0 181 84" id="logo">
    <path fill-rule="evenodd" clip-rule="evenodd"
      d="M52.873 62.084a7.255 7.255 0 0 0-6.74-7.273v14.546a7.255 7.255 0 0 0 6.74-7.273zM34.863 41.62c5.196-10.099 16.156-16.545 27.62-15.932-.921-3.75-2.55-7.252-4.832-10.443-11.4 4.502-19.949 14.46-22.788 26.375zM2.978 25.687a25.442 25.442 0 0 1 1.586-.043h.01c10.886 0 21.064 6.327 26.036 15.964-2.84-11.914-11.4-21.884-22.81-26.374a30.332 30.332 0 0 0-4.822 10.453zM32.645 2.385c-6.921 0-13.714 2.406-19.124 6.768l-.01.01a30.435 30.435 0 0 0-4.2 4.115c11.592 4.792 20.27 14.815 23.42 27.008 3.16-12.182 11.817-22.205 23.399-27.008a30.142 30.142 0 0 0-4.232-4.125c-5.443-4.362-12.332-6.768-19.253-6.768zm11.1 68.154V54.8H21.717v15.74c0 6.102 4.94 11.055 11.014 11.055 6.075 0 11.014-4.964 11.014-11.055zM32.645 0c15.857 0 29.527 11.259 32.506 26.782l.021.011.3 1.59-1.607-.172a27.449 27.449 0 0 0-2.967-.16c-13.757 0-25.446 10.678-26.742 24.364h11.549l.429.022c5.057.29 9.128 4.534 9.128 9.669 0 5.135-4.103 9.421-9.192 9.668-.622 6.865-6.429 12.215-13.328 12.215-7.393 0-13.403-6.027-13.403-13.44V52.416h11.978C30.03 38.718 18.342 28.04 4.575 28.04c-.986 0-1.982.054-2.968.162L0 28.372l.31-1.59C3.29 11.26 16.79 0 32.646 0zm146.041 81.68h-51.384V31.284h51.384V81.68zm-53.698 0H73.54V31.284h51.448V81.68zM71.226 84h109.763V28.963H71.226V84zm19.178-33.798a5.27 5.27 0 0 0 3.29-1.17h.02l.354-.29 1.629 1.643-.418.355a7.544 7.544 0 0 1-4.864 1.783c-4.157 0-7.543-3.384-7.543-7.563 0-4.18 3.386-7.574 7.543-7.574 1.735 0 3.428.612 4.778 1.719l.429.354-1.64 1.633-.353-.28a5.181 5.181 0 0 0-3.225-1.116 5.247 5.247 0 0 0-5.24 5.253c0 2.9 2.347 5.253 5.24 5.253zm18.374-.01c2.871 0 5.218-2.342 5.218-5.232s-2.347-5.232-5.218-5.232-5.218 2.353-5.218 5.232 2.347 5.232 5.218 5.232zm-7.532-5.232c0-4.158 3.386-7.542 7.532-7.542 4.157 0 7.532 3.384 7.532 7.542 0 4.157-3.375 7.541-7.532 7.541s-7.532-3.384-7.532-7.541zm38.549 7.326h2.303v-6.198h5.443v-2.32h-5.443v-3.825h6.857v-2.32h-9.16v14.663zm20.516-2.342h6.932v2.342h-9.257V37.622h9.257v2.331h-6.932v3.879h5.496v2.33h-5.496v3.782zm-75.264 25.15h2.314v-6.199h5.443v-2.32H87.36V62.75h6.857v-2.32h-9.171v14.664zm27.834 0h-9.246V60.43h9.246v2.342h-6.921v3.867h5.496v2.332h-5.496v3.792h6.921v2.331zm43.852-14.632v2.32h4.597v12.29h2.303v-12.29h4.596v-2.32h-11.496zm-15.353 3.867c0 1.086 1.158 1.612 2.122 1.87h-.011c2.721.72 4.286 2.374 4.286 4.544 0 2.525-2.047 4.587-4.575 4.587-2.529 0-4.575-2.062-4.575-4.587v-.505h2.282v.505a2.299 2.299 0 0 0 2.293 2.3 2.299 2.299 0 0 0 2.293-2.3c0-1.493-1.8-2.127-2.583-2.331-2.464-.645-3.824-2.095-3.824-4.083a4.127 4.127 0 0 1 4.114-4.125c2.26 0 3.235 1.15 4.039 2.331l.128.183-1.703 1.558-.15-.29c-.343-.645-.943-1.494-2.304-1.494a1.84 1.84 0 0 0-1.832 1.837z"
      fill="#E6AF9A" />
  </symbol>

  <symbol id="burger-btn" viewBox="0 0 28 17" fill="none" class="open">
    <path d="M1 8.443h25M1 .568h25M1 16.318h25" stroke="#FFF9EE" stroke-linecap="round"
      stroke-linejoin="round" />
  </symbol>

  <symbol id="burger-close" fill="none" viewBox="0 0 27 27">
    <path d="M4.661 4.661 22.34 22.34M22.339 4.661 4.66 22.34" stroke="#FFF9EE"
      stroke-linecap="round" stroke-linejoin="round" />
  </symbol>

  <symbol id="search-header" viewBox="0 0 23 23" fill="none">
    <path d="m22 22-5-5m-6.7 2.7a9.35 9.35 0 1 0 0-18.7 9.35 9.35 0 0 0 0 18.7z" />
  </symbol>

  <symbol id="remove" fill="none" viewBox="0 0 25 25">
    <path d="M12.5 24.5c6.627 0 12-5.373 12-12s-5.373-12-12-12-12 5.373-12 12 5.373 12 12 12z"
      fill="#35415c" />
    <path d="m8.863 8.863 7.273 7.273m-7.273 0 7.273-7.273" stroke="#FFF9EE" stroke-width="1.5"
      stroke-linecap="round" stroke-linejoin="round" />
  </symbol>

  <symbol id="clock-icon" viewBox="0 0 18 19" fill="none">
    <path d="M16.798 8a7.999 7.999 0 1 1-15.797 2.522A7.999 7.999 0 0 1 16.798 8z" stroke="#35415c"
      stroke-width="1.5" stroke-linecap="round" stroke-linejoin="round" />
    <path d="M11.898 10.4 9.398 9a1.7 1.7 0 0 1-.8-1.4V4.4" stroke="#35415c" stroke-width="1.5"
      stroke-linecap="round" stroke-linejoin="round" />
  </symbol>

  <symbol id="delivery" viewBox="0 0 40 36" fill="none">
    <path
      d="M1.5 21.7H5m-3.2-4.9h7M1 11.9h12.3m25.1 8.8c-.6.2-1.7.5-2.9.6-1.9.3-3 .4-3.8 0-1.4-.7-2-3.1-1.4-5.9 0-.1 0-.4.3-.7.4-.6 1-.9 1.2-.9l2.4-1.2-1.8.9 2-1m-14.5 9.2c-2.5 0 1.9 0 4.1-.7.4 0 .8-.3 1-.7l.2-18.5c0-.4-.4-.8-.9-.8h-8.1c-6 0-8.3.2-10.8 1.5C4 3.3 0 7 2.2 5"
      stroke="#35415c" stroke-width="2" />
    <path
      d="M31.2 31.9c2-.2 4.8-.8 6.1-2.9.4-.4.5-.7.9-5 .4-4 .4-4.8 0-6-.1-.4-.8-1.2-1.9-3l-4.2-5.9-1.4-1.7c-1.7-1.1-4-1-5.4-.6M1.9 28l-.2-1.1c.1 0 .2 2.3 1.5 3.6.9.8 2.4 1.5 5.9 1.2m21.4 0c0 1.7-1.6 3-3.4 3-1.9 0-3.4-1.3-3.4-3s1.5-3.1 3.4-3.1c1.8 0 3.4 1.4 3.4 3v.1zM12.502 34.8c1.9 0 3.4-1.4 3.4-3.1 0-1.7-1.5-3.1-3.4-3.1s-3.4 1.4-3.4 3c0 1.8 1.5 3.2 3.4 3.2z"
      stroke="#35415c" stroke-width="2" />
  </symbol>

  <symbol id="curier" viewBox="0 0 16 22" fill="none">
    <path
      d="M7.8 9.9h-.3a4.4 4.4 0 1 1 .3 0zm-5 3.7c-2.4 1.6-2.4 4.2 0 5.8a9.8 9.8 0 0 0 10 0c2.4-1.6 2.4-4.2 0-5.8a9.8 9.8 0 0 0-10 0z"
      stroke="#35415c" stroke-width="1.5" stroke-linecap="round" stroke-linejoin="round" />
  </symbol>

  <symbol id="star" viewBox="0 0 22 22">
    <path
      d="m12.9 2.4 1.8 3.5c.2.5.9 1 1.4 1.1l3.2.5c2 .3 2.5 1.8 1 3.3l-2.5 2.5c-.4.4-.6 1.2-.5 1.8l.7 3.1c.6 2.4-.7 3.4-3 2.1l-3-1.8c-.4-.3-1.3-.3-2 0l-3 1.8c-2 1.3-3.3.3-2.8-2l.7-3.2c0-.6-.1-1.4-.5-1.8l-2.5-2.5c-1.5-1.5-1-2.9 1-3.3L6.2 7c.5 0 1.2-.6 1.4-1l1.8-3.6c.9-1.9 2.5-1.9 3.5 0z" />
  </symbol>

  <symbol viewBox="0 0 1575 162" fill="none" id="about-arrow">
    <path d="M1501.74 80.88H109.741M1502.19 40.69l65.8 41.499-65.8 41.497V40.691z" stroke="#E6AF9A"
      stroke-width="7" stroke-miterlimit="10" />
    <path
      d="M128 77.493c-33.442-3.204-59.526-32.131-59.526-66.177 0-2.445.129-4.91.395-7.345L69.304 0l-3.882.758C27.506 8.152 0 41.989 0 81.225c0 39.235 27.506 72.633 65.412 80.017l3.882.758-.435-3.971a70.086 70.086 0 0 1-.395-7.345c0-34.046 26.084-62.973 59.526-66.177M62.746 7.384c-1.492 28.359 14.252 55.47 38.913 68.352-29.096-7.014-53.432-28.189-64.424-56.398 7.782-5.648 16.355-9.669 25.51-11.964v.01zm-.109 143.3c0 1.298.04 2.615.109 3.932-9.156-2.285-17.739-6.296-25.531-11.924 10.973-28.219 35.318-49.404 64.425-56.428-23.536 12.293-38.993 37.489-38.993 64.42h-.01zM32.415 138.94a75.874 75.874 0 0 1-10.055-10.388C11.704 115.161 5.827 98.348 5.827 81.225c0-17.123 5.867-34.167 16.533-47.638A75.507 75.507 0 0 1 32.435 23.12C44.168 51.768 68.642 73.202 98.39 81.005c-29.768 7.803-54.252 29.267-65.975 57.945v-.01z"
      fill="#E6AF9A" />
  </symbol>

  <symbol viewBox="0 0 302 114" fill="none" id="about-arrow-mobile">
    <path d="M252 57H71" stroke="#EAB7A1" stroke-width="5" stroke-miterlimit="10" />
    <path
      d="M90 54.532c-23.514-2.254-41.854-22.61-41.854-46.57 0-1.72.09-3.454.278-5.167L48.729 0 46 .534C19.34 5.737 0 29.548 0 57.158c0 27.61 19.34 51.112 45.993 56.308l2.73.534-.306-2.795a49.323 49.323 0 0 1-.278-5.168c0-23.958 18.34-44.315 41.854-46.569M44.118 5.196c-1.049 19.956 10.02 39.035 27.361 48.1-20.458-4.936-37.57-19.837-45.298-39.688 5.472-3.974 11.5-6.804 17.937-8.419v.007zm-.076 100.841c0 .913.027 1.84.076 2.767-6.437-1.608-12.472-4.431-17.951-8.391C33.882 80.555 51 65.647 71.465 60.704 54.917 69.355 44.05 87.085 44.05 106.037h-.007zm-21.25-8.265a53.384 53.384 0 0 1-7.07-7.31C8.23 81.04 4.097 69.208 4.097 57.159c0-12.05 4.125-24.043 11.625-33.522a53.089 53.089 0 0 1 7.084-7.366c8.25 20.16 25.458 35.242 46.375 40.734-20.931 5.49-38.146 20.595-46.39 40.776v-.008z"
      fill="#EAB7A1" />
    <path d="m253 29 44 28-44 28V29z" stroke="#EAB7A1" stroke-width="5" stroke-miterlimit="10" />
  </symbol>

  <symbol id="about-arrow-mobile-2" viewBox="0 0 302 66" fill="none">
    <path d="M252 33L0 33" stroke="#EAB7A1" stroke-width="5" stroke-miterlimit="10" />
    <path d="M253 5L297 33L253 61V5Z" stroke="#EAB7A1" stroke-width="5" stroke-miterlimit="10" />
  </symbol>

  <symbol id="prev" viewBox="0 0 28 15">
    <path
      d="M27.002 6.3a1 1 0 0 1 0 2v-2zM.302 8a1 1 0 0 1 0-1.4l6.4-6.3a1 1 0 0 1 1.4 1.4l-5.7 5.6 5.7 5.7a1 1 0 0 1 .3.7 1 1 0 0 1-1.7.7L.302 8zm26.7.3h-26v-2h26v2z" />
  </symbol>

  <symbol id="next" viewBox="0 0 28 15">
    <path
      d="M1.002 8.3a1 1 0 0 1-.7-1.7c.2-.2.4-.3.7-.3v2zm26.7-1.7a1 1 0 0 1 0 1.4l-6.4 6.4a1 1 0 0 1-1.4-1.4l5.7-5.7-5.7-5.6a1 1 0 0 1 0-1.4 1 1 0 0 1 1.4 0l6.4 6.3zm-26.7-.3h26v2h-26v-2z" />
  </symbol>
</svg>