<svg viewBox="0 0 24 24" preserveAspectRatio="xMidYMin meet" xmlns="http://www.w3.org/2000/svg">
  <defs>
    <style><![CDATA[
      .sprite { display: none; }
      .sprite:target { display: inline; }
    ]]></style>
  </defs>

  <g class="sprite" id="filter" fill="none">
    <path
      d="M21 15H14M4 15H1M21 4H18M8 4H1M6 12H12C13.1 12 14 12.5 14 14V16C14 17.5 13.1 18 12 18H6C4.9 18 4 17.5 4 16V14C4 12.5 4.9 12 6 12ZM10 1H16C17.1 1 18 1.5 18 3V5C18 6.5 17.1 7 16 7H10C8.9 7 8 6.5 8 5V3C8 1.5 8.9 1 10 1Z"
      stroke="#35415c" stroke-width="1.5" stroke-miterlimit="10" stroke-linecap="round"
      stroke-linejoin="round" />
  </g>

  <g id="search" class="sprite">
    <path
      d="M22.7 24.7998C22.7406 24.9316 22.8145 25.0507 22.9147 25.1455C23.0149 25.2403 23.1379 25.3076 23.2718 25.3408C23.4057 25.3741 23.5459 25.3721 23.6788 25.3352C23.8117 25.2982 23.9327 25.2276 24.0303 25.1301C24.1278 25.0325 24.1984 24.9115 24.2354 24.7786C24.2723 24.6457 24.2743 24.5055 24.241 24.3716C24.2078 24.2378 24.1405 24.1148 24.0457 24.0146C23.9509 23.9144 23.8318 23.8404 23.7 23.7998L22.7 24.7998ZM2 14.9998C1.5 12.7998 1.5 10.5998 2 8.49982L0.5 8.09982C0 10.4998 0 12.8998 0.5 15.2998L2 14.9998ZM19.9 8.49982C20.4 10.5998 20.4 12.7998 19.9 14.9998L21.3 15.2998C21.9 12.8998 21.9 10.4998 21.3 8.09982L19.9 8.49982ZM14.2 20.6998C12 21.1998 9.80001 21.1998 7.70001 20.6998L7.29999 22.0998C9.69999 22.6998 12.1 22.6998 14.5 22.0998L14.2 20.6998ZM7.70001 2.69983C9.80001 2.29983 12 2.29983 14.2 2.69983L14.5 1.2998C12.1 0.799805 9.69999 0.799805 7.29999 1.2998L7.70001 2.7998V2.69983ZM7.70001 20.6998C6.31099 20.3799 5.03995 19.6757 4.03204 18.6678C3.02413 17.6599 2.31997 16.3888 2 14.9998L0.5 15.2998C0.895926 16.9502 1.74068 18.4589 2.9408 19.659C4.14091 20.8591 5.6496 21.7039 7.29999 22.0998L7.70001 20.6998ZM14.5 22.0998C16.1554 21.7145 17.6698 20.8732 18.8716 19.6714C20.0735 18.4696 20.9147 16.9552 21.3 15.2998L19.9 14.9998C19.5801 16.3888 18.8759 17.6599 17.868 18.6678C16.8601 19.6757 15.589 20.3799 14.2 20.6998L14.5 22.0998ZM14.2 2.7998C15.584 3.13045 16.8493 3.83815 17.8555 4.84433C18.8616 5.85051 19.5694 7.11582 19.9 8.49982L21.3 8.09982C20.9041 6.44943 20.0593 4.94072 18.8592 3.7406C17.6591 2.54049 16.1504 1.69573 14.5 1.2998L14.2 2.7998ZM7.29999 1.2998C5.6496 1.69573 4.14091 2.54049 2.9408 3.7406C1.74068 4.94072 0.895926 6.44943 0.5 8.09982L2 8.49982C2.33065 7.11582 3.03832 5.85051 4.04449 4.84433C5.05067 3.83815 6.31601 3.13045 7.70001 2.7998L7.29999 1.2998ZM18.3 20.0998L22.8 24.6998L23.8 23.6998L19.3 18.9998L18.3 20.0998Z"
      fill="#35415c" />
  </g>

  <g id="arrow-right-bg" class="sprite">
    <path
      d="M1.00159 8.29953C0.805863 8.29678 0.615245 8.23665 0.453371 8.12659C0.291498 8.01653 0.165475 7.86139 0.0909447 7.68039C0.0164147 7.49939 -0.00335138 7.3005 0.0340905 7.10837C0.0715323 6.91624 0.164536 6.73932 0.301577 6.59955C0.501577 6.39955 0.701589 6.29953 1.00159 6.29953V8.29953ZM27.7016 6.59955C27.8848 6.78648 27.9875 7.03778 27.9875 7.29953C27.9875 7.56128 27.8848 7.81261 27.7016 7.99954L21.3016 14.3995C21.109 14.544 20.8708 14.6141 20.6307 14.597C20.3906 14.58 20.1647 14.4769 19.9945 14.3066C19.8243 14.1364 19.7212 13.9106 19.7041 13.6704C19.687 13.4303 19.7572 13.1921 19.9016 12.9995L25.6016 7.29953L19.9016 1.69955C19.7184 1.51263 19.6157 1.26129 19.6157 0.999542C19.6157 0.73779 19.7184 0.486459 19.9016 0.29953C20.0885 0.116303 20.3398 0.0136719 20.6016 0.0136719C20.8633 0.0136719 21.1146 0.116303 21.3016 0.29953L27.7016 6.59955ZM1.00159 6.29953H27.0016V8.29953H1.00159V6.29953Z"
      fill="#35415c" />
  </g>

  <g id="double-arrows" class="sprite">
    <path
      d="M8.5 4.70001L4.59998 1L1 4.70001M4.70001 19V1M11.5 15.3L15.3 19M15.3 19L19 15.3M15.3 19V1"
      stroke="#35415c" stroke-width="1.5" stroke-linecap="round" stroke-linejoin="round" fill="none" />
  </g>

  <g id="invalid" class="sprite">
    <path
      d="M12 24C15.1826 24 18.2349 22.7357 20.4853 20.4853C22.7357 18.2349 24 15.1826 24 12C24 8.8174 22.7357 5.76515 20.4853 3.51471C18.2349 1.26427 15.1826 0 12 0C8.8174 0 5.76515 1.26427 3.51471 3.51471C1.26427 5.76515 0 8.8174 0 12C0 15.1826 1.26427 18.2349 3.51471 20.4853C5.76515 22.7357 8.8174 24 12 24Z"
      fill="#29354D" />
    <path d="M8.39844 8.40039L15.5984 15.6004M8.39844 15.6004L15.5984 8.40039" stroke="#FFF9EE"
      stroke-width="1.5" stroke-linecap="round" stroke-linejoin="round" />
  </g>

  <g id="succes" class="sprite">
    <path
      d="M11 21C13.6522 21 16.1957 19.9464 18.0711 18.071C19.9464 16.1957 21 13.6522 21 11C21 8.34784 19.9464 5.80432 18.0711 3.92896C16.1957 2.05359 13.6522 1 11 1C8.34784 1 5.80429 2.05359 3.92892 3.92896C2.05356 5.80432 1 8.34784 1 11C1 13.6522 2.05356 16.1957 3.92892 18.071C5.80429 19.9464 8.34784 21 11 21Z"
      fill="#67A7AC" stroke="#67A7AC" stroke-width="1.5" stroke-linecap="round"
      stroke-linejoin="round" />
    <path d="M6.80078 11.0002L9.6008 13.8002L15.2008 8.2002" stroke="white" fill="#67A7AC"
      stroke-width="1.5"
      stroke-linecap="round" stroke-linejoin="round" />
  </g>

  <g id='clock' class="sprite" fill="none">
    <path
      d="M16.7984 7.99982C16.9808 9.14258 16.9132 10.3113 16.6 11.4254C16.2869 12.5394 15.7358 13.5723 14.9848 14.4527C14.2338 15.3331 13.3007 16.0401 12.2499 16.5249C11.1991 17.0097 10.0557 17.2607 8.89844 17.2607C7.74121 17.2607 6.59778 17.0097 5.547 16.5249C4.49621 16.0401 3.5631 15.3331 2.81207 14.4527C2.06104 13.5723 1.50995 12.5394 1.19684 11.4254C0.883721 10.3113 0.816041 9.14258 0.998442 7.99982C1.29842 6.12043 2.25858 4.40952 3.70651 3.17438C5.15444 1.93923 6.99526 1.26074 8.89844 1.26074C10.8016 1.26074 12.6425 1.93923 14.0904 3.17438C15.5383 4.40952 16.4985 6.12043 16.7984 7.99982Z"
      stroke="#797979" stroke-width="1.5" stroke-linecap="round" stroke-linejoin="round" />
    <path
      d="M11.8976 10.3994L9.39764 8.99939C9.15883 8.85049 8.96073 8.64462 8.82111 8.40027C8.68148 8.15592 8.6047 7.88071 8.59766 7.59937V4.39941"
      stroke="#797979" stroke-width="1.5" stroke-linecap="round" stroke-linejoin="round" />
  </g>

  <g id='geograph' class="sprite" fill="none">
    <path
      d="M1 3.2002C1.8 0.200195 5.99999 0.200195 6.79999 3.2002C7.19999 4.9002 6.10001 6.2002 5.20001 7.2002C4.50001 7.8002 3.39999 7.8002 2.79999 7.2002C1.79999 6.2002 0.700006 4.9002 1.10001 3.2002H1ZM11.9 13.2002C12.6 10.2002 16.9 10.2002 17.6 13.2002C18 14.9002 16.9 16.2002 16 17.2002C15.6453 17.4842 15.2044 17.6389 14.75 17.6389C14.2956 17.6389 13.8547 17.4842 13.5 17.2002C12.5 16.2002 11.5 14.9002 11.9 13.2002Z"
      stroke="#797979" stroke-width="1.5" />
    <path
      d="M9.39948 3.5H11.5995C13.0995 3.5 13.8995 5.40002 12.5995 6.40002L5.99949 12.2C4.79949 13.2 5.59949 15.1 6.99949 15.1H9.29948"
      stroke="#797979" stroke-width="1.5" stroke-linecap="round" stroke-linejoin="round" />
  </g>

  <g id='tel' class="sprite" fill="none">
    <path
      d="M21 17.3C21 17.7 20.9 18 20.7 18.4L20 19.4C19.5 19.9 19 20.3 18.4 20.6C17.8 20.8 17.1 21 16.4 21C15.4 21 14.3 20.8 13.1 20.3C11.9 19.8 10.8 19.2 9.70001 18.3C8.50001 17.5 7.49999 16.5 6.39999 15.5C4.39999 13.5 2.80001 11.3 1.60001 8.79999C1.30001 7.69999 1 6.6 1 5.5C1 4.8 1.09999 4.19998 1.39999 3.59998C1.59999 2.99998 2.00001 2.40002 2.60001 1.90002C3.20001 1.30002 3.90001 1 4.70001 1L5.5 1.20001C5.8 1.30001 6.00001 1.49999 6.20001 1.79999L8.5 5.09998L8.89999 5.79999L9 6.40002L8.79999 7.09998L8.20001 7.79999L7.39999 8.59998L7.29999 8.90002V9.09998L7.39999 9.29999L8.29999 10.6L9.79999 12.2L11.4 13.7L12.7 14.6L12.9 14.7H13.2L13.6 14.5L14.4 13.7L15.1 13.1L15.8 12.9L16.4 13L17.1 13.4L20.4 15.8L21 16.4V17.3Z"
      stroke="#797979" stroke-width="1.5" stroke-miterlimit="10" />
  </g>

  <symbol id="arrow" viewBox="0 0 15 28" fill="none">
    <path
      d="M6.30156 26.9995C6.30156 27.2648 6.40693 27.5191 6.59447 27.7066C6.782 27.8942 7.03634 27.9995 7.30156 27.9995C7.56678 27.9995 7.82115 27.8942 8.00868 27.7066C8.19622 27.5191 8.30156 27.2648 8.30156 26.9995H6.30156ZM8.00157 0.29953C7.81464 0.116303 7.56331 0.0136719 7.30156 0.0136719C7.03981 0.0136719 6.78851 0.116303 6.60158 0.29953L0.301559 6.69955C0.15713 6.89213 0.0870157 7.13031 0.10408 7.37042C0.121144 7.61053 0.224243 7.83644 0.394455 8.00665C0.564666 8.17686 0.790575 8.27996 1.03068 8.29703C1.27079 8.31409 1.50901 8.24398 1.70158 8.09955L7.30156 2.39954L13.0016 8.09955C13.1862 8.28796 13.4378 8.39578 13.7016 8.39954C13.9654 8.39578 14.2169 8.28796 14.4016 8.09955C14.5407 7.95697 14.634 7.77609 14.6697 7.58011C14.7053 7.38413 14.6816 7.18196 14.6016 6.99954C14.5536 6.88825 14.4859 6.78661 14.4016 6.69955L8.00157 0.29953ZM8.30156 26.9995V0.999542H6.30156V26.9995H8.30156Z"
      fill="#35415c" />
  </symbol>

  <symbol id="phone" viewBox="0 0 22 22" fill="none">
    <path
      stroke="#EAB7A1" stroke-width="1.5"
      d="M21 17.3C21 17.7 20.9 18 20.7 18.4L20 19.4C19.5 19.9 19 20.3 18.4 20.6C17.8 20.8 17.1 21 16.4 21C15.4 21 14.3 20.8 13.1 20.3C11.9 19.8 10.8 19.2 9.70001 18.3C8.50001 17.5 7.49999 16.5 6.39999 15.5C4.39999 13.5 2.80001 11.3 1.60001 8.79999C1.30001 7.69999 1 6.6 1 5.5C1 4.8 1.09999 4.19998 1.39999 3.59998C1.59999 2.99998 2.00001 2.40002 2.60001 1.90002C3.20001 1.30002 3.90001 1 4.70001 1L5.5 1.20001C5.8 1.30001 6.00001 1.49999 6.20001 1.79999L8.5 5.09998L8.89999 5.79999L9 6.40002L8.79999 7.09998L8.20001 7.79999L7.39999 8.59998L7.29999 8.90002V9.09998L7.39999 9.29999L8.29999 10.6L9.79999 12.2L11.4 13.7L12.7 14.6L12.9 14.7H13.2L13.6 14.5L14.4 13.7L15.1 13.1L15.8 12.9L16.4 13L17.1 13.4L20.4 15.8L21 16.4V17.3Z"
    />
  </symbol>

  <symbol id="email" viewBox="0 0 22 19" fill="none">
    <path d="M16 18H6C3 18 1 16.5 1 13V6C1 2.5 3 1 6 1H16C19 1 21 2.5 21 6V13C21 16.5 19 18 16 18Z"
      stroke="#EAB7A1" stroke-width="1.5" stroke-miterlimit="10" stroke-linecap="round"
      stroke-linejoin="round" />
    <path
      d="M16 6.5L12.9 9C12.3497 9.40604 11.6839 9.62512 11 9.62512C10.3161 9.62512 9.65027 9.40604 9.10001 9L6 6.5"
      stroke="#EAB7A1" stroke-width="1.5" stroke-miterlimit="10" stroke-linecap="round"
      stroke-linejoin="round" />
  </symbol>

  <symbol id="bag" viewBox="0 0 23 26" fill="none">
    <path
      d="M5.99812 7.49974V6.49974C5.99812 3.79974 8.19811 1.19974 10.7981 0.999737C11.5105 0.945384 12.2265 1.0356 12.9031 1.265C13.5797 1.49439 14.2029 1.8582 14.7354 2.33458C15.2678 2.81096 15.6984 3.39006 16.0013 4.03709C16.3043 4.68412 16.4732 5.38571 16.4981 6.09971V7.69975M7.79811 24.2997H14.7981C19.4981 24.2997 20.2981 22.2997 20.5981 20.0997L21.3981 13.0997C21.7981 10.2997 20.8981 7.89976 15.9981 7.89976H6.59813C1.59813 7.89976 0.79813 10.2997 1.09813 13.0997L2.09813 20.0997C2.29813 22.3997 3.09811 24.2997 7.79811 24.2997Z"
      stroke="#35415c" stroke-width="1.5" stroke-miterlimit="10" stroke-linecap="round"
      stroke-linejoin="round" />
  </symbol>

  <symbol id="standart-arrow-right" viewBox="0 0 28 15">
    <path
      d="M1.00159 8.29953C0.805863 8.29678 0.615245 8.23665 0.453371 8.12659C0.291498 8.01653 0.165475 7.86139 0.0909447 7.68039C0.0164147 7.49939 -0.00335138 7.3005 0.0340905 7.10837C0.0715323 6.91624 0.164536 6.73932 0.301577 6.59955C0.501577 6.39955 0.701589 6.29953 1.00159 6.29953V8.29953ZM27.7016 6.59955C27.8848 6.78648 27.9875 7.03778 27.9875 7.29953C27.9875 7.56128 27.8848 7.81261 27.7016 7.99954L21.3016 14.3995C21.109 14.544 20.8708 14.6141 20.6307 14.597C20.3906 14.58 20.1647 14.4769 19.9945 14.3066C19.8243 14.1364 19.7212 13.9106 19.7041 13.6704C19.687 13.4303 19.7572 13.1921 19.9016 12.9995L25.6016 7.29953L19.9016 1.69955C19.7184 1.51263 19.6157 1.26129 19.6157 0.999542C19.6157 0.73779 19.7184 0.486459 19.9016 0.29953C20.0885 0.116303 20.3398 0.0136719 20.6016 0.0136719C20.8633 0.0136719 21.1146 0.116303 21.3016 0.29953L27.7016 6.59955ZM1.00159 6.29953H27.0016V8.29953H1.00159V6.29953Z"
    />
  </symbol>

  <symbol id="standart-arrow-left" viewBox="0 0 28 15">
    <path
      d="M27.0015 6.29961C27.2667 6.29961 27.5211 6.40498 27.7086 6.59251C27.8961 6.78005 28.0015 7.03439 28.0015 7.29961C28.0015 7.56482 27.8961 7.81919 27.7086 8.00673C27.5211 8.19427 27.2667 8.29961 27.0015 8.29961V6.29961ZM0.301483 7.99962C0.118256 7.81269 0.015625 7.56136 0.015625 7.29961C0.015625 7.03785 0.118256 6.78655 0.301483 6.59962L6.70151 0.299606C6.89408 0.155177 7.13227 0.0850626 7.37238 0.102127C7.61248 0.119191 7.83839 0.22229 8.00861 0.392501C8.17882 0.562713 8.28192 0.788622 8.29898 1.02873C8.31604 1.26884 8.24593 1.50706 8.1015 1.69963L2.40149 7.29961L8.1015 12.9996C8.28992 13.1842 8.39773 13.4359 8.40149 13.6996C8.39773 13.9634 8.28992 14.215 8.1015 14.3996C7.95892 14.5387 7.77804 14.6321 7.58206 14.6677C7.38608 14.7033 7.18392 14.6796 7.0015 14.5996C6.8902 14.5517 6.78856 14.4839 6.70151 14.3996L0.301483 7.99962ZM27.0015 8.29961H1.0015V6.29961H27.0015V8.29961Z"
      fill="#35415c" />

  </symbol>

  <symbol id="dark-crest" viewBox="0 0 20 20">
    <path d="M1 1L19 19M19 1L1 19" stroke="#35415c" stroke-width="2" stroke-linecap="round" />
  </symbol>

  <symbol id="arrow-right" fill="none" viewBox="0 0 28 11">
    <path
      d="M0.800025 4.7999C0.700076 4.78546 0.598214 4.79285 0.50138 4.8215C0.404546 4.85016 0.315049 4.89941 0.239051 4.96591C0.163052 5.03241 0.102328 5.11458 0.0610721 5.20676C0.0198159 5.29893 -0.000999644 5.39893 3.68944e-05 5.49991C3.68944e-05 5.71208 0.0843218 5.91555 0.234351 6.06558C0.38438 6.21561 0.587852 6.2999 0.800025 6.2999V4.7999ZM27.3 5.99991C27.4136 5.85802 27.4756 5.68167 27.4756 5.49991C27.4756 5.31814 27.4136 5.1418 27.3 4.99991L22.5 0.199921C22.3581 0.0863179 22.1818 0.0244141 22 0.0244141C21.8183 0.0244141 21.6419 0.0863179 21.5 0.199921C21.4335 0.265096 21.3807 0.342886 21.3446 0.428741C21.3085 0.514597 21.29 0.606793 21.29 0.699921C21.29 0.793048 21.3085 0.885214 21.3446 0.971069C21.3807 1.05693 21.4335 1.13474 21.5 1.19992L25.7 5.49991L21.4001 9.69992C21.3063 9.85313 21.2667 10.0334 21.2879 10.2118C21.309 10.3902 21.3896 10.5563 21.5166 10.6833C21.6437 10.8103 21.8097 10.8909 21.9881 10.912C22.1665 10.9332 22.3468 10.8937 22.5 10.7999L27.3 5.99991ZM0.800025 6.2999H26.8V4.7999H0.800025V6.2999Z"
      fill="#35415c" />
  </symbol>

  <symbol id="popup" fill="none" viewBox="0 0 14 9">
    <path d="M1 1L7 7L13 1" stroke="#35415c" stroke-width="1.5" />
  </symbol>

  <symbol id="geo-icon" fill="none" viewBox="0 0 20 22">
    <path
      d="M9.60001 12.3992C10.4222 12.3992 11.2107 12.0726 11.792 11.4912C12.3734 10.9098 12.7 10.1214 12.7 9.29919C12.7 8.47702 12.3734 7.68854 11.792 7.10718C11.2107 6.52581 10.4222 6.19922 9.60001 6.19922C8.77784 6.19922 7.98932 6.52581 7.40796 7.10718C6.8266 7.68854 6.5 8.47702 6.5 9.29919C6.5 10.1214 6.8266 10.9098 7.40796 11.4912C7.98932 12.0726 8.77784 12.3992 9.60001 12.3992Z"
      stroke="#292D32" stroke-width="1.5" />
    <path
      d="M1.19902 7.49961C3.19902 -1.20039 15.999 -1.20039 17.999 7.49961C19.199 12.4996 15.999 16.8996 13.199 19.4996C12.2308 20.4286 10.9409 20.9473 9.59902 20.9473C8.25718 20.9473 6.96728 20.4286 5.99901 19.4996C3.29901 16.8996 -0.000975341 12.4996 1.19902 7.49961Z"
      stroke="#292D32" stroke-width="1.5" />
  </symbol>

  <symbol id="home" fill="none" viewBox="0 0 22 22">
    <path
      d="M9.00008 17.0004H13.0001M15.2001 21.0004H6.80007C6.2582 21.0276 5.71647 20.9441 5.20785 20.7553C4.69922 20.5665 4.23433 20.2761 3.84145 19.902C3.44857 19.5278 3.13591 19.0776 2.92251 18.5788C2.7091 18.08 2.59941 17.543 2.60009 17.0004V12.1004C2.60009 11.4004 2.30007 10.7004 1.80007 10.2004C1.52345 9.93507 1.30893 9.61183 1.17187 9.25385C1.0348 8.89586 0.978615 8.51195 1.00728 8.1297C1.03595 7.74745 1.14877 7.37626 1.3377 7.04272C1.52662 6.70919 1.78698 6.42158 2.10009 6.20044L8.50008 1.80042C9.22949 1.27919 10.1036 0.999023 11.0001 0.999023C11.8966 0.999023 12.7707 1.27919 13.5001 1.80042L19.8001 6.20044C20.1201 6.41354 20.3889 6.69493 20.5871 7.02441C20.7852 7.35389 20.9079 7.72326 20.9461 8.10583C20.9844 8.48841 20.9373 8.87468 20.8083 9.23688C20.6793 9.59907 20.4716 9.92819 20.2001 10.2004C19.7001 10.7004 19.4001 11.4004 19.4001 12.2004V17.0004C19.4008 17.543 19.2911 18.08 19.0777 18.5788C18.8642 19.0776 18.5516 19.5278 18.1587 19.902C17.7658 20.2761 17.3009 20.5665 16.7923 20.7553C16.2837 20.9441 15.742 21.0276 15.2001 21.0004Z"
      stroke="#35415c" stroke-width="1.5" stroke-linecap="round" />
  </symbol>

  <symbol id="vk-dark" viewBox="0 0 45 45" fill="none">
    <path d="M1 1H44V44H1V1Z" stroke="#35415c" stroke-width="2" />
    <path
      d="M23.6016 30.3996C15.1016 30.3996 10.3016 24.3996 10.1016 14.5996H14.4016C14.5016 21.7996 17.6016 24.8996 20.1016 25.5996V14.5996H24.1016V20.8996C26.5016 20.5996 29.1016 17.6996 30.0016 14.5996H34.0016C33.6741 16.2227 33.017 17.7612 32.071 19.1201C31.1249 20.4789 29.9101 21.6292 28.5016 22.4996C30.0698 23.2841 31.4522 24.3949 32.556 25.7574C33.6598 27.1199 34.4596 28.7027 34.9016 30.3996H30.5016C30.0918 28.9249 29.2571 27.6034 28.1016 26.5996C26.9864 25.5833 25.5939 24.9218 24.1016 24.6996V30.3996H23.6016Z"
      fill="#35415c" />
  </symbol>

  <symbol id="vk" viewBox="0 0 45 45" fill="none">
    <path d="M1 1H44V44H1V1Z" stroke="#FFF9EE" stroke-width="2" />
    <path
      d="M23.6016 30.3996C15.1016 30.3996 10.3016 24.3996 10.1016 14.5996H14.4016C14.5016 21.7996 17.6016 24.8996 20.1016 25.5996V14.5996H24.1016V20.8996C26.5016 20.5996 29.1016 17.6996 30.0016 14.5996H34.0016C33.6741 16.2227 33.017 17.7612 32.071 19.1201C31.1249 20.4789 29.9101 21.6292 28.5016 22.4996C30.0698 23.2841 31.4522 24.3949 32.556 25.7574C33.6598 27.1199 34.4596 28.7027 34.9016 30.3996H30.5016C30.0918 28.9249 29.2571 27.6034 28.1016 26.5996C26.9864 25.5833 25.5939 24.9218 24.1016 24.6996V30.3996H23.6016Z"
      fill="#FFF9EE" />
  </symbol>

  <symbol id="youtube-dark" viewBox="0 0 45 45" fill="none">
    <path
      d="M30.3 27.9996H29V27.2996C29 26.7996 29.2 26.5996 29.6 26.5996C30.1 26.5996 30.3 26.7996 30.3 27.2996V28.0996V27.9996ZM25.3 26.3996C24.8 26.3996 24.6 26.4996 24.6 26.8996V30.6996C24.6 30.9996 24.8 31.1996 25.3 31.1996C25.7 31.1996 25.9 30.9996 25.9 30.6996V26.8996C25.9 26.4996 25.7 26.3996 25.3 26.3996ZM33.5 24.1996V31.4996C33.495 31.9156 33.4035 32.326 33.2313 32.7047C33.0592 33.0835 32.8101 33.4223 32.5 33.6996C31.8 34.2996 31 34.6996 30.1 34.6996H16.4C15.4 34.6996 14.6 34.2996 14 33.6996C13.6899 33.4223 13.4408 33.0835 13.2687 32.7047C13.0965 32.326 13.005 31.9156 13 31.4996V24.1996C13.005 23.7836 13.0965 23.3732 13.2687 22.9944C13.4408 22.6157 13.6899 22.2769 14 21.9996C14.6 21.3996 15.4 20.9996 16.4 20.9996H30C31 20.9996 31.7 21.3996 32.4 21.9996C32.7101 22.2769 32.9592 22.6157 33.1313 22.9944C33.3035 23.3732 33.395 23.7836 33.4 24.1996H33.5ZM17.3 32.1996V24.6996H19V23.4996H14.4V24.5996H15.8V32.2996H17.3V32.1996ZM22.3 25.7996H21V30.7996C20.9817 30.8839 20.9454 30.9633 20.8937 31.0323C20.8419 31.1014 20.7758 31.1584 20.7 31.1996C20.5 31.1996 20.3 31.1996 20.2 30.8996V25.7996H18.8V31.0996C18.8 31.6996 19 32.0996 19.2 32.0996C19.5 32.3996 19.9 32.3996 20.4 32.0996C20.9 31.9996 21.2 31.6996 21.4 31.3996V32.2996H22.4V25.7996H22.3ZM26.9 30.4996V26.9996C26.9 26.3996 26.7 25.9996 26.3 25.6996C25.8 25.3996 25.3 25.4996 24.7 25.9996V23.4996H23.2V32.1996H24.4L24.5 31.5996C25.3 32.2996 25.8 32.3996 26.3 32.1996C26.7 31.8996 26.9 31.2996 26.9 30.4996ZM31.4 29.9996H30.4V30.6996C30.4 31.0996 30.1 31.2996 29.7 31.2996H29.5C29.1 31.2996 28.9 31.0996 28.9 30.6996V29.1996H31.4V26.4996C31.2 25.8996 30.8 25.4996 30.2 25.4996C29.5 25.2996 29 25.3996 28.6 25.6996C28.3355 25.9112 28.129 26.1864 28 26.4996L27.8 27.9996V29.9996C27.8 31.2996 28.3 31.9996 29.3 32.2996C30.2 32.3996 30.8 32.1996 31.2 31.3996C31.4 30.9996 31.5 30.4996 31.4 29.9996ZM25.9 18.9996C25.9 19.1996 26.1 19.2996 26.3 19.3996L26.9 19.5996C27.1 19.5996 27.2 19.5996 27.4 19.3996L27.8 18.9996V19.4996H29.4V12.6996H28V17.9996C28 18.2996 27.8 18.4996 27.4 18.4996C27.1 18.4996 27 18.2996 27 17.9996V12.6996H25.6V17.2996C25.5968 17.8723 25.664 18.4433 25.8 18.9996H25.9ZM21.1 15.1996C21.1 14.5996 21.1 14.0996 21.3 13.6996C21.3 13.3996 21.6 13.0996 21.8 12.7996C22.1 12.5996 22.5 12.4996 22.9 12.4996C23.3 12.4996 23.6 12.4996 23.9 12.6996L24.5 13.2996L24.8 13.8996V18.1996C24.729 18.4723 24.604 18.7279 24.4322 18.9513C24.2604 19.1746 24.0454 19.3611 23.8 19.4996L23 19.6996C22.7 19.6996 22.3 19.6996 22 19.4996C21.8 19.4996 21.6 19.2996 21.5 19.0996L21.2 18.2996C21.1263 17.8703 21.0928 17.4351 21.1 16.9996V15.1996ZM22.3 17.8996C22.3 18.0996 22.3 18.1996 22.5 18.3996C22.562 18.4696 22.6395 18.5241 22.7263 18.5588C22.8131 18.5936 22.9068 18.6075 23 18.5996C23.4 18.5996 23.6 18.2996 23.6 17.8996V14.2996C23.6 13.8996 23.4 13.5996 23 13.5996C22.5 13.5996 22.3 13.8996 22.3 14.2996V17.8996ZM18 19.6996H19.4V14.4996L21.2 10.0996H19.6L18.6 13.3996L17.6 10.0996H16.1L18 14.4996V19.6996Z"
      fill="#35415c" />
    <path d="M1 1H44V44H1V1Z" stroke="#35415c" stroke-width="2" />

  </symbol>

  <symbol id="youtube" viewBox="0 0 45 45" fill="none">
    <path
      d="M30.3 27.9996H29V27.2996C29 26.7996 29.2 26.5996 29.6 26.5996C30.1 26.5996 30.3 26.7996 30.3 27.2996V28.0996V27.9996ZM25.3 26.3996C24.8 26.3996 24.6 26.4996 24.6 26.8996V30.6996C24.6 30.9996 24.8 31.1996 25.3 31.1996C25.7 31.1996 25.9 30.9996 25.9 30.6996V26.8996C25.9 26.4996 25.7 26.3996 25.3 26.3996ZM33.5 24.1996V31.4996C33.495 31.9156 33.4035 32.326 33.2313 32.7047C33.0592 33.0835 32.8101 33.4223 32.5 33.6996C31.8 34.2996 31 34.6996 30.1 34.6996H16.4C15.4 34.6996 14.6 34.2996 14 33.6996C13.6899 33.4223 13.4408 33.0835 13.2687 32.7047C13.0965 32.326 13.005 31.9156 13 31.4996V24.1996C13.005 23.7836 13.0965 23.3732 13.2687 22.9944C13.4408 22.6157 13.6899 22.2769 14 21.9996C14.6 21.3996 15.4 20.9996 16.4 20.9996H30C31 20.9996 31.7 21.3996 32.4 21.9996C32.7101 22.2769 32.9592 22.6157 33.1313 22.9944C33.3035 23.3732 33.395 23.7836 33.4 24.1996H33.5ZM17.3 32.1996V24.6996H19V23.4996H14.4V24.5996H15.8V32.2996H17.3V32.1996ZM22.3 25.7996H21V30.7996C20.9817 30.8839 20.9454 30.9633 20.8937 31.0323C20.8419 31.1014 20.7758 31.1584 20.7 31.1996C20.5 31.1996 20.3 31.1996 20.2 30.8996V25.7996H18.8V31.0996C18.8 31.6996 19 32.0996 19.2 32.0996C19.5 32.3996 19.9 32.3996 20.4 32.0996C20.9 31.9996 21.2 31.6996 21.4 31.3996V32.2996H22.4V25.7996H22.3ZM26.9 30.4996V26.9996C26.9 26.3996 26.7 25.9996 26.3 25.6996C25.8 25.3996 25.3 25.4996 24.7 25.9996V23.4996H23.2V32.1996H24.4L24.5 31.5996C25.3 32.2996 25.8 32.3996 26.3 32.1996C26.7 31.8996 26.9 31.2996 26.9 30.4996ZM31.4 29.9996H30.4V30.6996C30.4 31.0996 30.1 31.2996 29.7 31.2996H29.5C29.1 31.2996 28.9 31.0996 28.9 30.6996V29.1996H31.4V26.4996C31.2 25.8996 30.8 25.4996 30.2 25.4996C29.5 25.2996 29 25.3996 28.6 25.6996C28.3355 25.9112 28.129 26.1864 28 26.4996L27.8 27.9996V29.9996C27.8 31.2996 28.3 31.9996 29.3 32.2996C30.2 32.3996 30.8 32.1996 31.2 31.3996C31.4 30.9996 31.5 30.4996 31.4 29.9996ZM25.9 18.9996C25.9 19.1996 26.1 19.2996 26.3 19.3996L26.9 19.5996C27.1 19.5996 27.2 19.5996 27.4 19.3996L27.8 18.9996V19.4996H29.4V12.6996H28V17.9996C28 18.2996 27.8 18.4996 27.4 18.4996C27.1 18.4996 27 18.2996 27 17.9996V12.6996H25.6V17.2996C25.5968 17.8723 25.664 18.4433 25.8 18.9996H25.9ZM21.1 15.1996C21.1 14.5996 21.1 14.0996 21.3 13.6996C21.3 13.3996 21.6 13.0996 21.8 12.7996C22.1 12.5996 22.5 12.4996 22.9 12.4996C23.3 12.4996 23.6 12.4996 23.9 12.6996L24.5 13.2996L24.8 13.8996V18.1996C24.729 18.4723 24.604 18.7279 24.4322 18.9513C24.2604 19.1746 24.0454 19.3611 23.8 19.4996L23 19.6996C22.7 19.6996 22.3 19.6996 22 19.4996C21.8 19.4996 21.6 19.2996 21.5 19.0996L21.2 18.2996C21.1263 17.8703 21.0928 17.4351 21.1 16.9996V15.1996ZM22.3 17.8996C22.3 18.0996 22.3 18.1996 22.5 18.3996C22.562 18.4696 22.6395 18.5241 22.7263 18.5588C22.8131 18.5936 22.9068 18.6075 23 18.5996C23.4 18.5996 23.6 18.2996 23.6 17.8996V14.2996C23.6 13.8996 23.4 13.5996 23 13.5996C22.5 13.5996 22.3 13.8996 22.3 14.2996V17.8996ZM18 19.6996H19.4V14.4996L21.2 10.0996H19.6L18.6 13.3996L17.6 10.0996H16.1L18 14.4996V19.6996Z"
      fill="#FFF9EE" />
    <path d="M1 1H44V44H1V1Z" stroke="#FFF9EE" stroke-width="2" />
  </symbol>

  <symbol id="telegram-dark" viewBox="0 0 45 45" fill="none">
    <path d="M1 1H44V44H1V1Z" stroke="#35415c" stroke-width="2" />
    <path
      d="M31.5016 14.2L28.1016 31.8C28.1016 31.8 27.6016 33.1 26.3016 32.5L18.5016 26.3L28.1016 17.3C28.6016 16.8 28.3016 16.5 27.7016 16.9L15.6016 24.9L10.9016 23.2C10.9016 23.2 10.2016 22.9 10.1016 22.3C10.1016 21.7 11.0016 21.4 11.0016 21.4L30.0016 13.7C30.0016 13.7 31.5016 13 31.5016 14.2Z"
      fill="#35415c" />
  </symbol>

  <symbol id="telegram" viewBox="0 0 45 45" fill="none">
    <path d="M1 1H44V44H1V1Z" stroke="white" stroke-width="2" />
    <path
      d="M31.5016 14.2L28.1016 31.8C28.1016 31.8 27.6016 33.1 26.3016 32.5L18.5016 26.3L28.1016 17.3C28.6016 16.8 28.3016 16.5 27.7016 16.9L15.6016 24.9L10.9016 23.2C10.9016 23.2 10.2016 22.9 10.1016 22.3C10.1016 21.7 11.0016 21.4 11.0016 21.4L30.0016 13.7C30.0016 13.7 31.5016 13 31.5016 14.2Z"
      fill="white" />
  </symbol>

  <symbol id='dzen-dark' fill="none" viewBox="0 0 45 45">
    <path stroke="#35415c" stroke-width="2" d="M1 1h43v43H1z" />
    <path fill-rule="evenodd" clip-rule="evenodd"
      d="M20.822 19.976c1.454-1.671 1.49-7.098 1.355-7.474-6.962.358-9.858 6.772-9.567 9.804l2.042-.058c4.064-.252 5.111-1.056 6.17-2.272Zm1.998-7.47c-.136.377-.099 5.803 1.355 7.474 1.058 1.217 2.105 2.02 6.17 2.273l2.042.058c.29-3.032-2.605-9.446-9.567-9.804Zm-.003 19.991c-.136-.376-.099-5.802 1.355-7.474 1.058-1.216 2.105-2.02 6.17-2.272l2.042-.058c.29 3.032-2.605 9.446-9.567 9.804Zm-.637-.004c.136-.377.098-5.803-1.355-7.474-1.059-1.217-2.106-2.02-6.17-2.273l-2.042-.058c-.29 3.032 2.604 9.446 9.567 9.805Z"
      fill="#35415c" />
  </symbol>

  <symbol id='dzen' fill="none" viewBox="0 0 45 45">
    <path stroke="white" stroke-width="2" d="M1 1h43v43H1z" />
    <path fill-rule="evenodd" clip-rule="evenodd"
      d="M20.822 19.976c1.454-1.671 1.49-7.098 1.355-7.474-6.962.358-9.858 6.772-9.567 9.804l2.042-.058c4.064-.252 5.111-1.056 6.17-2.272Zm1.998-7.47c-.136.377-.099 5.803 1.355 7.474 1.058 1.217 2.105 2.02 6.17 2.273l2.042.058c.29-3.032-2.605-9.446-9.567-9.804Zm-.003 19.991c-.136-.376-.099-5.802 1.355-7.474 1.058-1.216 2.105-2.02 6.17-2.272l2.042-.058c.29 3.032-2.605 9.446-9.567 9.804Zm-.637-.004c.136-.377.098-5.803-1.355-7.474-1.059-1.217-2.106-2.02-6.17-2.273l-2.042-.058c-.29 3.032 2.604 9.446 9.567 9.805Z"
      fill="white" />
  </symbol>

  <symbol id='circle' fill="none" viewBox="0 0 40 40">
    <path
      d="M20.18 35.74c8.745 0 15.833-7.105 15.833-15.87C36.013 11.105 28.925 4 20.181 4 11.435 4 4.347 11.105 4.347 19.87c0 8.765 7.088 15.87 15.832 15.87Z"
      fill="#35415c" />
  </symbol>

  <symbol id='password' fill="none" viewBox="0 0 24 24">
    <path d="m13.6 8.5-5.1 5c-.6-.6-1-1.5-1-2.5 0-2 1.6-3.6 3.6-3.6.9 0 1.8.4 2.5 1.1Z"
    />
    <path
      d="M16.8 4.8a10 10 0 0 0-5.8-2c-3.5 0-6.8 2.1-9.1 5.7a5.3 5.3 0 0 0 0 5.2 16.997 16.997 0 0 0 2.7 3.2m2.8 1.6c1.1.5 2.4.7 3.6.7 3.5 0 6.8-2.1 9.1-5.7.9-1.4.9-3.8 0-5.2L19 6.8" />
    <path d="M14.5 11.7c-.3 1.4-1.4 2.6-2.8 2.8m-3.2-1L1 21M21 1l-7.5 7.5" />
  </symbol>

  <symbol id="profile" fill="none" viewBox="0 0 22 26">
    <path
      d="M13.8787 7.86375C13.9117 9.02273 13.4833 10.1474 12.6876 10.9907C11.8919 11.834 10.7939 12.3269 9.635 12.3612C8.47606 12.3269 7.37814 11.834 6.58242 10.9907C5.78671 10.1474 5.35828 9.02273 5.39125 7.86375C5.36064 6.70627 5.79012 5.58385 6.58558 4.74246C7.38105 3.90107 8.47762 3.40933 9.635 3.375C10.7924 3.40933 11.8889 3.90107 12.6844 4.74246C13.4799 5.58385 13.9094 6.70627 13.8787 7.86375ZM17.895 23.1762H1.375C1.4625 19.4137 5.05 16.2462 9.635 16.2462C14.22 16.2462 17.8075 19.4225 17.895 23.1762Z"
      stroke="#29354D" stroke-width="1.3125" />
  </symbol>

  <symbol id="bonuses" viewBox="0 0 24 25" fill="none">
    <path
      d="M12.5003 22C17.8259 22 22.1431 17.5228 22.1431 12C22.1431 6.47715 17.8259 2 12.5003 2C7.17468 2 2.85742 6.47715 2.85742 12C2.85742 17.5228 7.17468 22 12.5003 22Z"
      stroke="#292D32" stroke-width="1.5" stroke-linecap="round" stroke-linejoin="round" />
    <path d="M9.60742 15L15.3931 9" stroke="#292D32" stroke-width="1.5" stroke-linecap="round"
      stroke-linejoin="round" />
    <path d="M14.9056 14.5H14.9142" stroke="#292D32" stroke-width="2" stroke-linecap="round"
      stroke-linejoin="round" />
    <path d="M10.0843 9.5H10.0929" stroke="#292D32" stroke-width="2" stroke-linecap="round"
      stroke-linejoin="round" />
  </symbol>


  <symbol id="triangal" viewBox="0 0 10 5">
    <path d="M5 4.5L0.669873 1.38009e-07L9.33013 8.95112e-07L5 4.5Z" fill="#797979" />
  </symbol>

  <symbol id="request" viewBox="0 0 44 44">

    <path
      d="M19.898 1.1.998 20a3 3 0 0 0 0 4.2l19 18.8a3 3 0 0 0 4.2 0l18.8-19a3 3 0 0 0 0-4.2l-19-18.8a3 3 0 0 0-4.2 0l.1.1z"
      fill="#29354D" />
    <path d="M21.997 35.2a13.2 13.2 0 1 0 0-26.399 13.2 13.2 0 0 0 0 26.399z" fill="#FFF9EE" />
    <path
      d="M27.397 13.8h-10.6a3 3 0 0 0-3 3v10.5a3 3 0 0 0 3 3h10.6a3 3 0 0 0 3-3V16.8a3 3 0 0 0-3-3z"
      fill="#29354D" />
    <path d="M22 27.7a5.75 5.75 0 1 0 0-11.5 5.75 5.75 0 0 0 0 11.5z" fill="#FFF9EE" />
    <path
      d="m21.498 20-1.2 1.3a1 1 0 0 0 0 1.4l1.2 1.2c.4.4 1 .4 1.4 0l1.2-1.2c.4-.4.4-1 0-1.4l-1.1-1.3a1 1 0 0 0-1.4 0h-.1z"
      fill="#29354D" />

  </symbol>

  <symbol viewBox="0 0 181 84" id="logo">
    <path fill-rule="evenodd" clip-rule="evenodd"
      d="M52.873 62.084a7.255 7.255 0 0 0-6.74-7.273v14.546a7.255 7.255 0 0 0 6.74-7.273zM34.863 41.62c5.196-10.099 16.156-16.545 27.62-15.932-.921-3.75-2.55-7.252-4.832-10.443-11.4 4.502-19.949 14.46-22.788 26.375zM2.978 25.687c.525-.033 1.061-.043 1.586-.043h.01c10.886 0 21.064 6.327 26.036 15.964-2.84-11.914-11.4-21.884-22.81-26.374a30.332 30.332 0 0 0-4.822 10.453zM32.645 2.385c-6.921 0-13.714 2.406-19.124 6.768l-.01.01a30.435 30.435 0 0 0-4.2 4.115c11.592 4.792 20.27 14.815 23.42 27.008 3.16-12.182 11.817-22.205 23.399-27.008a30.142 30.142 0 0 0-4.232-4.125c-5.443-4.362-12.332-6.768-19.253-6.768zm11.1 68.154V54.8H21.717V70.54c0 6.102 4.94 11.055 11.014 11.055 6.075 0 11.014-4.964 11.014-11.055zM32.645 0c15.857 0 29.527 11.259 32.506 26.782l.021.011.3 1.59-1.607-.172a27.449 27.449 0 0 0-2.967-.16c-13.757 0-25.446 10.678-26.742 24.364h11.549l.429.022c5.057.29 9.128 4.534 9.128 9.669 0 5.135-4.103 9.421-9.192 9.668-.622 6.865-6.429 12.215-13.328 12.215-7.393 0-13.403-6.027-13.403-13.44V52.416h11.978C30.03 38.718 18.342 28.04 4.575 28.04c-.986 0-1.982.054-2.968.162L0 28.372l.31-1.59C3.29 11.26 16.79 0 32.646 0zm146.041 81.68h-51.384V31.284h51.384V81.68zm-53.698 0H73.54V31.284h51.448V81.68zM71.226 84h109.763V28.963H71.226V84zm19.178-33.798c1.19 0 2.357-.419 3.29-1.17h.02l.354-.29 1.629 1.643-.418.355a7.544 7.544 0 0 1-4.864 1.783c-4.157 0-7.543-3.384-7.543-7.563 0-4.18 3.386-7.574 7.543-7.574 1.735 0 3.428.612 4.778 1.719l.429.354-1.64 1.633-.353-.28a5.181 5.181 0 0 0-3.225-1.116c-2.893 0-5.24 2.352-5.24 5.253 0 2.9 2.347 5.253 5.24 5.253zm18.374-.01c2.871 0 5.218-2.342 5.218-5.232s-2.347-5.232-5.218-5.232-5.218 2.353-5.218 5.232 2.347 5.232 5.218 5.232zm-7.532-5.232c0-4.158 3.386-7.542 7.532-7.542 4.157 0 7.532 3.384 7.532 7.542 0 4.157-3.375 7.541-7.532 7.541s-7.532-3.384-7.532-7.541zm38.549 7.326h2.303v-6.198h5.443v-2.32h-5.443v-3.825h6.857v-2.32h-9.16v14.663zm20.516-2.342h6.932v2.342h-9.257V37.622h9.257v2.331h-6.932v3.879h5.496v2.33h-5.496v3.782zm-75.264 25.15h2.314v-6.199h5.443v-2.32H87.36V62.75h6.857v-2.32h-9.171v14.664zm27.834 0h-9.246V60.43h9.246v2.342h-6.921v3.867h5.496v2.332h-5.496v3.792h6.921v2.331zm43.852-14.632v2.32h4.597v12.29h2.303v-12.29h4.596v-2.32h-11.496zm-15.353 3.867c0 1.086 1.158 1.612 2.122 1.87h-.011c2.721.72 4.286 2.374 4.286 4.544 0 2.525-2.047 4.587-4.575 4.587-2.529 0-4.575-2.062-4.575-4.587v-.505h2.282v.505a2.299 2.299 0 0 0 2.293 2.3 2.299 2.299 0 0 0 2.293-2.3c0-1.493-1.8-2.127-2.583-2.331-2.464-.645-3.824-2.095-3.824-4.083a4.127 4.127 0 0 1 4.114-4.125c2.26 0 3.235 1.15 4.039 2.331l.128.183-1.703 1.558-.15-.29c-.343-.645-.943-1.494-2.304-1.494a1.84 1.84 0 0 0-1.832 1.837z"
      fill="#E6AF9A" />
  </symbol>

</svg>