<svg width="60" height="16" viewBox="0 0 60 16" fill="none" xmlns="http://www.w3.org/2000/svg">
<path d="M1 7C0.447715 7 1.07403e-07 7.44772 0 8C-1.07403e-07 8.55228 0.447715 9 1 9L1 7ZM59.5438 8.70711C59.9344 8.31658 59.9344 7.68342 59.5438 7.2929L53.1799 0.928934C52.7894 0.53841 52.1562 0.53841 51.7657 0.928934C51.3751 1.31946 51.3751 1.95262 51.7657 2.34315L57.4225 8L51.7657 13.6569C51.3751 14.0474 51.3751 14.6805 51.7657 15.0711C52.1562 15.4616 52.7894 15.4616 53.1799 15.0711L59.5438 8.70711ZM1 9L58.8367 9L58.8367 7L1 7L1 9Z" fill="#1E283F"/>
</svg>
