<svg width="354" height="812" viewBox="0 0 354 812" fill="none" xmlns="http://www.w3.org/2000/svg">
<g clip-path="url(#clip0_2053_166656)">
<path d="M263.146 853.582C214.171 834.815 179.21 785.487 179.21 727.587C179.21 723.399 179.391 719.255 179.75 715.164" stroke="#EAC2B2" stroke-opacity="0.05" stroke-width="2" stroke-miterlimit="10"/>
<path d="M179.968 716.655C182.565 767.855 222.941 808.531 272.365 808.531C275.817 808.531 279.224 808.332 282.58 807.945" stroke="#EAC2B2" stroke-opacity="0.05" stroke-width="2" stroke-miterlimit="10"/>
<path d="M282.578 807.949C273.257 858.69 230.866 897.047 179.802 897.047C128.746 897.047 85.7684 858.681 76.4395 807.949" stroke="#EAC2B2" stroke-opacity="0.05" stroke-width="2" stroke-miterlimit="10"/>
<path d="M76.4395 807.945C79.793 808.332 83.2008 808.531 86.652 808.531C136.079 808.531 176.453 767.855 179.05 716.655" stroke="#EAC2B2" stroke-opacity="0.05" stroke-width="2" stroke-miterlimit="10"/>
<path d="M95.8628 853.586C144.838 834.819 179.798 785.491 179.798 727.591C179.798 723.403 179.615 719.259 179.257 715.168" stroke="#EAC2B2" stroke-opacity="0.05" stroke-width="2" stroke-miterlimit="10"/>
<path d="M16.0584 -73.6062L-211.341 165.129" stroke="#EAC2B2" stroke-opacity="0.05" stroke-width="2" stroke-miterlimit="10"/>
<path d="M75.3857 99.4648C40.3141 99.4648 11.8843 69.6224 11.8843 32.8096C11.8843 31.8386 11.9016 30.8711 11.9433 29.9106" stroke="#EAC2B2" stroke-opacity="0.05" stroke-width="2" stroke-miterlimit="10"/>
<path d="M57.0978 -16.4874L-211.341 265.273" stroke="#EAC2B2" stroke-opacity="0.05" stroke-width="2" stroke-miterlimit="10"/>
<path d="M94.4375 54.2383C71.3035 51.499 53.3252 30.8931 53.3252 5.87964C53.3252 -2.18515 55.1955 -9.79259 58.5049 -16.4897" stroke="#EAC2B2" stroke-opacity="0.05" stroke-width="2" stroke-miterlimit="10"/>
<path d="M11.6042 31.6211C-35.7598 31.6211 -74.1558 -8.68041 -74.1558 -58.3961C-74.1558 -63.5794 -73.7392 -68.661 -72.9376 -73.6033" stroke="#EAC2B2" stroke-opacity="0.05" stroke-width="2" stroke-miterlimit="10"/>
<path d="M219.595 -34.7771C219.595 -10.6387 200.952 8.92969 177.954 8.92969C154.955 8.92969 136.314 -10.6387 136.314 -34.7771" stroke="#EAC2B2" stroke-opacity="0.05" stroke-width="2" stroke-miterlimit="10"/>
<path d="M76.0518 99.4082C73.7176 121.178 56.1184 138.098 34.7542 138.098C31.0661 138.098 27.4909 137.594 24.0869 136.647" stroke="#EAC2B2" stroke-opacity="0.05" stroke-width="2" stroke-miterlimit="10"/>
<path d="M24.0865 136.645C24.9798 140.203 25.4597 143.936 25.4597 147.789C25.4597 171.882 6.85109 191.414 -16.1026 191.414C-19.7901 191.414 -23.3615 190.908 -26.7661 189.962" stroke="#EAC2B2" stroke-opacity="0.05" stroke-width="2" stroke-miterlimit="10"/>
<path d="M342.616 -73.6062L570.015 165.129" stroke="#EAC2B2" stroke-opacity="0.05" stroke-width="2" stroke-miterlimit="10"/>
<path d="M283.29 99.4688C318.361 99.4687 346.791 69.6263 346.791 32.8135C346.791 31.8425 346.773 30.875 346.733 29.9145" stroke="#EAC2B2" stroke-opacity="0.05" stroke-width="2" stroke-miterlimit="10"/>
<path d="M301.573 -16.4874L570.01 265.273" stroke="#EAC2B2" stroke-opacity="0.05" stroke-width="2" stroke-miterlimit="10"/>
<path d="M264.237 54.2383C287.368 51.499 305.345 30.8931 305.345 5.87964C305.345 -2.18515 303.476 -9.79259 300.166 -16.4897" stroke="#EAC2B2" stroke-opacity="0.05" stroke-width="2" stroke-miterlimit="10"/>
<path d="M347.068 31.6172C394.431 31.6172 432.83 -8.68432 432.83 -58.4C432.83 -63.5833 432.414 -68.6649 431.612 -73.6072" stroke="#EAC2B2" stroke-opacity="0.05" stroke-width="2" stroke-miterlimit="10"/>
<path d="M282.623 99.4082C284.958 121.178 302.556 138.098 323.92 138.098C327.607 138.098 331.181 137.594 334.587 136.647" stroke="#EAC2B2" stroke-opacity="0.05" stroke-width="2" stroke-miterlimit="10"/>
<path d="M334.578 136.645C333.684 140.203 333.204 143.936 333.204 147.789C333.204 171.882 351.812 191.414 374.767 191.414C378.454 191.414 382.029 190.908 385.431 189.962" stroke="#EAC2B2" stroke-opacity="0.05" stroke-width="2" stroke-miterlimit="10"/>
<path d="M19.7963 984.84L-211.341 742.183" stroke="#EAC2B2" stroke-opacity="0.05" stroke-width="2" stroke-miterlimit="10"/>
<path d="M75.3857 807.848C40.3141 807.848 11.8843 837.69 11.8843 874.502C11.8843 875.473 11.9016 876.439 11.9433 877.402" stroke="#EAC2B2" stroke-opacity="0.05" stroke-width="2" stroke-miterlimit="10"/>
<path d="M57.0978 923.801L-211.341 642.04" stroke="#EAC2B2" stroke-opacity="0.05" stroke-width="2" stroke-miterlimit="10"/>
<path d="M76.0518 807.906C73.7176 786.138 56.1184 769.218 34.7542 769.218C31.0661 769.218 27.4909 769.723 24.0869 770.67" stroke="#EAC2B2" stroke-opacity="0.05" stroke-width="2" stroke-miterlimit="10"/>
<path d="M24.0865 770.668C24.9798 767.11 25.4597 763.375 25.4597 759.523C25.4597 735.431 6.85109 715.898 -16.1026 715.898C-19.7901 715.898 -23.3615 716.406 -26.7661 717.35" stroke="#EAC2B2" stroke-opacity="0.05" stroke-width="2" stroke-miterlimit="10"/>
<path d="M338.874 984.84L570.012 742.183" stroke="#EAC2B2" stroke-opacity="0.05" stroke-width="2" stroke-miterlimit="10"/>
<path d="M283.29 807.848C318.361 807.848 346.791 837.69 346.791 874.502C346.791 875.473 346.773 876.439 346.733 877.402" stroke="#EAC2B2" stroke-opacity="0.05" stroke-width="2" stroke-miterlimit="10"/>
<path d="M301.573 923.801L570.01 642.04" stroke="#EAC2B2" stroke-opacity="0.05" stroke-width="2" stroke-miterlimit="10"/>
<path d="M282.623 807.906C284.958 786.138 302.556 769.218 323.92 769.218C327.607 769.218 331.181 769.723 334.587 770.67" stroke="#EAC2B2" stroke-opacity="0.05" stroke-width="2" stroke-miterlimit="10"/>
<path d="M334.576 770.668C333.682 767.11 333.201 763.375 333.201 759.523C333.201 735.431 351.81 715.898 374.764 715.898C378.452 715.898 382.026 716.406 385.429 717.35" stroke="#EAC2B2" stroke-opacity="0.05" stroke-width="2" stroke-miterlimit="10"/>
<path d="M95.6733 53.3069C144.652 72.0765 179.618 121.41 179.618 179.316C179.618 183.503 179.435 187.649 179.077 191.742" stroke="#EAC2B2" stroke-opacity="0.05" stroke-width="2" stroke-miterlimit="10"/>
<path d="M178.872 190.246C176.276 139.041 135.896 98.3606 86.4641 98.3606C83.015 98.3606 79.6055 98.5589 76.252 98.9453" stroke="#EAC2B2" stroke-opacity="0.05" stroke-width="2" stroke-miterlimit="10"/>
<path d="M76.252 98.9453C85.5729 48.1998 127.968 9.83812 179.037 9.83812C230.099 9.83812 273.083 48.2092 282.413 98.9453" stroke="#EAC2B2" stroke-opacity="0.05" stroke-width="2" stroke-miterlimit="10"/>
<path d="M282.413 98.9453C279.058 98.5589 275.652 98.3606 272.199 98.3606C222.767 98.3606 182.388 139.041 179.79 190.246" stroke="#EAC2B2" stroke-opacity="0.05" stroke-width="2" stroke-miterlimit="10"/>
<path d="M262.983 53.3069C214.003 72.0765 179.038 121.41 179.038 179.316C179.038 183.503 179.22 187.649 179.58 191.742" stroke="#EAC2B2" stroke-opacity="0.05" stroke-width="2" stroke-miterlimit="10"/>
</g>
<defs>
<clipPath id="clip0_2053_166656">
<rect width="354" height="812" fill="white"/>
</clipPath>
</defs>
</svg>
