<svg width="49" height="49" viewBox="0 0 49 49" fill="none" xmlns="http://www.w3.org/2000/svg">
<g id="&#208;&#152;&#208;&#186;&#208;&#190;&#208;&#189;&#208;&#186;&#208;&#184;">
<g id="Group 34351">
<g id="call">
<path id="Vector" d="M37.1056 35.3745L37.106 35.374C37.5565 34.8769 37.899 34.3473 38.1617 33.7908C38.4469 33.1868 38.5856 32.5556 38.5856 31.9331C38.5856 31.4124 38.4719 30.9575 38.3041 30.538L38.2978 30.5222L38.2909 30.5066C38.0624 29.9872 37.6956 29.5756 37.2282 29.2508L32.8883 26.1696L32.88 26.1638L32.8717 26.1581C32.5064 25.9097 32.142 25.7001 31.7693 25.5476C31.3768 25.387 30.9859 25.3025 30.59 25.3025C30.0682 25.3025 29.5977 25.4502 29.1664 25.7069C28.7538 25.9274 28.3678 26.2446 28.0083 26.6037C28.0076 26.6045 28.0068 26.6052 28.006 26.606L27.111 27.4893C27.0914 27.4803 27.0684 27.47 27.0439 27.4594C26.6878 27.2657 26.197 26.9261 25.5666 26.3928C24.8993 25.8262 24.2383 25.2041 23.5403 24.5192C22.8796 23.8454 22.2673 23.1695 21.6898 22.5024C21.1632 21.8796 20.8162 21.396 20.6204 21.0529C20.609 21.024 20.5984 20.9986 20.5899 20.9784L21.4867 20.0462C21.8399 19.6921 22.1459 19.3133 22.3702 18.9202C22.6343 18.4813 22.7831 17.9933 22.7831 17.4825C22.7831 17.0684 22.6771 16.6603 22.5218 16.2957C22.3688 15.9237 22.1576 15.5566 21.888 15.1817L18.848 10.8969C18.5039 10.4019 18.0613 10.0568 17.5759 9.83145C17.106 9.60726 16.592 9.5 16.0869 9.5C14.8097 9.5 13.6522 10.0428 12.663 11.0136C11.8717 11.7621 11.289 12.615 10.918 13.5569C10.5533 14.4696 10.375 15.4487 10.375 16.4587C10.375 17.9798 10.7263 19.5424 11.3984 21.1387L11.3984 21.1387L11.3996 21.1416C12.0635 22.7045 12.9693 24.265 14.0807 25.8102L14.0807 25.8102L14.0841 25.8148C15.2042 27.3534 16.4578 28.8223 17.8439 30.2218L17.8438 30.2218L17.8507 30.2286C19.2504 31.6149 20.7189 32.868 22.2695 34.0006L22.2708 34.0016C23.8216 35.1306 25.3964 36.0361 26.9824 36.7118C28.5922 37.3978 30.1562 37.75 31.6531 37.75C32.6978 37.75 33.6813 37.5555 34.5945 37.1754C35.5474 36.7844 36.3751 36.1795 37.1056 35.3745Z" stroke="#E6AF9A" stroke-width="2" stroke-miterlimit="10"/>
</g>
</g>
</g>
</svg>
