<svg width="91" height="96" viewBox="0 0 91 96" fill="none" xmlns="http://www.w3.org/2000/svg">
<g id="Objects" clip-path="url(#clip0_3179_137366)">
<path id="Vector" d="M46.3192 95.39H1.11133V75.8691H9.91568L9.88511 76.772C9.88511 76.8879 9.87899 77.0038 9.87899 77.1197C9.87899 84.4766 16.0848 90.461 23.7153 90.461C31.3457 90.461 37.5515 84.4766 37.5515 77.1197C37.5515 76.9855 37.5515 76.8574 37.5393 76.7232L37.5026 75.863H46.3131V95.3839L46.3192 95.39Z" stroke="#FFF9EE" stroke-width="2" stroke-linecap="round" stroke-linejoin="round"/>
<path id="Vector_2" d="M23.3602 25.8287C19.6 25.8287 16.543 22.8639 16.543 19.2221C16.543 15.5802 19.6 12.6155 23.3602 12.6155C27.1204 12.6155 30.1775 15.5802 30.1775 19.2221C30.1775 22.8639 27.1204 25.8287 23.3602 25.8287Z" stroke="#FFF9EE" stroke-width="2" stroke-linecap="round" stroke-linejoin="round"/>
<path id="Vector_3" d="M23.4157 46.7463L45.5794 75.7836H1.25195L23.4157 46.7463Z" stroke="#FFF9EE" stroke-width="2" stroke-linecap="round" stroke-linejoin="round"/>
<path id="Vector_4" d="M2.56666 37.8279H44.265L44.2283 38.7978C43.8493 49.7356 34.7025 58.3004 23.4097 58.3004C12.1169 58.3004 2.97631 49.7295 2.59723 38.7917L2.56055 37.8218L2.56666 37.8279Z" stroke="#FFF9EE" stroke-width="2" stroke-linecap="round" stroke-linejoin="round"/>
<path id="Vector_5" d="M89.8888 95.3898H46.5273V75.8689H54.9771L54.9465 76.7717C54.9465 76.8876 54.9404 77.0035 54.9404 77.1194C54.9404 84.4764 60.8956 90.4607 68.2081 90.4607C75.5206 90.4607 81.4757 84.4764 81.4757 77.1194C81.4757 76.9852 81.4757 76.8571 81.4635 76.7229L81.4329 75.8628H89.8826V95.3837L89.8888 95.3898Z" stroke="#FFF9EE" stroke-width="2" stroke-linecap="round" stroke-linejoin="round"/>
<path id="Vector_6" d="M68.0547 76.1252V90.2413" stroke="#FFF9EE" stroke-width="2" stroke-linecap="round" stroke-linejoin="round"/>
<path id="Vector_7" d="M23.4395 26.0239V47.137" stroke="#FFF9EE" stroke-width="2" stroke-linecap="round" stroke-linejoin="round"/>
<path id="Vector_8" d="M23.4395 0.610107V12.4202" stroke="#FFF9EE" stroke-width="2" stroke-linecap="round" stroke-linejoin="round"/>
<path id="Vector_9" d="M68.7821 25.8287C65.0219 25.8287 61.9648 22.8639 61.9648 19.2221C61.9648 15.5802 65.0219 12.6155 68.7821 12.6155C72.5423 12.6155 75.5994 15.5802 75.5994 19.2221C75.5994 22.8639 72.5423 25.8287 68.7821 25.8287Z" stroke="#FFF9EE" stroke-width="2" stroke-linecap="round" stroke-linejoin="round"/>
<path id="Vector_10" d="M68.8306 27.311L89.5147 54.4145H48.1465L68.8367 27.311H68.8306Z" stroke="#FFF9EE" stroke-width="2" stroke-linecap="round" stroke-linejoin="round"/>
<path id="Vector_11" d="M89.6808 75.4725H47.9824L48.0191 74.5026C48.3982 63.5648 57.5449 55 68.8377 55C80.1305 55 89.2773 63.5648 89.6563 74.5026L89.693 75.4725H89.6808Z" stroke="#FFF9EE" stroke-width="2" stroke-linecap="round" stroke-linejoin="round"/>
<path id="Vector_12" d="M68.8555 0.610107V12.4202" stroke="#FFF9EE" stroke-width="2" stroke-linecap="round" stroke-linejoin="round"/>
</g>
<defs>
<clipPath id="clip0_3179_137366">
<rect width="90" height="96" fill="white" transform="translate(0.5)"/>
</clipPath>
</defs>
</svg>
