<svg width="783" height="278" viewBox="0 0 783 278" fill="none" xmlns="http://www.w3.org/2000/svg">
<g clip-path="url(#clip0_2628_141135)">
<mask id="mask0_2628_141135" style="mask-type:alpha" maskUnits="userSpaceOnUse" x="-51" y="-1" width="947" height="344">
<path d="M364.554 17.6099L146.871 246.144" stroke="#EAC2B2" stroke-opacity="0.05" stroke-width="2.5823" stroke-miterlimit="10"/>
<path d="M421.348 183.286C387.775 183.286 360.56 154.719 360.56 119.479C360.56 118.55 360.576 117.624 360.616 116.704" stroke="#EAC2B2" stroke-opacity="0.05" stroke-width="2.5823" stroke-miterlimit="10"/>
<path d="M227.952 257.428C254.041 264.604 273.29 289.52 273.29 319.154C273.29 320.086 273.272 321.011 273.233 321.932" stroke="#EAC2B2" stroke-opacity="0.05" stroke-width="2.5823" stroke-miterlimit="10"/>
<path d="M403.84 72.2867L146.871 342.008" stroke="#EAC2B2" stroke-opacity="0.05" stroke-width="2.5823" stroke-miterlimit="10"/>
<path d="M439.584 139.992C417.439 137.369 400.229 117.644 400.229 93.6994C400.229 85.9792 402.019 78.6968 405.187 72.2858" stroke="#EAC2B2" stroke-opacity="0.05" stroke-width="2.5823" stroke-miterlimit="10"/>
<path d="M405.188 72.2866C383.043 69.6654 365.912 49.9391 365.912 25.9951C365.912 23.1324 366.158 20.3298 366.63 17.6091" stroke="#EAC2B2" stroke-opacity="0.05" stroke-width="2.5823" stroke-miterlimit="10"/>
<path d="M360.291 118.339C314.951 118.339 278.195 79.76 278.195 32.1686C278.195 27.2068 278.594 22.3423 279.361 17.6111" stroke="#EAC2B2" stroke-opacity="0.05" stroke-width="2.5823" stroke-miterlimit="10"/>
<path d="M598.507 17.6096C596.606 38.734 580.09 54.7793 559.391 54.7793" stroke="#EAC2B2" stroke-opacity="0.05" stroke-width="2.5823" stroke-miterlimit="10"/>
<path d="M559.394 54.7803C559.394 77.8872 541.548 96.6195 519.532 96.6195C497.516 96.6195 479.672 77.8872 479.672 54.7803" stroke="#EAC2B2" stroke-opacity="0.05" stroke-width="2.5823" stroke-miterlimit="10"/>
<path d="M479.67 54.7788C459.158 54.7788 442.518 38.5174 440.34 17.6091" stroke="#EAC2B2" stroke-opacity="0.05" stroke-width="2.5823" stroke-miterlimit="10"/>
<path d="M421.985 183.232C419.75 204.071 402.903 220.268 382.452 220.268C378.921 220.268 375.499 219.785 372.24 218.879" stroke="#EAC2B2" stroke-opacity="0.05" stroke-width="2.5823" stroke-miterlimit="10"/>
<path d="M372.24 218.875C373.095 222.281 373.555 225.855 373.555 229.543C373.555 252.606 355.741 271.304 333.768 271.304C330.239 271.304 326.82 270.82 323.561 269.914" stroke="#EAC2B2" stroke-opacity="0.05" stroke-width="2.5823" stroke-miterlimit="10"/>
<path d="M323.564 269.917C324.583 273.61 325.128 277.515 325.128 281.554C325.128 304.617 307.317 323.314 285.343 323.314C280.518 323.314 275.894 322.413 271.613 320.762" stroke="#EAC2B2" stroke-opacity="0.05" stroke-width="2.5823" stroke-miterlimit="10"/>
<path d="M146.826 173.403C191.354 173.403 227.449 211.291 227.449 258.026" stroke="#EAC2B2" stroke-opacity="0.05" stroke-width="2.5823" stroke-miterlimit="10"/>
<path d="M677.159 17.6099L894.842 246.144" stroke="#EAC2B2" stroke-opacity="0.05" stroke-width="2.5823" stroke-miterlimit="10"/>
<path d="M620.367 183.288C653.94 183.288 681.155 154.721 681.155 119.481C681.155 118.552 681.138 117.625 681.099 116.706" stroke="#EAC2B2" stroke-opacity="0.05" stroke-width="2.5823" stroke-miterlimit="10"/>
<path d="M637.87 72.2867L894.838 342.008" stroke="#EAC2B2" stroke-opacity="0.05" stroke-width="2.5823" stroke-miterlimit="10"/>
<path d="M602.128 139.992C624.271 137.369 641.48 117.644 641.48 93.6994C641.48 85.9792 639.69 78.6968 636.522 72.2858" stroke="#EAC2B2" stroke-opacity="0.05" stroke-width="2.5823" stroke-miterlimit="10"/>
<path d="M636.518 72.2866C658.663 69.6654 675.794 49.9391 675.794 25.9951C675.794 23.1324 675.547 20.3298 675.076 17.6091" stroke="#EAC2B2" stroke-opacity="0.05" stroke-width="2.5823" stroke-miterlimit="10"/>
<path d="M681.42 118.338C726.76 118.338 763.518 79.7583 763.518 32.1669C763.518 27.205 763.119 22.3406 762.352 17.6094" stroke="#EAC2B2" stroke-opacity="0.05" stroke-width="2.5823" stroke-miterlimit="10"/>
<path d="M619.729 183.23C621.965 204.069 638.811 220.266 659.262 220.266C662.791 220.266 666.213 219.784 669.474 218.877" stroke="#EAC2B2" stroke-opacity="0.05" stroke-width="2.5823" stroke-miterlimit="10"/>
<path d="M669.465 218.875C668.609 222.281 668.149 225.855 668.149 229.543C668.149 252.606 685.962 271.304 707.936 271.304C711.466 271.304 714.888 270.82 718.145 269.914" stroke="#EAC2B2" stroke-opacity="0.05" stroke-width="2.5823" stroke-miterlimit="10"/>
<path d="M-50 36.199L149.977 246.144" stroke="#EAC2B2" stroke-opacity="0.05" stroke-width="2.5823" stroke-miterlimit="10"/>
<path d="M68.8951 257.427C42.8059 264.604 23.5576 289.519 23.5576 319.154C23.5576 320.085 23.5772 321.011 23.6132 321.931" stroke="#EAC2B2" stroke-opacity="0.05" stroke-width="2.5823" stroke-miterlimit="10"/>
<path d="M-50 132.108L149.977 342.011" stroke="#EAC2B2" stroke-opacity="0.05" stroke-width="2.5823" stroke-miterlimit="10"/>
<path d="M150.021 173.401C105.494 173.401 69.3975 211.289 69.3975 258.024" stroke="#EAC2B2" stroke-opacity="0.05" stroke-width="2.5823" stroke-miterlimit="10"/>
<path d="M107.285 0.00134277L-50 165.503" stroke="#EAC2B2" stroke-opacity="0.05" stroke-width="2.5823" stroke-miterlimit="10"/>
<path d="M440.769 139.1C487.654 157.067 521.126 204.293 521.126 259.725C521.126 263.733 520.952 267.702 520.608 271.62" stroke="#EAC2B2" stroke-opacity="0.05" stroke-width="2.5823" stroke-miterlimit="10"/>
<path d="M520.412 270.186C517.927 221.17 479.272 182.227 431.953 182.227C428.651 182.227 425.387 182.417 422.177 182.787" stroke="#EAC2B2" stroke-opacity="0.05" stroke-width="2.5823" stroke-miterlimit="10"/>
<path d="M422.177 182.789C431.099 134.212 471.683 97.4893 520.57 97.4893C569.45 97.4893 610.597 134.221 619.528 182.789" stroke="#EAC2B2" stroke-opacity="0.05" stroke-width="2.5823" stroke-miterlimit="10"/>
<path d="M619.529 182.787C616.317 182.418 613.057 182.228 609.752 182.228C562.432 182.228 523.778 221.17 521.291 270.187" stroke="#EAC2B2" stroke-opacity="0.05" stroke-width="2.5823" stroke-miterlimit="10"/>
<path d="M600.929 139.1C554.043 157.067 520.571 204.293 520.571 259.725C520.571 263.733 520.746 267.702 521.09 271.62" stroke="#EAC2B2" stroke-opacity="0.05" stroke-width="2.5823" stroke-miterlimit="10"/>
</mask>
<g mask="url(#mask0_2628_141135)">
<path d="M-0.357422 17.1749H782.643V226.529C782.643 255.052 759.52 278.175 730.997 278.175H51.2885C22.7652 278.175 -0.357422 255.052 -0.357422 226.529V17.1749Z" fill="#E8CCBF"/>
</g>
</g>
<defs>
<clipPath id="clip0_2628_141135">
<rect width="783" height="278" fill="white"/>
</clipPath>
</defs>
</svg>
