<svg width="1920" height="783" viewBox="0 0 1920 783" fill="none" xmlns="http://www.w3.org/2000/svg">
<g opacity="0.3">
<mask id="mask0_2892_150670" style="mask-type:luminance" maskUnits="userSpaceOnUse" x="-19" y="-5" width="1954" height="797">
<path d="M1934.4 -4.77966H-18.1719V791.492H1934.4V-4.77966Z" fill="white"/>
</mask>
<g mask="url(#mask0_2892_150670)">
<path d="M254.629 -107.339L254.934 78.8746" stroke="#29354D" stroke-width="2" stroke-miterlimit="10"/>
<path d="M254.934 893.339L255.239 706.424" stroke="#29354D" stroke-width="2" stroke-miterlimit="10"/>
<path d="M151.887 -107.339C171.25 -31.2203 216.952 43.617 307.492 42.2136H958.503" stroke="#29354D" stroke-width="2" stroke-miterlimit="10"/>
<path d="M152.281 893.339C171.624 817.292 223.438 744.041 307.785 743.837H958.511" stroke="#29354D" stroke-width="2" stroke-miterlimit="10"/>
<path d="M145.763 185.39L10.4258 393.051" stroke="#29354D" stroke-width="2" stroke-miterlimit="10"/>
<path d="M88.0916 366.783L87.9492 78.8542" stroke="#29354D" stroke-width="2" stroke-miterlimit="10"/>
<path d="M254.935 78.8746L87.9492 78.8542" stroke="#29354D" stroke-width="2" stroke-miterlimit="10"/>
<path d="M201.504 132.315L34.793 132.386V252.437" stroke="#29354D" stroke-width="2" stroke-miterlimit="10"/>
<path d="M202.167 -107.339L201.506 132.315M-162.334 -107.339L10.4281 94.617L181.309 -107.339M-182.836 132.386V-107.339" stroke="#29354D" stroke-width="2" stroke-miterlimit="10"/>
<path d="M-104.031 -107.339L10.4282 28.5661L123.088 -107.339" stroke="#29354D" stroke-width="2" stroke-miterlimit="10"/>
<path d="M-128.93 185.776L10.425 393.051" stroke="#29354D" stroke-width="2" stroke-miterlimit="10"/>
<path d="M146.801 600.356L10.4258 393.051" stroke="#29354D" stroke-width="2" stroke-miterlimit="10"/>
<path d="M88.3986 418.464L88.2461 707.502" stroke="#29354D" stroke-width="2" stroke-miterlimit="10"/>
<path d="M34.793 534.02L35.0981 653.736" stroke="#29354D" stroke-width="2" stroke-miterlimit="10"/>
<path d="M255.242 707.044H88.2461" stroke="#29354D" stroke-width="2" stroke-miterlimit="10"/>
<path d="M202.246 653.949L35.0977 653.736" stroke="#29354D" stroke-width="2" stroke-miterlimit="10"/>
<path d="M202.471 893.339L202.248 653.949M-161.907 893.339L10.4277 692.471L181.43 893.339M-182.531 653.736V893.339" stroke="#29354D" stroke-width="2" stroke-miterlimit="10"/>
<path d="M-103.758 893.339L10.427 756.854L123.341 893.339" stroke="#29354D" stroke-width="2" stroke-miterlimit="10"/>
<path d="M-126.875 600.356L10.4254 393.051" stroke="#29354D" stroke-width="2" stroke-miterlimit="10"/>
<path d="M-81.7109 394.597L10.4261 200.522L100.072 393.061" stroke="#29354D" stroke-width="2" stroke-miterlimit="10"/>
<path d="M-81.4062 391.525L10.4257 585.61L100.071 393.061" stroke="#29354D" stroke-width="2" stroke-miterlimit="10"/>
<path d="M145.763 185.39C182.007 202.932 207.116 240.254 207.116 283.19C207.116 343.017 159.919 393.061 100.07 393.061" stroke="#29354D" stroke-width="2" stroke-miterlimit="10"/>
<path d="M958.502 78.8746H254.935V90.6814C254.935 114.376 234.911 132.305 211.226 132.305H201.504C201.504 132.305 201.86 139.983 201.86 144.112C201.86 167.807 182.67 187.027 158.985 187.027C153.727 187.027 150.401 187.078 145.754 185.38" stroke="#29354D" stroke-width="2" stroke-miterlimit="10"/>
<path d="M-128.929 185.776C-131.136 178.19 -132.285 170.166 -132.285 161.888C-132.285 113.807 -93.2947 74.8475 -45.2431 74.8475C-25.3717 74.8475 -4.2798 83.4305 10.4255 94.6068C25.0495 83.4305 42.9379 74.8475 62.8195 74.8475C110.871 74.8475 149.862 113.807 149.862 161.888C149.862 170.166 147.98 177.814 145.773 185.4" stroke="#29354D" stroke-width="2" stroke-miterlimit="10"/>
<path d="M146.902 600.61C183.146 583.078 207.421 545.868 207.421 502.942C207.421 443.115 159.848 393.071 100.07 393.071" stroke="#29354D" stroke-width="2" stroke-miterlimit="10"/>
<path d="M958.503 704.969L255.241 706.383C255.241 706.383 255.201 699.305 255.221 695.522C255.374 672.62 234.729 654.092 211.38 653.786C207.576 653.736 202.247 653.949 202.247 653.949V641.98C202.247 618.285 182.976 599.075 159.301 599.075C154.125 599.075 147.352 600.447 147.352 600.447" stroke="#29354D" stroke-width="2" stroke-miterlimit="10"/>
<path d="M-128.623 600.356C-130.83 607.953 -131.969 615.956 -131.969 624.254C-131.969 672.315 -92.9783 711.295 -44.9267 711.295C-25.0552 711.295 -4.18713 702.041 10.4368 690.854C25.132 702.041 43.2543 711.295 63.1359 711.295C111.188 711.295 150.168 672.325 150.168 624.254C150.168 615.966 149.029 607.953 146.812 600.356" stroke="#29354D" stroke-width="2" stroke-miterlimit="10"/>
<path d="M1662.07 78.8746L1662.38 -107.339" stroke="#29354D" stroke-width="2" stroke-miterlimit="10"/>
<path d="M1661.77 706.424L1662.07 893.339" stroke="#29354D" stroke-width="2" stroke-miterlimit="10"/>
<path d="M1765.12 -107.339C1745.76 -31.2203 1700.05 43.617 1609.51 42.2136H958.504" stroke="#29354D" stroke-width="2" stroke-miterlimit="10"/>
<path d="M1764.73 893.339C1745.39 817.292 1693.58 744.041 1609.23 743.837H958.504" stroke="#29354D" stroke-width="2" stroke-miterlimit="10"/>
<path d="M1771.25 185.39L1906.59 393.051" stroke="#29354D" stroke-width="2" stroke-miterlimit="10"/>
<path d="M1828.91 366.783L1829.07 78.8542" stroke="#29354D" stroke-width="2" stroke-miterlimit="10"/>
<path d="M1662.07 78.8746L1829.07 78.8542" stroke="#29354D" stroke-width="2" stroke-miterlimit="10"/>
<path d="M1715.5 132.315L1882.23 132.386V252.437" stroke="#29354D" stroke-width="2" stroke-miterlimit="10"/>
<path d="M1715.5 132.315L1714.84 -107.339M1735.7 -107.339L1906.58 94.617L2079.35 -107.339M2099.85 -107.339V132.386" stroke="#29354D" stroke-width="2" stroke-miterlimit="10"/>
<path d="M2021.04 -107.339L1906.59 28.5661L1793.93 -107.339" stroke="#29354D" stroke-width="2" stroke-miterlimit="10"/>
<path d="M2045.93 185.776L1906.59 393.051" stroke="#29354D" stroke-width="2" stroke-miterlimit="10"/>
<path d="M1770.2 600.356L1906.59 393.051" stroke="#29354D" stroke-width="2" stroke-miterlimit="10"/>
<path d="M1828.61 418.464L1828.76 707.502" stroke="#29354D" stroke-width="2" stroke-miterlimit="10"/>
<path d="M1882.22 534.02L1881.92 653.736" stroke="#29354D" stroke-width="2" stroke-miterlimit="10"/>
<path d="M1661.77 707.044H1828.76" stroke="#29354D" stroke-width="2" stroke-miterlimit="10"/>
<path d="M1714.77 653.949L1881.92 653.736" stroke="#29354D" stroke-width="2" stroke-miterlimit="10"/>
<path d="M1714.77 653.949L1714.55 893.339M1735.59 893.339L1906.59 692.471L2078.93 893.339M2099.55 893.339V653.736" stroke="#29354D" stroke-width="2" stroke-miterlimit="10"/>
<path d="M2020.77 893.339L1906.59 756.854L1793.68 893.339" stroke="#29354D" stroke-width="2" stroke-miterlimit="10"/>
<path d="M2043.88 600.356L1906.59 393.051" stroke="#29354D" stroke-width="2" stroke-miterlimit="10"/>
<path d="M1998.73 394.597L1906.59 200.522L1816.93 393.061" stroke="#29354D" stroke-width="2" stroke-miterlimit="10"/>
<path d="M1998.42 391.525L1906.59 585.61L1816.93 393.061" stroke="#29354D" stroke-width="2" stroke-miterlimit="10"/>
<path d="M1771.25 185.39C1735.01 202.932 1709.9 240.254 1709.9 283.19C1709.9 343.017 1757.1 393.061 1816.94 393.061" stroke="#29354D" stroke-width="2" stroke-miterlimit="10"/>
<path d="M958.504 78.8746H1662.07C1662.07 78.8746 1662.07 86.8983 1662.07 90.6814C1662.07 114.376 1682.09 132.305 1705.78 132.305H1715.5C1715.5 132.305 1715.15 139.983 1715.15 144.112C1715.15 167.807 1734.34 187.027 1758.02 187.027C1763.28 187.027 1766.6 187.078 1771.25 185.38" stroke="#29354D" stroke-width="2" stroke-miterlimit="10"/>
<path d="M2045.94 185.776C2048.14 178.19 2049.29 170.166 2049.29 161.888C2049.29 113.807 2010.3 74.8475 1962.25 74.8475C1942.38 74.8475 1921.29 83.4305 1906.58 94.6068C1891.96 83.4305 1874.07 74.8475 1854.19 74.8475C1806.13 74.8475 1767.14 113.807 1767.14 161.888C1767.14 170.166 1769.03 177.814 1771.23 185.4" stroke="#29354D" stroke-width="2" stroke-miterlimit="10"/>
<path d="M1770.11 600.61C1733.87 583.078 1709.59 545.868 1709.59 502.942C1709.59 443.115 1757.17 393.071 1816.94 393.071" stroke="#29354D" stroke-width="2" stroke-miterlimit="10"/>
<path d="M958.504 704.969L1661.77 706.383C1661.77 706.383 1661.81 699.305 1661.79 695.522C1661.63 672.62 1682.28 654.092 1705.63 653.786C1709.43 653.736 1714.76 653.949 1714.76 653.949C1714.76 653.949 1714.76 646.139 1714.76 641.98C1714.76 618.285 1734.03 599.075 1757.71 599.075C1762.88 599.075 1769.66 600.447 1769.66 600.447" stroke="#29354D" stroke-width="2" stroke-miterlimit="10"/>
<path d="M2045.63 600.356C2047.84 607.953 2048.98 615.956 2048.98 624.254C2048.98 672.315 2009.99 711.295 1961.93 711.295C1942.06 711.295 1921.19 702.041 1906.57 690.854C1891.88 702.041 1873.75 711.295 1853.87 711.295C1805.82 711.295 1766.84 672.325 1766.84 624.254C1766.84 615.966 1767.98 607.953 1770.2 600.356" stroke="#29354D" stroke-width="2" stroke-miterlimit="10"/>
</g>
</g>
</svg>
