<svg width="1920" height="965" viewBox="0 0 1920 965" fill="none" xmlns="http://www.w3.org/2000/svg">
<path d="M486.502 50.5921C501.454 23.6868 530.182 5.46948 563.157 5.46948" stroke="#E6B09A" stroke-opacity="0.15" stroke-width="2.5" stroke-miterlimit="10"/>
<path d="M1204.16 215.179H1039.39" stroke="#E6B09A" stroke-opacity="0.15" stroke-width="2.5" stroke-miterlimit="10"/>
<path d="M1285.29 50.5921C1300.24 23.6868 1328.97 5.46948 1361.95 5.46948" stroke="#E6B09A" stroke-opacity="0.15" stroke-width="2.5" stroke-miterlimit="10"/>
<path d="M1517.3 215.768V5.99526V5.40625L1359.89 91.4022L1202.41 5.40625V5.99526V215.768" stroke="#E6B09A" stroke-opacity="0.15" stroke-width="2.5" stroke-miterlimit="10"/>
<path d="M1436.14 50.5921C1421.19 23.6868 1392.46 5.46948 1359.49 5.46948" stroke="#E6B09A" stroke-opacity="0.15" stroke-width="2.5" stroke-miterlimit="10"/>
<path d="M720.232 215.768V5.99526V5.40625L562.842 91.2549L405.347 5.40625V5.99526V215.768" stroke="#E6B09A" stroke-opacity="0.15" stroke-width="2.5" stroke-miterlimit="10"/>
<path d="M720.232 215.179H885.004" stroke="#E6B09A" stroke-opacity="0.15" stroke-width="2.5" stroke-miterlimit="10"/>
<path d="M772.282 267.77H1150.34" stroke="#E6B09A" stroke-opacity="0.15" stroke-width="2.5" stroke-miterlimit="10"/>
<path d="M772.282 267.77V7.19434L959.998 229.989L1152.11 7.34159V267.77" stroke="#E6B09A" stroke-opacity="0.15" stroke-width="2.5" stroke-miterlimit="10"/>
<path d="M828.327 4.73315L959.997 165.302L1096.06 5.36424" stroke="#E6B09A" stroke-opacity="0.15" stroke-width="2.5" stroke-miterlimit="10"/>
<path d="M639.097 50.5921C624.145 23.6868 595.418 5.46948 562.442 5.46948" stroke="#E6B09A" stroke-opacity="0.15" stroke-width="2.5" stroke-miterlimit="10"/>
<path d="M1204.45 834.842H1039.68" stroke="#E6B09A" stroke-opacity="0.15" stroke-width="2.5" stroke-miterlimit="10"/>
<path d="M1517.59 834.232V1044V1044.59L1360.2 958.598L1202.71 1044.59V1044V834.232" stroke="#E6B09A" stroke-opacity="0.15" stroke-width="2.5" stroke-miterlimit="10"/>
<path d="M720.547 834.232V1044V1044.59L563.136 958.745L405.662 1044.59V1044V834.232" stroke="#E6B09A" stroke-opacity="0.15" stroke-width="2.5" stroke-miterlimit="10"/>
<path d="M720.548 834.842H882.522" stroke="#E6B09A" stroke-opacity="0.15" stroke-width="2.5" stroke-miterlimit="10"/>
<path d="M772.598 782.23H1153.5" stroke="#E6B09A" stroke-opacity="0.15" stroke-width="2.5" stroke-miterlimit="10"/>
<path d="M772.598 782.23V1042.81L960.04 820.453L1152.42 1042.66V782.23" stroke="#E6B09A" stroke-opacity="0.15" stroke-width="2.5" stroke-miterlimit="10"/>
<path d="M828.622 1045.27L959.997 884.003L1096.38 1044.64" stroke="#E6B09A" stroke-opacity="0.15" stroke-width="2.5" stroke-miterlimit="10"/>
<path d="M1894.83 320.444L1758.54 526.094" stroke="#E6B09A" stroke-opacity="0.15" stroke-width="2.5" stroke-miterlimit="10"/>
<path d="M1837.17 498.284L1837 214.716" stroke="#E6B09A" stroke-opacity="0.15" stroke-width="2.5" stroke-miterlimit="10"/>
<path d="M2001.77 215.179H1837" stroke="#E6B09A" stroke-opacity="0.15" stroke-width="2.5" stroke-miterlimit="10"/>
<path d="M1949.72 267.77H1784.59V391.378" stroke="#E6B09A" stroke-opacity="0.15" stroke-width="2.5" stroke-miterlimit="10"/>
<path d="M1682.78 498.284L1682.62 214.716" stroke="#E6B09A" stroke-opacity="0.15" stroke-width="2.5" stroke-miterlimit="10"/>
<path d="M1517.87 215.179H1682.62" stroke="#E6B09A" stroke-opacity="0.15" stroke-width="2.5" stroke-miterlimit="10"/>
<path d="M1569.89 267.77H1733.28V387.886" stroke="#E6B09A" stroke-opacity="0.15" stroke-width="2.5" stroke-miterlimit="10"/>
<path d="M1569.89 267.77V7.19434L1757.61 229.989L1949.72 7.34159V267.77" stroke="#E6B09A" stroke-opacity="0.15" stroke-width="2.5" stroke-miterlimit="10"/>
<path d="M1625.94 4.73315L1757.61 165.302L1893.7 5.36424" stroke="#E6B09A" stroke-opacity="0.15" stroke-width="2.5" stroke-miterlimit="10"/>
<path d="M1624.78 320.444L1760.28 526.094" stroke="#E6B09A" stroke-opacity="0.15" stroke-width="2.5" stroke-miterlimit="10"/>
<path d="M1895.15 729.556L1758.85 523.906" stroke="#E6B09A" stroke-opacity="0.15" stroke-width="2.5" stroke-miterlimit="10"/>
<path d="M1837.46 551.716L1837.31 835.284" stroke="#E6B09A" stroke-opacity="0.15" stroke-width="2.5" stroke-miterlimit="10"/>
<path d="M1784.91 658.643V782.23" stroke="#E6B09A" stroke-opacity="0.15" stroke-width="2.5" stroke-miterlimit="10"/>
<path d="M2002.09 834.842H1837.31" stroke="#E6B09A" stroke-opacity="0.15" stroke-width="2.5" stroke-miterlimit="10"/>
<path d="M1950.04 782.23H1782.51" stroke="#E6B09A" stroke-opacity="0.15" stroke-width="2.5" stroke-miterlimit="10"/>
<path d="M1683.1 551.716L1682.93 835.284" stroke="#E6B09A" stroke-opacity="0.15" stroke-width="2.5" stroke-miterlimit="10"/>
<path d="M1735.34 663.86V783.976" stroke="#E6B09A" stroke-opacity="0.15" stroke-width="2.5" stroke-miterlimit="10"/>
<path d="M1518.16 834.842H1682.93" stroke="#E6B09A" stroke-opacity="0.15" stroke-width="2.5" stroke-miterlimit="10"/>
<path d="M1570.21 782.23H1737.74" stroke="#E6B09A" stroke-opacity="0.15" stroke-width="2.5" stroke-miterlimit="10"/>
<path d="M1570.21 782.23V1042.81L1757.67 820.453L1950.04 1042.66V782.23" stroke="#E6B09A" stroke-opacity="0.15" stroke-width="2.5" stroke-miterlimit="10"/>
<path d="M1626.23 1045.27L1757.61 884.003L1893.99 1044.64" stroke="#E6B09A" stroke-opacity="0.15" stroke-width="2.5" stroke-miterlimit="10"/>
<path d="M1625.1 729.556L1760.6 523.906" stroke="#E6B09A" stroke-opacity="0.15" stroke-width="2.5" stroke-miterlimit="10"/>
<path d="M1669.68 526.515L1757.61 335.001L1849.95 526.515" stroke="#E6B09A" stroke-opacity="0.15" stroke-width="2.5" stroke-miterlimit="10"/>
<path d="M1669.98 523.485L1758.37 714.999L1850.25 523.485" stroke="#E6B09A" stroke-opacity="0.15" stroke-width="2.5" stroke-miterlimit="10"/>
<path d="M299.901 320.444L163.604 526.094" stroke="#E6B09A" stroke-opacity="0.15" stroke-width="2.5" stroke-miterlimit="10"/>
<path d="M242.237 498.284L242.068 214.716" stroke="#E6B09A" stroke-opacity="0.15" stroke-width="2.5" stroke-miterlimit="10"/>
<path d="M406.84 215.179H242.068" stroke="#E6B09A" stroke-opacity="0.15" stroke-width="2.5" stroke-miterlimit="10"/>
<path d="M354.79 267.77H189.661V391.378" stroke="#E6B09A" stroke-opacity="0.15" stroke-width="2.5" stroke-miterlimit="10"/>
<path d="M87.8542 498.284L87.707 214.716" stroke="#E6B09A" stroke-opacity="0.15" stroke-width="2.5" stroke-miterlimit="10"/>
<path d="M-77.0654 215.179H87.7062" stroke="#E6B09A" stroke-opacity="0.15" stroke-width="2.5" stroke-miterlimit="10"/>
<path d="M-25.0361 267.77H138.348V387.886" stroke="#E6B09A" stroke-opacity="0.15" stroke-width="2.5" stroke-miterlimit="10"/>
<path d="M-25.0361 267.77V7.19434L162.679 229.989L354.79 7.34159V267.77" stroke="#E6B09A" stroke-opacity="0.15" stroke-width="2.5" stroke-miterlimit="10"/>
<path d="M31.0088 4.73315L162.679 165.302L298.765 5.36424" stroke="#E6B09A" stroke-opacity="0.15" stroke-width="2.5" stroke-miterlimit="10"/>
<path d="M29.873 320.444L165.35 526.094" stroke="#E6B09A" stroke-opacity="0.15" stroke-width="2.5" stroke-miterlimit="10"/>
<path d="M300.217 729.556L163.92 523.906" stroke="#E6B09A" stroke-opacity="0.15" stroke-width="2.5" stroke-miterlimit="10"/>
<path d="M242.531 551.716L242.384 835.284" stroke="#E6B09A" stroke-opacity="0.15" stroke-width="2.5" stroke-miterlimit="10"/>
<path d="M189.977 658.643V782.23" stroke="#E6B09A" stroke-opacity="0.15" stroke-width="2.5" stroke-miterlimit="10"/>
<path d="M407.155 835.894H242.384" stroke="#E6B09A" stroke-opacity="0.15" stroke-width="2.5" stroke-miterlimit="10"/>
<path d="M355.106 782.23H187.579" stroke="#E6B09A" stroke-opacity="0.15" stroke-width="2.5" stroke-miterlimit="10"/>
<path d="M88.1692 551.716L88.001 835.284" stroke="#E6B09A" stroke-opacity="0.15" stroke-width="2.5" stroke-miterlimit="10"/>
<path d="M140.408 663.86V783.976" stroke="#E6B09A" stroke-opacity="0.15" stroke-width="2.5" stroke-miterlimit="10"/>
<path d="M-76.7705 834.842H88.0012" stroke="#E6B09A" stroke-opacity="0.15" stroke-width="2.5" stroke-miterlimit="10"/>
<path d="M-24.7207 782.23H142.806" stroke="#E6B09A" stroke-opacity="0.15" stroke-width="2.5" stroke-miterlimit="10"/>
<path d="M-24.7207 782.23V1042.81L162.743 820.453L355.106 1042.66V782.23" stroke="#E6B09A" stroke-opacity="0.15" stroke-width="2.5" stroke-miterlimit="10"/>
<path d="M31.3242 1045.27L162.679 884.003L299.06 1044.64" stroke="#E6B09A" stroke-opacity="0.15" stroke-width="2.5" stroke-miterlimit="10"/>
<path d="M30.168 729.556L165.666 523.906" stroke="#E6B09A" stroke-opacity="0.15" stroke-width="2.5" stroke-miterlimit="10"/>
<path d="M74.752 526.515L162.679 335.001L255.023 526.515" stroke="#E6B09A" stroke-opacity="0.15" stroke-width="2.5" stroke-miterlimit="10"/>
<path d="M75.0674 523.485L163.436 714.999L255.317 523.485" stroke="#E6B09A" stroke-opacity="0.15" stroke-width="2.5" stroke-miterlimit="10"/>
<path d="M1258.04 179.439C1172.17 162.82 1105.72 91.7808 1096.06 3.63916" stroke="#67A8AD" stroke-opacity="0.15" stroke-width="2" stroke-miterlimit="10"/>
<path d="M1274.67 135.347C1210.95 123.02 1159.03 70.366 1153.66 3.61816" stroke="#67A8AD" stroke-opacity="0.15" stroke-width="2" stroke-miterlimit="10"/>
<path d="M1254.88 179.67C1252.51 200.79 1234.59 217.22 1212.82 217.22C1209.06 217.22 1205.42 216.736 1201.95 215.81" stroke="#67A8AD" stroke-opacity="0.15" stroke-width="2" stroke-miterlimit="10"/>
<path d="M666.332 179.439C752.198 162.82 818.654 92.0122 828.307 3.87061" stroke="#67A8AD" stroke-opacity="0.15" stroke-width="2" stroke-miterlimit="10"/>
<path d="M649.718 135.347C713.439 123.02 762.881 68.5359 770.726 3.30273" stroke="#67A8AD" stroke-opacity="0.15" stroke-width="2" stroke-miterlimit="10"/>
<path d="M668.056 870.351C670.432 849.23 688.35 832.801 710.116 832.801C713.88 832.801 717.519 833.285 720.989 834.211" stroke="#67A8AD" stroke-opacity="0.15" stroke-width="2" stroke-miterlimit="10"/>
<path d="M772.786 782.441C771.693 778.696 771.125 774.741 771.125 770.639C771.125 747.247 790.073 728.293 813.459 728.293C818.59 728.293 823.511 729.198 828.075 730.881" stroke="#67A8AD" stroke-opacity="0.15" stroke-width="2" stroke-miterlimit="10"/>
<path d="M1258.35 870.583C1172.49 887.201 1106.03 958.24 1096.38 1046.38" stroke="#67A8AD" stroke-opacity="0.15" stroke-width="2" stroke-miterlimit="10"/>
<path d="M1274.99 914.653C1211.27 926.981 1159.34 979.634 1153.98 1046.38" stroke="#67A8AD" stroke-opacity="0.15" stroke-width="2" stroke-miterlimit="10"/>
<path d="M1255.2 870.351C1252.82 849.23 1234.9 832.801 1213.14 832.801C1209.37 832.801 1205.74 833.285 1202.27 834.211" stroke="#67A8AD" stroke-opacity="0.15" stroke-width="2" stroke-miterlimit="10"/>
<path d="M1202.27 834.19C1203.17 830.74 1203.65 827.122 1203.65 823.377C1203.65 799.985 1184.71 781.031 1161.32 781.031C1157.56 781.031 1153.92 781.515 1150.47 782.441" stroke="#67A8AD" stroke-opacity="0.15" stroke-width="2" stroke-miterlimit="10"/>
<path d="M1150.47 782.441C1151.56 778.696 1152.13 774.741 1152.13 770.639C1152.13 747.247 1133.18 728.293 1109.8 728.293C1104.66 728.293 1099.74 729.198 1095.18 730.881" stroke="#67A8AD" stroke-opacity="0.15" stroke-width="2" stroke-miterlimit="10"/>
<path d="M666.647 870.583C752.514 887.201 818.969 958.009 828.622 1046.15" stroke="#67A8AD" stroke-opacity="0.15" stroke-width="2" stroke-miterlimit="10"/>
<path d="M650.012 914.653C713.733 926.981 763.175 981.464 771.02 1046.7" stroke="#67A8AD" stroke-opacity="0.15" stroke-width="2" stroke-miterlimit="10"/>
<path d="M667.762 179.67C670.138 200.79 688.056 217.22 709.822 217.22C713.587 217.22 717.225 216.736 720.695 215.81" stroke="#67A8AD" stroke-opacity="0.15" stroke-width="2" stroke-miterlimit="10"/>
<path d="M720.695 215.81C719.79 219.26 719.307 222.878 719.307 226.623C719.307 250.015 738.255 268.969 761.64 268.969C765.405 268.969 769.043 268.485 772.492 267.559" stroke="#67A8AD" stroke-opacity="0.15" stroke-width="2" stroke-miterlimit="10"/>
<path d="M772.492 267.559C771.399 271.304 770.831 275.258 770.831 279.36C770.831 302.753 789.779 321.706 813.165 321.706C818.296 321.706 821.114 320.802 825.678 319.119C825.678 319.119 858.401 354.46 911.334 335.906C965.318 316.973 956.906 267.896 956.906 267.896" stroke="#67A8AD" stroke-opacity="0.15" stroke-width="2" stroke-miterlimit="10"/>
<path d="M2055.67 179.439C1969.8 162.82 1903.35 91.7808 1893.7 3.63916" stroke="#67A8AD" stroke-opacity="0.15" stroke-width="2" stroke-miterlimit="10"/>
<path d="M1894.22 320.297C1929.95 337.589 1954.6 374.213 1954.6 416.579C1954.6 475.628 1906.76 523.485 1847.72 523.485" stroke="#67A8AD" stroke-opacity="0.15" stroke-width="2" stroke-miterlimit="10"/>
<path d="M1947.79 267.559C1948.88 271.304 1949.45 275.258 1949.45 279.36C1949.45 302.753 1930.5 321.706 1907.11 321.706C1901.98 321.706 1897.06 320.802 1892.5 319.119" stroke="#67A8AD" stroke-opacity="0.15" stroke-width="2" stroke-miterlimit="10"/>
<path d="M1623.06 320.444C1620.93 312.955 1619.78 305.046 1619.78 296.863C1619.78 249.426 1658.22 210.972 1705.64 210.972C1725.22 210.972 1743.16 219.954 1757.61 230.998" stroke="#67A8AD" stroke-opacity="0.15" stroke-width="2" stroke-miterlimit="10"/>
<path d="M1757.61 230.998C1772.06 219.954 1792.65 210.972 1812.23 210.972C1859.65 210.972 1898.09 249.426 1898.09 296.863C1898.09 305.046 1896.96 312.955 1894.81 320.444" stroke="#67A8AD" stroke-opacity="0.15" stroke-width="2" stroke-miterlimit="10"/>
<path d="M1463.97 179.439C1549.83 162.82 1616.29 92.0122 1625.94 3.87061" stroke="#67A8AD" stroke-opacity="0.15" stroke-width="2" stroke-miterlimit="10"/>
<path d="M1447.33 135.347C1511.05 123.02 1560.49 68.5359 1568.34 3.30273" stroke="#67A8AD" stroke-opacity="0.15" stroke-width="2" stroke-miterlimit="10"/>
<path d="M1626.11 319.119C1590.38 336.411 1563.27 374.213 1563.27 416.58C1563.27 475.628 1611.11 523.485 1670.15 523.485" stroke="#67A8AD" stroke-opacity="0.15" stroke-width="2" stroke-miterlimit="10"/>
<path d="M1465.69 870.351C1468.07 849.23 1485.98 832.801 1507.75 832.801C1511.51 832.801 1515.15 833.285 1518.62 834.211" stroke="#67A8AD" stroke-opacity="0.15" stroke-width="2" stroke-miterlimit="10"/>
<path d="M1518.6 834.19C1517.7 830.74 1517.21 827.122 1517.21 823.377C1517.21 799.985 1536.16 781.031 1559.55 781.031C1563.31 781.031 1566.95 781.515 1570.4 782.441" stroke="#67A8AD" stroke-opacity="0.15" stroke-width="2" stroke-miterlimit="10"/>
<path d="M1570.4 782.441C1569.31 778.696 1568.74 774.741 1568.74 770.639C1568.74 747.247 1587.69 728.293 1611.07 728.293C1616.2 728.293 1621.12 729.198 1625.69 730.881" stroke="#67A8AD" stroke-opacity="0.15" stroke-width="2" stroke-miterlimit="10"/>
<path d="M2055.97 870.583C1970.1 887.201 1903.64 958.24 1893.99 1046.38" stroke="#67A8AD" stroke-opacity="0.15" stroke-width="2" stroke-miterlimit="10"/>
<path d="M1894.54 729.703C1930.27 712.411 1954.92 675.787 1954.92 633.421C1954.92 574.372 1907.07 526.515 1848.04 526.515" stroke="#67A8AD" stroke-opacity="0.15" stroke-width="2" stroke-miterlimit="10"/>
<path d="M1948.08 782.441C1949.17 778.696 1949.74 774.741 1949.74 770.639C1949.74 747.247 1930.79 728.293 1907.41 728.293C1902.28 728.293 1897.36 729.198 1892.79 730.881" stroke="#67A8AD" stroke-opacity="0.15" stroke-width="2" stroke-miterlimit="10"/>
<path d="M1623.35 729.556C1621.23 737.045 1620.07 744.954 1620.07 753.137C1620.07 800.574 1658.52 839.028 1705.94 839.028C1725.52 839.028 1743.2 829.898 1757.65 818.854" stroke="#67A8AD" stroke-opacity="0.15" stroke-width="2" stroke-miterlimit="10"/>
<path d="M1757.67 818.854C1772.12 829.898 1792.96 839.028 1812.56 839.028C1859.98 839.028 1898.43 800.574 1898.43 753.137C1898.43 744.954 1897.29 737.045 1895.15 729.556" stroke="#67A8AD" stroke-opacity="0.15" stroke-width="2" stroke-miterlimit="10"/>
<path d="M1464.26 870.583C1550.13 887.201 1616.58 958.009 1626.23 1046.15" stroke="#67A8AD" stroke-opacity="0.15" stroke-width="2" stroke-miterlimit="10"/>
<path d="M1447.65 914.653C1511.37 926.981 1560.81 981.464 1568.65 1046.7" stroke="#67A8AD" stroke-opacity="0.15" stroke-width="2" stroke-miterlimit="10"/>
<path d="M1626.42 730.881C1590.69 713.589 1563.59 675.787 1563.59 633.421C1563.59 574.372 1611.43 526.515 1670.46 526.515" stroke="#67A8AD" stroke-opacity="0.15" stroke-width="2" stroke-miterlimit="10"/>
<path d="M1465.37 179.67C1467.75 200.79 1485.67 217.22 1507.43 217.22C1511.2 217.22 1514.84 216.736 1518.31 215.81" stroke="#67A8AD" stroke-opacity="0.15" stroke-width="2" stroke-miterlimit="10"/>
<path d="M1518.31 215.81C1517.4 219.26 1516.92 222.878 1516.92 226.623C1516.92 250.015 1535.87 268.969 1559.25 268.969C1563.02 268.969 1566.66 268.485 1570.1 267.559" stroke="#67A8AD" stroke-opacity="0.15" stroke-width="2" stroke-miterlimit="10"/>
<path d="M1570.1 267.559C1569.01 271.304 1568.44 275.258 1568.44 279.36C1568.44 302.753 1587.39 321.706 1610.78 321.706C1615.91 321.706 1620.83 320.802 1625.39 319.119" stroke="#67A8AD" stroke-opacity="0.15" stroke-width="2" stroke-miterlimit="10"/>
<path d="M460.74 179.439C374.874 162.82 308.418 91.7808 298.766 3.63916" stroke="#67A8AD" stroke-opacity="0.15" stroke-width="2" stroke-miterlimit="10"/>
<path d="M477.375 135.347C413.653 123.02 361.73 70.366 356.367 3.61816" stroke="#67A8AD" stroke-opacity="0.15" stroke-width="2" stroke-miterlimit="10"/>
<path d="M299.312 320.297C321.773 326.776 354.643 374.213 354.643 416.579C354.643 475.628 311.846 523.485 252.814 523.485" stroke="#67A8AD" stroke-opacity="0.15" stroke-width="2" stroke-miterlimit="10"/>
<path d="M457.565 179.67C455.188 200.79 437.271 217.22 415.504 217.22C411.74 217.22 408.102 216.736 404.632 215.81" stroke="#67A8AD" stroke-opacity="0.15" stroke-width="2" stroke-miterlimit="10"/>
<path d="M404.653 215.81C405.557 219.26 406.041 222.878 406.041 226.623C406.041 250.015 387.093 268.969 363.707 268.969C359.943 268.969 356.304 268.485 352.855 267.559" stroke="#67A8AD" stroke-opacity="0.15" stroke-width="2" stroke-miterlimit="10"/>
<path d="M352.856 267.559C353.949 271.304 354.517 275.258 354.517 279.36C354.517 302.753 335.569 321.706 312.183 321.706C307.052 321.706 302.131 320.802 297.567 319.119" stroke="#67A8AD" stroke-opacity="0.15" stroke-width="2" stroke-miterlimit="10"/>
<path d="M28.1284 320.444C26.0043 312.955 24.8477 305.046 24.8477 296.863C24.8477 249.426 63.2909 210.972 110.714 210.972C130.293 210.972 148.232 219.954 162.68 230.998" stroke="#67A8AD" stroke-opacity="0.15" stroke-width="2" stroke-miterlimit="10"/>
<path d="M162.68 230.998C177.127 219.954 197.716 210.972 217.295 210.972C264.718 210.972 303.161 249.426 303.161 296.863C303.161 305.046 302.026 312.955 299.881 320.444" stroke="#67A8AD" stroke-opacity="0.15" stroke-width="2" stroke-miterlimit="10"/>
<path d="M-130.966 179.439C-45.0995 162.82 21.356 92.0122 31.0088 3.84961" stroke="#67A8AD" stroke-opacity="0.15" stroke-width="2" stroke-miterlimit="10"/>
<path d="M31.1771 319.119C-4.5532 336.411 -31.6611 374.213 -31.6611 416.58C-31.6611 475.628 16.1826 523.485 75.2144 523.485" stroke="#67A8AD" stroke-opacity="0.15" stroke-width="2" stroke-miterlimit="10"/>
<path d="M-24.5105 782.441C-25.6041 778.696 -26.1719 774.741 -26.1719 770.639C-26.1719 747.247 -7.22367 728.293 16.1619 728.293C21.2933 728.293 26.2144 729.198 30.7779 730.881" stroke="#67A8AD" stroke-opacity="0.15" stroke-width="2" stroke-miterlimit="10"/>
<path d="M461.035 870.583C375.169 887.201 308.713 958.24 299.061 1046.38" stroke="#67A8AD" stroke-opacity="0.15" stroke-width="2" stroke-miterlimit="10"/>
<path d="M477.67 914.653C413.948 926.981 362.025 979.634 356.662 1046.38" stroke="#67A8AD" stroke-opacity="0.15" stroke-width="2" stroke-miterlimit="10"/>
<path d="M299.607 729.703C335.337 712.411 353.676 675.787 353.676 633.421C353.676 574.372 312.141 526.515 253.109 526.515" stroke="#67A8AD" stroke-opacity="0.15" stroke-width="2" stroke-miterlimit="10"/>
<path d="M457.88 870.351C455.504 849.23 437.586 832.801 415.82 832.801C412.056 832.801 408.417 833.285 404.947 834.211" stroke="#67A8AD" stroke-opacity="0.15" stroke-width="2" stroke-miterlimit="10"/>
<path d="M28.4223 729.556C26.2983 737.045 25.1416 744.954 25.1416 753.137C25.1416 800.574 63.5848 839.028 111.008 839.028C130.587 839.028 148.273 829.898 162.721 818.854" stroke="#67A8AD" stroke-opacity="0.15" stroke-width="2" stroke-miterlimit="10"/>
<path d="M162.742 818.854C177.19 829.898 198.031 839.028 217.631 839.028C265.054 839.028 303.497 800.574 303.497 753.137C303.497 744.954 302.362 737.045 300.217 729.556" stroke="#67A8AD" stroke-opacity="0.15" stroke-width="2" stroke-miterlimit="10"/>
<path d="M-130.671 870.583C-44.8046 887.201 21.6509 958.009 31.3037 1046.15" stroke="#67A8AD" stroke-opacity="0.15" stroke-width="2" stroke-miterlimit="10"/>
<path d="M31.4925 730.881C-4.23778 713.589 -31.3457 675.787 -31.3457 633.421C-31.3457 574.372 16.498 526.515 75.5298 526.515" stroke="#67A8AD" stroke-opacity="0.15" stroke-width="2" stroke-miterlimit="10"/>
<path d="M-24.8259 267.559C-25.9195 271.304 -26.4873 275.258 -26.4873 279.36C-26.4873 302.753 -7.53908 321.706 15.8465 321.706C20.9779 321.706 25.8989 320.802 30.4625 319.119" stroke="#67A8AD" stroke-opacity="0.15" stroke-width="2" stroke-miterlimit="10"/>
<path d="M1274.67 134.19C1324.56 152.491 1360.16 200.559 1360.16 256.999C1360.16 261.08 1359.97 265.119 1359.61 269.116" stroke="#67A8AD" stroke-opacity="0.15" stroke-width="2" stroke-miterlimit="10"/>
<path d="M1359.38 267.643C1356.73 217.745 1315.62 178.092 1265.29 178.092C1261.78 178.092 1258.31 178.282 1254.88 178.66" stroke="#67A8AD" stroke-opacity="0.15" stroke-width="2" stroke-miterlimit="10"/>
<path d="M1254.88 178.66C1264.37 129.204 1307.54 91.823 1359.55 91.823C1411.56 91.823 1455.32 129.225 1464.81 178.66" stroke="#67A8AD" stroke-opacity="0.15" stroke-width="2" stroke-miterlimit="10"/>
<path d="M1464.81 178.66C1461.4 178.282 1457.93 178.092 1454.4 178.092C1404.07 178.092 1362.94 217.745 1360.31 267.643" stroke="#67A8AD" stroke-opacity="0.15" stroke-width="2" stroke-miterlimit="10"/>
<path d="M1445.02 134.19C1395.13 152.491 1359.53 200.559 1359.53 256.999C1359.53 261.08 1359.72 265.119 1360.08 269.116" stroke="#67A8AD" stroke-opacity="0.15" stroke-width="2" stroke-miterlimit="10"/>
<path d="M476.45 134.19C526.334 152.491 561.938 200.559 561.938 256.999C561.938 261.08 561.749 265.119 561.391 269.116" stroke="#67A8AD" stroke-opacity="0.15" stroke-width="2" stroke-miterlimit="10"/>
<path d="M561.181 267.643C558.531 217.745 517.417 178.092 467.092 178.092C463.58 178.092 460.11 178.282 456.682 178.66" stroke="#67A8AD" stroke-opacity="0.15" stroke-width="2" stroke-miterlimit="10"/>
<path d="M456.682 178.66C466.166 129.204 509.341 91.823 561.349 91.823C613.357 91.823 657.121 129.225 666.605 178.66" stroke="#67A8AD" stroke-opacity="0.15" stroke-width="2" stroke-miterlimit="10"/>
<path d="M666.606 178.66C663.199 178.282 659.729 178.092 656.196 178.092C605.87 178.092 564.735 217.745 562.106 267.643" stroke="#67A8AD" stroke-opacity="0.15" stroke-width="2" stroke-miterlimit="10"/>
<path d="M646.816 134.19C596.932 152.491 561.328 200.559 561.328 256.999C561.328 261.08 561.517 265.119 561.875 269.116" stroke="#67A8AD" stroke-opacity="0.15" stroke-width="2" stroke-miterlimit="10"/>
<path d="M477.922 915.831C527.806 897.53 563.41 849.462 563.41 793.022C563.41 788.941 563.22 784.902 562.863 780.905" stroke="#67A8AD" stroke-opacity="0.15" stroke-width="2" stroke-miterlimit="10"/>
<path d="M562.632 782.357C559.982 832.255 518.868 871.908 468.543 871.908C465.031 871.908 461.561 871.719 458.133 871.34" stroke="#67A8AD" stroke-opacity="0.15" stroke-width="2" stroke-miterlimit="10"/>
<path d="M458.133 871.34C467.617 920.796 510.792 958.177 562.8 958.177C614.808 958.177 658.572 920.775 668.056 871.34" stroke="#67A8AD" stroke-opacity="0.15" stroke-width="2" stroke-miterlimit="10"/>
<path d="M668.057 871.34C664.65 871.719 661.18 871.908 657.647 871.908C607.321 871.908 566.186 832.255 563.558 782.357" stroke="#67A8AD" stroke-opacity="0.15" stroke-width="2" stroke-miterlimit="10"/>
<path d="M648.288 915.831C598.425 897.53 562.8 849.462 562.8 793.022C562.8 788.941 562.989 784.902 563.347 780.905" stroke="#67A8AD" stroke-opacity="0.15" stroke-width="2" stroke-miterlimit="10"/>
<path d="M1274.97 915.831C1324.85 897.53 1360.45 849.462 1360.45 793.022C1360.45 788.941 1360.27 784.902 1359.91 780.905" stroke="#67A8AD" stroke-opacity="0.15" stroke-width="2" stroke-miterlimit="10"/>
<path d="M1359.7 782.357C1357.05 832.255 1315.93 871.908 1265.61 871.908C1262.1 871.908 1258.63 871.719 1255.2 871.34" stroke="#67A8AD" stroke-opacity="0.15" stroke-width="2" stroke-miterlimit="10"/>
<path d="M1255.2 871.34C1264.68 920.796 1307.86 958.177 1359.87 958.177C1411.87 958.177 1455.64 920.775 1465.12 871.34" stroke="#67A8AD" stroke-opacity="0.15" stroke-width="2" stroke-miterlimit="10"/>
<path d="M1465.12 871.34C1461.71 871.719 1458.24 871.908 1454.71 871.908C1404.39 871.908 1363.25 832.255 1360.62 782.357" stroke="#67A8AD" stroke-opacity="0.15" stroke-width="2" stroke-miterlimit="10"/>
<path d="M1445.33 915.831C1395.47 897.53 1359.84 849.462 1359.84 793.022C1359.84 788.941 1360.03 784.902 1360.39 780.905" stroke="#67A8AD" stroke-opacity="0.15" stroke-width="2" stroke-miterlimit="10"/>
<path d="M1758.85 3.61816H162.68V1040.89H1758.85V3.61816Z" stroke="#67A8AD" stroke-opacity="0.15" stroke-width="2" stroke-miterlimit="10"/>
<path d="M965.024 268.927C965.024 268.927 956.612 318.004 1010.6 336.937C1063.53 355.491 1096.25 320.15 1096.25 320.15C1100.82 321.833 1103.61 322.737 1108.77 322.737C1132.15 322.737 1151.1 303.784 1151.1 280.391C1151.1 276.289 1150.51 272.334 1149.44 268.59C1149.44 268.59 1202.41 272.945 1202.41 218.776" stroke="#67A8AD" stroke-opacity="0.15" stroke-width="2" stroke-miterlimit="10"/>
<path d="M1098.78 730.25C1098.78 730.25 1065.74 694.909 1012.3 713.463C957.789 732.396 966.285 781.473 966.285 781.473" stroke="#67A8AD" stroke-opacity="0.15" stroke-width="2" stroke-miterlimit="10"/>
<path d="M958.042 780.421C958.042 780.421 966.538 731.344 912.027 712.411C858.59 693.858 825.551 729.198 825.551 729.198" stroke="#67A8AD" stroke-opacity="0.15" stroke-width="2" stroke-miterlimit="10"/>
</svg>
