<svg width="49" height="38" viewBox="0 0 49 38" fill="none" xmlns="http://www.w3.org/2000/svg">
<g id="International">
<path id="path3808" fill-rule="evenodd" clip-rule="evenodd" d="M13.5549 32.9896V34.9469V36.9041H12.6985V36.4289C12.4269 36.7813 12.0148 37.0026 11.4545 37.0026C10.3502 37.0026 9.48438 36.143 9.48438 34.9469C9.48438 33.7517 10.3502 32.8912 11.4545 32.8912C12.0148 32.8912 12.4269 33.1124 12.6985 33.4649V32.9896H13.5549ZM11.5621 33.6923C10.8208 33.6923 10.3672 34.2575 10.3672 34.9456C10.3672 35.6336 10.8208 36.1989 11.5621 36.1989C12.2704 36.1989 12.7486 35.658 12.7486 34.9456C12.7486 34.2332 12.2704 33.6923 11.5621 33.6923ZM42.4922 34.9456C42.4922 34.2575 42.9458 33.6923 43.6871 33.6923C44.3963 33.6923 44.8736 34.2332 44.8736 34.9456C44.8736 35.658 44.3963 36.1989 43.6871 36.1989C42.9458 36.1989 42.4922 35.6336 42.4922 34.9456ZM45.6808 31.4176V34.9469V36.9041H44.8235V36.4289C44.5519 36.7813 44.1398 37.0026 43.5795 37.0026C42.4752 37.0026 41.6094 36.143 41.6094 34.9469C41.6094 33.7517 42.4752 32.8912 43.5795 32.8912C44.1398 32.8912 44.5519 33.1124 44.8235 33.4649V31.4176H45.6808ZM24.1875 33.6476C24.7392 33.6476 25.0938 33.9916 25.1844 34.5972H23.1406C23.2321 34.0319 23.5773 33.6476 24.1875 33.6476ZM22.2383 34.9469C22.2383 33.7264 23.0456 32.8912 24.2 32.8912C25.3034 32.8912 26.0617 33.7264 26.0702 34.9469C26.0702 35.0612 26.0617 35.1681 26.0532 35.274H23.1286C23.2521 35.9789 23.7548 36.233 24.3065 36.233C24.7017 36.233 25.1223 36.0849 25.4524 35.8233L25.8721 36.4542C25.394 36.8554 24.8507 37.0026 24.2575 37.0026C23.0786 37.0026 22.2383 36.1917 22.2383 34.9469ZM34.543 34.9456C34.543 34.2575 34.9966 33.6923 35.7379 33.6923C36.4462 33.6923 36.9243 34.2332 36.9243 34.9456C36.9243 35.658 36.4462 36.1989 35.7379 36.1989C34.9966 36.1989 34.543 35.6336 34.543 34.9456ZM37.7307 32.9896V34.9469V36.9041H36.8743V36.4289C36.6017 36.7813 36.1905 37.0026 35.6303 37.0026C34.5259 37.0026 33.6602 36.143 33.6602 34.9469C33.6602 33.7517 34.5259 32.8912 35.6303 32.8912C36.1905 32.8912 36.6017 33.1124 36.8743 33.4649V32.9896H37.7307ZM29.707 34.9469C29.707 36.1345 30.5389 37.0026 31.8083 37.0026C32.4015 37.0026 32.7967 36.8713 33.2249 36.5357L32.8137 35.8477C32.4921 36.0774 32.1544 36.2002 31.7828 36.2002C31.0991 36.1917 30.5964 35.7005 30.5964 34.9469C30.5964 34.1932 31.0991 33.702 31.7828 33.6936C32.1544 33.6936 32.4921 33.8164 32.8137 34.046L33.2249 33.358C32.7967 33.0224 32.4015 32.8912 31.8083 32.8912C30.5389 32.8912 29.707 33.7592 29.707 34.9469ZM39.7121 33.4667C39.9347 33.1227 40.2563 32.893 40.7505 32.893C40.924 32.893 41.1711 32.9259 41.3607 32.9999L41.0966 33.8023C40.9155 33.7283 40.7344 33.7039 40.5609 33.7039C40.0007 33.7039 39.7206 34.0638 39.7206 34.7116V36.906H38.8633V32.9915H39.7121V33.4667ZM17.7934 33.3008C17.3812 33.0309 16.8135 32.8912 16.1873 32.8912C15.1894 32.8912 14.5472 33.3664 14.5472 34.1445C14.5472 34.7828 15.0253 35.1765 15.9062 35.2993L16.3108 35.3565C16.7805 35.4221 17.0021 35.5449 17.0021 35.7661C17.0021 36.0689 16.689 36.2414 16.1043 36.2414C15.511 36.2414 15.0829 36.053 14.7943 35.8318L14.3906 36.4945C14.8603 36.8385 15.4535 37.0026 16.0958 37.0026C17.2332 37.0026 17.8924 36.4701 17.8924 35.7249C17.8924 35.0369 17.3737 34.6769 16.5164 34.5541L16.1128 34.496C15.7421 34.4472 15.445 34.3741 15.445 34.1117C15.445 33.8248 15.7251 33.6533 16.1948 33.6533C16.6975 33.6533 17.1841 33.8417 17.4227 33.9889L17.7934 33.3008ZM27.8019 33.4667C28.0236 33.1227 28.3452 32.893 28.8394 32.893C29.0129 32.893 29.26 32.9259 29.4496 32.9999L29.1855 33.8023C29.0044 33.7283 28.8233 33.7039 28.6498 33.7039C28.0896 33.7039 27.8095 34.0638 27.8095 34.7116V36.906H26.9531V32.9915H27.8019V33.4667ZM21.5339 32.9896H20.1334V31.8019H19.2676V32.9896H18.4688V33.7676H19.2676V35.5534C19.2676 36.4617 19.6222 37.0026 20.6351 37.0026C21.0067 37.0026 21.4349 36.8882 21.7065 36.6998L21.4594 35.9705C21.2038 36.1177 20.9237 36.1917 20.7011 36.1917C20.2729 36.1917 20.1334 35.9293 20.1334 35.5365V33.7676H21.5339V32.9896ZM8.72674 34.4491V36.906H7.86096V34.7275C7.86096 34.0639 7.58085 33.6955 6.99612 33.6955C6.42742 33.6955 6.03225 34.0564 6.03225 34.736V36.906H5.16647V34.7275C5.16647 34.0639 4.87882 33.6955 4.31012 33.6955C3.72444 33.6955 3.34531 34.0564 3.34531 34.736V36.906H2.48047L2.48047 32.9915H3.33776V33.4743C3.65937 33.0159 4.07057 32.8931 4.4912 32.8931C5.0929 32.8931 5.52108 33.1555 5.7927 33.5896C6.1558 33.0402 6.67451 32.8846 7.1772 32.8931C8.13352 32.9015 8.72674 33.5239 8.72674 34.4491Z" fill="black"/>
<path id="path3810" d="M30.4909 26.3307H17.5117V3.14722H30.4909V26.3307Z" fill="#FF5F00"/>
<path id="path3814" d="M18.3342 14.7439C18.3342 10.041 20.5496 5.8518 23.9995 3.15213C21.4767 1.17799 18.2927 -0.000305176 14.8324 -0.000305176C6.64049 -0.000305176 0 6.60078 0 14.7439C0 22.887 6.64049 29.488 14.8324 29.488C18.2927 29.488 21.4767 28.3097 23.9995 26.3356C20.5496 23.6359 18.3342 19.4467 18.3342 14.7439Z" fill="#EB001B"/>
<path id="path3822" d="M48.0044 14.7439C48.0044 22.887 41.3639 29.488 33.172 29.488C29.7117 29.488 26.5277 28.3097 24.0039 26.3356C27.4548 23.6359 29.6702 19.4467 29.6702 14.7439C29.6702 10.041 27.4548 5.8518 24.0039 3.15213C26.5277 1.17799 29.7117 -0.000305176 33.172 -0.000305176C41.3639 -0.000305176 48.0044 6.60078 48.0044 14.7439Z" fill="#F79E1B"/>
</g>
</svg>
