<svg width="97" height="68" viewBox="0 0 97 68" fill="none" xmlns="http://www.w3.org/2000/svg">
<path fill-rule="evenodd" clip-rule="evenodd" d="M15.688 23.8026C15.7222 23.8024 15.7598 23.8017 15.8002 23.801C16.5968 23.7872 18.5433 23.7536 19.3915 26.6634C19.9919 28.7231 20.9483 32.097 22.2606 36.7852H22.7951C24.2025 31.8426 25.1693 28.4687 25.6955 26.6634C26.5422 23.7587 28.583 23.7871 29.5726 23.8009L29.5726 23.8009C29.6355 23.8018 29.6943 23.8026 29.7482 23.8026L36.6964 23.8026V45.773H29.6146V32.8255H29.1397L25.1919 45.773H19.8638L15.916 32.8159H15.4412V45.773H8.35938V23.8026L15.688 23.8026ZM46.8654 23.8008V36.758H47.4304L52.2325 26.1034C53.1646 23.9831 55.1514 23.8008 55.1514 23.8008H62.0044V45.7713H54.7747V32.8141H54.2098L49.5019 43.4687C48.5697 45.5794 46.4888 45.7713 46.4888 45.7713H39.6358V23.8008H46.8654ZM79.3128 39.2282C82.8191 39.2282 85.9861 37.1478 86.9946 34.243H64.8561V45.7729H71.7311V39.2282H79.3128Z" fill="#40A548"/>
<path d="M79.6489 23.8047H64.5C64.8605 28.6961 69.0045 32.8834 73.2944 32.8834H87.4767C88.2952 28.8181 85.4777 23.8047 79.6489 23.8047Z" fill="#1291D0"/>
</svg>
