<svg width="83" height="57" viewBox="0 0 83 57" fill="none" xmlns="http://www.w3.org/2000/svg">
<g id="&#208;&#188;&#208;&#184;&#209;&#128;">
<g id="Group 5302">
<path id="Combined-Shape" fill-rule="evenodd" clip-rule="evenodd" d="M7.6751 17.8915C7.71098 17.8913 7.75027 17.8907 7.79268 17.8899C8.62685 17.8758 10.6654 17.8413 11.5537 20.8266C12.1825 22.9397 13.1841 26.4012 14.5585 31.2109H15.1183C16.5922 26.1401 17.6047 22.6787 18.1558 20.8266C19.0426 17.8465 21.1798 17.8757 22.2162 17.8899C22.2821 17.8908 22.3436 17.8916 22.4001 17.8916L29.6768 17.8916V40.4319H22.2601V27.1486H21.7628L17.6284 40.4319H12.0484L7.91396 27.1387H7.41662V40.4319H0V17.8916L7.6751 17.8915ZM40.3293 17.8899V31.1832H40.921L45.9501 20.2522C46.9263 18.0769 49.007 17.8899 49.007 17.8899H56.1841V40.4303H48.6126V27.137H48.0209L43.0904 38.068C42.1142 40.2334 39.9349 40.4303 39.9349 40.4303H32.7578V17.8899H40.3293ZM74.3083 33.7168C77.9803 33.7168 81.297 31.5824 82.3532 28.6022H59.168V40.4312H66.368V33.7168H74.3083Z" fill="#40A548"/>
<path id="path24" d="M74.6581 17.8927H58.793C59.1705 22.911 63.5104 27.2069 68.0031 27.2069H82.8561C83.7132 23.0361 80.7625 17.8927 74.6581 17.8927Z" fill="#1291D0"/>
</g>
</g>
</svg>
