<svg width="1920" height="783" viewBox="0 0 1920 783" fill="none" xmlns="http://www.w3.org/2000/svg">
<g opacity="0.2">
<mask id="mask0_2892_149986" style="mask-type:luminance" maskUnits="userSpaceOnUse" x="-19" y="-5" width="1954" height="797">
<path d="M1934.4 -4.77966H-18.1729V791.492H1934.4V-4.77966Z" fill="white"/>
</mask>
<g mask="url(#mask0_2892_149986)">
<path d="M254.628 -107.339L254.933 78.8746" stroke="#FFFAF1" stroke-width="2" stroke-miterlimit="10"/>
<path d="M254.933 893.339L255.238 706.424" stroke="#FFFAF1" stroke-width="2" stroke-miterlimit="10"/>
<path d="M151.884 -107.339C171.247 -31.2203 216.95 43.617 307.49 42.2136H958.5" stroke="#FFFAF1" stroke-width="2" stroke-miterlimit="10"/>
<path d="M152.281 893.339C171.623 817.292 223.438 744.041 307.785 743.837H958.51" stroke="#FFFAF1" stroke-width="2" stroke-miterlimit="10"/>
<path d="M145.762 185.39L10.4243 393.051" stroke="#FFFAF1" stroke-width="2" stroke-miterlimit="10"/>
<path d="M88.0901 366.783L87.9478 78.8542" stroke="#FFFAF1" stroke-width="2" stroke-miterlimit="10"/>
<path d="M254.933 78.8746L87.9478 78.8542" stroke="#FFFAF1" stroke-width="2" stroke-miterlimit="10"/>
<path d="M201.502 132.315L34.791 132.386V252.437" stroke="#FFFAF1" stroke-width="2" stroke-miterlimit="10"/>
<path d="M202.163 -107.339L201.502 132.315M-162.337 -107.339L10.4246 94.617L181.305 -107.339M-182.839 132.386V-107.339" stroke="#FFFAF1" stroke-width="2" stroke-miterlimit="10"/>
<path d="M-104.035 -107.339L10.4242 28.5661L123.084 -107.339" stroke="#FFFAF1" stroke-width="2" stroke-miterlimit="10"/>
<path d="M-128.93 185.776L10.4245 393.051" stroke="#FFFAF1" stroke-width="2" stroke-miterlimit="10"/>
<path d="M146.799 600.356L10.4243 393.051" stroke="#FFFAF1" stroke-width="2" stroke-miterlimit="10"/>
<path d="M88.3952 418.464L88.2427 707.502" stroke="#FFFAF1" stroke-width="2" stroke-miterlimit="10"/>
<path d="M34.791 534.02L35.0961 653.736" stroke="#FFFAF1" stroke-width="2" stroke-miterlimit="10"/>
<path d="M255.238 707.044H88.2427" stroke="#FFFAF1" stroke-width="2" stroke-miterlimit="10"/>
<path d="M202.245 653.949L35.0962 653.736" stroke="#FFFAF1" stroke-width="2" stroke-miterlimit="10"/>
<path d="M202.468 893.339L202.244 653.949M-161.911 893.339L10.4242 692.471L181.427 893.339M-182.535 653.736V893.339" stroke="#FFFAF1" stroke-width="2" stroke-miterlimit="10"/>
<path d="M-103.76 893.339L10.4246 756.854L123.338 893.339" stroke="#FFFAF1" stroke-width="2" stroke-miterlimit="10"/>
<path d="M-126.876 600.356L10.4245 393.051" stroke="#FFFAF1" stroke-width="2" stroke-miterlimit="10"/>
<path d="M-81.7124 394.597L10.4246 200.522L100.07 393.061" stroke="#FFFAF1" stroke-width="2" stroke-miterlimit="10"/>
<path d="M-81.4072 391.525L10.4247 585.61L100.07 393.061" stroke="#FFFAF1" stroke-width="2" stroke-miterlimit="10"/>
<path d="M145.762 185.39C182.007 202.932 207.116 240.254 207.116 283.19C207.116 343.017 159.918 393.061 100.07 393.061" stroke="#FFFAF1" stroke-width="2" stroke-miterlimit="10"/>
<path d="M958.5 78.8746H254.933V90.6814C254.933 114.376 234.909 132.305 211.224 132.305H201.502C201.502 132.305 201.858 139.983 201.858 144.112C201.858 167.807 182.668 187.027 158.983 187.027C153.725 187.027 150.399 187.078 145.752 185.38" stroke="#FFFAF1" stroke-width="2" stroke-miterlimit="10"/>
<path d="M-128.93 185.776C-131.137 178.19 -132.286 170.166 -132.286 161.888C-132.286 113.807 -93.2957 74.8475 -45.2441 74.8475C-25.3726 74.8475 -4.28077 83.4305 10.4245 94.6068C25.0485 83.4305 42.9369 74.8475 62.8186 74.8475C110.87 74.8475 149.861 113.807 149.861 161.888C149.861 170.166 147.979 177.814 145.772 185.4" stroke="#FFFAF1" stroke-width="2" stroke-miterlimit="10"/>
<path d="M146.901 600.61C183.146 583.078 207.421 545.868 207.421 502.942C207.421 443.115 159.847 393.071 100.07 393.071" stroke="#FFFAF1" stroke-width="2" stroke-miterlimit="10"/>
<path d="M958.5 704.969L255.238 706.383C255.238 706.383 255.198 699.305 255.218 695.522C255.371 672.62 234.726 654.092 211.377 653.786C207.573 653.736 202.244 653.949 202.244 653.949V641.98C202.244 618.285 182.973 599.075 159.298 599.075C154.122 599.075 147.349 600.447 147.349 600.447" stroke="#FFFAF1" stroke-width="2" stroke-miterlimit="10"/>
<path d="M-128.625 600.356C-130.832 607.953 -131.971 615.956 -131.971 624.254C-131.971 672.315 -92.9808 711.295 -44.9292 711.295C-25.0577 711.295 -4.18957 702.041 10.4344 690.854C25.1295 702.041 43.2518 711.295 63.1335 711.295C111.185 711.295 150.165 672.325 150.165 624.254C150.165 615.966 149.026 607.953 146.809 600.356" stroke="#FFFAF1" stroke-width="2" stroke-miterlimit="10"/>
<path d="M1662.07 78.8746L1662.37 -107.339" stroke="#FFFAF1" stroke-width="2" stroke-miterlimit="10"/>
<path d="M1661.76 706.424L1662.07 893.339" stroke="#FFFAF1" stroke-width="2" stroke-miterlimit="10"/>
<path d="M1765.12 -107.339C1745.75 -31.2203 1700.05 43.617 1609.51 42.2136H958.5" stroke="#FFFAF1" stroke-width="2" stroke-miterlimit="10"/>
<path d="M1764.73 893.339C1745.39 817.292 1693.57 744.041 1609.23 743.837H958.5" stroke="#FFFAF1" stroke-width="2" stroke-miterlimit="10"/>
<path d="M1771.25 185.39L1906.59 393.051" stroke="#FFFAF1" stroke-width="2" stroke-miterlimit="10"/>
<path d="M1828.91 366.783L1829.06 78.8543" stroke="#FFFAF1" stroke-width="2" stroke-miterlimit="10"/>
<path d="M1662.07 78.8746L1829.06 78.8543" stroke="#FFFAF1" stroke-width="2" stroke-miterlimit="10"/>
<path d="M1715.5 132.315L1882.22 132.386V252.437" stroke="#FFFAF1" stroke-width="2" stroke-miterlimit="10"/>
<path d="M1715.5 132.315L1714.84 -107.339M1735.69 -107.339L1906.58 94.617L2079.35 -107.339M2099.85 -107.339V132.386" stroke="#FFFAF1" stroke-width="2" stroke-miterlimit="10"/>
<path d="M2021.03 -107.339L1906.59 28.5661L1793.93 -107.339" stroke="#FFFAF1" stroke-width="2" stroke-miterlimit="10"/>
<path d="M2045.93 185.776L1906.59 393.051" stroke="#FFFAF1" stroke-width="2" stroke-miterlimit="10"/>
<path d="M1770.2 600.356L1906.59 393.051" stroke="#FFFAF1" stroke-width="2" stroke-miterlimit="10"/>
<path d="M1828.6 418.464L1828.76 707.502" stroke="#FFFAF1" stroke-width="2" stroke-miterlimit="10"/>
<path d="M1882.22 534.02L1881.91 653.736" stroke="#FFFAF1" stroke-width="2" stroke-miterlimit="10"/>
<path d="M1661.76 707.044H1828.76" stroke="#FFFAF1" stroke-width="2" stroke-miterlimit="10"/>
<path d="M1714.77 653.949L1881.91 653.736" stroke="#FFFAF1" stroke-width="2" stroke-miterlimit="10"/>
<path d="M1714.77 653.949L1714.54 893.339M1735.58 893.339L1906.59 692.471L2078.92 893.339M2099.54 893.339V653.736" stroke="#FFFAF1" stroke-width="2" stroke-miterlimit="10"/>
<path d="M2020.77 893.339L1906.59 756.854L1793.67 893.339" stroke="#FFFAF1" stroke-width="2" stroke-miterlimit="10"/>
<path d="M2043.88 600.356L1906.59 393.051" stroke="#FFFAF1" stroke-width="2" stroke-miterlimit="10"/>
<path d="M1998.72 394.597L1906.59 200.522L1816.93 393.061" stroke="#FFFAF1" stroke-width="2" stroke-miterlimit="10"/>
<path d="M1998.42 391.525L1906.59 585.61L1816.93 393.061" stroke="#FFFAF1" stroke-width="2" stroke-miterlimit="10"/>
<path d="M1771.25 185.39C1735 202.932 1709.89 240.254 1709.89 283.19C1709.89 343.017 1757.09 393.061 1816.94 393.061" stroke="#FFFAF1" stroke-width="2" stroke-miterlimit="10"/>
<path d="M958.5 78.8746H1662.07C1662.07 78.8746 1662.07 86.8983 1662.07 90.6814C1662.07 114.376 1682.09 132.305 1705.78 132.305H1715.5C1715.5 132.305 1715.14 139.983 1715.14 144.112C1715.14 167.807 1734.33 187.027 1758.02 187.027C1763.28 187.027 1766.6 187.078 1771.25 185.38" stroke="#FFFAF1" stroke-width="2" stroke-miterlimit="10"/>
<path d="M2045.93 185.776C2048.14 178.19 2049.29 170.166 2049.29 161.888C2049.29 113.807 2010.3 74.8475 1962.24 74.8475C1942.37 74.8475 1921.28 83.4305 1906.58 94.6068C1891.95 83.4305 1874.06 74.8475 1854.18 74.8475C1806.13 74.8475 1767.14 113.807 1767.14 161.888C1767.14 170.166 1769.02 177.814 1771.23 185.4" stroke="#FFFAF1" stroke-width="2" stroke-miterlimit="10"/>
<path d="M1770.11 600.61C1733.86 583.078 1709.59 545.868 1709.59 502.942C1709.59 443.115 1757.16 393.071 1816.94 393.071" stroke="#FFFAF1" stroke-width="2" stroke-miterlimit="10"/>
<path d="M958.5 704.969L1661.76 706.383C1661.76 706.383 1661.8 699.305 1661.78 695.522C1661.63 672.62 1682.27 654.092 1705.62 653.786C1709.43 653.736 1714.76 653.949 1714.76 653.949C1714.76 653.949 1714.76 646.139 1714.76 641.98C1714.76 618.285 1734.03 599.075 1757.7 599.075C1762.88 599.075 1769.65 600.447 1769.65 600.447" stroke="#FFFAF1" stroke-width="2" stroke-miterlimit="10"/>
<path d="M2045.63 600.356C2047.83 607.953 2048.97 615.956 2048.97 624.254C2048.97 672.315 2009.98 711.295 1961.93 711.295C1942.06 711.295 1921.19 702.041 1906.57 690.854C1891.87 702.041 1873.75 711.295 1853.87 711.295C1805.81 711.295 1766.83 672.325 1766.83 624.254C1766.83 615.966 1767.97 607.953 1770.19 600.356" stroke="#FFFAF1" stroke-width="2" stroke-miterlimit="10"/>
</g>
</g>
</svg>
