<svg width="91" height="96" viewBox="0 0 91 96" fill="none" xmlns="http://www.w3.org/2000/svg">
<g id="Objects" clip-path="url(#clip0_3179_137384)">
<g id="Group">
<path id="Vector" d="M25.9229 89.49C12.3279 89.49 1.09961 79.2617 1.09961 66.7977V43.7407H50.854V66.3135C50.854 79.0465 39.8054 89.49 25.9229 89.49Z" stroke="#FFF9EE" stroke-width="2" stroke-linecap="round" stroke-linejoin="round"/>
<path id="Vector_2" d="M44.1374 95.4022H7.82227L19.3741 88.5515C22.5017 89.5439 25.9289 89.49 25.9289 89.49C25.9289 89.49 29.458 89.5439 32.5976 88.5515L44.1494 95.4022H44.1374Z" stroke="#FFF9EE" stroke-width="2" stroke-linecap="round" stroke-linejoin="round"/>
<g id="Group_2">
<path id="Vector_3" d="M25.9228 89.4899C25.9228 89.4899 23.5561 61.3816 50.8539 61.3816" stroke="#FFF9EE" stroke-width="2" stroke-linecap="round" stroke-linejoin="round"/>
<path id="Vector_4" d="M25.9229 89.4899C25.9229 89.4899 28.3974 61.3816 1.09961 61.3816" stroke="#FFF9EE" stroke-width="2" stroke-linecap="round" stroke-linejoin="round"/>
<path id="Vector_5" d="M25.9229 89.4898C25.9229 89.4898 22.5556 69.5115 49.8534 69.5115" stroke="#FFF9EE" stroke-width="2" stroke-linecap="round" stroke-linejoin="round"/>
<path id="Vector_6" d="M25.9239 89.4899C25.9239 89.4899 29.2372 69.7507 1.93945 69.7507" stroke="#FFF9EE" stroke-width="2" stroke-linecap="round" stroke-linejoin="round"/>
<path id="Vector_7" d="M25.9229 89.4899C25.9229 89.4899 23.6162 78.5981 47.2351 77.6775" stroke="#FFF9EE" stroke-width="2" stroke-linecap="round" stroke-linejoin="round"/>
<path id="Vector_8" d="M4.82031 78.3948C28.4452 79.3214 25.9288 89.4899 25.9288 89.4899L25.9827 43.7466" stroke="#FFF9EE" stroke-width="2" stroke-linecap="round" stroke-linejoin="round"/>
</g>
</g>
<path id="Vector_9" d="M28.0254 18.125H88.3789L58.2051 51.6673L28.0254 18.125Z" stroke="#FFF9EE" stroke-width="2" stroke-linecap="round" stroke-linejoin="round"/>
<path id="Vector_10" d="M42.7168 24.127H73.6874L58.2051 41.3435L42.7168 24.127Z" stroke="#FFF9EE" stroke-width="2" stroke-linecap="round" stroke-linejoin="round"/>
<path id="Vector_11" d="M75.2587 95.3963H41.1484L58.2365 86.0767L75.2587 95.3963Z" stroke="#FFF9EE" stroke-width="2" stroke-linecap="round" stroke-linejoin="round"/>
<path id="Vector_12" d="M58.2051 51.6675V86.0766" stroke="#FFF9EE" stroke-width="2" stroke-linecap="round" stroke-linejoin="round"/>
<path id="Vector_13" d="M58.2051 41.3435V24.127" stroke="#FFF9EE" stroke-width="2" stroke-linecap="round" stroke-linejoin="round"/>
<path id="Vector_14" d="M50.6445 24.127L58.2059 41.3435" stroke="#FFF9EE" stroke-width="2" stroke-linecap="round" stroke-linejoin="round"/>
<path id="Vector_15" d="M65.7665 24.127L58.2051 41.3435" stroke="#FFF9EE" stroke-width="2" stroke-linecap="round" stroke-linejoin="round"/>
<g id="Group_3">
<path id="Vector_16" d="M88.9488 2.34346C89.4749 2.34346 89.9014 1.95271 89.9014 1.47068C89.9014 0.988658 89.4749 0.5979 88.9488 0.5979C88.4226 0.5979 87.9961 0.988658 87.9961 1.47068C87.9961 1.95271 88.4226 2.34346 88.9488 2.34346Z" stroke="#FFF9EE" stroke-width="2" stroke-linecap="round" stroke-linejoin="round"/>
<path id="Vector_17" d="M85.9458 12.0994C85.9458 15.3813 83.3095 18.0475 80.05 18.0475C76.7906 18.0475 74.1543 15.3873 74.1543 12.0994C74.1543 8.81156 76.7906 6.15137 80.05 6.15137C83.3095 6.15137 85.9458 8.81156 85.9458 12.0994Z" stroke="#FFF9EE" stroke-width="2" stroke-linecap="round" stroke-linejoin="round"/>
<path id="Vector_18" d="M81.7988 11.161C81.7988 11.161 88.096 8.13015 88.9468 1.4707" stroke="#FFF9EE" stroke-width="2" stroke-linecap="round" stroke-linejoin="round"/>
</g>
</g>
<defs>
<clipPath id="clip0_3179_137384">
<rect width="90" height="96" fill="white" transform="translate(0.5)"/>
</clipPath>
</defs>
</svg>
