<svg width="22" height="23" viewBox="0 0 22 23" fill="none" xmlns="http://www.w3.org/2000/svg">
<path d="M21 17.83C21 18.19 20.9199 18.56 20.7496 18.92C20.5794 19.28 20.359 19.62 20.0686 19.94C19.5779 20.48 19.0371 20.87 18.4261 21.12C17.8252 21.37 17.1743 21.5 16.4732 21.5C15.4517 21.5 14.36 21.26 13.2083 20.77C12.0566 20.28 10.9049 19.62 9.76314 18.79C8.61142 17.95 7.51978 17.02 6.47822 15.99C5.44667 14.95 4.51527 13.86 3.68403 12.72C2.86279 11.58 2.2018 10.44 1.72108 9.31C1.24036 8.17 1 7.08 1 6.04C1 5.36 1.12018 4.71 1.36054 4.11C1.6009 3.5 1.98147 2.94 2.51227 2.44C3.15323 1.81 3.85428 1.5 4.59539 1.5C4.87581 1.5 5.15623 1.56 5.40661 1.68C5.667 1.8 5.89735 1.98 6.07762 2.24L8.4011 5.51C8.58137 5.76 8.71157 5.99 8.8017 6.21C8.89184 6.42 8.94191 6.63 8.94191 6.82C8.94191 7.06 8.87181 7.3 8.7316 7.53C8.6014 7.76 8.41112 8 8.17076 8.24L7.40961 9.03C7.29945 9.14 7.24937 9.27 7.24937 9.43C7.24937 9.51 7.25939 9.58 7.27942 9.66C7.30946 9.74 7.33951 9.8 7.35954 9.86C7.53981 10.19 7.85028 10.62 8.29094 11.14C8.74161 11.66 9.22233 12.19 9.74311 12.72C10.2839 13.25 10.8047 13.74 11.3355 14.19C11.8563 14.63 12.2869 14.93 12.6274 15.11C12.6775 15.13 12.7376 15.16 12.8077 15.19C12.8878 15.22 12.968 15.23 13.0581 15.23C13.2283 15.23 13.3585 15.17 13.4687 15.06L14.2298 14.31C14.4802 14.06 14.7206 13.87 14.9509 13.75C15.1813 13.61 15.4116 13.54 15.662 13.54C15.8523 13.54 16.0526 13.58 16.2729 13.67C16.4932 13.76 16.7236 13.89 16.974 14.06L20.2889 16.41C20.5493 16.59 20.7296 16.8 20.8398 17.05C20.9399 17.3 21 17.55 21 17.83Z" stroke-width="1.5" stroke-miterlimit="10"/>
</svg>
