<svg width="510" height="299" viewBox="0 0 510 299" fill="none" xmlns="http://www.w3.org/2000/svg">
<path d="M0 0H510V249C510 276.614 487.614 299 460 299H50C22.3858 299 0 276.614 0 249V0Z" fill="#29354D"/>
<mask id="mask0_3801_29648" style="mask-type:alpha" maskUnits="userSpaceOnUse" x="0" y="0" width="510" height="299">
<path d="M50 299C22.3858 299 -9.78513e-07 276.614 -2.18557e-06 249L-1.30697e-05 3.05176e-05L510 8.22477e-06L510 249C510 276.614 487.614 299 460 299L50 299Z" fill="#D9D9D9"/>
</mask>
<g mask="url(#mask0_3801_29648)">
<path d="M103.554 -3.39177L-114.129 225.143" stroke="#EAC2B2" stroke-opacity="0.05" stroke-width="2.5823" stroke-miterlimit="10"/>
<path d="M160.347 162.285C126.774 162.285 99.5586 133.718 99.5586 98.478C99.5586 97.5484 99.5752 96.6223 99.6151 95.7029" stroke="#EAC2B2" stroke-opacity="0.05" stroke-width="2.5823" stroke-miterlimit="10"/>
<path d="M-33.0469 236.427C-6.95766 243.603 12.2906 268.519 12.2906 298.153C12.2906 299.085 12.2726 300.01 12.2341 300.931" stroke="#EAC2B2" stroke-opacity="0.05" stroke-width="2.5823" stroke-miterlimit="10"/>
<path d="M142.84 51.2851L-114.129 321.007" stroke="#EAC2B2" stroke-opacity="0.05" stroke-width="2.5823" stroke-miterlimit="10"/>
<path d="M178.586 118.99C156.441 116.368 139.23 96.6425 139.23 72.6979C139.23 64.9777 141.021 57.6953 144.189 51.2843" stroke="#EAC2B2" stroke-opacity="0.05" stroke-width="2.5823" stroke-miterlimit="10"/>
<path d="M144.19 51.2852C122.045 48.664 104.914 28.9376 104.914 4.99364C104.914 2.13093 105.16 -0.671672 105.631 -3.39239" stroke="#EAC2B2" stroke-opacity="0.05" stroke-width="2.5823" stroke-miterlimit="10"/>
<path d="M99.2909 97.3379C53.9507 97.3379 17.1953 58.7584 17.1953 11.1671C17.1953 6.20517 17.5941 1.34071 18.3614 -3.39045" stroke="#EAC2B2" stroke-opacity="0.05" stroke-width="2.5823" stroke-miterlimit="10"/>
<path d="M337.507 -3.39138C335.606 17.733 319.09 33.7783 298.391 33.7783" stroke="#EAC2B2" stroke-opacity="0.05" stroke-width="2.5823" stroke-miterlimit="10"/>
<path d="M298.394 33.7789C298.394 56.8859 280.548 75.6182 258.532 75.6182C236.516 75.6182 218.672 56.8859 218.672 33.7789" stroke="#EAC2B2" stroke-opacity="0.05" stroke-width="2.5823" stroke-miterlimit="10"/>
<path d="M218.67 33.7773C198.158 33.7773 181.518 17.5159 179.34 -3.39235" stroke="#EAC2B2" stroke-opacity="0.05" stroke-width="2.5823" stroke-miterlimit="10"/>
<path d="M160.987 162.23C158.752 183.07 141.905 199.267 121.454 199.267C117.923 199.267 114.501 198.784 111.242 197.878" stroke="#EAC2B2" stroke-opacity="0.05" stroke-width="2.5823" stroke-miterlimit="10"/>
<path d="M111.242 197.874C112.097 201.28 112.557 204.854 112.557 208.541C112.557 231.605 94.7433 250.303 72.7704 250.303C69.2405 250.303 65.8217 249.818 62.5625 248.913" stroke="#EAC2B2" stroke-opacity="0.05" stroke-width="2.5823" stroke-miterlimit="10"/>
<path d="M62.5639 248.916C63.583 252.608 64.1281 256.514 64.1281 260.553C64.1281 283.615 46.3167 302.312 24.3434 302.312C19.5184 302.312 14.8939 301.411 10.6133 299.76" stroke="#EAC2B2" stroke-opacity="0.05" stroke-width="2.5823" stroke-miterlimit="10"/>
<path d="M416.16 -3.39177L633.843 225.143" stroke="#EAC2B2" stroke-opacity="0.05" stroke-width="2.5823" stroke-miterlimit="10"/>
<path d="M359.367 162.287C392.94 162.287 420.155 133.72 420.155 98.4799C420.155 97.5504 420.138 96.6243 420.099 95.7048" stroke="#EAC2B2" stroke-opacity="0.05" stroke-width="2.5823" stroke-miterlimit="10"/>
<path d="M376.871 51.2851L633.839 321.007" stroke="#EAC2B2" stroke-opacity="0.05" stroke-width="2.5823" stroke-miterlimit="10"/>
<path d="M341.129 118.99C363.271 116.368 380.481 96.6425 380.481 72.6979C380.481 64.9777 378.691 57.6953 375.523 51.2843" stroke="#EAC2B2" stroke-opacity="0.05" stroke-width="2.5823" stroke-miterlimit="10"/>
<path d="M375.52 51.2852C397.665 48.664 414.796 28.9376 414.796 4.99364C414.796 2.13093 414.549 -0.671672 414.078 -3.39239" stroke="#EAC2B2" stroke-opacity="0.05" stroke-width="2.5823" stroke-miterlimit="10"/>
<path d="M420.422 97.3369C465.762 97.3369 502.52 58.7574 502.52 11.1661C502.52 6.20419 502.121 1.33973 501.353 -3.39143" stroke="#EAC2B2" stroke-opacity="0.05" stroke-width="2.5823" stroke-miterlimit="10"/>
<path d="M358.73 162.228C360.966 183.068 377.812 199.265 398.263 199.265C401.792 199.265 405.214 198.782 408.475 197.876" stroke="#EAC2B2" stroke-opacity="0.05" stroke-width="2.5823" stroke-miterlimit="10"/>
<path d="M408.465 197.874C407.609 201.28 407.148 204.854 407.148 208.541C407.148 231.605 424.962 250.303 446.936 250.303C450.466 250.303 453.887 249.818 457.145 248.913" stroke="#EAC2B2" stroke-opacity="0.05" stroke-width="2.5823" stroke-miterlimit="10"/>
<path d="M179.77 118.099C226.655 136.067 260.127 183.292 260.127 238.724C260.127 242.732 259.953 246.701 259.609 250.619" stroke="#EAC2B2" stroke-opacity="0.05" stroke-width="2.5823" stroke-miterlimit="10"/>
<path d="M259.411 249.186C256.926 200.169 218.271 161.226 170.952 161.226C167.65 161.226 164.386 161.416 161.176 161.786" stroke="#EAC2B2" stroke-opacity="0.05" stroke-width="2.5823" stroke-miterlimit="10"/>
<path d="M161.176 161.788C170.098 113.211 210.682 76.4883 259.569 76.4883C308.449 76.4883 349.596 113.22 358.527 161.788" stroke="#EAC2B2" stroke-opacity="0.05" stroke-width="2.5823" stroke-miterlimit="10"/>
<path d="M358.527 161.787C355.315 161.417 352.055 161.227 348.75 161.227C301.43 161.227 262.776 200.169 260.289 249.186" stroke="#EAC2B2" stroke-opacity="0.05" stroke-width="2.5823" stroke-miterlimit="10"/>
<path d="M339.928 118.099C293.042 136.067 259.57 183.292 259.57 238.724C259.57 242.732 259.745 246.701 260.089 250.619" stroke="#EAC2B2" stroke-opacity="0.05" stroke-width="2.5823" stroke-miterlimit="10"/>
</g>
</svg>
