<svg width="38" height="13" viewBox="0 0 38 13" fill="none" xmlns="http://www.w3.org/2000/svg">
<path d="M37 5.75C37.4142 5.75 37.75 6.08579 37.75 6.5C37.75 6.91421 37.4142 7.25 37 7.25L37 5.75ZM0.469669 7.03033C0.176777 6.73744 0.176777 6.26257 0.469669 5.96967L5.24264 1.1967C5.53553 0.903808 6.01041 0.903808 6.3033 1.1967C6.59619 1.4896 6.59619 1.96447 6.3033 2.25736L2.06066 6.5L6.3033 10.7426C6.59619 11.0355 6.59619 11.5104 6.3033 11.8033C6.01041 12.0962 5.53553 12.0962 5.24264 11.8033L0.469669 7.03033ZM37 7.25L1 7.25L1 5.75L37 5.75L37 7.25Z" fill="#9C3F66"/>
</svg>
