<svg width="74" height="45" viewBox="0 0 74 45" fill="none" xmlns="http://www.w3.org/2000/svg">
<g id="&#209;&#129;&#208;&#177;&#208;&#181;&#209;&#128; &#208;&#191;&#208;&#181;&#208;&#185;">
<rect id="Rectangle 1326" x="0.128906" width="73.125" height="45" rx="1.5" fill="#21A038"/>
<g id="Group 5301">
<path id="Vector" d="M36.5751 23.308V26.5175H34.7188V16.2129H38.1775C41.4602 16.2129 42.8553 17.3768 42.8553 19.7029C42.8553 22.1018 41.2218 23.308 38.1775 23.308H36.5751ZM36.5751 17.9071V21.6139H38.319C40.0418 21.6139 40.933 21.0551 40.933 19.6569C40.933 18.3911 40.158 17.905 38.3501 17.905L36.5751 17.9071Z" fill="#FFF9EE"/>
<path id="Vector_2" d="M43.8354 19.6736C44.3235 19.3105 45.215 19.0107 46.494 19.0107C48.6621 19.0107 49.7318 19.7485 49.7318 21.6615V26.5189H48.0982V25.1936C47.7418 26.0464 46.8369 26.6361 45.6471 26.6361C44.1474 26.6361 43.2578 25.7968 43.2578 24.3544C43.2578 22.6757 44.4903 22.2051 46.3155 22.2051H47.9937V21.8823C47.9937 20.8375 47.4897 20.5128 46.494 20.5128C45.1279 20.5128 44.3411 21.0431 43.8372 21.8229L43.8354 19.6736ZM47.9918 23.9202V23.3248H46.523C45.498 23.3248 45.0078 23.5168 45.0078 24.1775C45.0078 24.7366 45.4223 25.09 46.1954 25.09C47.3678 25.09 47.9182 24.4274 47.9918 23.9202Z" fill="#FFF9EE"/>
<path id="Vector_3" d="M50.5898 19.1572H52.5277L54.5623 24.205L56.2248 19.1572H58.0656L55.0971 27.2973C54.4422 29.0624 53.7756 29.46 52.7951 29.46C52.3339 29.46 51.8263 29.3276 51.6072 29.1374V27.5317C51.846 27.7627 52.1648 27.8946 52.4987 27.9003C53.0314 27.9003 53.4327 27.547 53.7154 26.556L50.5898 19.1572Z" fill="#FFF9EE"/>
<path id="Vector_4" d="M20.2422 19.679V21.9397L23.2651 23.8183L30.5025 18.54C30.2471 17.9833 29.9272 17.4581 29.5491 16.9746L23.2651 21.5575L20.2422 19.679Z" fill="#FFF9EE"/>
<path id="Vector_5" d="M29.3689 21.6137V21.7772C29.3709 23.1312 28.9155 24.4468 28.0752 25.5144C27.2348 26.5821 26.0579 27.3397 24.7323 27.6669C23.4067 27.9941 22.0088 27.8716 20.7615 27.3193C19.5143 26.7669 18.4896 25.8165 17.851 24.6195C17.2124 23.4225 16.9965 22.0479 17.238 20.7153C17.4795 19.3824 18.1644 18.1684 19.1834 17.2665C20.2023 16.3645 21.4966 15.8269 22.8598 15.7393C24.223 15.6517 25.5766 16.0192 26.7044 16.7833L28.2546 15.6557C26.853 14.533 25.1081 13.9159 23.3061 13.9059C21.5042 13.8958 19.7522 14.4931 18.3379 15.6C16.9236 16.7069 15.931 18.2575 15.5229 19.9972C15.1147 21.7371 15.3154 23.5627 16.092 25.1746C16.8686 26.7863 18.1749 28.0885 19.7966 28.8674C21.4182 29.6463 23.2588 29.8558 25.0163 29.4612C26.7738 29.0665 28.3437 28.0913 29.4684 26.6958C30.593 25.3003 31.2058 23.5671 31.2058 21.7809C31.2056 21.3075 31.1628 20.8351 31.0779 20.3692L29.3689 21.6137Z" fill="#FFF9EE"/>
</g>
</g>
</svg>
