<svg width="85" height="31" viewBox="0 0 85 31" fill="none" xmlns="http://www.w3.org/2000/svg">
<path d="M42.2611 18.5021V24.8193H38.5703V4.53711H45.447C51.9735 4.53711 54.7473 6.82804 54.7473 11.4063C54.7473 16.1279 51.4995 18.5021 45.447 18.5021H42.2611ZM42.2611 7.87168V15.1677H45.7282C49.1535 15.1677 50.9253 14.0678 50.9253 11.3157C50.9253 8.82428 49.3845 7.86763 45.7901 7.86763L42.2611 7.87168Z" fill="#383742"/>
<path d="M56.703 11.3516C57.6736 10.6369 59.4459 10.0469 61.9888 10.0469C66.2994 10.0469 68.4261 11.4989 68.4261 15.2643V24.8249H65.1783V22.2163C64.4698 23.8949 62.6706 25.0555 60.3051 25.0555C57.3233 25.0555 55.5547 23.4036 55.5547 20.5645C55.5547 17.2604 58.0051 16.3342 61.634 16.3342H64.9704V15.6988C64.9704 13.6424 63.9686 13.0034 61.9888 13.0034C59.2727 13.0034 57.7086 14.047 56.7067 15.5819L56.703 11.3516ZM64.9668 19.7099V18.538H62.0466C60.0086 18.538 59.0339 18.9159 59.0339 20.2164C59.0339 21.3168 59.858 22.0125 61.3952 22.0125C63.7261 22.0125 64.8203 20.7082 64.9668 19.7099Z" fill="#383742"/>
<path d="M70.1328 10.3359H73.9856L78.0308 20.2713L81.3362 10.3359H84.9961L79.0941 26.3578C77.792 29.8318 76.4666 30.6143 74.5173 30.6143C73.6004 30.6143 72.5912 30.3538 72.1555 29.9795V26.8191C72.6303 27.2736 73.2641 27.5334 73.928 27.5446C74.987 27.5446 75.7849 26.8491 76.3469 24.8986L70.1328 10.3359Z" fill="#383742"/>
<path d="M9.79688 11.3639V15.8136L15.8069 19.5111L30.1963 9.12214C29.6885 8.02631 29.0524 6.99272 28.3008 6.04102L15.8069 15.0614L9.79688 11.3639Z" fill="#383742"/>
<path d="M27.9389 15.1712V15.493C27.943 18.1579 27.0376 20.7475 25.3668 22.8488C23.696 24.9502 21.3561 26.4415 18.7205 27.0855C16.0851 27.7294 13.3057 27.4883 10.8259 26.4012C8.34615 25.314 6.30891 23.4433 5.03921 21.0873C3.76951 18.7313 3.34042 16.0258 3.82057 13.4029C4.30072 10.7794 5.66229 8.38999 7.68822 6.6148C9.71414 4.83946 12.2875 3.78128 14.9978 3.60896C17.7081 3.4365 20.3991 4.1598 22.6415 5.66369L25.7236 3.44429C22.937 1.2345 19.4677 0.0200456 15.885 0.000249655C12.3025 -0.0196963 8.81927 1.15606 6.00731 3.33467C3.19535 5.51327 1.22186 8.5653 0.410451 11.9894C-0.400959 15.4141 -0.00197827 19.0072 1.54211 22.18C3.08606 25.3521 5.68324 27.9152 8.90747 29.4484C12.1316 30.9814 15.791 31.3938 19.2852 30.6171C22.7794 29.8403 25.9008 27.9206 28.1369 25.174C30.3728 22.4273 31.591 19.0159 31.591 15.5002C31.5907 14.5684 31.5056 13.6386 31.3368 12.7217L27.9389 15.1712Z" fill="#383742"/>
</svg>
