<svg width="86" height="47" viewBox="0 0 86 47" fill="none" xmlns="http://www.w3.org/2000/svg">
<mask id="mask0_1067_313061" style="mask-type:luminance" maskUnits="userSpaceOnUse" x="0" y="0" width="86" height="47">
<path d="M86 0H0V47H86V0Z" fill="white"/>
</mask>
<g mask="url(#mask0_1067_313061)">
<path d="M85.9975 17.4414V29.1591H81.7506V20.9417H77.6609V29.1591H73.4141V17.4414H85.9975Z" fill="#1B1818"/>
<path d="M71.4116 23.9704C71.4116 27.3826 68.4908 29.6337 64.5582 29.6337C60.4895 29.6337 57.5234 27.2503 57.5234 21.8485C57.5234 17.2136 60.5651 13.393 65.0687 13.3195C67.0411 13.3195 71.2788 13.2285 71.2788 13.2285L69.3698 16.6376C69.3698 16.6376 65.9928 16.6435 65.5458 16.6435C63.6036 16.6435 61.8367 18.0661 61.589 20.0116C62.622 19.0711 63.9933 18.5245 65.6576 18.5245C69.2551 18.5245 71.4116 20.667 71.4116 23.9704ZM67.053 23.9704C67.053 22.4391 66.0413 21.5428 64.5793 21.5428C63.072 21.5428 62.0633 22.4598 62.0633 23.9909C62.0633 25.4339 63.0751 26.4831 64.5793 26.4831C66.1531 26.4861 67.053 25.3487 67.053 23.9704Z" fill="#1B1818"/>
<path d="M54.1355 25.6197C54.1355 25.6197 53.1086 26.181 51.5772 26.2897C49.8132 26.3367 48.2456 25.2816 48.2456 23.4006C48.2456 21.5667 49.632 20.5147 51.5319 20.5147C52.6977 20.5147 54.2413 21.2846 54.2413 21.2846C54.2413 21.2846 55.3709 19.3126 55.9539 18.3309C54.8847 17.5581 53.456 17.1348 51.7977 17.1348C47.6113 17.1348 44.3672 19.7329 44.3672 23.3801C44.3672 27.0743 47.4149 29.6108 51.7977 29.5343C53.024 29.4903 54.7125 29.0817 55.7424 28.4528L54.1355 25.6197Z" fill="#1B1818"/>
<path d="M0 10.2324L5.87189 20.4071V26.6113L0.012105 36.7653L0 10.2324Z" fill="#5B57A2"/>
<path d="M22.5391 16.7028L28.0364 13.4347L39.2879 13.4258L22.5391 23.3801V16.7028Z" fill="#D90751"/>
<path d="M22.4991 10.1717L22.5292 23.641L16.6484 20.1348V0L22.4991 10.1717Z" fill="#FAB718"/>
<path d="M39.2779 13.4252L28.0266 13.434L22.4991 10.1717L16.6484 0L39.2779 13.4252Z" fill="#ED6F26"/>
<path d="M22.5292 36.8196V30.2834L16.6484 26.8477V47.0002L22.5292 36.8196Z" fill="#63B22F"/>
<path d="M28.0151 33.5825L5.87189 20.4071L0 10.2324L39.2576 33.5707L28.0151 33.5825Z" fill="#1487C9"/>
<path d="M16.6484 47.0013L22.5292 36.8207L28.0114 33.5821L39.2539 33.5703L16.6484 47.0013Z" fill="#017F36"/>
<path d="M0 36.7663L16.6853 26.8503L11.0731 23.5117L5.85979 26.6123L0 36.7663Z" fill="#984995"/>
</g>
</svg>
