<svg width="1600" height="826" viewBox="0 0 1600 826" fill="none" xmlns="http://www.w3.org/2000/svg">
<path d="M1370.72 -74.9791C1427.1 -55.4545 1466.61 -5.02849 1465.42 53.7654C1465.33 58.0189 1465.03 62.226 1464.54 66.3761" stroke="#EAC2B2" stroke-opacity="0.05" stroke-width="2" stroke-miterlimit="10"/>
<path d="M1464.34 64.7986C1462.4 13.0429 1416.69 -28.4322 1359.7 -28.896C1355.72 -28.9284 1351.79 -28.7616 1347.92 -28.4004" stroke="#EAC2B2" stroke-opacity="0.05" stroke-width="2" stroke-miterlimit="10"/>
<path d="M1584.11 -25.754C1580.25 -26.1781 1576.33 -26.4089 1572.35 -26.4412C1515.36 -26.905 1467.97 13.8124 1463.93 65.5194" stroke="#EAC2B2" stroke-opacity="0.05" stroke-width="2" stroke-miterlimit="10"/>
<path d="M1562.91 -72.8243C1505.76 -54.2371 1464.23 -4.48017 1463.04 54.3137C1462.95 58.5672 1463.08 62.7778 1463.41 66.9347" stroke="#EAC2B2" stroke-opacity="0.05" stroke-width="2" stroke-miterlimit="10"/>
<path d="M1550.37 748.335C1494 728.809 1454.49 678.383 1455.68 619.587C1455.76 615.334 1456.06 611.128 1456.56 606.978" stroke="#EAC2B2" stroke-opacity="0.05" stroke-width="2" stroke-miterlimit="10"/>
<path d="M1456.75 608.553C1458.69 660.309 1504.41 701.786 1561.4 702.25C1565.38 702.282 1569.31 702.113 1573.18 701.753" stroke="#EAC2B2" stroke-opacity="0.05" stroke-width="2" stroke-miterlimit="10"/>
<path d="M1573.83 703.322C1562.15 754.14 1512.77 792.185 1454.17 791.651C1395.6 791.117 1347.03 752.17 1337.32 701.166" stroke="#EAC2B2" stroke-opacity="0.05" stroke-width="2" stroke-miterlimit="10"/>
<path d="M1336.99 699.115C1340.85 699.538 1344.77 699.77 1348.75 699.803C1405.74 700.267 1453.12 659.547 1457.17 607.84" stroke="#EAC2B2" stroke-opacity="0.05" stroke-width="2" stroke-miterlimit="10"/>
<path d="M1358.18 746.184C1415.33 727.595 1456.86 677.839 1458.05 619.043C1458.14 614.79 1458.01 610.58 1457.68 606.423" stroke="#EAC2B2" stroke-opacity="0.05" stroke-width="2" stroke-miterlimit="10"/>
<path d="M229.785 729.53C173.404 710.004 133.895 659.578 135.085 600.782C135.171 596.53 135.467 592.324 135.966 588.173" stroke="#EAC2B2" stroke-opacity="0.05" stroke-width="2" stroke-miterlimit="10"/>
<path d="M136.159 589.749C138.1 641.504 183.817 682.981 240.803 683.445C244.782 683.477 248.715 683.309 252.592 682.948" stroke="#EAC2B2" stroke-opacity="0.05" stroke-width="2" stroke-miterlimit="10"/>
<path d="M253.239 684.517C241.556 735.336 192.171 773.381 133.581 772.847C74.9998 772.313 26.4355 733.365 16.7197 682.361" stroke="#EAC2B2" stroke-opacity="0.05" stroke-width="2" stroke-miterlimit="10"/>
<path d="M16.391 680.306C20.2496 680.729 24.1747 680.962 28.1539 680.994C85.1433 681.458 132.53 640.739 136.578 589.032" stroke="#EAC2B2" stroke-opacity="0.05" stroke-width="2" stroke-miterlimit="10"/>
<path d="M37.5859 727.375C94.7376 708.787 136.273 659.03 137.463 600.234C137.549 595.981 137.422 591.772 137.092 587.614" stroke="#EAC2B2" stroke-opacity="0.05" stroke-width="2" stroke-miterlimit="10"/>
<path d="M486.309 323.48L505.43 323.676" stroke="#EAC2B2" stroke-opacity="0.05" stroke-width="2" stroke-miterlimit="10"/>
<path d="M428.461 536.883L582.25 398.796L503.321 323.668L585.036 250.187L436.48 109.144" stroke="#EAC2B2" stroke-opacity="0.05" stroke-width="2" stroke-miterlimit="10"/>
<path d="M10.1546 -165.217L-305.031 117.586" stroke="#EAC2B2" stroke-opacity="0.05" stroke-width="2" stroke-miterlimit="10"/>
<path d="M332.434 -217.999L589.833 26.1535" stroke="#EAC2B2" stroke-opacity="0.05" stroke-width="2" stroke-miterlimit="10"/>
<path d="M492.824 39.4904C461.172 46.8293 437.407 73.0581 436.785 104.495C436.765 105.483 436.77 106.465 436.796 107.442" stroke="#EAC2B2" stroke-opacity="0.05" stroke-width="2" stroke-miterlimit="10"/>
<path d="M284.694 -159.576L588.545 128.578" stroke="#EAC2B2" stroke-opacity="0.05" stroke-width="2" stroke-miterlimit="10"/>
<path d="M320.984 -4.02463C319.881 -0.428283 319.252 3.34938 319.174 7.25226C318.69 31.6633 339.753 51.6386 366.22 51.8674C370.472 51.9042 374.603 51.4271 378.546 50.5026" stroke="#EAC2B2" stroke-opacity="0.05" stroke-width="2" stroke-miterlimit="10"/>
<path d="M378.099 51.5857C376.794 55.4816 376.055 59.6082 375.97 63.881C375.486 88.2814 396.54 108.248 422.997 108.477C428.806 108.527 434.394 107.623 439.582 105.92" stroke="#EAC2B2" stroke-opacity="0.05" stroke-width="2" stroke-miterlimit="10"/>
<path d="M590.865 -49.1761C537.23 -49.6398 492.958 -9.91474 491.977 39.5508" stroke="#EAC2B2" stroke-opacity="0.05" stroke-width="2" stroke-miterlimit="10"/>
<path d="M438.068 108.614C397.055 126.385 368.262 164.523 367.396 208.95C366.189 270.854 419.664 321.53 486.833 322.135" stroke="#EAC2B2" stroke-opacity="0.05" stroke-width="2" stroke-miterlimit="10"/>
<path d="M16.8769 680.864C-23.5749 680.515 -56.9665 710.477 -57.7073 747.787C-57.7268 748.772 -57.7262 749.75 -57.6975 750.727" stroke="#EAC2B2" stroke-opacity="0.05" stroke-width="2" stroke-miterlimit="10"/>
<path d="M-5.14088 796.598L-308.994 508.443" stroke="#EAC2B2" stroke-opacity="0.05" stroke-width="2" stroke-miterlimit="10"/>
<path d="M37.8388 727.59C11.0031 730.138 -10.2211 750.904 -10.7209 776.34C-10.8821 784.541 -8.86898 792.294 -5.17169 799.139" stroke="#EAC2B2" stroke-opacity="0.05" stroke-width="2" stroke-miterlimit="10"/>
<path d="M224.764 865.304C225.249 840.847 204.81 821.457 178.293 821.228" stroke="#EAC2B2" stroke-opacity="0.05" stroke-width="2" stroke-miterlimit="10"/>
<path d="M178.741 820.139C179.209 795.824 158.19 775.915 131.793 775.671C105.396 775.426 83.6205 794.939 83.1523 819.254" stroke="#EAC2B2" stroke-opacity="0.05" stroke-width="2" stroke-miterlimit="10"/>
<path d="M84.0579 819.624C57.5375 819.395 35.9933 839.041 35.5078 863.5" stroke="#EAC2B2" stroke-opacity="0.05" stroke-width="2" stroke-miterlimit="10"/>
<path d="M17.1781 680.184C14.9259 658.167 -4.9811 640.893 -29.5549 640.676C-33.7971 640.638 -37.9196 641.112 -41.8537 642.034" stroke="#EAC2B2" stroke-opacity="0.05" stroke-width="2" stroke-miterlimit="10"/>
<path d="M311.355 865.688L582.745 622.132" stroke="#EAC2B2" stroke-opacity="0.05" stroke-width="2" stroke-miterlimit="10"/>
<path d="M252.689 684.634C293.14 684.983 325.33 715.512 324.59 752.822C324.57 753.807 324.531 754.785 324.464 755.761" stroke="#EAC2B2" stroke-opacity="0.05" stroke-width="2" stroke-miterlimit="10"/>
<path d="M484.364 607.16C453.014 599.275 430.295 572.64 430.917 541.203C430.937 540.216 430.98 539.235 431.044 538.26" stroke="#EAC2B2" stroke-opacity="0.05" stroke-width="2" stroke-miterlimit="10"/>
<path d="M269.395 802.238L584.578 519.435" stroke="#EAC2B2" stroke-opacity="0.05" stroke-width="2" stroke-miterlimit="10"/>
<path d="M230.409 730.59C257.132 733.613 277.532 754.747 277.032 780.183C276.87 788.384 274.555 796.099 270.59 802.876" stroke="#EAC2B2" stroke-opacity="0.05" stroke-width="2" stroke-miterlimit="10"/>
<path d="M270.288 803.796C296.982 806.813 317.26 827.924 316.758 853.333C316.668 857.863 315.919 862.242 314.602 866.398" stroke="#EAC2B2" stroke-opacity="0.05" stroke-width="2" stroke-miterlimit="10"/>
<path d="M324.213 755.622C378.908 756.095 422.439 797.375 421.438 847.82C421.304 854.569 420.382 861.139 418.749 867.459" stroke="#EAC2B2" stroke-opacity="0.05" stroke-width="2" stroke-miterlimit="10"/>
<path d="M251.801 683.848C254.919 661.878 275.497 644.961 300.071 645.178C304.312 645.216 308.414 645.762 312.312 646.754" stroke="#EAC2B2" stroke-opacity="0.05" stroke-width="2" stroke-miterlimit="10"/>
<path d="M311.409 646.389C310.45 642.775 309.971 638.986 310.048 635.083C310.533 610.673 332.382 591.069 358.849 591.297C363.101 591.334 367.212 591.884 371.117 592.875" stroke="#EAC2B2" stroke-opacity="0.05" stroke-width="2" stroke-miterlimit="10"/>
<path d="M370.084 592.442C368.934 588.522 368.359 584.387 368.443 580.114C368.928 555.713 390.766 536.118 417.223 536.347C423.032 536.398 428.583 537.399 433.701 539.191" stroke="#EAC2B2" stroke-opacity="0.05" stroke-width="2" stroke-miterlimit="10"/>
<path d="M579.72 698.34C526.085 697.876 483.405 657.399 484.387 607.931" stroke="#EAC2B2" stroke-opacity="0.05" stroke-width="2" stroke-miterlimit="10"/>
<path d="M430.853 536.717C390.547 518.212 363.25 479.57 364.117 435.144C365.323 373.238 420.755 323.545 487.924 324.15" stroke="#EAC2B2" stroke-opacity="0.05" stroke-width="2" stroke-miterlimit="10"/>
<path d="M850.576 -212.088L583.574 27.5312" stroke="#EAC2B2" stroke-opacity="0.05" stroke-width="2" stroke-miterlimit="10"/>
<path d="M681.917 42.4826C713.266 50.3699 735.985 77.0034 735.363 108.441C735.344 109.428 735.3 110.41 735.237 111.386" stroke="#EAC2B2" stroke-opacity="0.05" stroke-width="2" stroke-miterlimit="10"/>
<path d="M896.883 -152.588L581.699 130.215" stroke="#EAC2B2" stroke-opacity="0.05" stroke-width="2" stroke-miterlimit="10"/>
<path d="M586.559 -48.6954C640.19 -48.2317 682.874 -7.75488 681.892 41.7106" stroke="#EAC2B2" stroke-opacity="0.05" stroke-width="2" stroke-miterlimit="10"/>
<path d="M735.424 112.925C775.73 131.429 803.026 170.072 802.16 214.499C800.953 276.403 745.522 326.097 678.352 325.492" stroke="#EAC2B2" stroke-opacity="0.05" stroke-width="2" stroke-miterlimit="10"/>
<path d="M838.057 871.699L576.427 623.535" stroke="#EAC2B2" stroke-opacity="0.05" stroke-width="2" stroke-miterlimit="10"/>
<path d="M673.453 610.152C705.104 602.815 728.869 576.586 729.491 545.148C729.511 544.161 729.506 543.179 729.481 542.204" stroke="#EAC2B2" stroke-opacity="0.05" stroke-width="2" stroke-miterlimit="10"/>
<path d="M881.584 809.227L577.733 521.072" stroke="#EAC2B2" stroke-opacity="0.05" stroke-width="2" stroke-miterlimit="10"/>
<path d="M575.41 698.824C629.041 699.288 673.317 659.563 674.299 610.094" stroke="#EAC2B2" stroke-opacity="0.05" stroke-width="2" stroke-miterlimit="10"/>
<path d="M728.204 541.035C769.217 523.263 798.01 485.127 798.877 440.701C800.083 378.795 746.609 328.12 679.439 327.515" stroke="#EAC2B2" stroke-opacity="0.05" stroke-width="2" stroke-miterlimit="10"/>
<path d="M679.962 326.24L663.953 326.012" stroke="#EAC2B2" stroke-opacity="0.05" stroke-width="2" stroke-miterlimit="10"/>
<path d="M766.7 -211.815L1024.1 32.3371" stroke="#EAC2B2" stroke-opacity="0.05" stroke-width="2" stroke-miterlimit="10"/>
<path d="M927.101 45.6701C895.446 53.009 871.684 79.2378 871.062 110.675C871.043 111.663 871.047 112.645 871.073 113.622" stroke="#EAC2B2" stroke-opacity="0.05" stroke-width="2" stroke-miterlimit="10"/>
<path d="M718.96 -153.393L1022.81 134.762" stroke="#EAC2B2" stroke-opacity="0.05" stroke-width="2" stroke-miterlimit="10"/>
<path d="M1025.13 -42.9925C971.502 -43.4562 927.228 -3.73115 926.246 45.7344" stroke="#EAC2B2" stroke-opacity="0.05" stroke-width="2" stroke-miterlimit="10"/>
<path d="M872.339 114.794C831.322 132.565 802.532 170.703 801.666 215.13C800.459 277.034 853.932 327.709 921.102 328.314" stroke="#EAC2B2" stroke-opacity="0.05" stroke-width="2" stroke-miterlimit="10"/>
<path d="M745.613 871.871L1017 628.316" stroke="#EAC2B2" stroke-opacity="0.05" stroke-width="2" stroke-miterlimit="10"/>
<path d="M918.637 613.344C887.284 605.458 864.568 578.824 865.19 547.386C865.21 546.4 865.254 545.418 865.318 544.444" stroke="#EAC2B2" stroke-opacity="0.05" stroke-width="2" stroke-miterlimit="10"/>
<path d="M703.668 808.422L1018.85 525.619" stroke="#EAC2B2" stroke-opacity="0.05" stroke-width="2" stroke-miterlimit="10"/>
<path d="M1013.99 704.527C960.357 704.063 917.675 663.587 918.657 614.118" stroke="#EAC2B2" stroke-opacity="0.05" stroke-width="2" stroke-miterlimit="10"/>
<path d="M865.127 542.9C824.817 524.396 797.524 485.754 798.39 441.328C799.597 379.422 855.027 329.728 922.197 330.333" stroke="#EAC2B2" stroke-opacity="0.05" stroke-width="2" stroke-miterlimit="10"/>
<path d="M920.578 329.668L936.388 329.893" stroke="#EAC2B2" stroke-opacity="0.05" stroke-width="2" stroke-miterlimit="10"/>
<path d="M1113.77 332.415L1090.95 332.09" stroke="#EAC2B2" stroke-opacity="0.05" stroke-width="2" stroke-miterlimit="10"/>
<path d="M1162.53 546.662L1013.98 405.618L1095.69 332.061L1016.76 257.01L1170.55 118.923" stroke="#EAC2B2" stroke-opacity="0.05" stroke-width="2" stroke-miterlimit="10"/>
<path d="M1284.39 -205.912L1017.39 33.707" stroke="#EAC2B2" stroke-opacity="0.05" stroke-width="2" stroke-miterlimit="10"/>
<path d="M1115.73 48.6623C1147.08 56.5497 1169.8 83.183 1169.18 114.62C1169.16 115.608 1169.11 116.59 1169.05 117.566" stroke="#EAC2B2" stroke-opacity="0.05" stroke-width="2" stroke-miterlimit="10"/>
<path d="M1330.7 -146.412L1015.51 136.391" stroke="#EAC2B2" stroke-opacity="0.05" stroke-width="2" stroke-miterlimit="10"/>
<path d="M1348.28 -28.0269C1345.16 -6.05576 1324.58 10.8605 1300.01 10.6435C1295.77 10.606 1291.67 10.0606 1287.77 9.06922" stroke="#EAC2B2" stroke-opacity="0.05" stroke-width="2" stroke-miterlimit="10"/>
<path d="M1288.67 9.43341C1289.63 13.0476 1290.1 16.8348 1290.03 20.7377C1289.54 45.1487 1267.7 64.7531 1241.23 64.5243C1236.98 64.4875 1232.87 63.9391 1228.96 62.9468" stroke="#EAC2B2" stroke-opacity="0.05" stroke-width="2" stroke-miterlimit="10"/>
<path d="M1230 63.3804C1231.15 67.2975 1231.72 71.4354 1231.64 75.7083C1231.15 100.109 1209.32 119.704 1182.86 119.475C1177.05 119.425 1171.5 118.424 1166.38 116.632" stroke="#EAC2B2" stroke-opacity="0.05" stroke-width="2" stroke-miterlimit="10"/>
<path d="M1020.37 -42.5157C1074 -42.052 1116.68 -1.57521 1115.7 47.8903" stroke="#EAC2B2" stroke-opacity="0.05" stroke-width="2" stroke-miterlimit="10"/>
<path d="M1169.23 119.101C1209.54 137.605 1236.83 176.248 1235.96 220.675C1234.76 282.579 1179.33 332.273 1112.16 331.668" stroke="#EAC2B2" stroke-opacity="0.05" stroke-width="2" stroke-miterlimit="10"/>
<path d="M1605.23 -140.776L1909.08 147.379" stroke="#EAC2B2" stroke-opacity="0.05" stroke-width="2" stroke-miterlimit="10"/>
<path d="M1582.9 -24.3594C1585.15 -2.34079 1605.06 14.933 1629.63 15.15C1633.88 15.1874 1638 14.7146 1641.93 13.7924" stroke="#EAC2B2" stroke-opacity="0.05" stroke-width="2" stroke-miterlimit="10"/>
<path d="M1271.87 877.87L1010.24 629.707" stroke="#EAC2B2" stroke-opacity="0.05" stroke-width="2" stroke-miterlimit="10"/>
<path d="M1337.42 699.669C1296.96 699.319 1263.57 729.281 1262.83 766.591C1262.81 767.576 1262.82 768.555 1262.84 769.532" stroke="#EAC2B2" stroke-opacity="0.05" stroke-width="2" stroke-miterlimit="10"/>
<path d="M1107.27 616.332C1138.92 608.995 1162.68 582.765 1163.3 551.328C1163.32 550.341 1163.32 549.359 1163.3 548.384" stroke="#EAC2B2" stroke-opacity="0.05" stroke-width="2" stroke-miterlimit="10"/>
<path d="M1315.4 815.398L1011.55 527.244" stroke="#EAC2B2" stroke-opacity="0.05" stroke-width="2" stroke-miterlimit="10"/>
<path d="M1358.38 746.394C1331.55 748.943 1310.32 769.709 1309.82 795.144C1309.66 803.346 1311.67 811.099 1315.37 817.944" stroke="#EAC2B2" stroke-opacity="0.05" stroke-width="2" stroke-miterlimit="10"/>
<path d="M1316.38 818.433C1289.58 820.983 1268.48 841.733 1267.97 867.141C1267.88 871.671 1268.46 876.062 1269.61 880.239" stroke="#EAC2B2" stroke-opacity="0.05" stroke-width="2" stroke-miterlimit="10"/>
<path d="M1264.13 768.456C1209.43 767.982 1164.29 808.494 1163.28 858.939C1163.15 865.688 1163.81 872.272 1165.19 878.618" stroke="#EAC2B2" stroke-opacity="0.05" stroke-width="2" stroke-miterlimit="10"/>
<path d="M1499.28 838.944C1499.75 814.629 1478.73 794.72 1452.33 794.475C1425.94 794.231 1404.16 813.744 1403.69 838.059" stroke="#EAC2B2" stroke-opacity="0.05" stroke-width="2" stroke-miterlimit="10"/>
<path d="M1337.72 698.985C1335.46 676.967 1315.56 659.694 1290.98 659.477C1286.74 659.439 1282.62 659.913 1278.69 660.835" stroke="#EAC2B2" stroke-opacity="0.05" stroke-width="2" stroke-miterlimit="10"/>
<path d="M1279.1 659.847C1280.2 656.25 1280.82 652.471 1280.9 648.568C1281.39 624.158 1260.33 604.183 1233.86 603.954C1229.61 603.917 1225.48 604.396 1221.53 605.319" stroke="#EAC2B2" stroke-opacity="0.05" stroke-width="2" stroke-miterlimit="10"/>
<path d="M1221.98 604.233C1223.28 600.334 1224.02 596.21 1224.11 591.938C1224.59 567.536 1203.54 547.571 1177.08 547.342C1171.27 547.291 1165.69 548.196 1160.5 549.898" stroke="#EAC2B2" stroke-opacity="0.05" stroke-width="2" stroke-miterlimit="10"/>
<path d="M1009.22 704.996C1062.85 705.46 1107.13 665.735 1108.11 616.266" stroke="#EAC2B2" stroke-opacity="0.05" stroke-width="2" stroke-miterlimit="10"/>
<path d="M1162.02 547.207C1203.03 529.435 1231.82 491.299 1232.69 446.873C1233.89 384.967 1180.42 334.292 1113.25 333.687" stroke="#EAC2B2" stroke-opacity="0.05" stroke-width="2" stroke-miterlimit="10"/>
<path d="M1573.23 703.435C1613.68 703.784 1645.87 734.313 1645.13 771.623C1645.11 772.608 1645.07 773.586 1645.01 774.562" stroke="#EAC2B2" stroke-opacity="0.05" stroke-width="2" stroke-miterlimit="10"/>
<path d="M1589.93 821.039L1905.12 538.236" stroke="#EAC2B2" stroke-opacity="0.05" stroke-width="2" stroke-miterlimit="10"/>
<path d="M1550.94 749.391C1577.67 752.413 1598.07 773.548 1597.57 798.983C1597.41 807.185 1595.09 814.9 1591.13 821.677" stroke="#EAC2B2" stroke-opacity="0.05" stroke-width="2" stroke-miterlimit="10"/>
<path d="M1590.83 822.6C1617.53 825.618 1637.8 846.729 1637.3 872.138C1637.21 876.667 1636.47 881.047 1635.15 885.202" stroke="#EAC2B2" stroke-opacity="0.05" stroke-width="2" stroke-miterlimit="10"/>
<path d="M1572.33 702.648C1575.45 680.678 1596.03 663.762 1620.61 663.979C1624.85 664.017 1628.95 664.563 1632.85 665.554" stroke="#EAC2B2" stroke-opacity="0.05" stroke-width="2" stroke-miterlimit="10"/>
<path d="M50.0088 -92.9049C106.394 -73.3762 145.908 -22.9447 144.718 35.8573C144.632 40.109 144.336 44.3171 143.836 48.4701" stroke="#EAC2B2" stroke-opacity="0.05" stroke-width="2" stroke-miterlimit="10"/>
<path d="M143.641 46.8887C141.7 -4.87183 95.9786 -46.3537 38.9843 -46.8175C35.0075 -46.8498 31.0723 -46.6815 27.1978 -46.3225" stroke="#EAC2B2" stroke-opacity="0.05" stroke-width="2" stroke-miterlimit="10"/>
<path d="M263.42 -43.6799C259.559 -44.1019 255.636 -44.3341 251.655 -44.3665C194.661 -44.8303 147.267 -4.10626 143.219 47.6055" stroke="#EAC2B2" stroke-opacity="0.05" stroke-width="2" stroke-miterlimit="10"/>
<path d="M242.218 -90.7498C185.061 -72.1586 143.52 -22.3963 142.33 36.4056C142.244 40.6573 142.369 44.8689 142.702 49.0287" stroke="#EAC2B2" stroke-opacity="0.05" stroke-width="2" stroke-miterlimit="10"/>
<path d="M729.791 540.498L581.234 399.454L662.949 325.897L584.02 250.846L737.81 112.759" stroke="#EAC2B2" stroke-opacity="0.05" stroke-width="2" stroke-miterlimit="10"/>
<path d="M862.73 543.07L1016.52 404.983L937.592 329.855L1019.31 256.375L870.75 115.332" stroke="#EAC2B2" stroke-opacity="0.05" stroke-width="2" stroke-miterlimit="10"/>
</svg>
