<svg width="1600" height="649" viewBox="0 0 1600 649" fill="none" xmlns="http://www.w3.org/2000/svg">
<mask id="mask0_4111_163142" style="mask-type:alpha" maskUnits="userSpaceOnUse" x="0" y="0" width="1600" height="649">
<path d="M0 0H1600V599C1600 626.614 1577.61 649 1550 649H50C22.3858 649 0 626.614 0 599V0Z" fill="#484848"/>
<path d="M0.75 0.75H1599.25V599C1599.25 626.2 1577.2 648.25 1550 648.25H50C22.8 648.25 0.75 626.2 0.75 599V0.75Z" stroke="#EAC2B2" stroke-opacity="0.05" stroke-width="1.5"/>
</mask>
<g mask="url(#mask0_4111_163142)">
<path d="M1618.39 66.9163C1649.53 34.8461 1661.6 -11.3893 1645.46 -52.7863C1622.97 -110.475 1554.21 -136.926 1491.88 -111.87" stroke="#EAC2B2" stroke-opacity="0.05" stroke-width="2" stroke-miterlimit="10"/>
<path d="M1229.73 430.954C1170.17 434.404 1114.42 402.856 1093.09 348.05C1091.55 344.086 1090.22 340.085 1089.1 336.058" stroke="#EAC2B2" stroke-opacity="0.05" stroke-width="2" stroke-miterlimit="10"/>
<path d="M1089.88 337.438C1111.41 384.542 1169.49 405.45 1222.35 384.147C1226.04 382.659 1229.61 381.003 1233.05 379.193" stroke="#EAC2B2" stroke-opacity="0.05" stroke-width="2" stroke-miterlimit="10"/>
<path d="M1234.25 380.397C1242.83 431.83 1211.69 485.833 1157.32 507.683C1102.97 529.529 1043.22 512.046 1014.79 468.601" stroke="#EAC2B2" stroke-opacity="0.05" stroke-width="2" stroke-miterlimit="10"/>
<path d="M1013.7 466.827C1017.43 465.747 1021.15 464.465 1024.84 462.978C1077.69 441.674 1105.97 385.96 1090 336.617" stroke="#EAC2B2" stroke-opacity="0.05" stroke-width="2" stroke-miterlimit="10"/>
<path d="M1051.25 502.258C1096.99 463.28 1116.41 401.443 1095.09 346.637C1093.54 342.673 1091.82 338.83 1089.93 335.112" stroke="#EAC2B2" stroke-opacity="0.05" stroke-width="2" stroke-miterlimit="10"/>
<path d="M84.0488 444.004L101.799 436.893" stroke="#EAC2B2" stroke-opacity="0.05" stroke-width="2" stroke-miterlimit="10"/>
<path d="M111.953 663.34L201.46 477.039L99.8439 437.69L147.362 338.599L-43.7557 264.869" stroke="#EAC2B2" stroke-opacity="0.05" stroke-width="2" stroke-miterlimit="10"/>
<path d="M-264.699 2.12589L66.3566 129.666" stroke="#EAC2B2" stroke-opacity="0.05" stroke-width="2" stroke-miterlimit="10"/>
<path d="M-18.2334 178.99C-44.6944 197.845 -56.6611 231.155 -45.2474 260.453C-44.8887 261.374 -44.5099 262.28 -44.1137 263.173" stroke="#EAC2B2" stroke-opacity="0.05" stroke-width="2" stroke-miterlimit="10"/>
<path d="M-286.551 74.341L104.227 224.843" stroke="#EAC2B2" stroke-opacity="0.05" stroke-width="2" stroke-miterlimit="10"/>
<path d="M38.5861 59.6337C-11.1725 79.6592 -36.9487 133.265 -18.9922 179.367" stroke="#EAC2B2" stroke-opacity="0.05" stroke-width="2" stroke-miterlimit="10"/>
<path d="M-42.4945 263.77C-73.631 295.838 -85.704 342.074 -69.5619 383.475C-47.0701 441.16 21.6894 467.613 84.0126 442.557" stroke="#EAC2B2" stroke-opacity="0.05" stroke-width="2" stroke-miterlimit="10"/>
<path d="M1618.66 66.2103L1427.54 -7.51933L1475.03 -106.682L1373.44 -145.96L1462.95 -332.262" stroke="#EAC2B2" stroke-opacity="0.05" stroke-width="2" stroke-miterlimit="10"/>
<path d="M1815.81 318.817L1509.55 200.831" stroke="#EAC2B2" stroke-opacity="0.05" stroke-width="2" stroke-miterlimit="10"/>
<path d="M1537.32 271.051C1587.08 251.026 1612.86 197.419 1594.9 151.316" stroke="#EAC2B2" stroke-opacity="0.05" stroke-width="2" stroke-miterlimit="10"/>
<path d="M190.43 706.986C158.442 711.652 127.283 695.695 115.869 666.396C115.511 665.476 115.177 664.552 114.864 663.627" stroke="#EAC2B2" stroke-opacity="0.05" stroke-width="2" stroke-miterlimit="10"/>
<path d="M66.1035 969.301L249.619 587.672" stroke="#EAC2B2" stroke-opacity="0.05" stroke-width="2" stroke-miterlimit="10"/>
<path d="M114.1 662.274C69.7828 660.538 29.8131 635.227 13.6714 593.828C-8.82126 536.14 23.4703 469.062 85.7934 444.006" stroke="#EAC2B2" stroke-opacity="0.05" stroke-width="2" stroke-miterlimit="10"/>
<path d="M216.538 -190.009L61.0957 133.324" stroke="#EAC2B2" stroke-opacity="0.05" stroke-width="2" stroke-miterlimit="10"/>
<path d="M157.711 109.645C189.699 104.981 220.858 120.938 232.272 150.236C232.631 151.157 232.965 152.081 233.278 153.007" stroke="#EAC2B2" stroke-opacity="0.05" stroke-width="2" stroke-miterlimit="10"/>
<path d="M282.037 -152.664L98.5215 228.965" stroke="#EAC2B2" stroke-opacity="0.05" stroke-width="2" stroke-miterlimit="10"/>
<path d="M34.7873 61.7236C84.5421 41.6995 139.436 62.8396 157.393 108.941" stroke="#EAC2B2" stroke-opacity="0.05" stroke-width="2" stroke-miterlimit="10"/>
<path d="M234.039 154.357C278.355 156.091 318.325 181.404 334.467 222.805C356.959 280.49 324.669 347.568 262.344 372.625" stroke="#EAC2B2" stroke-opacity="0.05" stroke-width="2" stroke-miterlimit="10"/>
<path d="M618.279 816.646L281.782 687.012" stroke="#EAC2B2" stroke-opacity="0.05" stroke-width="2" stroke-miterlimit="10"/>
<path d="M366.371 637.641C392.832 618.788 404.798 585.477 393.384 556.178C393.026 555.259 392.647 554.353 392.252 553.461" stroke="#EAC2B2" stroke-opacity="0.05" stroke-width="2" stroke-miterlimit="10"/>
<path d="M634.692 742.296L243.913 591.794" stroke="#EAC2B2" stroke-opacity="0.05" stroke-width="2" stroke-miterlimit="10"/>
<path d="M309.555 757C359.31 736.976 385.089 683.368 367.132 637.264" stroke="#EAC2B2" stroke-opacity="0.05" stroke-width="2" stroke-miterlimit="10"/>
<path d="M390.627 552.865C421.763 520.795 433.837 474.561 417.695 433.162C395.202 375.474 326.444 349.021 264.119 374.078" stroke="#EAC2B2" stroke-opacity="0.05" stroke-width="2" stroke-miterlimit="10"/>
<path d="M264.117 372.703L249.23 378.598" stroke="#EAC2B2" stroke-opacity="0.05" stroke-width="2" stroke-miterlimit="10"/>
<path d="M139.105 -157.769L470.162 -30.2292" stroke="#EAC2B2" stroke-opacity="0.05" stroke-width="2" stroke-miterlimit="10"/>
<path d="M385.578 19.0881C359.115 37.944 347.151 71.2525 358.565 100.551C358.924 101.472 359.303 102.378 359.699 103.271" stroke="#EAC2B2" stroke-opacity="0.05" stroke-width="2" stroke-miterlimit="10"/>
<path d="M117.253 -85.5535L508.029 64.949" stroke="#EAC2B2" stroke-opacity="0.05" stroke-width="2" stroke-miterlimit="10"/>
<path d="M442.392 -100.26C392.637 -80.2363 366.858 -26.6291 384.814 19.4727" stroke="#EAC2B2" stroke-opacity="0.05" stroke-width="2" stroke-miterlimit="10"/>
<path d="M361.319 103.871C330.179 135.941 318.109 182.176 334.251 223.576C356.742 281.262 425.5 307.715 487.825 282.659" stroke="#EAC2B2" stroke-opacity="0.05" stroke-width="2" stroke-miterlimit="10"/>
<path d="M532.891 852.062L690.89 523.416" stroke="#EAC2B2" stroke-opacity="0.05" stroke-width="2" stroke-miterlimit="10"/>
<path d="M594.244 547.087C562.253 551.755 531.097 535.796 519.683 506.497C519.325 505.577 518.991 504.654 518.679 503.728" stroke="#EAC2B2" stroke-opacity="0.05" stroke-width="2" stroke-miterlimit="10"/>
<path d="M469.912 809.402L653.425 427.774" stroke="#EAC2B2" stroke-opacity="0.05" stroke-width="2" stroke-miterlimit="10"/>
<path d="M717.163 595.016C667.408 615.04 612.515 593.9 594.558 547.795" stroke="#EAC2B2" stroke-opacity="0.05" stroke-width="2" stroke-miterlimit="10"/>
<path d="M517.913 502.375C473.592 500.641 433.626 475.328 417.484 433.929C394.991 376.241 427.281 309.165 489.606 284.108" stroke="#EAC2B2" stroke-opacity="0.05" stroke-width="2" stroke-miterlimit="10"/>
<path d="M487.855 284.109L502.556 278.288" stroke="#EAC2B2" stroke-opacity="0.05" stroke-width="2" stroke-miterlimit="10"/>
<path d="M667.501 212.973L646.281 221.375" stroke="#EAC2B2" stroke-opacity="0.05" stroke-width="2" stroke-miterlimit="10"/>
<path d="M794.277 392.434L603.159 318.703L650.649 219.541L549.062 180.263L638.568 -6.03714" stroke="#EAC2B2" stroke-opacity="0.05" stroke-width="2" stroke-miterlimit="10"/>
<path d="M1339.87 177.121L1429.38 -9.18018L1327.76 -48.5304L1375.28 -147.62L1184.16 -221.35" stroke="#EAC2B2" stroke-opacity="0.05" stroke-width="2" stroke-miterlimit="10"/>
<path d="M561.094 -50.0813C593.085 -54.7467 624.241 -38.789 635.655 -9.49037C636.014 -8.56965 636.348 -7.64569 636.662 -6.7196" stroke="#EAC2B2" stroke-opacity="0.05" stroke-width="2" stroke-miterlimit="10"/>
<path d="M685.419 -312.394L501.904 69.2344" stroke="#EAC2B2" stroke-opacity="0.05" stroke-width="2" stroke-miterlimit="10"/>
<path d="M637.417 -5.36879C681.733 -3.63468 721.701 21.6792 737.843 63.0794C760.335 120.765 728.046 187.843 665.723 212.898" stroke="#EAC2B2" stroke-opacity="0.05" stroke-width="2" stroke-miterlimit="10"/>
<path d="M1185.43 -222.452C1154.29 -190.382 1142.22 -144.148 1158.36 -102.748C1180.85 -45.0624 1249.61 -18.6082 1311.93 -43.665" stroke="#EAC2B2" stroke-opacity="0.05" stroke-width="2" stroke-miterlimit="10"/>
<path d="M1021.66 656.916L685.163 527.282" stroke="#EAC2B2" stroke-opacity="0.05" stroke-width="2" stroke-miterlimit="10"/>
<path d="M1014.3 467.181C976.768 482.286 957.327 522.718 970.87 557.491C971.228 558.408 971.605 559.311 971.999 560.206" stroke="#EAC2B2" stroke-opacity="0.05" stroke-width="2" stroke-miterlimit="10"/>
<path d="M769.756 477.914C796.22 459.06 808.183 425.751 796.769 396.452C796.411 395.532 796.032 394.626 795.639 393.733" stroke="#EAC2B2" stroke-opacity="0.05" stroke-width="2" stroke-miterlimit="10"/>
<path d="M1594.06 151.516C1620.52 132.662 1632.49 99.3523 1621.07 70.0533C1620.72 69.1336 1620.34 68.2277 1619.94 67.3355" stroke="#EAC2B2" stroke-opacity="0.05" stroke-width="2" stroke-miterlimit="10"/>
<path d="M1038.07 582.565L647.296 432.064" stroke="#EAC2B2" stroke-opacity="0.05" stroke-width="2" stroke-miterlimit="10"/>
<path d="M1051.49 502.383C1027.66 514.972 1015.96 542.263 1025.2 565.966C1028.17 573.61 1032.99 580.01 1039.02 584.927" stroke="#EAC2B2" stroke-opacity="0.05" stroke-width="2" stroke-miterlimit="10"/>
<path d="M1040.14 584.992C1016.34 597.571 1004.74 624.801 1013.97 648.481C1015.61 652.702 1017.81 656.543 1020.48 659.964" stroke="#EAC2B2" stroke-opacity="0.05" stroke-width="2" stroke-miterlimit="10"/>
<path d="M972.782 558.719C922.038 579.14 895.75 633.808 914.063 680.823C916.513 687.113 919.636 692.947 923.331 698.287" stroke="#EAC2B2" stroke-opacity="0.05" stroke-width="2" stroke-miterlimit="10"/>
<path d="M1276.82 558.406C1267.94 535.613 1241.65 525.484 1217.05 535.385" stroke="#EAC2B2" stroke-opacity="0.05" stroke-width="2" stroke-miterlimit="10"/>
<path d="M1217.04 534.205C1208.2 511.549 1181.18 501.16 1156.68 511C1132.19 520.84 1119.5 547.184 1128.34 569.84" stroke="#EAC2B2" stroke-opacity="0.05" stroke-width="2" stroke-miterlimit="10"/>
<path d="M1129.32 569.838C1104.71 579.74 1092.29 606.118 1101.17 628.914" stroke="#EAC2B2" stroke-opacity="0.05" stroke-width="2" stroke-miterlimit="10"/>
<path d="M1014.32 466.435C1003.84 446.941 978.846 438.565 956.045 447.736C952.111 449.318 948.48 451.329 945.196 453.681" stroke="#EAC2B2" stroke-opacity="0.05" stroke-width="2" stroke-miterlimit="10"/>
<path d="M945.199 452.611C944.845 448.867 943.983 445.134 942.566 441.497C933.705 418.747 906.618 408.313 882.064 418.195C878.119 419.782 874.485 421.799 871.191 424.157" stroke="#EAC2B2" stroke-opacity="0.05" stroke-width="2" stroke-miterlimit="10"/>
<path d="M871.188 422.983C870.907 418.881 870.019 414.787 868.468 410.805C859.61 388.063 832.535 377.635 807.988 387.513C802.598 389.682 797.779 392.649 793.632 396.201" stroke="#EAC2B2" stroke-opacity="0.05" stroke-width="2" stroke-miterlimit="10"/>
<path d="M712.936 597.27C762.689 577.246 788.469 523.638 770.512 477.534" stroke="#EAC2B2" stroke-opacity="0.05" stroke-width="2" stroke-miterlimit="10"/>
<path d="M794.005 393.135C825.141 361.065 837.212 314.831 821.07 273.432C798.578 215.745 729.821 189.292 667.498 214.348" stroke="#EAC2B2" stroke-opacity="0.05" stroke-width="2" stroke-miterlimit="10"/>
<path d="M1357 525.738L1515 197.091" stroke="#EAC2B2" stroke-opacity="0.05" stroke-width="2" stroke-miterlimit="10"/>
<path d="M1233.72 380.736C1271.25 365.632 1312.65 381.577 1326.19 416.35C1326.55 417.268 1326.89 418.187 1327.2 419.115" stroke="#EAC2B2" stroke-opacity="0.05" stroke-width="2" stroke-miterlimit="10"/>
<path d="M1418.34 220.768C1386.35 225.435 1355.19 209.476 1343.78 180.177C1343.42 179.257 1343.08 178.335 1342.77 177.409" stroke="#EAC2B2" stroke-opacity="0.05" stroke-width="2" stroke-miterlimit="10"/>
<path d="M1294.01 483.082L1477.53 101.453" stroke="#EAC2B2" stroke-opacity="0.05" stroke-width="2" stroke-miterlimit="10"/>
<path d="M1230.65 431.717C1256.5 424.319 1283.42 436.077 1292.66 459.781C1295.64 467.424 1296.44 475.439 1295.36 483.215" stroke="#EAC2B2" stroke-opacity="0.05" stroke-width="2" stroke-miterlimit="10"/>
<path d="M1295.45 484.18C1321.27 476.79 1348.07 488.573 1357.29 512.253C1358.94 516.475 1359.92 520.807 1360.28 525.153" stroke="#EAC2B2" stroke-opacity="0.05" stroke-width="2" stroke-miterlimit="10"/>
<path d="M1326.91 419.085C1377.66 398.663 1433.64 420.223 1451.95 467.238C1454.4 473.527 1456.05 479.954 1456.95 486.418" stroke="#EAC2B2" stroke-opacity="0.05" stroke-width="2" stroke-miterlimit="10"/>
<path d="M1232.6 380.352C1227.11 358.851 1239.68 335.366 1262.48 326.195C1266.41 324.612 1270.41 323.552 1274.39 322.983" stroke="#EAC2B2" stroke-opacity="0.05" stroke-width="2" stroke-miterlimit="10"/>
<path d="M1273.43 322.984C1271.16 320.008 1269.28 316.688 1267.86 313.05C1259 290.3 1271.72 263.845 1296.27 253.964C1300.22 252.376 1304.22 251.317 1308.21 250.744" stroke="#EAC2B2" stroke-opacity="0.05" stroke-width="2" stroke-miterlimit="10"/>
<path d="M1307.09 250.745C1304.53 247.559 1302.42 243.957 1300.87 239.975C1292.01 217.233 1304.73 190.79 1329.27 180.913C1334.67 178.743 1340.18 177.552 1345.59 177.257" stroke="#EAC2B2" stroke-opacity="0.05" stroke-width="2" stroke-miterlimit="10"/>
<path d="M1541.26 268.695C1491.51 288.719 1436.61 267.579 1418.66 221.475" stroke="#EAC2B2" stroke-opacity="0.05" stroke-width="2" stroke-miterlimit="10"/>
<path d="M1342.02 176.052C1297.7 174.318 1257.73 149.004 1241.59 107.605C1219.1 49.9172 1251.38 -17.1591 1313.71 -42.2159" stroke="#EAC2B2" stroke-opacity="0.05" stroke-width="2" stroke-miterlimit="10"/>
<path d="M391.891 551.766L200.772 478.035L248.26 378.874L146.675 339.595L236.182 153.294" stroke="#EAC2B2" stroke-opacity="0.05" stroke-width="2" stroke-miterlimit="10"/>
<path d="M515.762 503.445L605.269 317.145L503.654 277.794L551.171 178.704L360.053 104.974" stroke="#EAC2B2" stroke-opacity="0.05" stroke-width="2" stroke-miterlimit="10"/>
<path d="M1777.92 223.137L1471.67 105.191" stroke="#EAC2B2" stroke-opacity="0.05" stroke-width="2" stroke-miterlimit="10"/>
</g>
</svg>
