<svg width="38" height="12" viewBox="0 0 38 12" fill="none" xmlns="http://www.w3.org/2000/svg">
<path d="M1 5.25C0.585786 5.25 0.25 5.58579 0.25 6C0.25 6.41421 0.585786 6.75 1 6.75L1 5.25ZM37.5303 6.53033C37.8232 6.23744 37.8232 5.76257 37.5303 5.46967L32.7574 0.696702C32.4645 0.403808 31.9896 0.403808 31.6967 0.696702C31.4038 0.989595 31.4038 1.46447 31.6967 1.75736L35.9393 6L31.6967 10.2426C31.4038 10.5355 31.4038 11.0104 31.6967 11.3033C31.9896 11.5962 32.4645 11.5962 32.7574 11.3033L37.5303 6.53033ZM1 6.75L37 6.75L37 5.25L1 5.25L1 6.75Z" fill="#FFFCF8"/>
</svg>
