<svg width="38" height="12" viewBox="0 0 38 12" fill="none" xmlns="http://www.w3.org/2000/svg">
<path d="M37 5.25C37.4142 5.25 37.75 5.58579 37.75 6C37.75 6.41421 37.4142 6.75 37 6.75L37 5.25ZM0.469669 6.53033C0.176777 6.23744 0.176777 5.76257 0.469669 5.46967L5.24264 0.696702C5.53553 0.403808 6.01041 0.403808 6.3033 0.696702C6.59619 0.989595 6.59619 1.46447 6.3033 1.75736L2.06066 6L6.3033 10.2426C6.59619 10.5355 6.59619 11.0104 6.3033 11.3033C6.01041 11.5962 5.53553 11.5962 5.24264 11.3033L0.469669 6.53033ZM37 6.75L1 6.75L1 5.25L37 5.25L37 6.75Z" fill="#FFFCF8"/>
</svg>
