<svg width="31" height="10" viewBox="0 0 31 10" fill="none" xmlns="http://www.w3.org/2000/svg">
<path d="M28.483 0.148438H26.6022C26.0141 0.148438 25.5716 0.309219 25.3212 0.877696L21.7109 8.96845H24.273C24.273 8.96845 24.6981 7.88317 24.7855 7.65348H27.9066C27.9823 7.95782 28.2035 8.96845 28.2035 8.96845H30.4687L28.483 0.148438ZM25.4842 5.84469C25.6822 5.33938 26.4392 3.36981 26.4392 3.36981C26.4392 3.36981 26.6488 2.85301 26.7711 2.53719L26.9341 3.29516C26.9341 3.29516 27.4058 5.3968 27.499 5.84469H25.4842Z" fill="white"/>
<path d="M18.4642 2.60121C18.4584 3.00891 18.9883 3.28453 19.8385 3.69223C21.2418 4.32387 21.894 5.08184 21.8765 6.09247C21.8648 7.92423 20.1995 9.10712 17.6432 9.10712C16.5485 9.09563 15.5003 8.87743 14.9297 8.63626L15.2732 6.66094L15.5819 6.79876C16.3796 7.12606 16.9037 7.26387 17.8761 7.26387C18.5749 7.26387 19.326 6.99399 19.3377 6.40254C19.3435 6.01208 19.0174 5.73645 18.0741 5.30579C17.1424 4.88661 15.9196 4.18032 15.9371 2.91703C15.9487 1.20586 17.649 0 20.0539 0C20.9972 0 21.76 0.195234 22.2375 0.373242L21.9056 2.27965L21.6843 2.18203C21.2302 2.00402 20.6537 1.8375 19.8559 1.84324C18.9068 1.8375 18.4642 2.23371 18.4642 2.60121Z" fill="white"/>
<path d="M14.9167 0.155273L13.3969 8.96954H10.9629L11.2599 7.25836L11.7432 4.44469L12.4769 0.161016L14.9167 0.155273Z" fill="white"/>
<path d="M6.1714 4.69692C5.35618 2.65844 3.4113 0.964493 0.470703 0.263946L0.49982 0.0859375H4.27893C4.79135 0.108906 5.20478 0.263945 5.34454 0.803712L6.1714 4.69692Z" fill="white"/>
<path d="M11.4931 0.166016L7.65579 8.96305H5.08205L2.89844 1.61305C4.46481 2.60645 5.79828 4.17981 6.26994 5.27082L6.52615 6.18383L8.91355 0.166016H11.4931Z" fill="white"/>
</svg>
