<svg width="46" height="46" viewBox="0 0 46 46" fill="none" xmlns="http://www.w3.org/2000/svg">
<g clip-path="url(#clip0_2192_144633)">
<path d="M30.3156 28.0615H28.9836V27.2623C28.9836 26.8361 29.1967 26.623 29.623 26.623H29.6762C30.1025 26.623 30.3156 26.8361 30.3156 27.2623V28.0615ZM25.2541 26.3566C24.8279 26.3566 24.6148 26.5342 24.6148 26.8894V30.6721C24.6148 31.0273 24.8279 31.2049 25.2541 31.2049C25.6803 31.2049 25.8934 31.0273 25.8934 30.6721V26.8894C25.8934 26.5342 25.6803 26.3566 25.2541 26.3566ZM33.459 24.2254V31.4713C33.459 32.3593 33.1305 33.1052 32.4734 33.709C31.8163 34.3129 31.026 34.6148 30.1025 34.6148H16.3566C15.4331 34.6148 14.6428 34.3129 13.9857 33.709C13.3286 33.1052 13 32.3593 13 31.4713V24.2254C13 23.373 13.3286 22.6359 13.9857 22.0144C14.6428 21.3928 15.4331 21.082 16.3566 21.082H30.1025C31.026 21.082 31.8163 21.3928 32.4734 22.0144C33.1305 22.6359 33.459 23.373 33.459 24.2254ZM17.2623 32.2705V24.6516H18.9672V23.5328L14.4385 23.4795V24.5984H15.8238V32.2705H17.2623ZM22.377 25.7705H20.9385V30.832C20.8675 31.0096 20.7432 31.125 20.5656 31.1783C20.388 31.2316 20.2459 31.1339 20.1393 30.8853V29.873L20.0861 25.7705H18.7008V31.0984C18.7719 31.7022 18.8962 32.0574 19.0738 32.1639C19.3934 32.3771 19.793 32.3859 20.2725 32.1906C20.752 31.9952 21.0806 31.7377 21.2582 31.418V32.2705H22.377V25.7705ZM26.9057 30.459V27.0492C26.9057 26.3743 26.6926 25.9126 26.2664 25.6639C25.8402 25.4153 25.3074 25.5396 24.668 26.0369V23.5328H23.2295V32.2172H24.4016L24.5082 31.6312C25.2541 32.2705 25.849 32.4481 26.293 32.1639C26.737 31.8798 26.9413 31.3115 26.9057 30.459ZM31.3811 29.9795H30.3156V30.7254C30.3156 31.1161 30.1202 31.3115 29.7295 31.3115H29.5164C29.1257 31.3115 28.9303 31.1161 28.9303 30.7254V29.1803H31.3811V28.2746C31.3811 27.3511 31.3634 26.765 31.3279 26.5164C31.2213 25.9481 30.8395 25.5929 30.1824 25.4508C29.5253 25.3088 28.9836 25.3976 28.5574 25.7172C28.2732 25.9659 28.0779 26.2323 27.9713 26.5164C27.8648 26.8716 27.8115 27.3511 27.8115 27.9549V29.9795C27.8115 31.2937 28.3087 32.0574 29.3033 32.2705C30.1557 32.4481 30.7773 32.1639 31.168 31.418C31.4167 31.0273 31.4877 30.5478 31.3811 29.9795ZM25.8934 19.0041C25.9645 19.1817 26.0888 19.3238 26.2664 19.4303C26.4085 19.5369 26.6038 19.5902 26.8525 19.5902C27.0656 19.5902 27.2432 19.5369 27.3852 19.4303C27.5273 19.3238 27.6516 19.1639 27.7582 18.9508V19.4836H29.3566V12.7172H28.0779V17.9918C28.0779 18.347 27.9003 18.5246 27.5451 18.5246C27.2254 18.5246 27.0656 18.347 27.0656 17.9918V12.7172H25.7336V17.2992C25.7336 17.9385 25.7514 18.3292 25.7869 18.4713C25.7869 18.6134 25.8224 18.791 25.8934 19.0041ZM21.0984 15.2213C21.0984 14.582 21.1516 14.0669 21.2582 13.6762C21.3648 13.3566 21.5601 13.0724 21.8443 12.8238C22.1284 12.6107 22.4836 12.5041 22.9098 12.5041C23.3005 12.5041 23.6202 12.5751 23.8689 12.7172C24.1175 12.8238 24.3128 13.0014 24.4549 13.25C24.597 13.4276 24.7036 13.6585 24.7746 13.9426C24.8101 14.1202 24.8279 14.4932 24.8279 15.0615V16.7664C24.8279 17.4768 24.8101 17.9385 24.7746 18.1516C24.7391 18.4003 24.6325 18.6667 24.4549 18.9508C24.3484 19.1284 24.153 19.3238 23.8689 19.5369C23.5847 19.6435 23.3005 19.6967 23.0164 19.6967C22.6612 19.6967 22.3415 19.6435 22.0574 19.5369C21.8087 19.4303 21.6134 19.2705 21.4713 19.0574C21.3292 18.7732 21.2404 18.5246 21.2049 18.3115C21.1339 17.9563 21.0984 17.5123 21.0984 16.9795V15.2213ZM22.3238 17.8853C22.3238 18.0629 22.3859 18.2227 22.5102 18.3648C22.6346 18.5068 22.7855 18.5779 22.9631 18.5779C23.3893 18.5779 23.6025 18.347 23.6025 17.8853V14.3156C23.6025 13.8538 23.3893 13.623 22.9631 13.623C22.5369 13.623 22.3238 13.8538 22.3238 14.3156V17.8853ZM17.9549 19.6967H19.4467V14.5287L21.2049 10.1066H19.6066L18.6475 13.4098L17.6885 10.1066H16.0902L17.9549 14.5287V19.6967Z" fill="#29354D"/>
</g>
<rect x="1" y="1" width="43" height="43" stroke="#29354D" stroke-width="2"/>
<defs>
<clipPath id="clip0_2192_144633">
<rect width="20.459" height="26" fill="white" transform="translate(13 10)"/>
</clipPath>
</defs>
</svg>
