<svg width="142" height="41" viewBox="0 0 142 41" fill="none" xmlns="http://www.w3.org/2000/svg">
<mask id="mask0_1067_313077" style="mask-type:luminance" maskUnits="userSpaceOnUse" x="9" y="7" width="122" height="28">
<path d="M130.634 7.57422H9.46094V34.0809H130.634V7.57422Z" fill="white"/>
</mask>
<g mask="url(#mask0_1067_313077)">
<path d="M115.922 20.9027C115.922 17.6514 113.423 15.0215 109.893 15.0215C106.433 15.0215 103.969 17.5504 103.969 21.0252C103.969 24.5175 106.502 27.0638 110.138 27.0638C112.444 27.0638 114.384 26.0483 115.59 23.9841L113.143 22.8658C112.567 23.8979 111.308 24.5689 110.138 24.5689C108.652 24.5689 106.94 23.468 106.835 21.9372H115.834C115.892 21.5953 115.921 21.2492 115.922 20.9027ZM106.887 19.9087C107.097 18.3605 108.18 17.3458 109.91 17.3458C111.623 17.3458 112.671 18.3398 112.811 19.9087H106.887Z" fill="#1B1818"/>
<path d="M82.2356 15.0195C78.6879 15.0195 76.1719 17.5319 76.1719 21.0755C76.1719 24.5843 78.6879 27.0618 82.2709 27.0618C85.8708 27.0618 88.3868 24.5843 88.3868 21.1268C88.3868 17.5658 85.8009 15.0195 82.2356 15.0195ZM82.2709 24.4294C80.4878 24.4294 79.3872 23.1223 79.3872 21.092C79.3872 19.0278 80.5055 17.6172 82.2709 17.6172C84.0532 17.6172 85.1715 19.0104 85.1715 21.092C85.1715 23.1397 84.0709 24.4294 82.2709 24.4294Z" fill="#1B1818"/>
<path d="M69.5964 15.0217C68.1431 15.0217 67.0484 15.5104 65.9536 16.7222H65.5943C64.8588 15.628 63.6589 15.0217 62.3125 15.0217C61.6402 15.0152 60.9761 15.166 60.3746 15.4617C59.7733 15.7574 59.2517 16.1893 58.8532 16.7222H58.4939L58.4762 16.7057V15.2578H55.4688V26.808H58.7186V20.8639C58.7186 18.9447 59.5398 17.8165 60.9594 17.8165C62.2763 17.8165 63.1313 18.7765 63.1313 20.241V26.808H66.3979V20.8639C66.3979 18.9587 67.2192 17.8165 68.6564 17.8165C69.9557 17.8165 70.7938 18.7765 70.7938 20.2584V26.808H74.0613V19.8707C74.0613 16.8573 72.4187 15.0217 69.5964 15.0217Z" fill="#1B1818"/>
<path d="M123.168 22.8028H122.935C122.935 22.5974 121.518 18.9395 120.589 16.6731L120.009 15.2559H116.734L121.379 26.8467L119.549 31.2634H122.801L129.49 15.26H126.214L125.679 16.4719L123.868 20.8844C123.357 22.1169 123.147 22.6885 123.168 22.8028Z" fill="#1B1818"/>
<path d="M97.4028 15.0234C95.9487 15.0234 94.7 15.6463 93.8618 16.758H93.5194L93.4857 16.7414V15.2595H90.4766V26.8098H93.7264V20.8996C93.7264 19.0143 94.652 17.8348 96.1725 17.8348C97.5921 17.8348 98.6356 18.8785 98.6356 20.5285V26.809H101.885V19.8394C101.885 17.0106 100.004 15.0234 97.4028 15.0234Z" fill="#1B1818"/>
<path d="M33.3978 8.40039C26.3765 8.40039 20.7344 13.9916 20.7344 20.8254C20.7344 27.7155 26.432 33.2504 33.3961 33.2504C40.3602 33.2504 46.063 27.6591 46.063 20.8254C46.063 13.9916 40.3619 8.40039 33.3978 8.40039ZM33.3978 25.4566C30.8078 25.4566 28.6788 23.3667 28.6788 20.8254C28.6788 18.2841 30.8078 16.1942 33.3978 16.1942C35.9879 16.1942 38.1177 18.2841 38.1177 20.8254C38.0596 23.3667 35.9879 25.4566 33.3978 25.4566Z" fill="#8B3FFD"/>
<path d="M20.7425 12.0098V30.0823H16.2557L10.5 12.0098H20.7425Z" fill="#8B3FFD"/>
</g>
</svg>
